<?xml version="1.0" encoding="utf-8"?>
<!-- Generator: Adobe Illustrator 25.0.0, SVG Export Plug-In . SVG Version: 6.00 Build 0)  -->
<svg version="1.1"
	 id="svg2" xmlns:cc="http://creativecommons.org/ns#" xmlns:dc="http://purl.org/dc/elements/1.1/" xmlns:inkscape="http://www.inkscape.org/namespaces/inkscape" xmlns:rdf="http://www.w3.org/1999/02/22-rdf-syntax-ns#" xmlns:sodipodi="http://sodipodi.sourceforge.net/DTD/sodipodi-0.dtd" xmlns:svg="http://www.w3.org/2000/svg"
	 xmlns="http://www.w3.org/2000/svg" xmlns:xlink="http://www.w3.org/1999/xlink" x="0px" y="0px" viewBox="0 0 791 181.9"
	 style="enable-background:new 0 0 791 181.9;" xml:space="preserve">
<style type="text/css">
	.st0{clip-path:url(#SVGID_2_);}
	.st1{fill:#FFFFFF;}
	.st2{fill:none;stroke:#FFFFFF;stroke-width:12;stroke-miterlimit:13.3333;}
	.st3{clip-path:url(#SVGID_4_);}
	.st4{fill:#1D1D1B;}
	.st5{fill:none;stroke:#1D1D1B;stroke-width:1.3333;stroke-miterlimit:13.3333;}
	.st6{fill:none;stroke:#D01317;stroke-width:13.3333;stroke-miterlimit:13.3333;}
	.st7{fill:none;stroke:#D01317;stroke-width:12.6667;stroke-miterlimit:13.3333;}
	.st8{fill:#BBBBB5;}
	.st9{fill:none;stroke:#BBBBB5;stroke-width:2.6667;stroke-miterlimit:13.3333;}
	.st10{fill:none;}
	.st11{enable-background:new    ;}
</style>
<sodipodi:namedview  bordercolor="#666666" borderopacity="1" gridtolerance="10" guidetolerance="10" id="namedview4" inkscape:current-layer="g10" inkscape:cx="401.31043" inkscape:cy="126.43709" inkscape:pageopacity="0" inkscape:pageshadow="2" inkscape:window-height="1048" inkscape:window-maximized="1" inkscape:window-width="1920" inkscape:window-x="0" inkscape:window-y="0" inkscape:zoom="0.89236111" objecttolerance="10" pagecolor="#ffffff" showgrid="false">
	</sodipodi:namedview>
<g>
	<g>
		<defs>
			<rect id="SVGID_1_" x="-314.8" y="-322.5" width="1433.3" height="864"/>
		</defs>
		<clipPath id="SVGID_2_">
			<use xlink:href="#SVGID_1_"  style="overflow:visible;"/>
		</clipPath>
		<g id="g16" class="st0">
			<g id="g22" transform="translate(368.0684,346.0493)">
				<path id="path24" class="st1" d="M-192.1-266c6,46.5-27.1,89.1-73.8,95.1s-89.5-26.9-95.4-73.4c-6-46.5,27.1-89.1,73.8-95.1
					C-240.8-345.3-198.1-312.5-192.1-266"/>
			</g>
			<g id="g26" transform="translate(368.0684,346.0493)">
				<path id="path28" class="st2" d="M-192.1-266c6,46.5-27.1,89.1-73.8,95.1s-89.5-26.9-95.4-73.4c-6-46.5,27.1-89.1,73.8-95.1
					C-240.8-345.3-198.1-312.5-192.1-266z"/>
			</g>
			<g id="g30">
				<g id="g32">
				</g>
				<g id="g44">
					<g>
						<g>
							<defs>
								<rect id="SVGID_3_" x="31.4" y="39" width="115.9" height="96"/>
							</defs>
							<clipPath id="SVGID_4_">
								<use xlink:href="#SVGID_3_"  style="overflow:visible;"/>
							</clipPath>
							<g id="g42" class="st3">
								<g id="g40" transform="translate(259.876,314.5039)">
									<path id="path38" class="st4" d="M-228.2-192.4c0,0,0.4,4.2,13.1,2.4c0,0,7.2,0.5,29.8-8.9l26.2,18.9c0,0,2.1,1.4,6.7-1.3
										l0.5-0.3l-9.7-17.1l3.7-10.6c0,0,19.1-6.9,32.1-14.1l2.9,3.7c0,0,1.9,1.9,3.8-0.7l2.7-11.8c0,0,3.4-2.4,2.9-3.5
										c0,0-0.9-1.9-2.1-1.3l2.9-14.2c0,0-3.5-2.6-7,2.4l-4.3,8.5l-6-10.7c0,0-2.1,0.7-2.9,3.5l1.9,13.8
										c-17.1,4.2-17.1,4.2-23.4,6l2.7-10.5l19.8-36.9l-4.3-0.5c0,0-2.2,0-3.6,2l-47,57.5c0,0-20,6.7-20.9,7.2
										c0,0-1.8,0.2-3.7,0.6c0,0-6.3,0.7-10.4,5.6c0,0-4.4,5.1-5.8,6.3C-227.3-196.2-229.1-194-228.2-192.4"/>
								</g>
							</g>
						</g>
					</g>
				</g>
			</g>
			<g id="g46" transform="translate(341.3623,356.7563)">
				<path id="path48" class="st5" d="M-201-290.9l-4.3,8.5l-6-10.7c0,0-2.1,0.7-2.9,3.5l1.9,13.8c-17.1,4.2-17.1,4.2-23.4,6
					l2.7-10.5l19.8-36.9l-4.3-0.5c0,0-2.2,0-3.6,2l-47,57.5c0,0-20,6.7-20.9,7.2c0,0-1.8,0.2-3.7,0.6c0,0-6.3,0.7-10.4,5.6
					c0,0-4.4,5.1-5.8,6.3c0,0-1.8,2.2-0.9,3.9c0,0,0.4,4.2,13.1,2.4c0,0,7.2,0.5,29.8-8.9l26.2,18.9c0,0,2.1,1.4,6.7-1.3l0.5-0.3
					l-9.7-17.1l3.7-10.6c0,0,19.1-6.9,32.1-14.1l2.9,3.7c0,0,1.9,1.9,3.8-0.7l2.7-11.8c0,0,3.4-2.4,2.9-3.5c0,0-0.9-1.9-2.1-1.3
					l2.9-14.2C-194-293.3-197.5-295.9-201-290.9z"/>
			</g>
			<g id="g50" transform="translate(365.3613,345.7031)">
				<path id="path52" class="st6" d="M-193-265.2c5.7,44.5-25.9,85.3-70.7,91s-85.7-25.7-91.4-70.3c-5.7-44.5,25.9-85.3,70.7-91
					C-239.6-341.1-198.7-309.7-193-265.2z"/>
			</g>
			<g id="g54" transform="translate(256.1064,375.0752)">
				<path id="path56" class="st7" d="M-229.4-333.7l127.3,101.6"/>
			</g>
		</g>
	</g>
</g>
<path id="path58" class="st8" d="M393.8,52.9H227v-44h166.8V52.9z"/>
<g id="text74" transform="matrix(1,0,0,-1,695.6323,376.8867)">
	<path id="path926" class="st8" d="M-62.1,355.7h-8.2v5.5c0,1.6-0.1,2.6-0.3,3c-0.2,0.4-0.6,0.6-1.2,0.6c-0.7,0-1.1-0.2-1.3-0.7
		c-0.2-0.5-0.3-1.5-0.3-3.1v-14.7c0-1.5,0.1-2.5,0.3-3c0.2-0.5,0.6-0.7,1.2-0.7s1,0.2,1.2,0.7s0.3,1.6,0.3,3.3v4h8.2v-1.2
		c0-3.3-0.2-5.6-0.7-7s-1.5-2.6-3.1-3.6s-3.5-1.5-5.8-1.5c-2.4,0-4.4,0.4-6,1.3s-2.6,2.1-3.1,3.6s-0.8,3.9-0.8,7v9.2
		c0,2.3,0.1,4,0.2,5.1c0.2,1.1,0.6,2.2,1.4,3.3c0.8,1.1,1.9,1.9,3.2,2.5c1.4,0.6,3,0.9,4.7,0.9c2.4,0,4.4-0.5,6-1.4s2.6-2.1,3.1-3.5
		s0.7-3.6,0.7-6.5v-3.1H-62.1z"/>
	<path id="path928" class="st8" d="M-37.9,351c0-3.2-0.1-5.4-0.2-6.8c-0.1-1.3-0.6-2.5-1.4-3.6c-0.8-1.1-1.8-1.9-3.2-2.5
		c-1.3-0.6-2.9-0.9-4.7-0.9c-1.7,0-3.2,0.3-4.6,0.8c-1.3,0.6-2.4,1.4-3.2,2.5s-1.3,2.3-1.5,3.6c-0.2,1.3-0.2,3.6-0.2,6.8v5.4
		c0,3.2,0.1,5.4,0.2,6.7c0.2,1.3,0.6,2.5,1.4,3.6c0.8,1.1,1.9,1.9,3.2,2.5s2.9,0.9,4.7,0.9c1.7,0,3.2-0.3,4.6-0.8
		c1.4-0.5,2.4-1.4,3.3-2.5c0.8-1.1,1.3-2.3,1.5-3.6c0.2-1.3,0.2-3.6,0.2-6.8L-37.9,351L-37.9,351z M-46.1,361.4
		c0,1.5-0.1,2.4-0.3,2.8s-0.5,0.6-1,0.6c-0.4,0-0.8-0.2-1-0.5s-0.3-1.3-0.3-2.9v-14.8c0-1.8,0.1-3,0.2-3.4c0.2-0.4,0.5-0.6,1.1-0.6
		s0.9,0.2,1.1,0.7c0.2,0.5,0.2,1.7,0.2,3.5V361.4z"/>
	<path id="path930" class="st8" d="M-12.9,369.5l-4.2-31.6h-12.5l-4.7,31.6h8.7c1-8.7,1.7-16.1,2.1-22.1c0.4,6.1,0.9,11.5,1.3,16.2
		l0.6,5.9H-12.9z"/>
	<path id="path932" class="st8" d="M-0.9,369.5v-31.6h-8.2v31.6H-0.9z"/>
	<path id="path934" class="st8" d="M4.8,369.5H11c4,0,6.7-0.2,8-0.5c1.4-0.4,2.5-1,3.2-1.8s1.2-1.8,1.4-2.8c0.2-1,0.3-3,0.3-6v-11.1
		c0-2.8-0.1-4.7-0.4-5.7s-0.7-1.7-1.4-2.2c-0.7-0.5-1.5-0.9-2.5-1.1s-2.4-0.3-4.4-0.3H4.8V369.5z M13,364.1v-20.8
		c1.2,0,1.9,0.2,2.2,0.7s0.4,1.8,0.4,3.9v12.3c0,1.4,0,2.4-0.1,2.8s-0.3,0.7-0.6,0.9C14.5,364,13.9,364.1,13,364.1z"/>
	<path id="path936" class="st8" d="M38.7,353.6v-5.4H28.4v5.4H38.7z"/>
	<path id="path938" class="st8" d="M55.4,369.5v-31.6h-7.9v17c0,2.4-0.1,3.9-0.2,4.4c-0.1,0.5-0.4,0.9-1,1.1
		c-0.5,0.3-1.7,0.4-3.5,0.4H42v3.7c3.8,0.8,6.7,2.5,8.7,5.1h4.7V369.5z"/>
	<path id="path940" class="st8" d="M60.9,346.3h7.9c0-1.5,0-2.4,0.1-2.8c0-0.4,0.2-0.7,0.5-1s0.7-0.4,1.2-0.4c0.4,0,0.7,0.1,1,0.4
		c0.3,0.2,0.4,0.6,0.4,1s0.1,1.2,0.1,2.4v5c-0.4-0.8-1-1.5-1.8-1.9s-1.8-0.6-2.9-0.6c-1.4,0-2.7,0.4-3.8,1.2
		c-1.1,0.8-1.8,1.7-2.1,2.8c-0.3,1.1-0.4,2.6-0.4,4.4v2.5c0,2.2,0.1,3.9,0.3,4.9c0.2,1.1,0.6,2.1,1.4,3c0.7,0.9,1.7,1.6,3,2.1
		s2.8,0.8,4.5,0.8c2.1,0,3.8-0.3,5.2-0.9c1.4-0.6,2.4-1.4,3.1-2.5s1.2-2.2,1.3-3.5s0.2-3.6,0.2-7v-4.4c0-3.8-0.1-6.3-0.2-7.6
		c-0.1-1.3-0.6-2.5-1.4-3.6s-1.9-2-3.2-2.6c-1.4-0.6-2.9-0.8-4.7-0.8c-2.2,0-4,0.4-5.5,1.1c-1.4,0.7-2.4,1.7-3,3
		C61.2,342.7,60.9,344.3,60.9,346.3L60.9,346.3z M68.7,356.2c0-1.3,0.2-2.1,0.5-2.5c0.4-0.3,0.7-0.5,1.1-0.5c0.5,0,0.9,0.2,1.2,0.6
		c0.3,0.4,0.4,1.2,0.4,2.3v5.7c0,1.4-0.1,2.3-0.4,2.7c-0.2,0.4-0.6,0.6-1.2,0.6c-0.3,0-0.7-0.2-1.1-0.5s-0.5-1.2-0.5-2.7V356.2z"/>
</g>
<g id="g76" transform="translate(406.3329,366.2685)">
	<path id="path78" class="st8" d="M-179.3-313.1h564H-179.3z"/>
</g>
<g id="g80" transform="translate(406.333,366.2686)">
	<path id="path82" class="st9" d="M-179.3-313.1h564"/>
</g>
<g>
	<path class="st1" d="M257.5,94.7h-1.9l-1.5-5.1h-5.3l-1.5,5.1h-1.9l6.1-18.7L257.5,94.7z M249.2,88.1h4.4l-2.2-7L249.2,88.1z"/>
	<path class="st1" d="M287.5,80.5c-1.1-0.9-2.3-1.9-3.7-1.9c-1.5,0-2.8,1.1-2.8,2.6c0,0.9,0.2,1.7,2.5,3.1l1.4,0.8
		c3.2,1.9,4,2.9,4,4.9c0,3.1-2.1,4.9-5.1,4.9c-2.2,0-3.9-1.1-5.2-2.8L280,91c0.8,1.3,2.2,2.4,3.8,2.4c1.8,0,3.3-1.3,3.3-3.2
		c0-1.4-0.1-1.9-3.1-3.7l-1.6-0.9c-1.7-1-3.2-2.2-3.2-4.3c0-2.7,2.1-4.3,4.7-4.3c1.8,0,3.5,1,4.8,2.2L287.5,80.5z"/>
	<path class="st1" d="M302,83.3h-4.6v7.3c0,1.2,0,2.8,1.7,2.8c1.4,0,2.2-1.1,2.7-2.3l1.7,0.4c-0.9,1.8-2.3,3.3-4.5,3.3
		c-2.1,0-3.4-1-3.4-4.8v-6.7h-2.8v-1.5h2.8v-3.9h1.8v3.9h4.6L302,83.3L302,83.3z"/>
	<path class="st1" d="M308.7,82.4c1.2-0.5,2.4-0.9,3.7-0.9c2.4,0,3.9,2,3.9,4.2v5.6c0,1.2,0.2,2.4,0.6,3.5l-1.7,0.2l-0.5-1.6
		c-0.9,1-1.8,1.6-3.2,1.6c-2.4,0-3.8-1.9-3.8-4.2c0-2.5,1.5-4.6,4.1-4.6c1,0,1.9,0.3,2.7,0.6v-1.2c0-1.4-0.9-2.4-2.2-2.4
		c-1.1,0-2.2,0.5-3.2,1L308.7,82.4z M314.5,88.2c-0.8-0.3-1.6-0.6-2.4-0.6c-1.8,0-2.5,1.6-2.5,3.2c0,1.2,0.6,2.6,2,2.6
		s2.2-1.2,3-2.2v-3H314.5z"/>
	<path class="st1" d="M330.8,83.3h-4.6v7.3c0,1.2,0,2.8,1.7,2.8c1.4,0,2.2-1.1,2.7-2.3l1.7,0.4c-0.9,1.8-2.3,3.3-4.5,3.3
		c-2.1,0-3.4-1-3.4-4.8v-6.7h-2.8v-1.5h2.8v-3.9h1.8v3.9h4.6L330.8,83.3L330.8,83.3z"/>
	<path class="st1" d="M338,88.7c0.1,3.5,1.7,4.7,3.6,4.7c1.4,0,2.8-0.6,4-1.4l0.8,1.6c-1.6,0.7-3.1,1.3-4.9,1.3
		c-3.8,0-5.3-3.3-5.3-6.6c0-3.4,1.6-6.8,5.4-6.8c4.3,0,4.9,4.8,4.9,6.2v1C346.5,88.7,338,88.7,338,88.7z M344.8,87.2
		c-0.1-2.1-1.3-4.1-3.3-4.1s-3,1.5-3.5,4.1H344.8z"/>
	<path class="st1" d="M368.7,88.3c0-5,2.6-6.7,5.1-6.7c4.5,0,5.1,4.6,5.1,6.7c0,5-2.6,6.7-5.1,6.7C371.5,94.9,368.7,93.4,368.7,88.3
		z M377.1,88.3c0-2.2-0.5-5.2-3.3-5.2s-3.3,3-3.3,5.2s0.5,5.2,3.3,5.2S377.1,90.5,377.1,88.3z"/>
	<path class="st1" d="M393.8,79.8c-1-0.4-2.2-1.2-3.3-1.2c-1.6,0-2.3,1-2.3,2.6v1.4h4.1v1.5h-4.1v10.5h-1.8V84.1h-3.2v-1.5h3.2v-1.2
		c0-3,2.1-4.4,4-4.4c1.2,0,2.3,0.4,3.4,0.9L393.8,79.8L393.8,79.8z"/>
	<path class="st1" d="M425.6,78.9h-7.2V85h5.2v1.5h-5.2v6.6h7.3v1.5h-9.1V77.4h9L425.6,78.9L425.6,78.9z"/>
	<path class="st1" d="M429.4,85.8c0-1.8-0.2-2.9-0.5-4.2h1.8l0.3,1.2c0.8-0.7,1.4-1.2,2.5-1.2c1.2,0,1.5,0.3,2.2,1.2
		c0.7-0.7,1.4-1.2,2.5-1.2c1.7,0,2.8,1.1,2.8,2.9v10.2h-1.8V84.4c0-0.9-0.5-1.3-1.2-1.3c-0.8,0-1.5,0.7-1.9,1.3v10.2h-1.8V84.5
		c0-0.7-0.2-1.5-1-1.5c-0.9,0-1.7,0.8-2.1,1.6v10h-1.8V85.8z"/>
	<path class="st1" d="M446,88.7c0.1,3.5,1.7,4.7,3.6,4.7c1.4,0,2.8-0.6,4-1.4l0.8,1.6c-1.6,0.7-3.1,1.3-4.9,1.3
		c-3.8,0-5.3-3.3-5.3-6.6c0-3.4,1.6-6.8,5.4-6.8c4.3,0,4.9,4.8,4.9,6.2v1C454.5,88.7,446,88.7,446,88.7z M452.8,87.2
		c-0.1-2.1-1.3-4.1-3.3-4.1s-3,1.5-3.5,4.1H452.8z"/>
	<path class="st1" d="M462.1,94.7h-1.8v-7.4c0-2.1-0.2-3.9-0.5-5.5h1.8l0.4,2.4c1-1.5,2.1-2.7,4-2.7c2.4,0,3,2.4,3,4.3h-1.8
		c0-1,0.1-2.8-1.3-2.8c-1.3,0-3.7,2-3.7,6.2v5.5H462.1z"/>
	<path class="st1" d="M483.2,81.6c-0.4,1.6-0.6,3.2-0.6,4.8v7.1c0,4-2.9,5.2-4.8,5.2c-1.5,0-3.1-0.9-4.1-2l1.3-1.1
		c0.7,0.9,1.8,1.6,3,1.6c1.9,0,2.8-1.7,2.8-3.6v-1c-1,0.6-1.8,1.1-3.1,1.1c-3.1,0-4.7-3-4.7-5.8c0-3,1.3-6.2,4.9-6.2
		c1.2,0,2.2,0.4,3.1,1.1l0.3-1.1L483.2,81.6L483.2,81.6z M480.8,84.7c-0.6-0.9-1.7-1.6-2.8-1.6c-2.4,0-3.1,2.5-3.1,4.5
		c0,2.5,1.2,4.5,3,4.5c1.1,0,2.4-0.7,3-1.7v-5.7H480.8z"/>
	<path class="st1" d="M489.2,88.7c0.1,3.5,1.7,4.7,3.6,4.7c1.4,0,2.8-0.6,4-1.4l0.8,1.6c-1.6,0.7-3.1,1.3-4.9,1.3
		c-3.8,0-5.3-3.3-5.3-6.6c0-3.4,1.6-6.8,5.4-6.8c4.3,0,4.9,4.8,4.9,6.2v1C497.7,88.7,489.2,88.7,489.2,88.7z M496,87.2
		c-0.1-2.1-1.3-4.1-3.3-4.1s-3,1.5-3.5,4.1H496z"/>
	<path class="st1" d="M504.2,94.7h-1.8v-6.5c0-2.2-0.1-4.3-0.6-6.4h1.7l0.4,2.4c0.9-1.5,2.6-2.6,4.4-2.6c2,0,3.1,1.9,3.1,4.1v9h-1.8
		v-8.5c0-1.2,0-3.1-1.6-3.1c-1.7,0-3.8,1.7-3.8,6.2L504.2,94.7L504.2,94.7z"/>
	<path class="st1" d="M526.6,92.6C525.3,94,524,95,522,95c-2.4,0-5.5-1.5-5.5-6.6s2.9-6.8,5.5-6.8c2.1,0,3.6,1.2,4.7,2.9l-1.6,1
		c-0.6-1.3-1.6-2.4-3.2-2.4c-1.8,0-3.7,1.3-3.7,5.1c0,4,2.1,5.2,3.7,5.2c1.4,0,2.5-1.1,3.4-2.1L526.6,92.6z"/>
	<path class="st1" d="M541.1,81.8l-4.8,12c-0.7,1.8-1.9,4.7-4.2,4.7c-1.7,0-2.8-1.3-3.3-2.8l1.5-0.8c0.3,0.8,0.8,2.1,1.8,2.1
		s1.6-1.4,1.9-2.2l0.8-1.9l-4.1-11.1h1.9l3.1,8.7l3.3-8.7C539,81.8,541.1,81.8,541.1,81.8z"/>
	<path class="st1" d="M567.5,83.3h-3.6v-1.5h5.4v12.8h-1.8L567.5,83.3L567.5,83.3z M569.9,78.6c0,0.9-0.7,1.5-1.5,1.5
		s-1.5-0.6-1.5-1.5s0.7-1.5,1.5-1.5S569.9,77.7,569.9,78.6z"/>
	<path class="st1" d="M585.7,84.5c-1-0.7-2.1-1.4-3.4-1.4c-1.1,0-2.1,0.8-2.1,1.9c0,1.2,1.5,1.9,2.5,2.2c2,0.7,4.1,1.6,4.1,4.1
		c0,2.1-1.9,3.6-3.9,3.6c-1.9,0-3.9-1-5.3-2.2l1-1.4c1,1.1,2.7,2.2,4.2,2.2c1.2,0,2.2-0.7,2.2-2c0-1.7-1.3-2.1-2.7-2.6
		c-1.8-0.7-3.9-1.6-3.9-3.9c0-1.9,1.7-3.4,4-3.4c1.6,0,2.9,0.6,4.2,1.5L585.7,84.5z"/>
	<path class="st1" d="M618.2,94.9l-0.4-1.4c-1.1,1-1.7,1.4-3.1,1.4c-2.3,0-5.1-1.7-5.1-6.8c0-4.9,3.1-6.6,5.2-6.6
		c1.1,0,1.8,0.3,2.7,0.7v-5.4h1.8V90c0,1.6,0.1,3.2,0.6,4.6L618.2,94.9z M617.5,84.1c-0.7-0.6-1.5-1.1-2.4-1.1
		c-1.9,0-3.7,1.6-3.7,5.2c0,4.2,2.2,5.2,3.4,5.2c1.4,0,2.3-1,2.7-2.2V84.1z"/>
	<path class="st1" d="M626,88.7c0.1,3.5,1.7,4.7,3.6,4.7c1.4,0,2.8-0.6,4-1.4l0.8,1.6c-1.6,0.7-3.1,1.3-4.9,1.3
		c-3.8,0-5.3-3.3-5.3-6.6c0-3.4,1.6-6.8,5.4-6.8c4.3,0,4.9,4.8,4.9,6.2v1C634.5,88.7,626,88.7,626,88.7z M632.7,87.2
		c-0.1-2.1-1.3-4.1-3.3-4.1s-3,1.5-3.5,4.1H632.7z"/>
	<path class="st1" d="M649,92.6c-1.3,1.4-2.6,2.4-4.6,2.4c-2.4,0-5.5-1.5-5.5-6.6s2.9-6.8,5.5-6.8c2.1,0,3.6,1.2,4.7,2.9l-1.6,1
		c-0.6-1.3-1.6-2.4-3.2-2.4c-1.8,0-3.7,1.3-3.7,5.1c0,4,2.1,5.2,3.7,5.2c1.4,0,2.5-1.1,3.4-2.1L649,92.6z"/>
	<path class="st1" d="M657.3,78.4h-3.6v-1.5h5.4v17.8h-1.8L657.3,78.4L657.3,78.4z"/>
	<path class="st1" d="M668.7,82.4c1.2-0.5,2.4-0.9,3.7-0.9c2.4,0,3.9,2,3.9,4.2v5.6c0,1.2,0.2,2.4,0.6,3.5l-1.7,0.2l-0.5-1.6
		c-0.9,1-1.8,1.6-3.2,1.6c-2.4,0-3.8-1.9-3.8-4.2c0-2.5,1.5-4.6,4.1-4.6c1,0,1.9,0.3,2.7,0.6v-1.2c0-1.4-0.9-2.4-2.2-2.4
		c-1.1,0-2.2,0.5-3.2,1L668.7,82.4z M674.5,88.2c-0.8-0.3-1.6-0.6-2.4-0.6c-1.8,0-2.5,1.6-2.5,3.2c0,1.2,0.6,2.6,2,2.6
		s2.2-1.2,3-2.2L674.5,88.2L674.5,88.2z"/>
	<path class="st1" d="M685.3,94.7h-1.8v-7.4c0-2.1-0.2-3.9-0.5-5.5h1.8l0.4,2.4c1-1.5,2.1-2.7,4-2.7c2.4,0,3,2.4,3,4.3h-1.8
		c0-1,0.1-2.8-1.3-2.8c-1.3,0-3.7,2-3.7,6.2v5.5H685.3z"/>
	<path class="st1" d="M698,88.7c0.1,3.5,1.7,4.7,3.6,4.7c1.4,0,2.8-0.6,4-1.4l0.8,1.6c-1.6,0.7-3.1,1.3-4.9,1.3
		c-3.8,0-5.3-3.3-5.3-6.6c0-3.4,1.6-6.8,5.4-6.8c4.3,0,4.9,4.8,4.9,6.2v1C706.5,88.7,698,88.7,698,88.7z M704.7,87.2
		c-0.1-2.1-1.3-4.1-3.3-4.1s-3,1.5-3.5,4.1H704.7z"/>
	<path class="st1" d="M719,94.9l-0.4-1.4c-1.1,1-1.7,1.4-3.1,1.4c-2.3,0-5.1-1.7-5.1-6.8c0-4.9,3.1-6.6,5.2-6.6
		c1.1,0,1.8,0.3,2.7,0.7v-5.4h1.8V90c0,1.6,0.1,3.2,0.6,4.6L719,94.9z M718.3,84.1c-0.7-0.6-1.5-1.1-2.4-1.1c-1.9,0-3.7,1.6-3.7,5.2
		c0,4.2,2.2,5.2,3.4,5.2c1.4,0,2.3-1,2.7-2.2V84.1z"/>
	<path class="st1" d="M744.3,82.4c1.2-0.5,2.4-0.9,3.7-0.9c2.4,0,3.9,2,3.9,4.2v5.6c0,1.2,0.2,2.4,0.6,3.5l-1.7,0.2l-0.5-1.6
		c-0.9,1-1.8,1.6-3.2,1.6c-2.4,0-3.8-1.9-3.8-4.2c0-2.5,1.5-4.6,4.1-4.6c1,0,1.9,0.3,2.7,0.6v-1.2c0-1.4-0.9-2.4-2.2-2.4
		c-1.1,0-2.2,0.5-3.2,1L744.3,82.4z M750.1,88.2c-0.8-0.3-1.6-0.6-2.4-0.6c-1.8,0-2.5,1.6-2.5,3.2c0,1.2,0.6,2.6,2,2.6
		s2.2-1.2,3-2.2L750.1,88.2L750.1,88.2z"/>
	<path class="st1" d="M766.4,83.3h-4.6v7.3c0,1.2,0,2.8,1.7,2.8c1.4,0,2.2-1.1,2.7-2.3l1.7,0.4c-0.9,1.8-2.3,3.3-4.5,3.3
		c-2.1,0-3.4-1-3.4-4.8v-6.7h-2.8v-1.5h2.8v-3.9h1.8v3.9h4.6V83.3z"/>
	<path class="st1" d="M255.2,112.1h-4.6v7.3c0,1.2,0,2.8,1.7,2.8c1.4,0,2.2-1.1,2.7-2.3l1.7,0.4c-0.9,1.8-2.3,3.3-4.5,3.3
		c-2.1,0-3.4-1-3.4-4.8v-6.7H246v-1.5h2.8v-3.9h1.8v3.9h4.6V112.1z"/>
	<path class="st1" d="M261.4,105.7h1.8v6.8c0.9-1.2,2.3-2.1,3.9-2.1c1.5,0,3.3,0.5,3.3,5.7v7.4h-1.8V116c0-1.2,0-4.1-1.6-4.1
		c-1.3,0-2.5,1.2-3.1,2.3c-0.7,1.4-0.6,2.9-0.6,4.5v4.8h-1.8L261.4,105.7L261.4,105.7z"/>
	<path class="st1" d="M276.8,117.5c0.1,3.5,1.7,4.7,3.6,4.7c1.4,0,2.8-0.6,4-1.4l0.8,1.6c-1.6,0.7-3.1,1.3-4.9,1.3
		c-3.8,0-5.3-3.3-5.3-6.6c0-3.4,1.6-6.8,5.4-6.8c4.3,0,4.9,4.8,4.9,6.2v1C285.3,117.5,276.8,117.5,276.8,117.5z M283.6,116
		c-0.1-2.1-1.3-4.1-3.3-4.1s-3,1.5-3.5,4.1H283.6z"/>
	<path class="st1" d="M318.8,123.5H317V117c0-2.2-0.1-4.3-0.6-6.4h1.7l0.4,2.4c0.9-1.5,2.6-2.6,4.4-2.6c2,0,3.1,1.9,3.1,4.1v9h-1.8
		V115c0-1.2,0-3.1-1.6-3.1c-1.7,0-3.8,1.7-3.8,6.2L318.8,123.5L318.8,123.5z"/>
	<path class="st1" d="M332.1,111.2c1.2-0.5,2.4-0.9,3.7-0.9c2.4,0,3.9,2,3.9,4.2v5.6c0,1.2,0.2,2.4,0.6,3.5l-1.7,0.2l-0.5-1.6
		c-0.9,1-1.8,1.6-3.2,1.6c-2.4,0-3.8-1.9-3.8-4.2c0-2.5,1.5-4.6,4.1-4.6c1,0,1.9,0.3,2.7,0.6v-1.2c0-1.4-0.9-2.4-2.2-2.4
		c-1.1,0-2.2,0.5-3.2,1L332.1,111.2z M337.9,117c-0.8-0.3-1.6-0.6-2.4-0.6c-1.8,0-2.5,1.6-2.5,3.2c0,1.2,0.6,2.6,2,2.6
		s2.2-1.2,3-2.2v-3H337.9z"/>
	<path class="st1" d="M354.2,112.1h-4.6v7.3c0,1.2,0,2.8,1.7,2.8c1.4,0,2.2-1.1,2.7-2.3l1.7,0.4c-0.9,1.8-2.3,3.3-4.5,3.3
		c-2.1,0-3.4-1-3.4-4.8v-6.7H345v-1.5h2.8v-3.9h1.8v3.9h4.6L354.2,112.1L354.2,112.1z"/>
	<path class="st1" d="M364.2,112.1h-3.6v-1.5h5.4v12.8h-1.8V112.1z M366.5,107.4c0,0.9-0.7,1.5-1.5,1.5s-1.5-0.6-1.5-1.5
		s0.7-1.5,1.5-1.5C365.8,105.8,366.5,106.5,366.5,107.4z"/>
	<path class="st1" d="M374.1,117.1c0-5,2.6-6.7,5.1-6.7c4.5,0,5.1,4.6,5.1,6.7c0,5-2.6,6.7-5.1,6.7
		C376.9,123.7,374.1,122.2,374.1,117.1z M382.5,117.1c0-2.2-0.5-5.2-3.3-5.2s-3.3,3-3.3,5.2s0.5,5.2,3.3,5.2
		S382.5,119.3,382.5,117.1z"/>
	<path class="st1" d="M390.8,123.5H389V117c0-2.2-0.1-4.3-0.6-6.4h1.7l0.4,2.4c0.9-1.5,2.6-2.6,4.4-2.6c2,0,3.1,1.9,3.1,4.1v9h-1.8
		V115c0-1.2,0-3.1-1.6-3.1c-1.7,0-3.8,1.7-3.8,6.2L390.8,123.5L390.8,123.5z"/>
	<path class="st1" d="M404.1,111.2c1.2-0.5,2.4-0.9,3.7-0.9c2.4,0,3.9,2,3.9,4.2v5.6c0,1.2,0.2,2.4,0.6,3.5l-1.7,0.2l-0.5-1.6
		c-0.9,1-1.8,1.6-3.2,1.6c-2.4,0-3.8-1.9-3.8-4.2c0-2.5,1.5-4.6,4.1-4.6c1,0,1.9,0.3,2.7,0.6v-1.2c0-1.4-0.9-2.4-2.2-2.4
		c-1.1,0-2.2,0.5-3.2,1L404.1,111.2z M409.9,117c-0.8-0.3-1.6-0.6-2.4-0.6c-1.8,0-2.5,1.6-2.5,3.2c0,1.2,0.6,2.6,2,2.6
		s2.2-1.2,3-2.2v-3H409.9z"/>
	<path class="st1" d="M421.6,107.2H418v-1.5h5.4v17.8h-1.8V107.2z"/>
	<path class="st1" d="M463,107.2h-3.6v-1.5h5.4v17.8H463V107.2z"/>
	<path class="st1" d="M474.8,117.5c0.1,3.5,1.7,4.7,3.6,4.7c1.4,0,2.8-0.6,4-1.4l0.8,1.6c-1.6,0.7-3.1,1.3-4.9,1.3
		c-3.8,0-5.3-3.3-5.3-6.6c0-3.4,1.6-6.8,5.4-6.8c4.3,0,4.9,4.8,4.9,6.2v1C483.3,117.5,474.8,117.5,474.8,117.5z M481.6,116
		c-0.1-2.1-1.3-4.1-3.3-4.1s-3,1.5-3.5,4.1H481.6z"/>
	<path class="st1" d="M497.5,110.6l-4,13h-2l-4-13h1.9l3.1,10l3.1-10H497.5z"/>
	<path class="st1" d="M503.6,117.5c0.1,3.5,1.7,4.7,3.6,4.7c1.4,0,2.8-0.6,4-1.4l0.8,1.6c-1.6,0.7-3.1,1.3-4.9,1.3
		c-3.8,0-5.3-3.3-5.3-6.6c0-3.4,1.6-6.8,5.4-6.8c4.3,0,4.9,4.8,4.9,6.2v1C512.1,117.5,503.6,117.5,503.6,117.5z M510.4,116
		c-0.1-2.1-1.3-4.1-3.3-4.1s-3,1.5-3.5,4.1H510.4z"/>
	<path class="st1" d="M520.6,107.2H517v-1.5h5.4v17.8h-1.8L520.6,107.2L520.6,107.2z"/>
	<path class="st1" d="M558.9,111.2c1.2-0.5,2.4-0.9,3.7-0.9c2.4,0,3.9,2,3.9,4.2v5.6c0,1.2,0.2,2.4,0.6,3.5l-1.7,0.2l-0.5-1.6
		c-0.9,1-1.8,1.6-3.2,1.6c-2.4,0-3.8-1.9-3.8-4.2c0-2.5,1.5-4.6,4.1-4.6c1,0,1.9,0.3,2.7,0.6v-1.2c0-1.4-0.9-2.4-2.2-2.4
		c-1.1,0-2.2,0.5-3.2,1L558.9,111.2z M564.7,117c-0.8-0.3-1.6-0.6-2.4-0.6c-1.8,0-2.5,1.6-2.5,3.2c0,1.2,0.6,2.6,2,2.6
		s2.2-1.2,3-2.2L564.7,117L564.7,117z"/>
	<path class="st1" d="M574.4,123.5h-1.8V117c0-2.2-0.1-4.3-0.6-6.4h1.7l0.4,2.4c0.9-1.5,2.6-2.6,4.4-2.6c2,0,3.1,1.9,3.1,4.1v9h-1.8
		V115c0-1.2,0-3.1-1.6-3.1c-1.7,0-3.8,1.7-3.8,6.2L574.4,123.5L574.4,123.5z"/>
	<path class="st1" d="M594.9,123.7l-0.4-1.4c-1.1,1-1.7,1.4-3.1,1.4c-2.3,0-5.1-1.7-5.1-6.8c0-4.9,3.1-6.6,5.2-6.6
		c1.1,0,1.8,0.3,2.7,0.7v-5.4h1.8v13.2c0,1.6,0.1,3.2,0.6,4.6L594.9,123.7z M594.1,112.9c-0.7-0.6-1.5-1.1-2.4-1.1
		c-1.9,0-3.7,1.6-3.7,5.2c0,4.2,2.2,5.2,3.4,5.2c1.4,0,2.3-1,2.7-2.2V112.9z"/>
	<path class="st1" d="M638.2,121.4c-1.3,1.4-2.6,2.4-4.6,2.4c-2.4,0-5.5-1.5-5.5-6.6s2.9-6.8,5.5-6.8c2.1,0,3.6,1.2,4.7,2.9l-1.6,1
		c-0.6-1.3-1.6-2.4-3.2-2.4c-1.8,0-3.7,1.3-3.7,5.1c0,4,2.1,5.2,3.7,5.2c1.4,0,2.5-1.1,3.4-2.1L638.2,121.4z"/>
	<path class="st1" d="M642.2,117.1c0-5,2.6-6.7,5.1-6.7c4.5,0,5.1,4.6,5.1,6.7c0,5-2.6,6.7-5.1,6.7
		C645.1,123.7,642.2,122.2,642.2,117.1z M650.6,117.1c0-2.2-0.5-5.2-3.3-5.2s-3.3,3-3.3,5.2s0.5,5.2,3.3,5.2
		C650.1,122.2,650.6,119.3,650.6,117.1z"/>
	<path class="st1" d="M659,123.5h-1.8V117c0-2.2-0.1-4.3-0.6-6.4h1.7l0.4,2.4c0.9-1.5,2.6-2.6,4.4-2.6c2,0,3.1,1.9,3.1,4.1v9h-1.8
		V115c0-1.2,0-3.1-1.6-3.1c-1.7,0-3.8,1.7-3.8,6.2L659,123.5L659,123.5z"/>
	<path class="st1" d="M679.2,113.3c-1-0.7-2.1-1.4-3.4-1.4c-1.1,0-2.1,0.8-2.1,1.9c0,1.2,1.5,1.9,2.5,2.2c2,0.7,4.1,1.6,4.1,4.1
		c0,2.1-1.9,3.6-3.9,3.6c-1.9,0-3.9-1-5.3-2.2l1-1.4c1,1.1,2.7,2.2,4.2,2.2c1.2,0,2.2-0.7,2.2-2c0-1.7-1.3-2.1-2.7-2.6
		c-1.8-0.7-3.9-1.6-3.9-3.9c0-1.9,1.7-3.4,4-3.4c1.6,0,2.9,0.6,4.2,1.5L679.2,113.3z"/>
	<path class="st1" d="M687.2,117.5c0.1,3.5,1.7,4.7,3.6,4.7c1.4,0,2.8-0.6,4-1.4l0.8,1.6c-1.6,0.7-3.1,1.3-4.9,1.3
		c-3.8,0-5.3-3.3-5.3-6.6c0-3.4,1.6-6.8,5.4-6.8c4.3,0,4.9,4.8,4.9,6.2v1C695.7,117.5,687.2,117.5,687.2,117.5z M693.9,116
		c-0.1-2.1-1.3-4.1-3.3-4.1s-3,1.5-3.5,4.1H693.9z"/>
	<path class="st1" d="M707.5,128.4V123c-0.9,0.5-1.6,0.7-2.7,0.7c-2.1,0-5.2-1.7-5.2-6.6c0-5,2.9-6.8,5.2-6.8c1.5,0,2.1,0.5,3.1,1.4
		l0.4-1.4l1.7,0.2c-0.5,1.5-0.6,3-0.6,4.6v13.2h-1.9V128.4z M707.5,114c-0.6-1.2-1.3-2.1-2.7-2.1c-1.2,0-3.4,1-3.4,5.2
		c0,3.3,1.6,5.2,3.7,5.2c0.9,0,1.7-0.5,2.4-1.1V114z"/>
	<path class="st1" d="M722.1,110.6h1.8v6.2c0,2.2,0,4.4,0.6,6.6h-1.7l-0.4-2.5c-0.8,1.4-2.6,2.7-4.2,2.7c-2.3,0-3.2-1.9-3.2-4.2
		v-8.9h1.8v8.4c0,1.2,0,3.2,1.6,3.2c1.8,0,3.8-2,3.8-6.3L722.1,110.6L722.1,110.6z"/>
	<path class="st1" d="M730.4,117.5c0.1,3.5,1.7,4.7,3.6,4.7c1.4,0,2.8-0.6,4-1.4l0.8,1.6c-1.6,0.7-3.1,1.3-4.9,1.3
		c-3.8,0-5.3-3.3-5.3-6.6c0-3.4,1.6-6.8,5.4-6.8c4.3,0,4.9,4.8,4.9,6.2v1C738.9,117.5,730.4,117.5,730.4,117.5z M737.1,116
		c-0.1-2.1-1.3-4.1-3.3-4.1s-3,1.5-3.5,4.1H737.1z"/>
	<path class="st1" d="M745.4,123.5h-1.8V117c0-2.2-0.1-4.3-0.6-6.4h1.7l0.4,2.4c0.9-1.5,2.6-2.6,4.4-2.6c2,0,3.1,1.9,3.1,4.1v9h-1.8
		V115c0-1.2,0-3.1-1.6-3.1c-1.7,0-3.8,1.7-3.8,6.2L745.4,123.5L745.4,123.5z"/>
	<path class="st1" d="M766.4,112.1h-4.6v7.3c0,1.2,0,2.8,1.7,2.8c1.4,0,2.2-1.1,2.7-2.3l1.7,0.4c-0.9,1.8-2.3,3.3-4.5,3.3
		c-2.1,0-3.4-1-3.4-4.8v-6.7h-2.8v-1.5h2.8v-3.9h1.8v3.9h4.6V112.1z"/>
	<path class="st1" d="M248.7,134.5v5.4c0.9-0.5,1.7-0.7,2.7-0.7c2.1,0,5.2,1.7,5.2,6.6c0,5-2.9,6.8-5.2,6.8c-1.5,0-2.1-0.5-3.1-1.5
		l-0.4,1.4l-1.7-0.2c0.5-1.5,0.6-3.1,0.6-4.8v-13.1h1.9V134.5z M248.7,148.8c0.6,1.2,1.3,2.3,2.8,2.3c1.2,0,3.4-1,3.4-5.2
		c0-3.6-1.8-5.1-3.7-5.1c-0.9,0-1.7,0.5-2.4,1v7H248.7z"/>
	<path class="st1" d="M260.7,145.9c0-5,2.6-6.7,5.1-6.7c4.5,0,5.1,4.6,5.1,6.7c0,5-2.6,6.7-5.1,6.7
		C263.5,152.5,260.7,151,260.7,145.9z M269.1,145.9c0-2.2-0.5-5.2-3.3-5.2s-3.3,3-3.3,5.2s0.5,5.2,3.3,5.2S269.1,148.1,269.1,145.9z
		"/>
	<path class="st1" d="M278.5,152.3h-1.8v-7.4c0-2.1-0.2-3.9-0.5-5.5h1.8l0.4,2.4c1-1.5,2.1-2.7,4-2.7c2.4,0,3,2.4,3,4.3h-1.8
		c0-1,0.1-2.8-1.3-2.8c-1.3,0-3.7,2-3.7,6.2v5.5H278.5z"/>
	<path class="st1" d="M297.9,152.5l-0.4-1.4c-1.1,1-1.7,1.4-3.1,1.4c-2.3,0-5.1-1.7-5.1-6.8c0-4.9,3.1-6.6,5.2-6.6
		c1.1,0,1.8,0.3,2.7,0.7v-5.4h1.8v13.2c0,1.6,0.1,3.2,0.6,4.6L297.9,152.5z M297.1,141.7c-0.7-0.6-1.5-1.1-2.4-1.1
		c-1.9,0-3.7,1.6-3.7,5.2c0,4.2,2.2,5.2,3.4,5.2c1.4,0,2.3-1,2.7-2.2V141.7z"/>
	<path class="st1" d="M305.6,146.3c0.1,3.5,1.7,4.7,3.6,4.7c1.4,0,2.8-0.6,4-1.4l0.8,1.6c-1.6,0.7-3.1,1.3-4.9,1.3
		c-3.8,0-5.3-3.3-5.3-6.6c0-3.4,1.6-6.8,5.4-6.8c4.3,0,4.9,4.8,4.9,6.2v1H305.6z M312.4,144.8c-0.1-2.1-1.3-4.1-3.3-4.1
		s-3,1.5-3.5,4.1H312.4z"/>
	<path class="st1" d="M321.7,152.3h-1.8v-7.4c0-2.1-0.2-3.9-0.5-5.5h1.8l0.4,2.4c1-1.5,2.1-2.7,4-2.7c2.4,0,3,2.4,3,4.3h-1.8
		c0-1,0.1-2.8-1.3-2.8c-1.3,0-3.7,2-3.7,6.2v5.5H321.7z"/>
	<path class="st1" d="M357.5,150.2c-1.3,1.4-2.6,2.4-4.6,2.4c-2.4,0-5.5-1.5-5.5-6.6s2.9-6.8,5.5-6.8c2.1,0,3.6,1.2,4.7,2.9l-1.6,1
		c-0.6-1.3-1.6-2.4-3.2-2.4c-1.8,0-3.7,1.3-3.7,5.1c0,4,2.1,5.2,3.7,5.2c1.4,0,2.5-1.1,3.4-2.1L357.5,150.2z"/>
	<path class="st1" d="M365.8,136h-3.6v-1.5h5.4v17.8h-1.8V136z"/>
	<path class="st1" d="M375.9,145.9c0-5,2.6-6.7,5.1-6.7c4.5,0,5.1,4.6,5.1,6.7c0,5-2.6,6.7-5.1,6.7
		C378.7,152.5,375.9,151,375.9,145.9z M384.3,145.9c0-2.2-0.5-5.2-3.3-5.2s-3.3,3-3.3,5.2s0.5,5.2,3.3,5.2S384.3,148.1,384.3,145.9z
		"/>
	<path class="st1" d="M398.5,142.1c-1-0.7-2.1-1.4-3.4-1.4c-1.1,0-2.1,0.8-2.1,1.9c0,1.2,1.5,1.9,2.5,2.2c2,0.7,4.1,1.6,4.1,4.1
		c0,2.1-1.9,3.6-3.9,3.6c-1.9,0-3.9-1-5.3-2.2l1-1.4c1,1.1,2.7,2.2,4.2,2.2c1.2,0,2.2-0.7,2.2-2c0-1.7-1.3-2.1-2.7-2.6
		c-1.8-0.7-3.9-1.6-3.9-3.9c0-1.9,1.7-3.4,4-3.4c1.6,0,2.9,0.6,4.2,1.5L398.5,142.1z"/>
	<path class="st1" d="M412.5,139.4h1.8v6.2c0,2.2,0,4.4,0.6,6.6h-1.7l-0.4-2.5c-0.8,1.4-2.6,2.7-4.2,2.7c-2.3,0-3.2-1.9-3.2-4.2
		v-8.9h1.8v8.4c0,1.2,0,3.2,1.6,3.2c1.8,0,3.8-2,3.8-6.3L412.5,139.4L412.5,139.4z"/>
	<path class="st1" d="M422.5,152.3h-1.8v-7.4c0-2.1-0.2-3.9-0.5-5.5h1.8l0.4,2.4c1-1.5,2.1-2.7,4-2.7c2.4,0,3,2.4,3,4.3h-1.8
		c0-1,0.1-2.8-1.3-2.8c-1.3,0-3.7,2-3.7,6.2v5.5H422.5z"/>
	<path class="st1" d="M435.2,146.3c0.1,3.5,1.7,4.7,3.6,4.7c1.4,0,2.8-0.6,4-1.4l0.8,1.6c-1.6,0.7-3.1,1.3-4.9,1.3
		c-3.8,0-5.3-3.3-5.3-6.6c0-3.4,1.6-6.8,5.4-6.8c4.3,0,4.9,4.8,4.9,6.2v1H435.2z M442,144.8c-0.1-2.1-1.3-4.1-3.3-4.1
		s-3,1.5-3.5,4.1H442z"/>
	<path class="st1" d="M456.1,142.1c-1-0.7-2.1-1.4-3.4-1.4c-1.1,0-2.1,0.8-2.1,1.9c0,1.2,1.5,1.9,2.5,2.2c2,0.7,4.1,1.6,4.1,4.1
		c0,2.1-1.9,3.6-3.9,3.6c-1.9,0-3.9-1-5.3-2.2l1-1.4c1,1.1,2.7,2.2,4.2,2.2c1.2,0,2.2-0.7,2.2-2c0-1.7-1.3-2.1-2.7-2.6
		c-1.8-0.7-3.9-1.6-3.9-3.9c0-1.9,1.7-3.4,4-3.4c1.6,0,2.9,0.6,4.2,1.5L456.1,142.1z"/>
	<path class="st1" d="M467.4,148.9c1,0,1.9,0.8,1.9,1.8s-0.9,1.9-1.9,1.9c-1.1,0-1.9-0.8-1.9-1.9S466.3,148.9,467.4,148.9z"/>
</g>
<rect x="238" y="22" class="st10" width="152.3" height="26.6"/>
<g class="st11">
	<path d="M248.9,22.6h1.8v17.3h-1.8V26.7h0l-3.6,8.5l-3.5-8.5l0,0v13.1h-1.8V22.6h1.8l3.6,8.6L248.9,22.6z"/>
	<path d="M265.8,39.9h-1.9l-1.5-5.1h-5.3l-1.5,5.1h-1.9l6.1-18.7L265.8,39.9z M257.5,33.3h4.4l-2.2-7L257.5,33.3z"/>
	<path d="M270,22.6h4.5c4.3,0,4.7,3.9,4.7,4.9c0,1.8-0.7,3.4-3.1,4.8l4.7,7.6h-2.2l-4.2-7.2c-0.9,0-1.7,0-2.6,0v7.2H270V22.6z
		 M273.5,31.2c2.4,0,3.9-1.2,3.9-3.8c0-2.3-1-3.3-3.8-3.3h-1.8v7.1H273.5z"/>
	<path d="M291.6,26.3c0-1.4-1.1-2.6-2.5-2.6c-3.6,0-3.9,4.9-3.9,7.6c0,2.5,0.3,7.3,3.7,7.3c1.8,0,2.9-1.3,2.9-3h1.8
		c-0.2,2.8-1.9,4.6-4.8,4.6c-4.8,0-5.4-5.2-5.4-8.9c0-3.8,0.8-9.1,5.7-9.1c2.4,0,4.2,1.7,4.3,4.1H291.6z"/>
	<path d="M299.8,30.1h6v-7.6h1.8v17.3h-1.8v-8.2h-6v8.2H298V22.6h1.8V30.1z"/>
	<path d="M332.6,38.3h3.1v1.5h-8.1v-1.5h3.2V24l-3.4,1v-1.4l5.2-1.6V38.3z"/>
	<path d="M350.1,24.8c-0.7-0.5-1.5-1-2.4-1c-3,0-4.6,4.4-4.7,6.8c1-1.2,2.1-1.8,3.7-1.8c3,0,4.5,2.7,4.5,5.4c0,3-1.7,6-5,6
		c-4.2,0-5-4.3-5-7.7c0-7.2,3.3-10.3,6.6-10.3c1.1,0,2.3,0.5,3.2,1.1L350.1,24.8z M346.4,30.3c-1.9,0-3.3,2.2-3.3,4.3
		c0,1.8,0.9,4,3,4c2.4,0,3.3-2.4,3.3-4.4C349.3,32.4,348.5,30.3,346.4,30.3z"/>
	<path d="M364.3,28.5h-4.6v7.3c0,1.2,0,2.8,1.7,2.8c1.4,0,2.2-1.1,2.7-2.3l1.7,0.4c-0.9,1.8-2.3,3.3-4.5,3.3c-2.1,0-3.4-1-3.4-4.8
		v-6.7h-2.8V27h2.8v-3.9h1.8V27h4.6V28.5z"/>
	<path d="M370.5,22h1.8v6.8c0.9-1.2,2.3-2.1,3.9-2.1c1.5,0,3.3,0.5,3.3,5.7v7.4h-1.8v-7.5c0-1.2,0-4.1-1.6-4.1
		c-1.3,0-2.5,1.2-3.1,2.3c-0.7,1.4-0.6,2.9-0.6,4.5v4.8h-1.8V22z"/>
</g>
</svg>
