<?xml version="1.0" encoding="UTF-8" standalone="no"?>
<svg
   xmlns:dc="http://purl.org/dc/elements/1.1/"
   xmlns:cc="http://creativecommons.org/ns#"
   xmlns:rdf="http://www.w3.org/1999/02/22-rdf-syntax-ns#"
   xmlns:svg="http://www.w3.org/2000/svg"
   xmlns="http://www.w3.org/2000/svg"
   xmlns:sodipodi="http://sodipodi.sourceforge.net/DTD/sodipodi-0.dtd"
   xmlns:inkscape="http://www.inkscape.org/namespaces/inkscape"
   version="1.1"
   id="svg2"
   xml:space="preserve"
   width="790.9892"
   height="181.88507"
   viewBox="0 0 790.98922 181.88507"
   sodipodi:docname="avion-covid.svg"
   inkscape:version="1.0.1 (0767f8302a, 2020-10-17)"><metadata
     id="metadata8"><rdf:RDF><cc:Work
         rdf:about=""><dc:format>image/svg+xml</dc:format><dc:type
           rdf:resource="http://purl.org/dc/dcmitype/StillImage" /><dc:title></dc:title></cc:Work></rdf:RDF></metadata><defs
     id="defs6"><clipPath
       clipPathUnits="userSpaceOnUse"
       id="clipPath20"><path
         d="M 0,648 H 1075 V 0 H 0 Z"
         id="path18" /></clipPath><clipPath
       clipPathUnits="userSpaceOnUse"
       id="clipPath36"><path
         d="m 259.671,376.892 h 86.926 v -72.008 h -86.926 z"
         id="path34" /></clipPath></defs><sodipodi:namedview
     pagecolor="#ffffff"
     bordercolor="#666666"
     borderopacity="1"
     objecttolerance="10"
     gridtolerance="10"
     guidetolerance="10"
     inkscape:pageopacity="0"
     inkscape:pageshadow="2"
     inkscape:window-width="1920"
     inkscape:window-height="1048"
     id="namedview4"
     showgrid="false"
     inkscape:zoom="0.89236111"
     inkscape:cx="401.31043"
     inkscape:cy="126.43709"
     inkscape:window-x="0"
     inkscape:window-y="0"
     inkscape:window-maximized="1"
     inkscape:current-layer="g10" /><g
     id="g10"
     inkscape:groupmode="layer"
     inkscape:label="AVION_COVID"
     transform="matrix(1.3333333,0,0,-1.3333333,-314.78811,541.49002)"><g
       id="g14"><g
         id="g16"
         clip-path="url(#clipPath20)"><g
           id="g22"
           transform="translate(368.0684,346.0493)"><path
             d="m 0,0 c 4.473,-34.89 -20.32,-66.819 -55.377,-71.319 -35.061,-4.492 -67.103,20.148 -71.58,55.042 -4.475,34.894 20.318,66.822 55.379,71.318 C -36.522,59.536 -4.477,34.895 0,0"
             style="fill:#ffffff;fill-opacity:1;fill-rule:nonzero;stroke:none"
             id="path24" /></g><g
           id="g26"
           transform="translate(368.0684,346.0493)"><path
             d="m 0,0 c 4.473,-34.89 -20.32,-66.819 -55.377,-71.319 -35.061,-4.492 -67.103,20.148 -71.58,55.042 -4.475,34.894 20.318,66.822 55.379,71.318 C -36.522,59.536 -4.477,34.895 0,0 Z"
             style="fill:none;stroke:#ffffff;stroke-width:9;stroke-linecap:butt;stroke-linejoin:miter;stroke-miterlimit:10;stroke-dasharray:none;stroke-opacity:1"
             id="path28" /></g><g
           id="g30"><g
             id="g32" /><g
             id="g44"><g
               clip-path="url(#clipPath36)"
               id="g42"><g
                 transform="translate(259.876,314.5039)"
                 id="g40"><path
                   d="m 0,0 c 0,0 0.272,-3.158 9.843,-1.823 0,0 5.434,-0.364 22.368,6.66 L 51.896,-9.351 c 0,0 1.547,-1.032 5.019,0.944 l 0.389,0.212 -7.249,12.81 2.782,7.927 c 0,0 14.34,5.192 24.061,10.566 l 2.166,-2.774 c 0,0 1.449,-1.43 2.887,0.536 l 2.02,8.814 c 0,0 2.537,1.822 2.201,2.645 0,0 -0.673,1.413 -1.593,1.011 l 2.142,10.678 c 0,0 -2.632,1.982 -5.235,-1.766 l -3.199,-6.349 -4.467,8.043 c 0,0 -1.588,-0.5 -2.174,-2.626 L 73.1,30.964 C 60.254,27.78 60.254,27.78 55.542,26.456 l 2.031,7.907 14.878,27.663 -3.199,0.362 c 0,0 -1.645,-0.035 -2.708,-1.528 L 31.299,17.71 c 0,0 -14.992,-5.042 -15.672,-5.422 0,0 -1.336,-0.113 -2.81,-0.442 0,0 -4.693,-0.492 -7.831,-4.179 0,0 -3.337,-3.796 -4.33,-4.745 C 0.656,2.922 -0.711,1.257 0,0"
                   style="fill:#1d1d1b;fill-opacity:1;fill-rule:nonzero;stroke:none"
                   id="path38" /></g></g></g></g><g
           id="g46"
           transform="translate(341.3623,356.7563)"><path
             d="m 0,0 -3.199,-6.35 -4.467,8.043 c 0,0 -1.588,-0.5 -2.175,-2.626 l 1.454,-10.356 c -12.845,-3.184 -12.845,-3.184 -17.557,-4.508 l 2.031,7.907 14.878,27.663 -3.199,0.362 c 0,0 -1.645,-0.035 -2.708,-1.528 l -35.246,-43.149 c 0,0 -14.992,-5.042 -15.671,-5.422 0,0 -1.336,-0.114 -2.81,-0.443 0,0 -4.693,-0.491 -7.831,-4.178 0,0 -3.337,-3.797 -4.33,-4.745 0,0 -1.367,-1.665 -0.656,-2.922 0,0 0.272,-3.158 9.842,-1.823 0,0 5.435,-0.364 22.369,6.659 l 19.684,-14.187 c 0,0 1.548,-1.032 5.02,0.943 l 0.388,0.213 -7.249,12.81 2.783,7.926 c 0,0 14.339,5.192 24.061,10.567 l 2.166,-2.774 c 0,0 1.448,-1.43 2.887,0.535 l 2.019,8.814 c 0,0 2.537,1.822 2.202,2.646 0,0 -0.673,1.413 -1.593,1.01 L 5.234,1.765 C 5.234,1.765 2.603,3.748 0,0 Z"
             style="fill:none;stroke:#1d1d1b;stroke-width:1;stroke-linecap:butt;stroke-linejoin:miter;stroke-miterlimit:10;stroke-dasharray:none;stroke-opacity:1"
             id="path48" /></g><g
           id="g50"
           transform="translate(365.3613,345.7031)"><path
             d="m 0,0 c 4.283,-33.405 -19.453,-63.972 -53.015,-68.279 -33.567,-4.302 -64.244,19.288 -68.53,52.695 -4.282,33.407 19.453,63.974 53.018,68.277 C -34.965,56.997 -4.283,33.407 0,0 Z"
             style="fill:none;stroke:#d01317;stroke-width:10;stroke-linecap:butt;stroke-linejoin:miter;stroke-miterlimit:10;stroke-dasharray:none;stroke-opacity:1"
             id="path52" /></g><g
           id="g54"
           transform="translate(256.1064,375.0752)"><path
             d="M 0,0 95.479,-76.225"
             style="fill:none;stroke:#d01317;stroke-width:9.5;stroke-linecap:butt;stroke-linejoin:miter;stroke-miterlimit:10;stroke-dasharray:none;stroke-opacity:1"
             id="path56" /></g></g></g><path
       d="M 566,366.465 H 406.333 v 33 H 566 Z"
       style="fill:#bbbbb5;fill-opacity:1;fill-rule:nonzero;stroke:none"
       id="path58" /><g
       aria-label="Se declara el Estado de Emergencia
a nivel nacional y el consiguiente
cierre de fronteras."
       transform="matrix(1,0,0,-1,414.333,332.1592)"
       id="text66"
       style="font-variant:normal;font-weight:normal;font-stretch:normal;font-size:20px;font-family:'Letter Gothic Std';-inkscape-font-specification:LetterGothicStd;writing-mode:lr-tb;fill:#ffffff;fill-opacity:1;fill-rule:nonzero;stroke:none"><path
         d="m 9.74,-13.06 c -0.98,-0.9 -2.3,-1.62 -3.66,-1.62 -2.08,0 -3.72,1.26 -3.72,3.42 0,1.74 1.22,2.7 2.6,3.52 l 1.34,0.8 c 2.66,1.58 2.82,2.1 2.82,3.46 0,1.72 -1.4,2.96 -3.08,2.96 -1.38,0 -2.58,-0.8 -3.34,-1.9 l -0.72,0.58 c 1.02,1.32 2.36,2.12 4.06,2.12 2.46,0 4.08,-1.52 4.08,-4 0,-1.78 -1.04,-2.6 -3.32,-3.98 L 5.62,-8.42 c -1.76,-1.08 -2.26,-1.82 -2.26,-2.94 0,-1.52 1.2,-2.52 2.66,-2.52 1.24,0 2.26,0.74 3.16,1.52 z"
         id="path943" /><path
         d="m 21.46,-1.62 c -1,0.6 -2.14,1.04 -3.34,1.04 -1.62,0 -3.16,-0.84 -3.34,-4.56 h 7.24 c 0,-4.38 -2.1,-5.66 -3.88,-5.66 -3.12,0 -4.3,2.88 -4.3,5.56 0,2.68 1.14,5.46 4.24,5.46 1.36,0 2.56,-0.42 3.78,-0.96 z M 14.78,-5.94 C 14.72,-7.8 15.96,-10 18.02,-10 c 2.08,0 3.16,2.24 3.06,4.06 z"
         id="path945" /><path
         d="m 45.140001,-14.84 h -0.94 v 4.94 c -0.72,-0.58 -1.66,-0.9 -2.6,-0.9 -1.46,0 -4.16,1.2 -4.16,5.44 0,4.12 2.32,5.58 4.1,5.58 1.24,0 2.26,-0.64 2.82,-1.74 l 0.38,1.74 0.88,-0.12 c -0.38,-1.24 -0.48,-2.52 -0.48,-3.82 z m -0.94,12.14 c -0.44,1.14 -1.3,2.12 -2.64,2.12 -1.2,0 -3.18,-1.06 -3.18,-4.72 0,-3.88 2.26,-4.7 3.46,-4.7 0.88,0 1.7,0.46 2.36,1.04 z"
         id="path947" /><path
         d="m 57.159998,-1.62 c -1,0.6 -2.14,1.04 -3.34,1.04 -1.62,0 -3.16,-0.84 -3.34,-4.56 h 7.24 c 0,-4.38 -2.1,-5.66 -3.88,-5.66 -3.12,0 -4.3,2.88 -4.3,5.56 0,2.68 1.14,5.46 4.24,5.46 1.36,0 2.56,-0.42 3.78,-0.96 z m -6.68,-4.32 c -0.06,-1.86 1.18,-4.06 3.24,-4.06 2.08,0 3.16,2.24 3.06,4.06 z"
         id="path949" /><path
         d="m 68.98,-2.24 c -0.72,0.86 -1.72,1.66 -2.88,1.66 -1.54,0 -3.46,-1.12 -3.46,-4.76 0,-3.84 2.08,-4.66 3.4,-4.66 1.3,0 2.24,0.8 2.8,1.9 l 0.84,-0.56 c -0.86,-1.3 -2.04,-2.14 -3.64,-2.14 -1.98,0 -4.34,1.34 -4.34,5.62 0,4.24 2.56,5.4 4.42,5.4 1.5,0 2.52,-0.72 3.5,-1.78 z"
         id="path951" /><path
         d="m 77.040002,0 h 0.94 v -14.84 h -4.06 v 0.8 h 3.12 z"
         id="path953" /><path
         d="m 92.620003,0.1 c -0.28,-0.88 -0.54,-1.84 -0.52,-2.86 l 0.12,-4.32 c 0.06,-2.36 -1.1,-3.72 -3.04,-3.72 -1,0 -1.9,0.28 -2.82,0.64 l 0.22,0.86 c 0.84,-0.38 1.62,-0.7 2.54,-0.7 1.74,0 2.22,1.12 2.16,3.8 -0.74,-0.36 -1.72,-0.7 -2.58,-0.7 -2.04,0 -3.18,1.74 -3.18,3.76 0,1.78 1,3.36 2.94,3.36 1.38,0 2.16,-0.74 2.9,-1.8 0.06,0.6 0.2,1.22 0.4,1.8 z m -1.4,-2.82 c -0.64,1.08 -1.44,2.14 -2.76,2.14 -1.34,0 -2,-1.3 -2,-2.48 0,-1.56 0.7,-3.04 2.46,-3.04 0.84,0 1.64,0.3 2.3,0.64 z"
         id="path955" /><path
         d="m 99.519997,-4.3 c 0,-4.02 2.400003,-5.7 3.480003,-5.7 1.28,0 1.34,1.42 1.36,2.4 h 0.94 c 0,-1.44 -0.46,-3.2 -2.22,-3.2 -1.82,0 -2.92,1.64 -3.620003,3.1 l -0.36,-3 h -0.9 l 0.38,3.38 V 0 h 0.94 z"
         id="path957" /><path
         d="m 116.42,0.1 c -0.28,-0.88 -0.54,-1.84 -0.52,-2.86 l 0.12,-4.32 c 0.06,-2.36 -1.1,-3.72 -3.04,-3.72 -1,0 -1.9,0.28 -2.82,0.64 l 0.22,0.86 c 0.84,-0.38 1.62,-0.7 2.54,-0.7 1.74,0 2.22,1.12 2.16,3.8 -0.74,-0.36 -1.72,-0.7 -2.58,-0.7 -2.04,0 -3.18,1.74 -3.18,3.76 0,1.78 1,3.36 2.94,3.36 1.38,0 2.16,-0.74 2.9,-1.8 0.06,0.6 0.2,1.22 0.4,1.8 z m -1.4,-2.82 c -0.64,1.08 -1.44,2.14 -2.76,2.14 -1.34,0 -2,-1.3 -2,-2.48 0,-1.56 0.7,-3.04 2.46,-3.04 0.84,0 1.64,0.3 2.3,0.64 z"
         id="path959" /><path
         d="m 140.45999,-1.62 c -1,0.6 -2.14,1.04 -3.34,1.04 -1.62,0 -3.16,-0.84 -3.34,-4.56 h 7.24 c 0,-4.38 -2.1,-5.66 -3.88,-5.66 -3.12,0 -4.3,2.88 -4.3,5.56 0,2.68 1.14,5.46 4.24,5.46 1.36,0 2.56,-0.42 3.78,-0.96 z m -6.68,-4.32 c -0.06,-1.86 1.18,-4.06 3.24,-4.06 2.08,0 3.16,2.24 3.06,4.06 z"
         id="path961" /><path
         d="m 148.44,0 h 0.94 v -14.84 h -4.06 v 0.8 h 3.12 z"
         id="path963" /><path
         d="m 176.66001,-14.4 h -7.04 V 0 h 7.18 v -0.8 h -6.24 V -7 h 4.38 v -0.8 h -4.38 v -5.8 h 6.1 z"
         id="path965" /><path
         d="m 187.48,-9.68 c -0.96,-0.7 -1.96,-1.12 -3.18,-1.12 -1.58,0 -3.1,1.14 -3.1,2.64 0,1.88 1.72,2.56 3.18,3.12 1.26,0.48 2.48,0.94 2.48,2.52 0,1.28 -1.02,1.94 -2.2,1.94 -1.24,0 -2.64,-0.8 -3.5,-1.66 l -0.52,0.76 c 0.96,0.88 2.66,1.7 3.98,1.7 1.62,0 3.18,-1.04 3.18,-2.8 0,-2.06 -1.7,-2.7 -3.32,-3.32 -0.96,-0.36 -2.34,-0.94 -2.34,-2.18 0,-1.12 1.04,-1.92 2.1,-1.92 1.06,0 2,0.5 2.84,1.1 z"
         id="path967" /><path
         d="m 199.41999,-10.58 h -3.88 v -3.4 h -0.94 v 3.4 h -2.38 v 0.8 h 2.38 v 6.66 c 0,2.68 1.22,3.34 2.58,3.34 1.58,0 2.74,-1.1 3.4,-2.46 l -0.9,-0.22 c -0.46,1 -1.28,1.88 -2.46,1.88 -1.3,0 -1.68,-0.96 -1.68,-1.98 v -7.22 h 3.88 z"
         id="path969" /><path
         d="m 211.62,0.1 c -0.28,-0.88 -0.54,-1.84 -0.52,-2.86 l 0.12,-4.32 c 0.06,-2.36 -1.1,-3.72 -3.04,-3.72 -1,0 -1.9,0.28 -2.82,0.64 l 0.22,0.86 c 0.84,-0.38 1.62,-0.7 2.54,-0.7 1.74,0 2.22,1.12 2.16,3.8 -0.74,-0.36 -1.72,-0.7 -2.58,-0.7 -2.04,0 -3.18,1.74 -3.18,3.76 0,1.78 1,3.36 2.94,3.36 1.38,0 2.16,-0.74 2.9,-1.8 0.06,0.6 0.2,1.22 0.4,1.8 z m -1.4,-2.82 c -0.64,1.08 -1.44,2.14 -2.76,2.14 -1.34,0 -2,-1.3 -2,-2.48 0,-1.56 0.7,-3.04 2.46,-3.04 0.84,0 1.64,0.3 2.3,0.64 z"
         id="path971" /><path
         d="m 223.64,-14.84 h -0.94 v 4.94 c -0.72,-0.58 -1.66,-0.9 -2.6,-0.9 -1.46,0 -4.16,1.2 -4.16,5.44 0,4.12 2.32,5.58 4.1,5.58 1.24,0 2.26,-0.64 2.82,-1.74 l 0.38,1.74 0.88,-0.12 c -0.38,-1.24 -0.48,-2.52 -0.48,-3.82 z M 222.7,-2.7 c -0.44,1.14 -1.3,2.12 -2.64,2.12 -1.2,0 -3.18,-1.06 -3.18,-4.72 0,-3.88 2.26,-4.7 3.46,-4.7 0.88,0 1.7,0.46 2.36,1.04 z"
         id="path973" /><path
         d="m 232.10001,0.22 c 1.78,0 4.06,-1.22 4.06,-5.52 0,-4.32 -2.3,-5.5 -4.06,-5.5 -1.92,0 -4.04,1.38 -4.04,5.5 0,4.32 2.26,5.52 4.04,5.52 z m 0,-0.8 c -2.58,0 -3.1,-2.64 -3.1,-4.72 0,-2.06 0.52,-4.7 3.1,-4.7 2.6,0 3.12,2.64 3.12,4.7 0,2.06 -0.52,4.72 -3.12,4.72 z"
         id="path975" /><path
         d="m 259.33999,-14.84 h -0.94 v 4.94 c -0.72,-0.58 -1.66,-0.9 -2.6,-0.9 -1.46,0 -4.16,1.2 -4.16,5.44 0,4.12 2.32,5.58 4.1,5.58 1.24,0 2.26,-0.64 2.82,-1.74 l 0.38,1.74 0.88,-0.12 c -0.38,-1.24 -0.48,-2.52 -0.48,-3.82 z m -0.94,12.14 c -0.44,1.14 -1.3,2.12 -2.64,2.12 -1.2,0 -3.18,-1.06 -3.18,-4.72 0,-3.88 2.26,-4.7 3.46,-4.7 0.88,0 1.7,0.46 2.36,1.04 z"
         id="path977" /><path
         d="m 271.35999,-1.62 c -1,0.6 -2.14,1.04 -3.34,1.04 -1.62,0 -3.16,-0.84 -3.34,-4.56 h 7.24 c 0,-4.38 -2.1,-5.66 -3.88,-5.66 -3.12,0 -4.3,2.88 -4.3,5.56 0,2.68 1.14,5.46 4.24,5.46 1.36,0 2.56,-0.42 3.78,-0.96 z m -6.68,-4.32 c -0.06,-1.86 1.18,-4.06 3.24,-4.06 2.08,0 3.16,2.24 3.06,4.06 z"
         id="path979" /><path
         d="m 295.66001,-14.4 h -7.04 V 0 h 7.18 v -0.8 h -6.24 V -7 h 4.38 v -0.8 h -4.38 v -5.8 h 6.1 z"
         id="path981" /><path
         d="m 299.04,0 h 0.94 v -8.46 c 0.36,-0.8 1.18,-1.54 2.08,-1.54 1.06,0 1.12,1.08 1.12,1.88 V 0 h 0.94 v -8.66 c 0.4,-0.7 1.1,-1.36 1.94,-1.36 0.74,0 1.26,0.4 1.26,1.48 V 0 h 0.94 v -8.58 c 0,-1.32 -0.72,-2.22 -2.08,-2.22 -0.92,0 -1.64,0.6 -2.18,1.28 -0.3,-0.76 -0.78,-1.28 -1.64,-1.28 -1.04,0 -1.88,0.54 -2.48,1.38 l -0.26,-1.38 h -0.96 c 0.22,0.9 0.38,2.02 0.38,3.42 z"
         id="path983" /><path
         d="m 318.95999,-1.62 c -1,0.6 -2.14,1.04 -3.34,1.04 -1.62,0 -3.16,-0.84 -3.34,-4.56 h 7.24 c 0,-4.38 -2.1,-5.66 -3.88,-5.66 -3.12,0 -4.3,2.88 -4.3,5.56 0,2.68 1.14,5.46 4.24,5.46 1.36,0 2.56,-0.42 3.78,-0.96 z m -6.68,-4.32 c -0.06,-1.86 1.18,-4.06 3.24,-4.06 2.08,0 3.16,2.24 3.06,4.06 z"
         id="path985" /><path
         d="m 325.61999,-4.3 c 0,-4.02 2.4,-5.7 3.48,-5.7 1.28,0 1.34,1.42 1.36,2.4 h 0.94 c 0,-1.44 -0.46,-3.2 -2.22,-3.2 -1.82,0 -2.92,1.64 -3.62,3.1 l -0.36,-3 h -0.9 l 0.38,3.38 V 0 h 0.94 z"
         id="path987" /><path
         d="m 335.88001,1.96 c 0.74,0.78 1.98,1.42 3.08,1.42 1.62,0 3.78,-1.08 3.78,-4.2 v -4.4 c 0,-1.86 -0.02,-3.76 0.46,-5.58 h -0.96 l -0.28,1.22 c -0.9,-0.7 -1.7,-1.22 -2.88,-1.22 -2.88,0 -3.88,2.7 -3.88,5.14 0,2.2 1.14,4.72 3.66,4.72 1.04,0 2.26,-0.54 2.98,-1.3 v 1.3 c 0,2.66 -1.52,3.52 -2.7,3.52 -0.98,0 -1.98,-0.46 -2.6,-1.2 z m 5.92,-5.32 c -0.56,0.94 -1.78,1.62 -2.86,1.62 -0.86,0 -2.8,-0.76 -2.8,-4.1 0,-1.8 0.72,-4.16 2.9,-4.16 1.12,0 2.14,0.66 2.76,1.54 z"
         id="path989" /><path
         d="m 354.66001,-1.62 c -1,0.6 -2.14,1.04 -3.34,1.04 -1.62,0 -3.16,-0.84 -3.34,-4.56 h 7.24 c 0,-4.38 -2.1,-5.66 -3.88,-5.66 -3.12,0 -4.3,2.88 -4.3,5.56 0,2.68 1.14,5.46 4.24,5.46 1.36,0 2.56,-0.42 3.78,-0.96 z m -6.68,-4.32 c -0.06,-1.86 1.18,-4.06 3.24,-4.06 2.08,0 3.16,2.24 3.06,4.06 z"
         id="path991" /><path
         d="m 360.36,-4.36 c 0,-4.12 2.06,-5.64 3.58,-5.64 1.64,0 1.64,1.68 1.64,2.9 V 0 h 0.94 v -7.54 c 0,-1.6 -0.54,-3.26 -2.46,-3.26 -1.68,0 -3.36,1.56 -3.76,3.14 h -0.04 l -0.38,-3.04 H 359 c 0.36,1.8 0.42,3.6 0.42,5.4 V 0 h 0.94 z"
         id="path993" /><path
         d="m 378.37999,-2.24 c -0.72,0.86 -1.72,1.66 -2.88,1.66 -1.54,0 -3.46,-1.12 -3.46,-4.76 0,-3.84 2.08,-4.66 3.4,-4.66 1.3,0 2.24,0.8 2.8,1.9 l 0.84,-0.56 c -0.86,-1.3 -2.04,-2.14 -3.64,-2.14 -1.98,0 -4.34,1.34 -4.34,5.62 0,4.24 2.56,5.4 4.42,5.4 1.5,0 2.52,-0.72 3.5,-1.78 z"
         id="path995" /><path
         d="m 386.57999,0 h 0.94 v -10.58 h -4.02 v 0.8 h 3.08 z m 0.44,-14.68 c -0.58,0 -1.04,0.46 -1.04,1.04 0,0.58 0.46,1.04 1.04,1.04 0.58,0 1.06,-0.46 1.06,-1.04 0,-0.58 -0.48,-1.04 -1.06,-1.04 z"
         id="path997" /><path
         d="m 402.02001,0.1 c -0.28,-0.88 -0.54,-1.84 -0.52,-2.86 l 0.12,-4.32 c 0.06,-2.36 -1.1,-3.72 -3.04,-3.72 -1,0 -1.9,0.28 -2.82,0.64 l 0.22,0.86 c 0.84,-0.38 1.62,-0.7 2.54,-0.7 1.74,0 2.22,1.12 2.16,3.8 -0.74,-0.36 -1.72,-0.7 -2.58,-0.7 -2.04,0 -3.18,1.74 -3.18,3.76 0,1.78 1,3.36 2.94,3.36 1.38,0 2.16,-0.74 2.9,-1.8 0.06,0.6 0.2,1.22 0.4,1.8 z m -1.4,-2.82 c -0.64,1.08 -1.44,2.14 -2.76,2.14 -1.34,0 -2,-1.3 -2,-2.48 0,-1.56 0.7,-3.04 2.46,-3.04 0.84,0 1.64,0.3 2.3,0.64 z"
         id="path999" /><path
         d="M 9.32,28.1 C 9.04,27.22 8.78,26.26 8.8,25.24 L 8.92,20.92 C 8.98,18.56 7.82,17.2 5.88,17.2 c -1,0 -1.9,0.28 -2.82,0.64 L 3.28,18.7 C 4.12,18.32 4.9,18 5.82,18 7.56,18 8.04,19.12 7.98,21.8 7.24,21.44 6.26,21.1 5.4,21.1 c -2.04,0 -3.18,1.74 -3.18,3.76 0,1.78 1,3.36 2.94,3.36 1.38,0 2.16,-0.74 2.9,-1.8 0.06,0.6 0.2,1.22 0.4,1.8 z m -1.4,-2.82 c -0.64,1.08 -1.44,2.14 -2.76,2.14 -1.34,0 -2,-1.3 -2,-2.48 0,-1.56 0.7,-3.04 2.46,-3.04 0.84,0 1.64,0.3 2.3,0.64 z"
         id="path1001" /><path
         d="m 27.159999,23.64 c 0,-4.12 2.06,-5.64 3.58,-5.64 1.64,0 1.64,1.68 1.64,2.9 V 28 h 0.94 v -7.54 c 0,-1.6 -0.54,-3.26 -2.46,-3.26 -1.68,0 -3.36,1.56 -3.76,3.14 h -0.04 l -0.38,-3.04 h -0.88 c 0.36,1.8 0.42,3.6 0.42,5.4 V 28 h 0.94 z"
         id="path1003" /><path
         d="m 41.480001,28 h 0.94 V 17.42 h -4.02 v 0.8 h 3.08 z m 0.44,-14.68 c -0.58,0 -1.04,0.46 -1.04,1.04 0,0.58 0.46,1.04 1.04,1.04 0.58,0 1.06,-0.46 1.06,-1.04 0,-0.58 -0.48,-1.04 -1.06,-1.04 z"
         id="path1005" /><path
         d="m 56.459998,17.42 -2.9,9.3 -2.88,-9.3 h -1 l 3.34,10.72 h 1.1 l 3.34,-10.72 z"
         id="path1007" /><path
         d="m 69.06,26.38 c -1,0.6 -2.14,1.04 -3.34,1.04 -1.62,0 -3.16,-0.84 -3.34,-4.56 h 7.24 c 0,-4.38 -2.1,-5.66 -3.88,-5.66 -3.12,0 -4.3,2.88 -4.3,5.56 0,2.68 1.14,5.46 4.24,5.46 1.36,0 2.56,-0.42 3.78,-0.96 z M 62.38,22.06 C 62.32,20.2 63.56,18 65.62,18 c 2.08,0 3.16,2.24 3.06,4.06 z"
         id="path1009" /><path
         d="m 77.040002,28 h 0.94 V 13.16 h -4.06 v 0.8 h 3.12 z"
         id="path1011" /><path
         d="m 98.559997,23.64 c 0,-4.12 2.060003,-5.64 3.580003,-5.64 1.64,0 1.64,1.68 1.64,2.9 V 28 h 0.94 v -7.54 c 0,-1.6 -0.54,-3.26 -2.46,-3.26 -1.68,0 -3.360003,1.56 -3.760003,3.14 h -0.04 l -0.38,-3.04 h -0.88 c 0.36,1.8 0.42,3.6 0.42,5.4 V 28 h 0.94 z"
         id="path1013" /><path
         d="m 116.42,28.1 c -0.28,-0.88 -0.54,-1.84 -0.52,-2.86 l 0.12,-4.32 c 0.06,-2.36 -1.1,-3.72 -3.04,-3.72 -1,0 -1.9,0.28 -2.82,0.64 l 0.22,0.86 c 0.84,-0.38 1.62,-0.7 2.54,-0.7 1.74,0 2.22,1.12 2.16,3.8 -0.74,-0.36 -1.72,-0.7 -2.58,-0.7 -2.04,0 -3.18,1.74 -3.18,3.76 0,1.78 1,3.36 2.94,3.36 1.38,0 2.16,-0.74 2.9,-1.8 0.06,0.6 0.2,1.22 0.4,1.8 z m -1.4,-2.82 c -0.64,1.08 -1.44,2.14 -2.76,2.14 -1.34,0 -2,-1.3 -2,-2.48 0,-1.56 0.7,-3.04 2.46,-3.04 0.84,0 1.64,0.3 2.3,0.64 z"
         id="path1015" /><path
         d="m 128.48,25.76 c -0.72,0.86 -1.72,1.66 -2.88,1.66 -1.54,0 -3.46,-1.12 -3.46,-4.76 0,-3.84 2.08,-4.66 3.4,-4.66 1.3,0 2.24,0.8 2.8,1.9 l 0.84,-0.56 c -0.86,-1.3 -2.04,-2.14 -3.64,-2.14 -1.98,0 -4.34,1.34 -4.34,5.62 0,4.24 2.56,5.4 4.42,5.4 1.5,0 2.52,-0.72 3.5,-1.78 z"
         id="path1017" /><path
         d="m 136.67999,28 h 0.94 V 17.42 h -4.02 v 0.8 h 3.08 z m 0.44,-14.68 c -0.58,0 -1.04,0.46 -1.04,1.04 0,0.58 0.46,1.04 1.04,1.04 0.58,0 1.06,-0.46 1.06,-1.04 0,-0.58 -0.48,-1.04 -1.06,-1.04 z"
         id="path1019" /><path
         d="m 148.8,28.22 c 1.78,0 4.06,-1.22 4.06,-5.52 0,-4.32 -2.3,-5.5 -4.06,-5.5 -1.92,0 -4.04,1.38 -4.04,5.5 0,4.32 2.26,5.52 4.04,5.52 z m 0,-0.8 c -2.58,0 -3.1,-2.64 -3.1,-4.72 0,-2.06 0.52,-4.7 3.1,-4.7 2.6,0 3.12,2.64 3.12,4.7 0,2.06 -0.52,4.72 -3.12,4.72 z"
         id="path1021" /><path
         d="m 158.06,23.64 c 0,-4.12 2.06,-5.64 3.58,-5.64 1.64,0 1.64,1.68 1.64,2.9 V 28 h 0.94 v -7.54 c 0,-1.6 -0.54,-3.26 -2.46,-3.26 -1.68,0 -3.36,1.56 -3.76,3.14 h -0.04 l -0.38,-3.04 h -0.88 c 0.36,1.8 0.42,3.6 0.42,5.4 V 28 h 0.94 z"
         id="path1023" /><path
         d="m 175.92001,28.1 c -0.28,-0.88 -0.54,-1.84 -0.52,-2.86 l 0.12,-4.32 c 0.06,-2.36 -1.1,-3.72 -3.04,-3.72 -1,0 -1.9,0.28 -2.82,0.64 l 0.22,0.86 c 0.84,-0.38 1.62,-0.7 2.54,-0.7 1.74,0 2.22,1.12 2.16,3.8 -0.74,-0.36 -1.72,-0.7 -2.58,-0.7 -2.04,0 -3.18,1.74 -3.18,3.76 0,1.78 1,3.36 2.94,3.36 1.38,0 2.16,-0.74 2.9,-1.8 0.06,0.6 0.2,1.22 0.4,1.8 z m -1.4,-2.82 c -0.64,1.08 -1.44,2.14 -2.76,2.14 -1.34,0 -2,-1.3 -2,-2.48 0,-1.56 0.7,-3.04 2.46,-3.04 0.84,0 1.64,0.3 2.3,0.64 z"
         id="path1025" /><path
         d="m 184.14,28 h 0.94 V 13.16 h -4.06 v 0.8 h 3.12 z"
         id="path1027" /><path
         d="m 211.46,17.42 -3.04,8.12 -2.86,-8.12 h -1.04 l 3.44,9.36 -0.8,1.82 c -0.36,0.8 -0.88,1.98 -1.9,1.98 -0.88,0 -1.38,-0.92 -1.64,-1.64 l -0.8,0.42 c 0.36,1.08 1.24,2.02 2.44,2.02 1.86,0 2.76,-2.46 3.32,-3.9 l 3.96,-10.06 z"
         id="path1029" /><path
         d="m 235.66001,26.38 c -1,0.6 -2.14,1.04 -3.34,1.04 -1.62,0 -3.16,-0.84 -3.34,-4.56 h 7.24 c 0,-4.38 -2.1,-5.66 -3.88,-5.66 -3.12,0 -4.3,2.88 -4.3,5.56 0,2.68 1.14,5.46 4.24,5.46 1.36,0 2.56,-0.42 3.78,-0.96 z m -6.68,-4.32 c -0.06,-1.86 1.18,-4.06 3.24,-4.06 2.08,0 3.16,2.24 3.06,4.06 z"
         id="path1031" /><path
         d="m 243.64,28 h 0.94 V 13.16 h -4.06 v 0.8 h 3.12 z"
         id="path1033" /><path
         d="m 271.27999,25.76 c -0.72,0.86 -1.72,1.66 -2.88,1.66 -1.54,0 -3.46,-1.12 -3.46,-4.76 0,-3.84 2.08,-4.66 3.4,-4.66 1.3,0 2.24,0.8 2.8,1.9 l 0.84,-0.56 c -0.86,-1.3 -2.04,-2.14 -3.64,-2.14 -1.98,0 -4.34,1.34 -4.34,5.62 0,4.24 2.56,5.4 4.42,5.4 1.5,0 2.52,-0.72 3.5,-1.78 z"
         id="path1035" /><path
         d="m 279.70001,28.22 c 1.78,0 4.06,-1.22 4.06,-5.52 0,-4.32 -2.3,-5.5 -4.06,-5.5 -1.92,0 -4.04,1.38 -4.04,5.5 0,4.32 2.26,5.52 4.04,5.52 z m 0,-0.8 c -2.58,0 -3.1,-2.64 -3.1,-4.72 0,-2.06 0.52,-4.7 3.1,-4.7 2.6,0 3.12,2.64 3.12,4.7 0,2.06 -0.52,4.72 -3.12,4.72 z"
         id="path1037" /><path
         d="m 288.96001,23.64 c 0,-4.12 2.06,-5.64 3.58,-5.64 1.64,0 1.64,1.68 1.64,2.9 V 28 h 0.94 v -7.54 c 0,-1.6 -0.54,-3.26 -2.46,-3.26 -1.68,0 -3.36,1.56 -3.76,3.14 h -0.04 l -0.38,-3.04 h -0.88 c 0.36,1.8 0.42,3.6 0.42,5.4 V 28 h 0.94 z"
         id="path1039" /><path
         d="m 306.48,18.32 c -0.96,-0.7 -1.96,-1.12 -3.18,-1.12 -1.58,0 -3.1,1.14 -3.1,2.64 0,1.88 1.72,2.56 3.18,3.12 1.26,0.48 2.48,0.94 2.48,2.52 0,1.28 -1.02,1.94 -2.2,1.94 -1.24,0 -2.64,-0.8 -3.5,-1.66 l -0.52,0.76 c 0.96,0.88 2.66,1.7 3.98,1.7 1.62,0 3.18,-1.04 3.18,-2.8 0,-2.06 -1.7,-2.7 -3.32,-3.32 -0.96,-0.36 -2.34,-0.94 -2.34,-2.18 0,-1.12 1.04,-1.92 2.1,-1.92 1.06,0 2,0.5 2.84,1.1 z"
         id="path1041" /><path
         d="m 315.17999,28 h 0.94 V 17.42 h -4.02 v 0.8 h 3.08 z m 0.44,-14.68 c -0.58,0 -1.04,0.46 -1.04,1.04 0,0.58 0.46,1.04 1.04,1.04 0.58,0 1.06,-0.46 1.06,-1.04 0,-0.58 -0.48,-1.04 -1.06,-1.04 z"
         id="path1043" /><path
         d="m 323.97999,29.96 c 0.74,0.78 1.98,1.42 3.08,1.42 1.62,0 3.78,-1.08 3.78,-4.2 v -4.4 c 0,-1.86 -0.02,-3.76 0.46,-5.58 h -0.96 l -0.28,1.22 c -0.9,-0.7 -1.7,-1.22 -2.88,-1.22 -2.88,0 -3.88,2.7 -3.88,5.14 0,2.2 1.14,4.72 3.66,4.72 1.04,0 2.26,-0.54 2.98,-1.3 v 1.3 c 0,2.66 -1.52,3.52 -2.7,3.52 -0.98,0 -1.98,-0.46 -2.6,-1.2 z m 5.92,-5.32 c -0.56,0.94 -1.78,1.62 -2.86,1.62 -0.86,0 -2.8,-0.76 -2.8,-4.1 0,-1.8 0.72,-4.16 2.9,-4.16 1.12,0 2.14,0.66 2.76,1.54 z"
         id="path1045" /><path
         d="m 341.86001,21.7 c 0,4 -2.02,5.72 -3.58,5.72 -1.14,0 -1.64,-0.98 -1.64,-2.98 v -7.02 h -0.94 v 7.46 c 0,1.6 0.54,3.34 2.46,3.34 1.66,0 3.34,-1.64 3.74,-3.22 h 0.04 l 0.4,3 h 0.88 c -0.36,-1.76 -0.42,-3.56 -0.42,-5.36 v -5.22 h -0.94 z"
         id="path1047" /><path
         d="m 350.88001,28 h 0.94 V 17.42 h -4.02 v 0.8 h 3.08 z m 0.44,-14.68 c -0.58,0 -1.04,0.46 -1.04,1.04 0,0.58 0.46,1.04 1.04,1.04 0.58,0 1.06,-0.46 1.06,-1.04 0,-0.58 -0.48,-1.04 -1.06,-1.04 z"
         id="path1049" /><path
         d="m 366.56,26.38 c -1,0.6 -2.14,1.04 -3.34,1.04 -1.62,0 -3.16,-0.84 -3.34,-4.56 h 7.24 c 0,-4.38 -2.1,-5.66 -3.88,-5.66 -3.12,0 -4.3,2.88 -4.3,5.56 0,2.68 1.14,5.46 4.24,5.46 1.36,0 2.56,-0.42 3.78,-0.96 z m -6.68,-4.32 c -0.06,-1.86 1.18,-4.06 3.24,-4.06 2.08,0 3.16,2.24 3.06,4.06 z"
         id="path1051" /><path
         d="m 372.25999,23.64 c 0,-4.12 2.06,-5.64 3.58,-5.64 1.64,0 1.64,1.68 1.64,2.9 V 28 h 0.94 v -7.54 c 0,-1.6 -0.54,-3.26 -2.46,-3.26 -1.68,0 -3.36,1.56 -3.76,3.14 h -0.04 l -0.38,-3.04 h -0.88 c 0.36,1.8 0.42,3.6 0.42,5.4 V 28 h 0.94 z"
         id="path1053" /><path
         d="m 389.81999,17.42 h -3.88 v -3.4 h -0.94 v 3.4 h -2.38 v 0.8 h 2.38 v 6.66 c 0,2.68 1.22,3.34 2.58,3.34 1.58,0 2.74,-1.1 3.4,-2.46 l -0.9,-0.22 c -0.46,1 -1.28,1.88 -2.46,1.88 -1.3,0 -1.68,-0.96 -1.68,-1.98 v -7.22 h 3.88 z"
         id="path1055" /><path
         d="m 402.26001,26.38 c -1,0.6 -2.14,1.04 -3.34,1.04 -1.62,0 -3.16,-0.84 -3.34,-4.56 h 7.24 c 0,-4.38 -2.1,-5.66 -3.88,-5.66 -3.12,0 -4.3,2.88 -4.3,5.56 0,2.68 1.14,5.46 4.24,5.46 1.36,0 2.56,-0.42 3.78,-0.96 z m -6.68,-4.32 c -0.06,-1.86 1.18,-4.06 3.24,-4.06 2.08,0 3.16,2.24 3.06,4.06 z"
         id="path1057" /><path
         d="M 9.48,53.76 C 8.76,54.62 7.76,55.42 6.6,55.42 5.06,55.42 3.14,54.3 3.14,50.66 3.14,46.82 5.22,46 6.54,46 c 1.3,0 2.24,0.8 2.8,1.9 l 0.84,-0.56 C 9.32,46.04 8.14,45.2 6.54,45.2 c -1.98,0 -4.34,1.34 -4.34,5.62 0,4.24 2.56,5.4 4.42,5.4 1.5,0 2.52,-0.72 3.5,-1.78 z"
         id="path1059" /><path
         d="m 17.68,56 h 0.94 V 45.42 H 14.6 v 0.8 h 3.08 z m 0.44,-14.68 c -0.58,0 -1.04,0.46 -1.04,1.04 0,0.58 0.46,1.04 1.04,1.04 0.58,0 1.06,-0.46 1.06,-1.04 0,-0.58 -0.48,-1.04 -1.06,-1.04 z"
         id="path1061" /><path
         d="m 33.359999,54.38 c -1,0.6 -2.14,1.04 -3.34,1.04 -1.62,0 -3.16,-0.84 -3.34,-4.56 h 7.24 c 0,-4.38 -2.1,-5.66 -3.88,-5.66 -3.12,0 -4.3,2.88 -4.3,5.56 0,2.68 1.14,5.46 4.24,5.46 1.36,0 2.56,-0.42 3.78,-0.96 z m -6.68,-4.32 c -0.06,-1.86 1.18,-4.06 3.24,-4.06 2.08,0 3.16,2.24 3.06,4.06 z"
         id="path1063" /><path
         d="m 40.020001,51.7 c 0,-4.02 2.4,-5.7 3.48,-5.7 1.28,0 1.34,1.42 1.36,2.4 h 0.94 c 0,-1.44 -0.46,-3.2 -2.22,-3.2 -1.82,0 -2.92,1.64 -3.62,3.1 l -0.36,-3 h -0.9 l 0.38,3.38 V 56 h 0.94 z"
         id="path1065" /><path
         d="m 51.919998,51.7 c 0,-4.02 2.4,-5.7 3.48,-5.7 1.28,0 1.34,1.42 1.36,2.4 h 0.94 c 0,-1.44 -0.46,-3.2 -2.22,-3.2 -1.82,0 -2.92,1.64 -3.62,3.1 l -0.36,-3 h -0.9 l 0.38,3.38 V 56 h 0.94 z"
         id="path1067" /><path
         d="m 69.06,54.38 c -1,0.6 -2.14,1.04 -3.34,1.04 -1.62,0 -3.16,-0.84 -3.34,-4.56 h 7.24 c 0,-4.38 -2.1,-5.66 -3.88,-5.66 -3.12,0 -4.3,2.88 -4.3,5.56 0,2.68 1.14,5.46 4.24,5.46 1.36,0 2.56,-0.42 3.78,-0.96 z M 62.38,50.06 C 62.32,48.2 63.56,46 65.62,46 c 2.08,0 3.16,2.24 3.06,4.06 z"
         id="path1069" /><path
         d="m 92.740003,41.16 h -0.94 v 4.94 c -0.72,-0.58 -1.66,-0.9 -2.6,-0.9 -1.46,0 -4.16,1.2 -4.16,5.44 0,4.12 2.32,5.58 4.1,5.58 1.24,0 2.26,-0.64 2.82,-1.74 l 0.38,1.74 0.88,-0.12 c -0.38,-1.24 -0.48,-2.52 -0.48,-3.82 z m -0.94,12.14 c -0.44,1.14 -1.3,2.12 -2.64,2.12 -1.2,0 -3.18,-1.06 -3.18,-4.72 0,-3.88 2.26,-4.7 3.46,-4.7 0.88,0 1.7,0.46 2.36,1.04 z"
         id="path1071" /><path
         d="m 104.76,54.38 c -1,0.6 -2.14,1.04 -3.34,1.04 -1.620003,0 -3.160003,-0.84 -3.340003,-4.56 H 105.32 c 0,-4.38 -2.1,-5.66 -3.88,-5.66 -3.120003,0 -4.300003,2.88 -4.300003,5.56 0,2.68 1.14,5.46 4.240003,5.46 1.36,0 2.56,-0.42 3.78,-0.96 z m -6.680003,-4.32 c -0.06,-1.86 1.18,-4.06 3.240003,-4.06 2.08,0 3.16,2.24 3.06,4.06 z"
         id="path1073" /><path
         d="m 129.52,41.98 c -0.8,-0.34 -1.72,-0.66 -2.6,-0.66 -1.5,0 -3.06,0.9 -3.06,3.62 v 1.2 h -2.72 v 0.8 h 2.72 V 56 h 0.94 v -9.06 h 3.5 v -0.8 h -3.5 v -1.86 c 0,-1.4 0.84,-2.16 2.22,-2.16 0.88,0 1.48,0.42 2.5,0.86 z"
         id="path1075" /><path
         d="m 135.21999,51.7 c 0,-4.02 2.4,-5.7 3.48,-5.7 1.28,0 1.34,1.42 1.36,2.4 h 0.94 c 0,-1.44 -0.46,-3.2 -2.22,-3.2 -1.82,0 -2.92,1.64 -3.62,3.1 l -0.36,-3 h -0.9 l 0.38,3.38 V 56 h 0.94 z"
         id="path1077" /><path
         d="m 148.8,56.22 c 1.78,0 4.06,-1.22 4.06,-5.52 0,-4.32 -2.3,-5.5 -4.06,-5.5 -1.92,0 -4.04,1.38 -4.04,5.5 0,4.32 2.26,5.52 4.04,5.52 z m 0,-0.8 c -2.58,0 -3.1,-2.64 -3.1,-4.72 0,-2.06 0.52,-4.7 3.1,-4.7 2.6,0 3.12,2.64 3.12,4.7 0,2.06 -0.52,4.72 -3.12,4.72 z"
         id="path1079" /><path
         d="m 158.06,51.64 c 0,-4.12 2.06,-5.64 3.58,-5.64 1.64,0 1.64,1.68 1.64,2.9 V 56 h 0.94 v -7.54 c 0,-1.6 -0.54,-3.26 -2.46,-3.26 -1.68,0 -3.36,1.56 -3.76,3.14 h -0.04 l -0.38,-3.04 h -0.88 c 0.36,1.8 0.42,3.6 0.42,5.4 V 56 h 0.94 z"
         id="path1081" /><path
         d="m 175.62001,45.42 h -3.88 v -3.4 h -0.94 v 3.4 h -2.38 v 0.8 h 2.38 v 6.66 c 0,2.68 1.22,3.34 2.58,3.34 1.58,0 2.74,-1.1 3.4,-2.46 l -0.9,-0.22 c -0.46,1 -1.28,1.88 -2.46,1.88 -1.3,0 -1.68,-0.96 -1.68,-1.98 v -7.22 h 3.88 z"
         id="path1083" /><path
         d="m 188.06,54.38 c -1,0.6 -2.14,1.04 -3.34,1.04 -1.62,0 -3.16,-0.84 -3.34,-4.56 h 7.24 c 0,-4.38 -2.1,-5.66 -3.88,-5.66 -3.12,0 -4.3,2.88 -4.3,5.56 0,2.68 1.14,5.46 4.24,5.46 1.36,0 2.56,-0.42 3.78,-0.96 z m -6.68,-4.32 c -0.06,-1.86 1.18,-4.06 3.24,-4.06 2.08,0 3.16,2.24 3.06,4.06 z"
         id="path1085" /><path
         d="m 194.71999,51.7 c 0,-4.02 2.4,-5.7 3.48,-5.7 1.28,0 1.34,1.42 1.36,2.4 h 0.94 c 0,-1.44 -0.46,-3.2 -2.22,-3.2 -1.82,0 -2.92,1.64 -3.62,3.1 l -0.36,-3 h -0.9 l 0.38,3.38 V 56 h 0.94 z"
         id="path1087" /><path
         d="m 211.62,56.1 c -0.28,-0.88 -0.54,-1.84 -0.52,-2.86 l 0.12,-4.32 c 0.06,-2.36 -1.1,-3.72 -3.04,-3.72 -1,0 -1.9,0.28 -2.82,0.64 l 0.22,0.86 c 0.84,-0.38 1.62,-0.7 2.54,-0.7 1.74,0 2.22,1.12 2.16,3.8 -0.74,-0.36 -1.72,-0.7 -2.58,-0.7 -2.04,0 -3.18,1.74 -3.18,3.76 0,1.78 1,3.36 2.94,3.36 1.38,0 2.16,-0.74 2.9,-1.8 0.06,0.6 0.2,1.22 0.4,1.8 z m -1.4,-2.82 c -0.64,1.08 -1.44,2.14 -2.76,2.14 -1.34,0 -2,-1.3 -2,-2.48 0,-1.56 0.7,-3.04 2.46,-3.04 0.84,0 1.64,0.3 2.3,0.64 z"
         id="path1089" /><path
         d="m 223.18,46.32 c -0.96,-0.7 -1.96,-1.12 -3.18,-1.12 -1.58,0 -3.1,1.14 -3.1,2.64 0,1.88 1.72,2.56 3.18,3.12 1.26,0.48 2.48,0.94 2.48,2.52 0,1.28 -1.02,1.94 -2.2,1.94 -1.24,0 -2.64,-0.8 -3.5,-1.66 l -0.52,0.76 c 0.96,0.88 2.66,1.7 3.98,1.7 1.62,0 3.18,-1.04 3.18,-2.8 0,-2.06 -1.7,-2.7 -3.32,-3.32 -0.96,-0.36 -2.34,-0.94 -2.34,-2.18 0,-1.12 1.04,-1.92 2.1,-1.92 1.06,0 2,0.5 2.84,1.1 z"
         id="path1091" /><path
         d="m 230.76001,54.94 c 0,0.74 0.6,1.34 1.34,1.34 0.74,0 1.36,-0.6 1.36,-1.34 0,-0.74 -0.62,-1.36 -1.36,-1.36 -0.74,0 -1.34,0.62 -1.34,1.36 z"
         id="path1093" /></g><g
       aria-label="16 DE MARZO"
       transform="matrix(1,0,0,-1,416.208,374.7578)"
       id="text70"
       style="font-variant:normal;font-weight:bold;font-stretch:normal;font-size:21px;font-family:'Letter Gothic Std';-inkscape-font-specification:LetterGothicStd-Bold;writing-mode:lr-tb;fill:#121310;fill-opacity:1;fill-rule:nonzero;stroke:none"><path
         d="m 6.846,-15.582 -4.011,1.281 v 0.924 l 3.024,-0.945 V -0.84 H 2.982 V 0 H 9.639 V -0.84 H 6.846 Z"
         id="path907" /><path
         d="m 22.323,-4.83 c 0,2.037 -0.882,4.221 -3.255,4.221 -2.058,0 -2.94,-2.058 -2.94,-3.822 0,-2.772 1.911,-4.179 3.276,-4.179 2.121,0 2.919,1.932 2.919,3.78 z m 0.735,-9.807 c -0.714,-0.462 -1.659,-0.777 -2.499,-0.777 -2.751,0 -5.544,2.856 -5.544,9.03 0,5.124 2.016,6.615 4.032,6.615 2.898,0 4.263,-2.457 4.263,-5.061 0,-2.247 -1.197,-4.62 -3.717,-4.62 -1.68,0 -2.793,0.966 -3.591,2.331 -0.147,-2.604 1.281,-7.455 4.515,-7.455 0.777,0 1.449,0.336 2.058,0.777 z"
         id="path909" /><path
         d="m 41.013,0 h 3.486 c 1.848,0 2.919,-0.693 3.612,-1.68 0.273,-0.399 1.218,-2.037 1.218,-5.88 0,-2.751 -0.42,-4.494 -0.924,-5.418 -0.63,-1.176 -1.848,-2.142 -3.612,-2.142 h -3.78 z M 42,-14.28 h 1.869 c 1.596,0 2.919,0.189 3.717,1.785 0.651,1.302 0.693,3.486 0.693,4.935 0,1.449 -0.042,3.444 -0.63,4.788 -0.735,1.701 -2.121,1.932 -3.78,1.932 H 42 Z"
         id="path911" /><path
         d="m 61.803002,-15.12 h -7.392 V 0 h 7.539 v -0.84 h -6.552 v -6.51 h 4.599 v -0.84 h -4.599 v -6.09 h 6.405 z"
         id="path913" /><path
         d="m 83.160001,-6.804 -3.444,-8.316 h -1.092 V 0 h 0.987 v -13.083 l 0.042,-0.042 3.507,8.4 3.507,-8.4 h 0.042 V 0 h 0.987 v -15.12 h -1.092 z"
         id="path915" /><path
         d="M 95.990998,-15.729 90.950998,0 h 1.092 l 1.386,-4.599 h 5.145 L 99.938998,0 H 101.052 Z m 0,2.688 2.373,7.602 h -4.725 z"
         id="path917" /><path
         d="m 105.504,0 h 0.987 v -6.531 h 2.772 L 113.022,0 h 1.239 l -4.074,-6.762 c 1.848,-0.588 2.919,-2.289 2.919,-4.2 0,-2.457 -1.47,-4.158 -4.011,-4.158 h -3.591 z m 0.987,-14.28 h 2.604 c 2.121,0 2.961,1.47 2.961,3.234 0,2.646 -1.764,3.675 -3.108,3.675 h -2.457 z"
         id="path919" /><path
         d="m 117.894,-15.12 v 0.84 h 6.342 l -6.573,13.44 V 0 h 8.19 v -0.84 h -7.014 l 6.51,-13.44 v -0.84 z"
         id="path921" /><path
         d="m 134.44201,0.294 c 2.415,0 4.431,-1.428 4.431,-7.854 0,-2.562 0.021,-7.854 -4.431,-7.854 -4.074,0 -4.494,4.41 -4.494,7.854 0,6.468 2.1,7.854 4.494,7.854 z m -3.444,-7.854 c 0,-5.208 1.26,-7.014 3.444,-7.014 1.932,0 3.381,1.386 3.381,7.014 0,5.439 -1.365,7.014 -3.381,7.014 -1.89,0 -3.444,-1.365 -3.444,-7.014 z"
         id="path923" /></g><g
       aria-label="COVID-19"
       transform="matrix(1,0,0,-1,695.6323,376.8867)"
       id="text74"
       style="font-variant:normal;font-weight:normal;font-stretch:normal;font-size:30px;font-family:Impact;-inkscape-font-specification:Impact;writing-mode:lr-tb;fill:#bbbbb5;fill-opacity:1;fill-rule:nonzero;stroke:none"><path
         d="M 15.629883,-13.374023 H 9.4628906 v -4.13086 q 0,-1.801758 -0.2050781,-2.241211 -0.1904297,-0.454101 -0.8642578,-0.454101 -0.7617188,0 -0.9667969,0.541992 -0.2050781,0.541992 -0.2050781,2.34375 v 11.0156249 q 0,1.7285156 0.2050781,2.2558594 0.2050781,0.5273437 0.9228516,0.5273437 0.6884765,0 0.8935547,-0.5273437 0.2197265,-0.5273438 0.2197265,-2.475586 v -2.9736328 h 6.1669924 v 0.9228516 q 0,3.6767578 -0.527344,5.2148437 -0.512695,1.538086 -2.299805,2.69531251 -1.772461,1.15722657 -4.3798824,1.15722657 -2.709961,0 -4.4677735,-0.98144532 Q 2.1972656,-1.4648437 1.6259766,-3.1933594 1.0546875,-4.9365234 1.0546875,-8.4228516 v -6.9287114 q 0,-2.563476 0.1757812,-3.83789 0.1757813,-1.289063 1.0400391,-2.475586 0.8789063,-1.186523 2.4169922,-1.860352 1.5527344,-0.688476 3.5595703,-0.688476 2.7246097,0 4.4970707,1.054687 1.772461,1.054688 2.329101,2.636719 0.556641,1.567383 0.556641,4.892578 z"
         id="path926" /><path
         d="m 33.742266,-9.8291016 q 0,3.5742188 -0.175782,5.0683594 -0.161132,1.4794922 -1.054687,2.7099609 -0.878906,1.2304688 -2.387695,1.88964849 -1.508789,0.65917969 -3.515625,0.65917969 -1.904297,0 -3.427735,-0.61523438 -1.508789,-0.62988281 -2.43164,-1.875 -0.922852,-1.2451172 -1.098633,-2.7099609 -0.175781,-1.4648438 -0.175781,-5.1269532 v -4.0576174 q 0,-3.574218 0.161132,-5.053711 0.175782,-1.49414 1.054688,-2.724609 0.893555,-1.230469 2.402344,-1.889648 1.508789,-0.65918 3.515625,-0.65918 1.904297,0 3.413086,0.629883 1.523437,0.615234 2.446289,1.860351 0.922851,1.245117 1.098632,2.709961 0.175782,1.464844 0.175782,5.126953 z M 27.575274,-17.62207 q 0,-1.655274 -0.19043,-2.109375 -0.175781,-0.46875 -0.74707,-0.46875 -0.483399,0 -0.747071,0.380859 -0.249023,0.366211 -0.249023,2.197266 v 11.0742184 q 0,2.0654297 0.161133,2.5488282 0.175781,0.4833984 0.791015,0.4833984 0.629883,0 0.805664,-0.5566406 0.175782,-0.5566406 0.175782,-2.6513672 z"
         id="path928" /><path
         d="M 52.478905,-23.71582 49.344139,0 h -9.360351 l -3.559571,-23.71582 h 6.503906 q 1.12793,9.799804 1.611329,16.5673825 0.483398,-6.8408205 1.010742,-12.1582035 l 0.424804,-4.409179 z"
         id="path930" /><path
         d="M 61.487461,-23.71582 V 0 h -6.166992 v -23.71582 z"
         id="path932" /><path
         d="m 65.760468,-23.71582 h 4.614257 q 4.467774,0 6.035157,0.410156 1.582031,0.410156 2.402343,1.347656 0.820313,0.9375 1.025391,2.094727 0.205078,1.142578 0.205078,4.511718 v 8.3056646 q 0,3.1933593 -0.307617,4.2773437 -0.292969,1.069336 -1.040039,1.6845703 -0.74707,0.60058596 -1.845703,0.8496094 Q 75.750702,0 73.538788,0 h -7.77832 z m 6.166992,4.057617 v 15.6005858 q 1.333008,0 1.640625,-0.5273437 Q 73.875702,-5.1269531 73.875702,-7.5 v -9.213867 q 0,-1.611328 -0.102539,-2.06543 -0.102539,-0.454101 -0.46875,-0.65918 -0.366211,-0.219726 -1.376953,-0.219726 z"
         id="path934" /><path
         d="m 91.225662,-11.762695 v 4.0869138 h -7.77832 v -4.0869138 z"
         id="path936" /><path
         d="M 103.72066,-23.71582 V 0 h -5.917964 v -12.714844 q 0,-2.753906 -0.131836,-3.310547 -0.131836,-0.55664 -0.732422,-0.834961 -0.585937,-0.292968 -2.636718,-0.292968 h -0.585938 v -2.768555 q 4.291992,-0.922852 6.518558,-3.793945 z"
         id="path938" /><path
         d="m 107.82468,-6.2988281 h 5.91797 q 0,1.6552734 0.044,2.0947265 0.0439,0.4248047 0.35156,0.7177735 0.32227,0.2929687 0.86426,0.2929687 0.4541,0 0.74707,-0.2783203 0.29297,-0.2783203 0.32226,-0.7177734 0.044,-0.4394531 0.044,-1.772461 v -3.7792968 q -0.43945,0.9521484 -1.31836,1.4355468 -0.87891,0.46875 -2.18262,0.46875 -1.62597,0 -2.87109,-0.8789062 -1.24512,-0.8789063 -1.58203,-2.1093747 -0.33692,-1.230469 -0.33692,-3.325196 v -1.889648 q 0,-2.490234 0.19043,-3.706055 0.20508,-1.21582 1.02539,-2.241211 0.82032,-1.040039 2.27051,-1.611328 1.4502,-0.571289 3.36914,-0.571289 2.37305,0 3.89649,0.65918 1.52343,0.65918 2.3584,1.904297 0.83496,1.230468 0.96679,2.592773 0.13184,1.362305 0.13184,5.273438 v 3.295898 q 0,4.2333985 -0.11719,5.6689454 -0.11719,1.4208984 -1.02539,2.6953125 -0.89355,1.27441404 -2.43164,1.91894529 -1.53809,0.62988281 -3.55957,0.62988281 -2.50488,0 -4.10156,-0.80566406 -1.58203,-0.80566404 -2.28516,-2.27050784 -0.68848,-1.4648437 -0.68848,-3.6914062 z m 5.91797,-7.3974609 q 0,1.494141 0.38086,1.845703 0.39551,0.351563 0.80567,0.351563 0.61523,0 0.89355,-0.439454 0.29297,-0.454101 0.29297,-1.757812 v -4.291992 q 0,-1.567383 -0.27832,-2.050781 -0.26367,-0.483399 -0.89356,-0.483399 -0.38085,0 -0.79101,0.380859 -0.41016,0.366211 -0.41016,2.006836 z"
         id="path940" /></g><g
       id="g76"
       transform="translate(406.3329,366.2685)"><path
         d="M 0,0 H 423 Z"
         style="fill:#bbbbb5;fill-opacity:1;fill-rule:nonzero;stroke:none"
         id="path78" /></g><g
       id="g80"
       transform="translate(406.333,366.2686)"><path
         d="M 0,0 H 423"
         style="fill:none;stroke:#bbbbb5;stroke-width:2;stroke-linecap:butt;stroke-linejoin:miter;stroke-miterlimit:10;stroke-dasharray:none;stroke-opacity:1"
         id="path82" /></g></g></svg>
