<?xml version="1.0" encoding="utf-8"?>
<!-- Generator: Adobe Illustrator 25.0.0, SVG Export Plug-In . SVG Version: 6.00 Build 0)  -->
<svg version="1.1"
	 id="svg32" xmlns:cc="http://creativecommons.org/ns#" xmlns:dc="http://purl.org/dc/elements/1.1/" xmlns:inkscape="http://www.inkscape.org/namespaces/inkscape" xmlns:rdf="http://www.w3.org/1999/02/22-rdf-syntax-ns#" xmlns:sodipodi="http://sodipodi.sourceforge.net/DTD/sodipodi-0.dtd" xmlns:svg="http://www.w3.org/2000/svg"
	 xmlns="http://www.w3.org/2000/svg" xmlns:xlink="http://www.w3.org/1999/xlink" x="0px" y="0px" viewBox="0 0 1364.4 850.5"
	 style="enable-background:new 0 0 1364.4 850.5;" xml:space="preserve">
<style type="text/css">
	.st0{fill:#FDE1B7;}
	.st1{fill:#1D1D1B;}
	.st2{fill:#FFFFFF;stroke:#FFFFFF;stroke-width:0.2;stroke-miterlimit:10;}
	.st3{fill:#FFFFFF;}
	.st4{fill:#FFFFFF;stroke:#FFFFFF;stroke-width:8;stroke-miterlimit:10;}
	.st5{fill:none;stroke:#1D1D1B;stroke-miterlimit:10;}
	.st6{fill:none;stroke:#CF1317;stroke-width:10;stroke-miterlimit:10;}
	.st7{fill:none;stroke:#CF1317;stroke-width:9.5;stroke-miterlimit:10;}
	.st8{fill:#121310;}
	.st9{fill:none;stroke:#BBBAB5;stroke-width:2;stroke-miterlimit:10;}
	.st10{fill:none;stroke:#1D1D1B;stroke-width:1.2;stroke-miterlimit:10;}
</style>
<sodipodi:namedview  bordercolor="#666666" borderopacity="1" gridtolerance="10" guidetolerance="10" id="namedview34" inkscape:current-layer="svg32" inkscape:cx="812.61912" inkscape:cy="596.7183" inkscape:document-rotation="0" inkscape:pageopacity="0" inkscape:pageshadow="2" inkscape:window-height="1007" inkscape:window-maximized="1" inkscape:window-width="1920" inkscape:window-x="-9" inkscape:window-y="-9" inkscape:zoom="0.64104806" objecttolerance="10" pagecolor="#ffffff" showgrid="false">
	</sodipodi:namedview>
<path class="st0" d="M195.1,210.5c0,0-0.8,0.4,0,2.3c0.8,1.9,0.2,4.3,0,5.3c-0.2,0.9-0.5,4.1-0.3,4.9c0.1,0.8-0.8,2.8,0,2.8
	s1.5,0,1.5,0v2.4c0,0-0.9,2.1,0,2.1s3.4,0,3.4,0s1.7-1.9,2.1,0c0.4,1.9-1.1,3.6,0,3.9c1.1,0.4,2.8,1.7,3.8,2.8
	c0.9,1.1,2.6,1.1,3.6,2.3c0.9,1.1,0.6,1.9,1.5,2.4c0.9,0.6,0.4-1.1,1.7,0s1.1,0.6,1.3,3s0,3.2,1.5,5.8s1.5,3.6,2.4,5.6
	c0.9,2.1,1.5,1.9,0.9,3.9c-0.6,2.1-0.6,2.1-0.6,4.3c0,2.3,1.7,4.3,2.8,3.9s0-2.6,1.3-3s2.6-0.2,2.6,1.9s0.2,2.6,1.1,4.7
	c0.9,2.1,1.7,1.9,1.7,4.5s-0.9,3.2,0,4.1s0.4,2.1,0.9,2.4c0.6,0.4,0.8-2.3,2.3,0s1.9,2.6,2.4,4.1c0.6,1.5,2.4,1.9,3.8,2.8
	c1.3,0.9,1.9,0.6,3,0s0.6-2.6,1.9-2.6c1.3,0,1.3,1.9,1.9,3.2c0.6,1.3,1.3,1.5,2.4,2.6c1.1,1.1,0.8-3,0.9,0c0.2,3,0.6,3.4,2.1,3.9
	c1.5,0.6,2.3-1.7,2.6,0c0.4,1.7,0.6,2.1,1.5,3s2.6,1.3,2.6,3.4s-1.3,3.9,0,4.3s2.4,0.2,3.4,1.7c0.9,1.5,1.9,2.1,2.4,2.3
	c0.6,0.2,0.9-0.4,0.9,1.5s-0.8,2.4,0,3.9s0.8,2.1,1.9,3.4s1.5,0.9,2.4,1.5s2.4-0.4,2.3,1.9c-0.2,2.3-0.7,2.8,0,4.5s1.7,3.9,2.4,3.9
	c0.8,0,1.3,0,2.6,0.9c1.3,0.9,1.5,0.4,2.8,1.5s1.7,2.1,2.8,2.6c1.1,0.6,3.6,1.3,2.8,2.4c-0.8,1.1-2.6,1.3-3,2.4s0.6,0.9,0.8,3
	c0.2,2.1,1.6,2.1,2.4,2.1s1.4-0.4,2.3-0.9c0.9-0.6,0.4-2.1,1.1-1.7c0.8,0.4,0.8,1.5,0.8,2.6s-1.9,0.4-2.4,1.7c0,0-0.2,0.3-0.2,1.2
	c0,0.9,0.7,0.8,0.5,2.1c-0.2,1.3-0.3,1.5-1.6,2.1c-1.3,0.6-2.3,0-2.7,1c-0.5,1,0.3-0.3,0.8,1c0.6,1.3,0.3,2.1,0.8,3.1
	s0.8,0.7,1.7,1.3c0.8,0.7,1.5,0.5,2.6,0s1.1-0.5,1.6-1.4s0.6-0.7,1.7,0.2c1.1,0.8,0.9,1.4,0.8,3.2c-0.2,1.8-0.2,2.2-0.6,3.3
	c-0.4,1.1,0,0.6-1.2,1.1c-1.2,0.6-1.5-0.6-0.7,1.4s0.8,3.7,0.8,3.7s0.5-0.8,1.7-0.8c1.3,0,1.5,1.2,2.1,1.9c0.7,0.7,1.1,2.1,2,2.1
	c0.8,0-0.6,0.8,0,2.1c0.6,1.2,2.1,1,1.9,2.5s0.3,1.9-1,2.5c-1.3,0.7-1.1,1.7,0.2,1.7c1.3,0,1.5,1,2.3,1.5s0.4,0.3,1.7,0
	c1.3-0.3,2.7-0.9,2.7,0.9c0,1.9-1.3,2.3,0,2.9c1.3,0.7,2.1,1.2,2.1,2.3c0,1.1-1.4,0.5-0.9,1.6s1-0.5,0.9,0.8c-0.1,1.2,0,0.6-0.4,1.8
	c-0.4,1.2-1.4,0.7-1.7,1.8c-0.3,1.1,0.4,2.2,0.5,2.3c0.1,0.1,0.2-0.6,1.6,0s2.7,0.8,3,1.9c0.3,1,0.4,0.3,0.9,1.6
	c0.6,1.3,0.4,1.6,0.8,2.5s0.4,0.9,0.4,0.9s0.8,0.4,0.9,0.5s-0.1,0.9,0,1.8c0.1,0.8,0.3,2.3,0.8,2.8c0.6,0.5,0.1-0.2,1.5,0s3,1,3,1.2
	s0.7,0.8,0,1.9s-0.9,2-0.5,3.2c0.5,1.2,1.2,2.2,1.3,2.3c0,0,0.2,0,1,0s1-0.1,1.7,0.8c0.7,0.8,1,1.4,1.3,1.5s0.9,0.7,1.4,2.1
	s0.5,1.4,1.3,2.7c0.8,1.3,2.4,2.4,2.8,3.1s-0.3-2,0.4,0.7c0.7,2.6,1.9,2.5,2.6,3s1.1-1.1,1.6,0.6s1.6,2,2.6,3s0.6,0.1,1,1
	c0.5,0.9,1.2,1.9,3,2.3s2.1,0.4,3.8,0.5c1.7,0.1,3.2-0.5,3.9,0.8c0.7,1.3,0.1,2.7,1.3,3.8c1.2,1-0.1,1.2,0.8,2s0-0.1,1.5,0
	s2.4,0.5,2.5-0.8c0.2-1.2,0.5-1.8,1.3-1.8s-0.7-0.4,0-1.4s1.5-0.8,2-0.8s1.5,0.4,1.7,1.2c0.2,0.8,0.3,2,1.4,2.2s2.3-0.4,2.4-0.6
	s1.1,0.5,1.4,1.4s0.8,0.6,2,0.9c1.1,0.2,0.7-0.7,2.5-0.9c1.9-0.2,4.1-1.1,4.3-1.2c0.2-0.1,0.6-0.8,1.1-2c0.6-1.2,1.3-2.2,1.5-2.4
	c0.2-0.3,1.5-0.3,2.4-0.3s0.8,0.2,1.8,0.9c0.9,0.8,1.5,2,2.4,1.3s1.6-1.9,2.1-2.7c0.5-0.8,1.1-0.7,2-1.4c0.8-0.8,2.4-1.8,2.6-2.4
	s1.7-0.8,2.4-0.8c0,0,1.2,0.4,3,0.4s1.4,0,2.8-0.8s2.8-0.8,3.5-0.8c0.8,0,1.9,0.1,2.6,0.6c0.8,0.5,1.8,0.5,1.9,0.6s1.1,0.4,1.1,1.9
	s-0.3,1.8,0,2.6c0.3,0.9,0.6,1.9,2.3,1.4c1.6-0.5,2.9-1.4,3.6-0.5c0,0,0.4,1.3,1.4,1.3s0.1,0.5,1.1,0.5s1.5,0.1,2.4,0.1s1.5,0,2.4,0
	s2.6,0,2.6,0c1.8-0.5,2.8-0.5,3,0s-0.1,1.3-0.5,2.4s-1,2.4-0.6,2.6c0.4,0.3,0.3,1.8,1.2,1.8c0.9,0,1.8-0.4,3.1-0.6
	c1.3-0.2,2.6,1.4,2.8,1.5c0.1,0.1,1,0,1.5,1.5s-0.4,2.9,0.9,2.9s3-1.3,3.5,0s1.1,2.3,1.5,2.3s0.3-1,1.1-0.9c0.9,0.1,0.8,2.3,1.8,2.5
	c1,0.3,2.3-0.5,2.8,0.8s1.4,2.4,2.6,2.6c1.3,0.3,1.4,0.5,2.6,0c1.3-0.5,3.3-1.5,3.8-0.4s-0.1,1.5,0.6,2.9c0.8,1.4,1.6,1.6,2.5,1.6
	c0,0,1-1.1,1.8,0s1-0.9,1.9,0s1.5,0,1.8,1s0.3,1.3,1.9,2.3s2.6,1.4,4.1,1.4s3.8,0.5,5.5,0.5c1.8,0,3.4-0.6,4,0s1,2,1.5,2
	c0,0,1.5-0.1,1.8,0s1.3,0.5,1.6,1.1c0.4,0.6,0.3,1.4,1.5,1.4c1.3,0,2.6-0.1,3.5,0s2-0.4,2.3,0.8c0.3,1.1,1.5,0.8,2.1,1.5
	c0.6,0.8,1.6-0.4,2.8,0c1.1,0.4,1.6,1.8,1.8,1.9c0.1,0.1-0.3,2.1,1.1,2.3c1.4,0.1,2.6,1,2.8,2.8c0.1,1.8,0,1.9,0,2.6
	c0,0.8-0.4-0.6-0.5,1.6c-0.1,2.3,0.1,1.1,1.6,1.1s1.9,0.1,3,0.3c1.1,0.2,0.6-2.6,1.8,0c1.1,2.6,0.1,2.7,1.9,3.1s3.3,1.1,3.4,1.1
	s0.6,0.9,1.3,1.5c0.6,0.6,0.3,0.8,2.4,1c2.1,0.3,1.4,1.4,2.8,2.1c1.4,0.8,2.1,0.4,2.5-0.8c0.4-1.1,2.3-2.5,2.6-2.6
	c0.4-0.1,0.4-1,1.6-1.1c1.3-0.1,1.4,1.3,3.6,1.3c2.3,0,2.9,0.6,3.1,1.8c0.3,1.1,1.1-0.5,1.6,1.9s0.9,3.5,1.6,3.5
	c0.8,0,1.1-0.5,2.6,0s2.3,0.8,3.1,2.3c0.9,1.5,1.9,2.4,3,2.4s0.8-1.6,2.5,0c1.8,1.6,1.8,3.5,1.9,3.9c0.1,0.4-0.8,1.5,0.9,2.5
	c1.6,1,2.6-1.8,3.4,1c0.8,2.8,0.3,4.8,1.5,5.3c0,0,0.9,1.9,1.8,2.4c0.9,0.5,1.5,0.4,1.5,1.6c0,1.3,0.1,4.4,0.8,4.8
	c0.6,0.4,0.1,0.8,1.1,3c1,2.3,2.9,4,3,4.1s-0.4,1,0,1.6s0,1.1,1.8,2.5s3.4,1.6,3.4,2.9c0,1.3,0.1,0.9,0,3.3
	c-0.1,2.4-0.4,1.3-0.6,4.3c-0.3,3,0.2,4,0.7,5.8c0.4,1.8,1.6,1.4,0.9,4c-0.6,2.6,0.6,3.8-0.6,5c-1.3,1.3-1.5,1.9-1.8,4
	s-1.5,1.8-0.9,3.4c0.6,1.6,1,1.4,1.5,3.9c0,0-0.4,1-0.2,2.6c0.1,1.6-0.9,1.6-0.8,2.5c0.1,0.9,1.1,0.5,0.5,2.1s-1.1,2.8-2,3.8
	s-1.1,1.3-2.4,2.3c-1.3,1-1.7,1.5-1.6,2.5c0.1,1,0,2.9,1,3.5s1.9,2.3,1.3,3.1c-0.6,0.9-0.7,1.3-2.2,2.3s-1.5,1.4-2.5,2.6
	c-1,1.3-1.1,2.3-3,3.3s-2,1.9-3.5,1.9s-1.9-1.8-3.3,0c-1.4,1.8-2.1,1.9-2.9,2.5c-0.8,0.6-0.9,2.1-0.9,3.1s0,2.5-1.5,3.1
	s-0.8,1.8-3.1,2.8c-2.4,1-2.3,1.4-2.9,2.4c-0.6,1-1.5,2.3-2.9,3c-1.4,0.8-3-0.8-3.1,0.9c-0.1,1.6,0.8,2-0.1,4.1
	c-0.9,2.1-0.9,2-0.9,4.1s-1.1,2.5-2.8,2.9c-1.6,0.4-2.9-0.8-4,0s-2.1-1.1-2.5,1s1,3.5,0.1,4s-1.8,0-2.6,0.9c-0.9,0.9-1.9,1.1-3,0.9
	c-1.1-0.2-2.6-1.8-3.4-1.9c-0.8-0.1-2-0.5-2.5,0.5s-0.8-0.7-1.6,1.5c-0.9,2.2,0.9,2.7,0.3,3.7s-0.9,1.3-2.6,1.3
	c-1.8,0-2.6,0.2-2.9,1.4c-0.3,1.1-0.1,1.4-2.1,2.1c-2,0.8-3.9-0.1-5.8,0s-2.9-0.6-2.9,1.1c0,1.8,0.5,2.5-1.1,2.6s-1.5-0.8-2.5,1.1
	c-1,1.9-2.6,1.4-3.6,2.9s-2.1,0.6-2.6,1.9c-0.5,1.3,0,2.4-0.9,2.8c0,0-1.4,1-0.6,1.9s1.5,1.4,2.3,2.5s1.5,1.1,1.5,2.5
	s1.5,1.1,2.1,1.8c0.6,0.6,1.4,1.3,1.5,2.1c0.1,0.9,0.8,1.3,0.4,2.8s-0.9,2.1-0.6,3.8c0.3,1.6-0.5,1.5-0.6,3.3s0.6,1.8,0.6,3.3
	s0.5,2.6-0.1,4.1s-1.3,2.1-2,3.3c-0.8,1.1-2.3,1.5-2.3,3.1s1,2,1,3.6s0.9,3.1,1.5,4.1s1.5,1.9,1.8,2.9s0.6,1.5,2.3,2.1
	c1.6,0.6,2.4,0.4,2.9,1.6c0.5,1.3,0.5,1.3,0.5,1.3s1.9-2.1,2.5,0s-0.1,4.4,1.1,4.6c1.3,0.3,3.5-0.1,4.9,0s3,1.1,5.1,1.3s4-0.8,5.5,0
	s3.3,1.3,4.5,1.3c1.3,0,0.4-1.4,2.3-2.1s2.9-0.4,4.4-1.1c1.5-0.8,3.4-1.8,3.8-2c0.4-0.3,1.4,1.1,2.9,1.1s2.5,0.5,3.3-0.8
	s1.1-0.9,2.6-1.4s1.6-1.4,2.1-2.6c0.5-1.3,1.5-1.3,2.8-1.5s1.8-0.2,3.1-0.2c1.4,0,1.5,2,2.4,1.3c0.9-0.8,1.8-1,2.9-0.9
	c1.1,0.1,2.5-0.1,2.5,1.4s-1.5,0.9-0.9,3.1c0.6,2.3-0.4,2.4,0.9,4.4c1.3,2,1.6,3.1,2.9,3.4c1.3,0.3,2.1,0.5,3.1,1.5s2,1.4,2.5,2.6
	c0.5,1.3,0.9,3,1.5,3.6s1.5,0.6,2.9,1s2.8,1.1,2.8,0s0-1.9,0.2-3.3c0.3-1.4,1.6-2.6,1.6-3.5c-0.1-0.9-1.3-2.8,0-3.1
	c1.3-0.4,2.8,0,2.8-1s-0.8-2.5-1.5-2.9c-0.8-0.4-2.1-1.5-1.5-2.6s1.4-2.8,0.9-2.8s-0.9-1.1-0.9-2s1.6-2.6,1-3.6s-0.6-0.4-1.3-1.6
	c-0.6-1.3-2-2.3-1.3-3.4c0.8-1.1,2-1.9,1.8-3.4c-0.3-1.5-0.9-1.5-0.4-3s1-2.3,1.3-3.1c0.2-0.9,0.8-0.1,1.9-1.8
	c1.1-1.6,1-1.9,1.6-3.3c0.6-1.4,1-2.3,1.4-3.1c0.4-0.9,1.1-0.9,2-0.9s2.1-0.9,2.6-1.4s1.3,0.1,1.3,0.5s0.4,1.6,0.8,2.8
	c0.4,1.1-0.1,2,0.9,2.5s2.3,0.9,3.1,2c0.9,1.1,2.3,2.1,3.1,2.5c0.9,0.4,2.5,1.4,1,1.8c-1.5,0.4-1.5,1.4-2.5,1.9s-1.4,1.8-1.1,2.4
	c0.2,0.6,0.1,1.3-0.4,1.8s-0.9,1.9-0.3,2.4c0.6,0.5,1.3,1.8,2,2.3c0.8,0.5,2.3,0.5,2.3,1.8s1.1,2.1,1.1,3.3c0,1.1,0,2.6,0.6,3.1
	s1.4,0.5,2.5,0.5s2.3,0,3,0c0.8,0,1.1,0.8,1.9,1.3c0.8,0.5,1.8,0.5,2,2.4c0.3,1.9,0.4,3.9,1,4.6c0.6,0.8,1.1,2.9,1.6,3.4
	s1.9,1.3,1.4,2.3s-1.3,1.4-1.8,2.6c-0.5,1.3-0.1,2.8,0.6,3c0.8,0.2,1.5-0.2,2.4,0s1.4-0.1,2.1,0.1c0,0,1,0.6,0.8,1.1
	c-0.3,0.5,0.3,1.1,0,2.1s1.2,0.5,2,0.5s0.4,0.8,1.8,0.1c1.4-0.6,1.9-1.6,2.8-1.6c0.9,0,1,1.3,1.1,1.9c0.1,0.6,0.5,1.6,1.9,1.9
	c1.4,0.2,0.4,0.8,1.6,1.6c1.3,0.9,2.4,1.4,3.5,1.8c1.1,0.4-0.1,1.3,0,2.5c0.1,1.3-0.6,0.4-1,2.5s-0.1,2.5-1,3.3s-1.4,0.1-0.3,1.6
	c1.1,1.5,0.1,1.6,0.1,3.1s-2.1,0.9-2.4,1c-0.2,0.1-0.6,0.2-2,0.9c-1.4,0.6-0.9,1-3.4,1.8s-2.6,2.1-4,2.5s-1.1,1.1-2.5,1.4
	c-1.4,0.3-2.1,0.1-2.1,1.6s1.5,2.1,1.5,3.1s0.4,0.9,1.5,1.4s2.1-0.5,3.1,0s-0.6,0.5,1.3-0.4c1.9-0.9,2.1-0.6,3.8,0.1
	c1.6,0.8,1.5,2,3.5,2.3s2.4-0.9,3.6,0c1.3,0.9,1.4,0.3,2.3,0c0.9-0.3,0.8,0.5,2,0.4c1.3-0.1,1.8,0,2.9,0.7c1.1,0.6,1.1,0.8,2.6,0.6
	c1.5-0.1,1.5,0.3,3.1,0s3-0.8,3.4,0.1c0.4,0.9-0.4,0.9,0,2.1c0.4,1.3,2.9,2.8,3,2.9c0.1,0.1,1.3,0.1,1.6,1.9c0.4,1.8,1.9,3.6,3,3.9
	c1.1,0.2,1.4,0.4,3.1,0c1.8-0.4,2-1.9,3.1-2.3c1.1-0.4,1.6-0.8,1.6-2c0-1.3-1-1.5,0-3.4s0.6-1.8,1.5-3.5c0.9-1.8,0.4-1.4,1.1-2.9
	s1.6-1.6,2.5-1.4c0.9,0.2,1.9,1.3,2.9,1.3s1.1,0.5,3.6,0.9s3.3,1,4.5-0.2c1.3-1.3,2.5-1.5,3.9-2s1.9-2.4,1.1-3.4
	c-0.8-1-0.3-1.1-2.4-2.1c-2.1-1-2.8-3.5-3.3-4.1s-0.5-2.8-0.5-3.4c0-0.6,0.5-3.5,0.5-3.5s1.5-0.4,2.9,0.3c1.4,0.6,3,1.9,4.3,1.6
	c1.3-0.2,1.4-1.8,2.5-1.8s1.8-0.6,2,1.1c0.3,1.8,1.1,3.6,2.1,3.6s2.9,1.4,2.9,2.8c0,1.4,1.1,3,1.3,3.4c0.1,0.4-0.9-0.4,0.9,0.5
	c1.8,0.9,2,1.4,2.9,2.8c0.9,1.4,0.5,1.3,1.6,2.3s2.5,1.5,3.4,2.5s0.6,0.5,2.1,2s-0.6,2.9,1.4,2.9s2,0,2,0s1.5-0.5,2,1.3
	s1.8,3.4,2.8,3.4s2.8-1.1,3.9-1.9c1.1-0.8,0.6-1.6,1.8-2.9c1.1-1.3,1.9-2.6,2-3.9c0.1-1.3,1-1.4,1.3-2.5c0.2-1.1,1-0.6,2.5-0.6
	s2.6,1.1,3.8,1.1c1.1,0,1.9-0.4,2.8-0.9c0.9-0.5,3.5-0.9,3.5,1s-0.9,2.3,0.5,3.3s2.6,1.6,3.4,1.9c0.8,0.3,2.4-0.5,2.9,0.6
	s0.8,0.5,1.1,1.8c0.4,1.3,2.3,2,2.6,3.6c0,0-0.1,3.1-0.8,3.1c-0.6,0-1.4,0.6-2.1,1.1c-0.8,0.5-1.6,0.5-2.3,1.3
	c-0.6,0.8-0.2,2.1-0.9,2.3c-0.6,0.1-1.9,0-1.5,1s0.9,0,1.3,1.4c0.4,1.4,1.4,1.8,2.3,2.8c0.9,1,1.8,1.9,0.9,2.4
	c-0.9,0.5-1.1,1.3-2,2.3s-0.9,1-0.9,1s0,0.1-0.5,1.4c-0.5,1.3,0.1,1.3-1.4,1.6c-1.5,0.4-3.6,0.9-3.4,2.1c0.3,1.3,0.5,1.6,0.5,2.5
	s0.9,2.6,1,2.9c0.1,0.2,1.8,1.1,2.5,1.3c0.8,0.1,1-0.4,1.4,1.3c0.4,1.6,1.3,3.9,1.3,5.3s-0.3,3.9,0.1,4.3c0.4,0.4,0.9,1.5,1.8,2.4
	c0.9,0.9,0.5,1.3,0.5,2.5c0,1.3,0.4,2.8-0.9,3s-2.4,0.5-2.5,2.3s-0.4,3.1-0.4,4.8c0,1.6-1.1,3.6,0,4.4c1.1,0.8,3.1,3.5,4.4,3.1
	c1.3-0.4,0.8-1.4,2.3-2s3.8-1.6,4.1-0.3c0.4,1.4,1.6,0.8,1.6,2.3s0.5,3,2.8,3.1s3.8-0.6,3.8-1.9c0-1.3,1.4-1.9,2.3-2.3
	c0.9-0.4,1.9-2.1,2.6-2.8c0.8-0.6,1.3-0.4,1.4-2.6c0.1-2.3,1.6-2.5,2.1-4.4s1.1-2.6,2-3.9c0.9-1.3,0.9-2.9,1.5-4.4s3.6-3.1,3.9-3.8
	c0.3-0.6,3-0.9,3.9-0.9s3.3,0.1,3.5-2c0.3-2.1-1.9-5.6-2.1-5.9c-0.2-0.2-1.5-0.9-1.9-3s-1.1-1.8-0.9-3.6c0.3-1.9,0-1.3,1.6-2.9
	c1.6-1.6-1-1-0.5-3s0.3-3.3,0-3.6c-0.3-0.4,0.1-1.4-0.3-3.8c-0.4-2.4-1.3-4.9-0.9-6.5c0.4-1.6,0.8-4.9,0.4-6.3
	c-0.4-1.4,1-2.1-0.5-3.9c-1.5-1.8-3.1-5.9-3-7.8c0.1-1.9,0.8-4.3,0.8-5.1c0,0-0.5-1-1.1-2.6s-0.3-2.6-0.9-3.9
	c-0.6-1.3,0.5-0.8,0.5-2.8s0.9-2.5,0.9-3.9s0.3-1,1-2.9c0.8-1.9,1.1-2.4,0.9-4.6c-0.3-2.3,0.4-4.4-0.5-5s-0.3-1.3-0.3-3.4
	c0-2.1,1-2.3,1-4.4c0-2.1-0.6-0.9-0.8-2.8c-0.1-1.9-1.1-3.3,0.2-4.3c1.4-1,1.6-0.4,1.8-1.9s0.9-3.5,0.4-4.3s-1.3-1.4-0.3-2.9
	s0.9-3.4,0.8-3.5c-0.1-0.1-2.1-1.6-2.9-2.1c-0.8-0.5-1.5-1-2.6-1.3s0.5-2.6-1.1-0.3c-1.6,2.4-1.9,2-2,3.4s-2.4,1.3-3,0.8
	s-2.3,0.5-2.5-1.5c-0.3-2-1.1-2.5-1.3-3.5c-0.1-1-0.6-1.8-1.3-2.3c-0.6-0.5-0.9-1.3-1.9-1.5c-1-0.3-1-1.3-1.6-1.9
	c-0.6-0.6,0-0.1,0-2s-0.5-2.9-1.3-3.1c-0.8-0.3-0.8-0.4-2.1-1.5c-1.4-1.1-0.2-0.3-0.4-2.3c-0.1-2-1.5-3-1.5-4.5c0,0,0.6-1.5,1.8-1.5
	s2.3,0.2,3.1-0.3c0.9-0.5,1.1-2.3,1.1-2.3s1.1,1.9,1.6,1.9s1.6-0.8,1.6-0.8s1.4-2.1,1.9-2.6s1.9-1.4,2.3-2c0.4-0.6,1.6-1.3,2.1-1.8
	s1.5-1.4,2.8-1.6c1.3-0.3,2.1-0.6,2.1-1.8c0-1.1,1.6-1.6,1.6-1.6s0.5,0.8,1.6,0.9c1.1,0.1,2.8,1.5,3.3,1.6s0.9-1.3,1-2.1
	c0.1-0.9,1.3-1.3,1.1-2.1c-0.1-0.9-2-1.5-2.2-2.6c-0.1-1.1-1.3-1.5-1.3-3.1s-0.2-2.6-0.6-3.6c-0.4-1-2-3.1-2-3.1s1.9-0.4,2.1-0.8
	c0.3-0.4,0.4-2.4,0.4-3.5s-0.8-3.8,0.4-4.4c1.1-0.6,1.8-1.8,2.5-2.3c0.8-0.5,1.6-2.5,1.6-2.5s-1-1.9-1.5-2.1c-0.5-0.3-0.1,0.1-1-1.8
	c-0.9-1.9-1.8-2.4-0.5-3.9s0.9-2,0.8-2.8c-0.1-0.8,1.6-0.9,2.3-1.6c0,0,0.8-1.3,1.3-1.8s1.8-0.1,2.3-1.1s2-1.3,2.5-2.4
	c0.5-1.1,1.9-0.4,2.1-0.4c0.2,0,1.9,1.3,2.1-0.1c0.3-1.4-0.6-1.9-0.6-2.9s0-1.5,0-2.8s0.9-1.6,1.5-2.3c0.6-0.6,0.9-0.6,1.8-1.5
	c0.9-0.9,2-1.8,2-2.9c0-1.1,1.1-2,1.4-2.1c0.3-0.1,0.2-0.8,0-1.6c-0.2-0.9-0.6-1.5-0.8-1.8c-0.1-0.3-0.8,0-1.4-1.8
	c-0.6-1.8-0.5-3-1.1-3.5s1.9-0.6,1.9-1.4s1.3-3.6,1.6-4.9c0.3-1.3-1.1-2-1.1-2.5s0.2-0.3,1.6-1.3c1.4-1,2.1-0.6,3-1.8
	c0.9-1.1,1.6-1.4,2.6-2.1c1-0.8,2.3-0.9,3.4-1.9c1.1-1,2-1.1,2.9-2.3c0.9-1.1,2-1.9,2.4-3.5s0.9-3.9,1-4.4s0.1-1.1,1.5-1.4
	c0,0,0.8-1.9-0.6-2.5c-1.4-0.6-1.4-1-2.8-0.8c-1.4,0.3-1.8,0.1-2,0c-0.3-0.1-0.1,1.3-2-0.6c-1.9-1.9-2.3-2-3.3-2.6s-0.9-1-1.1-2.1
	c-0.3-1.1-0.5-2-0.5-3.5s0.9-1,1.3-1.5c0.4-0.5,0.6-2,0.6-3.9s1.3-3.1,1.3-5s1-2.9,1.5-4.6c0.5-1.8,1.3-2.3,2.1-3.6
	c0.9-1.4,2.6-1.4,3-2.6c0.4-1.3-1.3-2.8-1.4-3.8c-0.1-1-0.9,0.9-1.6-0.4c-0.8-1.3,0.3-2.3-0.6-4.5c-0.9-2.3-1.3-3.1-3.3-3.6
	s-3.1-1.1-4.1-3s-1.1-2.9-0.8-4.8c0.4-1.9,1.4-2.4,2.5-2.8c1.1-0.4,1.8-1.6,1.9-2c0,0,0,1.3,0.5,1.5s0.3,1.3,0.3,1.5
	s-0.9,0.2,0.1,1.4s1.6,0.4,2,1.5s1.4,1.3,1.6,1.3c0.3,0,1.2-1.1,1.6-1.1s1.5-0.4,2.7,0s2.4,0.8,2.8,0c0.4-0.8,1.6-1.8,2.3-1.6
	c0.8,0.1,1.5,0.2,2.6,0.4c1.1,0.3,3.4,0.8,4.6,1.8c1.2,0.9,2.4,1.8,3.1,1.9c0.7,0.1,1.9,0.5,2.2,1.2s1,1.8,1,1.8s-0.3-2,0-2.9
	s0.7-2.1,1.2-2.8s0.2-2.6,0.8-3.1s-0.6-0.6-0.7-1.6c-0.1-1.1-1.6-3.4-1.8-3.5s-0.2-0.4-1-1.8c-0.8-1.3-1.1-2.3-1.1-3.8
	c0-1.4-1.3-0.9-1.6-1.7c-0.4-0.8-0.8-1.8-0.8-3.4s-0.1-3.9,1-4.1s1.4,0.3,1.9-1.1c0.6-1.3,0.1-1.4,0.3-2.3c0.1-0.9,0.3,0.6,0.6-0.6
	c0.2-1.2,0.7-2.4,0.7-3.2c0-0.8,0.6-0.8,1.4-0.8c0.8,0,1.6-0.3,1.8-0.6c0.1-0.3,1-0.8,1.2-0.8c0.2-0.1-0.3-0.6,0.3-1.1
	s1.3,0.2,1.3,0.3c0.1,0.1,0.8,0.3,1,0.8c0.3,0.5,0.3,0.8,1.4,1.2c1.1,0.4,2.4-1.1,2.8-1.8c0.4-0.6,2-2.2,2.4-2.4
	c0.4-0.3,0.4-0.3,0.4-0.3s1.6-0.8,1.7-0.8c0.1-0.1,1.6-1.4,2.1-2.1c0.6-0.6,0.4-1.6,1.6-2.4c1.2-0.8,2.2-1.5,2.6-2.2
	c0.4-0.7,1.9-0.5,2.3-0.8c0,0,0.9,0.5,1.4-0.1s0.8-2.2,1.2-2.3c0.4-0.1,1.4,0,1.8,0.1c0.4,0.1,1.1,0.6,1.8,0.1
	c0.6-0.4,1.6-1.2,2.2-1.8c0.6-0.6,1.5-1.4,1.4-2.1s-0.2-1.3-0.6-2c-0.3-0.8-0.9-1.7-0.5-2.3c0.4-0.6,1.1-2.3,1.8-2.7
	c0.7-0.4,1.3-1.3,1.6-2s0.9-1.3,1.6-1.6c0.6-0.4,1.5-0.4,2-0.4s1.6-0.4,2.6-0.7c0.9-0.3,2.1-0.9,2.3-1.6s1.2-2,1.6-2.5
	c0.4-0.5,1.4-0.9,1.8-1.9c0.3-1,0.3-1.7,0.8-2.3c0.6-0.6,1.7-0.9,1.7-1.6c0-0.8,1.3-1.8,0-1.9c-1.3-0.2-2-0.4-2.3-0.8
	s-0.2-1.8,0.4-2.3c0,0,1.3-0.4,1.6-1.2c0.3-0.8,0.5-0.9,0.9-1.8s0.9-2.1,1.2-2.6c0.3-0.6,1-0.9,1-1.8s-0.8-0.4-0.9-1.4
	c-0.1-1-0.1-0.9-0.1-2s-1.5-1.8-0.7-1.9c0.8-0.2,1.9-0.2,2.4-0.2s1.6-0.5,1.8-0.9s0.8-0.1,1.3-0.1c0.6,0,1.3,0.2,1.5,0.7
	c0.3,0.5,1.3,1,1.7,1.1s0.9,1.3,1.1,0.1c0.3-1.2,0.4-1.8,0.9-2.3s0.9-1.1,0.9-2s-0.3-1-0.9-1.4c-0.7-0.4-0.6,0.1-0.6-0.8
	s0.5-0.8,0.8-1.9s1.1-1.1,1.2-1.7c0.1-0.6,0.6-0.9,1.3-0.9c0.6,0,1.5,0.1,2.4-0.3s1.3-1.4,1.9-0.9c0.6,0.6,1.9,0.6,2.2,1.1
	c0.3,0.4,1.1-0.6,1.1-1.1c0-0.4-0.7-1.3-0.8-2s-2.4-1.2-2.8-1.5c-0.4-0.3-1.6-1.4-2.1-2.3c-0.5-0.8-1,0.1-2-0.2
	c-1-0.2-2.4-0.9-3.1-0.9c-0.7-0.1-1.5-0.9-2.3-1.3s-1.3-0.8-1.9-1.3c-0.6-0.5-0.3-1.7,0.3-2.1c0,0,0.8-1.4,1.2-1.5s0.8-0.4,1.3-0.8
	c0.6-0.4,1.6-0.6,2.6-0.9c0.9-0.3,1.4-1.4,1.3-1.9c-0.2-0.5-0.8-1.1-0.2-1.9s1.4-2.1,1.3-2.8c-0.1-0.6-0.5-1-1.1-1.6
	s-2.2-1.1-3.6-1.6c-1.4-0.6-2.8-0.9-3.6-1.4c-0.8-0.6-2.8-1.2-3.9-1.5c-1.1-0.3-3.4-1.9-4.4-2c-1.1-0.1-0.8,0.1-3.3,0.1
	s-4.4-0.1-5.7-0.3c-1.3-0.3-1.4-0.6-2.2-1.1c-0.8-0.4-1.6-0.8-2.4-0.4c-0.8,0.3-1.9-0.2-2.2-0.5s-1.1-2-1.7-2.4
	c-0.6-0.4-0.8-0.9-1.7-1.7c-0.9-0.8-1.2-1.3-1.8-2s-1.4-2.2-1.6-2.5c0,0-0.7-0.9-1.7-0.9c-1-0.1-2.2,0.4-3.4-0.1s-2.3-1.1-3.1-1.8
	c-0.8-0.6-1.4-0.3-2.4,0.1c-1.1,0.3-2.8,0.6-3.8,0.3c-1-0.4-2.3-0.6-3.1,0.1c-0.8,0.6-1.8,1.9-3.3,2.1s-2,0.8-3.1,0.9
	c-1.1,0.2-1.9-0.3-3.7-0.6c-1.8-0.3-2.9-0.4-4.3-0.5c-1.4-0.1-0.2-0.9-1.8-0.1s-2.4,1.1-2.8,0.3c-0.4-0.9-1.4-2.1-2.9-2.5
	c-1.4-0.4-1.6-1.1-2.8-2.3c-1.1-1.2-1.7-1.9-2.4-2.6c-0.8-0.6-1.2-1.3-2.2-0.9c-1,0.3-2.6-0.6-3.2,0.1c-0.6,0.8-1.3,1.3-1.5,2.3
	c-0.2,0.9,0,1.1-1.3,1.3c-1.3,0.3-1.4-0.5-2.2-1.2s-1.3-2.4-2.4-1.3c-1.1,1.2-2.6,1.6-2.9,2.5c-0.3,0.9,1.4,1.3,1.4,1.9
	c0,0.7-0.3,1.9-1.4,2.6c-1.2,0.7-2.4,0.8-3.4,1.6c-1,0.8-1.4,1.3-1.8,2.8c-0.4,1.6-0.8,0.2-1.6,1.4c-0.8,1.3-0.9,2-1.4,2.7
	c-0.6,0.7-1.7,1.4-2.2,1.4c0,0-1.3,0.6-1.6,1.1c-0.3,0.4-0.6,0.6-1.3,0.6c-0.6,0-2.1,0.3-2.4,0.9c-0.3,0.6-0.2,2.1-1.2,2.6
	c-1,0.4-1.1,1.1-1.2,1.9c-0.1,0.8-1.3,2.9-1.3,3.6s-0.8,2.4-1.1,2.7c-0.4,0.3-1.1,0.2-1.4,1.2c-0.3,1-0.4,2.9-0.5,3.9
	s0.1,2.2-1.1,2.4c-1.1,0.2-2.3,0.1-2.9,0.4c-0.6,0.3-1.4,0.4-2.4,0.1c-0.9-0.3-1.8-1.7-2.1-1.7c0,0-1,0.3-1.9-0.8
	c-0.9-1.1-2.3-1.6-3.1-2.1c-0.8-0.6-1.3-0.9-2.4-0.9c-1.2,0-3-0.5-3.9-0.5s-2-0.1-2.9-2s-1.9-4.1-2.4-5s-0.8-2.4-0.8-4.6
	c-0.1-2.2,0.3-3.9-0.1-5c-0.4-1-0.4-1.4-0.3-2.6c0.2-1.1-0.1-1.5-0.3-2.3s0,0.1-0.8-0.2c-0.8-0.3-2.3-0.9-2.4-1.9
	c-0.1-1,0.1-1.4-0.4-2.7c-0.4-1.3-0.4-3.1-0.4-3.1s0.9-0.9,1.3-1.6c0.3-0.6,0.8-0.8,0.8-1.7c0-0.9-0.7-0.9-1-1.8
	c0,0-1.4-0.9-1.8-1.3c-0.4-0.4-0.6-1.8-0.3-2.1c0.3-0.3,0.6-1.9,0.7-2.2c0.1-0.3,0.6-1.3,1.1-2.5s0.4-1.8-0.1-2.3s-0.5-0.4-0.9-1.1
	s-1.4-1.1-1.3-1.9c0.1-0.9,1.3-2.3,1.4-2.6s0.4-1.3,1.4-1.3c0.9-0.1,1.9-0.7,1.8-0.9c-0.1-0.2-0.4-0.6-0.9-1.2s-1.3-1.1-1.9-0.7
	c-0.6,0.4-0.1,0.1-1.2,0c-1.1-0.1-1.7,0.1-2.3-0.4s-0.7-0.8-1.9-0.4c-1.3,0.4-2.3-0.4-3.2-0.4s-2.4,0.1-2.4,0.7s-0.8,1-0.9,1.1
	c-0.1,0.1-2-0.6-3.3-0.9s-3.2-0.5-4.4-1.4c-1.3-0.9-2.6-1.2-3.3-2.3s-2.6-2.2-3.3-2.6s-2-1.8-2.9-2.6c-0.9-0.9-1.4-2.6-2.3-3.3
	c-0.9-0.7-2.1-2.1-2.1-2.3c-0.1-0.1-1.4-1.3-1.4-1.3l-0.5-0.4c0,0-0.5,1.2-0.8,1.4c-0.3,0.3-1.3,0.4-1.6,1s-0.8,0.7-1.6,0.5
	s-1.7-0.6-2-1.6s-0.8-1.4-1.3-2.1c-0.6-0.7,0.4,0.4-0.2,0.6c-0.6,0.3-1.4,0.8-2,1c-0.6,0.3-1.7,1.3-2.1,0.4
	c-0.4-0.8,0.3-0.1-0.6-1.1c-0.9-1.1-0.9-1.5-1.5-2.3s-0.7-0.4-1.9-1s-1.2-0.6-1.6-1.2c-0.4-0.6-0.9-1.4-0.9-1.4s0.5,0.2,1.1-0.6
	c0.6-0.8,0,0.2-0.5-1.1c-0.5-1.3-0.9-2.2-1.1-2.3c-0.1-0.1,0.3-0.4,0.2-2.1c-0.1-1.6-0.2-1.4-1-2.2c-0.8-0.8,0.2-0.3-1.1-1.4
	s-2-1.4-2.6-2s-0.8-2-1.4-2.3c-0.6-0.3-1-0.4-1.4-0.7c-0.4-0.3-0.4-0.8-0.8-1.3c-0.4-0.6-0.7-2.8-0.9-3.3c0,0,0.1-1.2-0.6-1.6
	c-0.7-0.4-1.2-1.2-1.5-1.9c-0.3-0.8-1.4-0.6-1.9-0.6s-2.6-0.2-2.8-0.4c-0.3-0.2-1.1-0.8-1.4-1.1c-0.2-0.4-0.5,0.1-1.1-1.2
	c-0.6-1.3-0.5-1.4-0.5-2.4s-0.2-1.4-0.9-1.4c-0.7-0.1-2.3-0.6-2.9-0.8s-2.8-0.5-3.1-0.7c-0.4-0.2-1.3-0.2-2.3-0.3
	c-1.1-0.1-2.3-0.2-2.5,0.3c-0.3,0.4-1.2,0.8-1.9,0.9c-0.8,0.1-1.7,0.6-2.4,0.8c-0.8,0.1-1.8,1.1-1.9,1.3c-0.1,0.3-0.9,1-1.6,1.4
	c-0.7,0.4-1,1.2-2.4,1.2s-2.3,0.3-3.1,0.4c-0.8,0.2-1.5,0.3-1.8,0.8c-0.2,0.6-0.6,1.4-0.6,2.1s0.1,2.2-0.6,2.4
	c-0.6,0.2-0.3,0.9-1.1,1.4c-0.8,0.4-1.8,1.9-1.9,2.3c-0.1,0.3-0.4,0.6-1.8,1.3c-1.4,0.7-4.5,1.5-5,1.9s-1.6,0.2-2.1-0.3
	c-0.6-0.5-1.8-2.6-1.5-3.2s0.1-1.5-0.6-1.8c-0.6-0.2-1.4-0.2-1.9-0.2c0,0-0.6-0.4-1.5-0.4s-1.9,0.7-2.3,0c-0.4-0.7-0.2-1.9-0.9-2.4
	c-0.8-0.5,0.1-1.8-1.8-2.1c-2-0.3-2.4-0.3-4.8-0.9c-2.4-0.7-2.2-0.8-3.9-1.4c-1.8-0.7-3.4-0.7-4.5-0.9c-1-0.2-2.8,0.8-4,0.1
	c-1.3-0.8-2.8-1.4-3.2-2.4c-0.4-0.9,0-2.2,0-2.2s-0.6-0.8-0.7-0.8c0,0-0.7-1.1-1.7-1.2c-1.1,0-2.3-1.2-3.6-1.2s-3-0.5-3.8-0.6
	s-1.5-0.9-1.6-1.7c0,0,0.4-0.8,0.6-0.9c0.2-0.1,0.9-1.3,0.9-1.4s1.2-1.3,1.7-1.6c0.5-0.4,1.6-1.9,1.4-2.5c-0.2-0.6,0-0.9-0.9-2.3
	s-1.5-2-1.2-3.1c0.3-1-0.2-1.3-0.8-1.4c-0.5-0.1-1.7-0.7-1.8-0.8c-0.1-0.2-0.8-0.7-0.2-1.6c0.5-1,0.4-2.1,0.4-2.7
	c0-0.7,0.6-1.3-1-1.7c-1.6-0.4-3.2-2.7-3.5-3.2s-1.5-2.1-1.3-2.9s-0.8-1.5-0.8-1.5s-1.2-0.7-1.6-1.2c0,0-0.8-1.6-1.5-1.8
	c-0.7-0.2-1.3-0.2-2.5-0.7s-2.4-0.8-2.4-1.8c0-0.9-0.7-1.3-1.4-1.3s-1.6,0.6-2.3,0c-0.8-0.6,0.1-1.6,0.2-1.6c0.1,0,0.4-0.6,0.5-1.7
	c0.1-1.2,0.3-2.5,0.9-3.7c0.6-1.2,1.1-2.4,1.1-3.2s-0.6-2.4,0.1-3.1c0.8-0.8,1.5-1.9,1.9-2.1c0.4-0.2,1.2-1.1,2.2-1.5
	c1-0.3,2.3-1.2,2.9-1.2c0.7,0,1.9-0.7,2.2-0.9s1.1-1.4,1.1-1.4s-0.5-0.5,1.1-0.5s2.7,0,3.2-0.1s1.6-0.3,1.6-1s0-0.9,0.6-1.3
	c0.6-0.3,1.1-0.8,1.6-1.4c0.5-0.6,0.3-1.3,0.5-2.2c0.2-0.8,0-1.2-0.3-1.4s-1.1-1.3-0.6-1.8s1.3-1.8,1.4-2.6c0.1-0.8,0.7-1.2,1.1-1.4
	c0.5-0.1,1.3-1.2,0.9-1.5c-0.4-0.3-0.2-0.8-1-1s-2.5-0.2-2.9-0.2s-1.6-0.2-1.8-0.6c-0.2-0.4-1.1-0.8-1.2-1.5c0-0.6,0.2-0.9-1.4-1.4
	c-1.6-0.5-2-0.1-2.7-0.7c-0.7-0.6-1.7-1.2-2.2-1.7s-2-0.9-2.3-1.5c0,0-0.2-0.3-0.1-1.4c0-1.1-0.4-1.6-0.5-2.2c0-0.6-0.2-0.2-1.1-1.3
	c-0.9-1.1-1.5-1.1-2.7-1.3s-3.4-0.5-3.9-1s-1.4-0.7-2.3-0.9c-0.8-0.2-2.3-1.1-2.6-1.3c-0.4-0.2-1-0.2-0.6-1.1c0.4-0.9,0.8-2,0.8-2.9
	s0.6-2.5,0.7-2.7c0-0.1,0.1-0.8,0.1-1.8c0-0.9,0-2.7,0-3.4c0-0.8-0.3-1.6-0.3-1.7c0,0,0-1.6,0.1-2.1s0.9-1.3,1.1-1.6
	c0.1-0.2,0.4-0.5,0.4-1.4s-0.2-1.5-0.4-2.1s-0.6-1.4-0.6-2.4s0-2.9,0-3.5s0.1-2.6,0.1-3.1s1-1-0.6-1.3c-1.6-0.2-4.1-1.4-4.9-1.9
	c-0.8-0.5-3.3-0.9-4.1-1s-3.8-1.4-4.2-1.4c0,0-2.9-0.7-3.9-0.5c-0.9,0.2-2.5,0.2-4,0.2c-1.6,0-1.8,0.4-3.8,0.3c-2-0.1-1,0.1-2.7-0.6
	c-1.7-0.6-2.1-0.2-3.7-0.6c-1.6-0.4-2.7-1.3-3-2.2s-0.1-0.4,0.4-2.4s0.6-2.3,1-3.5c0.5-1.2,0.8-1.8,0-2.5s-1.9-1-2.4-1
	c-0.4,0-1.2,0.1-1.2-0.7s0.4-1,0.3-2c-0.1-1,0.6-2.4-0.2-2.5s-0.4-0.3-2.1-0.2c-1.7,0-3,0-3.8,0.2c-0.8,0.3-1.9-0.3-2.8-0.2
	c-0.8,0.1-1.8-1.3-2-1.4c-0.2-0.1-0.5-0.6-0.1-2.1c0,0,0.1-1.2,0.4-2.1c0.2-0.9,0.2-2.7,0-3.1c-0.2-0.4-0.5-1.3-1.3-2.8
	s-0.9-3.3-0.9-3.9c0-0.5,0.6-1.2,1.1-2.3s0.6-2.4,1-3.2s0.8-1.2,0.4-1.7c-0.3-0.5-1.5-1.9-2.3-1.9s-1.6,0.6-3.1-0.7
	c-1.4-1.3-2-2.6-2.7-2.7c-0.8-0.1-2.3-0.8-2.6-1.1c0,0,0-0.4,0-1.5s-0.3-1,0.2-2c0.5-0.9,0.9-1,1.3-1s1.5-0.4,1.8-0.9
	s1.5-1.1,1.5-2.1s-0.1-2.5,0-2.8s-0.9-1.2-1.7-1.3c-0.8-0.1-2.1-1.2-2.4-2.5s-1.7-1-2.8-1.5s-3.1-2.2-3.1-2.2s-0.8,1.1-1.1-1.1
	s-0.2-1.8-0.6-3s0.2-2.3,0.4-2.4c0.1-0.1,1.4-1.3,1.4-1.4c0,0,0.6,0.4,0.9-0.7c0.4-1.1,0.2-2.5,0.5-3.5c0.2-0.9,0.8-2.1,1.3-2.3
	c0.5-0.2,2.3-1.4,2.5-2.1c0.3-0.7,2.7-2.2,2.9-2.7c0.2-0.5,0.6-2.6,1.5-3.1s1.5,0,2.5-0.4c1.1-0.5,2.9-2.9,3.2-3.2
	c0.3-0.4,1.3-0.7,2-1s2.1-0.8,2.5-2.2c0.5-1.3,0.2-2.2,0.4-3.2c0.1-1,0.3-1.8,0.1-2.4c0,0-0.3-1.6,0-2.2s0.5-1.8,1.2-2.3
	s0.8-2.2,0.8-2.7s-0.3-1.3-0.2-2.4s-0.1-2.2-0.1-2.9s1.1-1,1.6-1.7s1.2-0.9,1.3-1.9c0.1-0.9,0.2-1.5,0.2-2.7s0.3-2.4,0.3-3.1
	c0-0.8-0.2-1.8-0.2-2.3c0,0,0.1-2.1,1.1-3c0.9-0.9,1.9-2.4,2.3-3.4c0.4-1.1,2-2,2.4-2.3s1.8-1.2,1.9-1.8c0.1-0.6,1.2-0.8,1.2-1.5
	c0-0.6,1.4-2,1.4-3.1c0-1,0.1-1.1-0.4-2.2c-0.5-1.1-1.1-0.8-1.4-1.6c-0.2-0.8-0.4-1.2-0.6-1.8s-0.4-0.4-0.9,0
	c-0.6,0.4-2.6,0.6-3.2,0.6c-0.6,0-0.9,0.2-1.2-1c-0.2-1.2-0.7-2-1.2-2.7s-0.7-0.7-1.6-1c-0.8-0.3-1.9-1.2-2.4-1.3
	c-0.5-0.1-0.8,0.1-1.1,0.6c-0.4,0.5,0.2,0.4-1,0.8s-3.3-0.1-3.9,0.3c-0.7,0.4-0.6,0.1-1.4,0.8c-0.8,0.7-1.8,0.8-2.4,1.3
	c-0.7,0.5-0.7,0.5-0.7,0.5s-2,1.1-2.7,1.3c-0.7,0.1-1.7,0.2-2.4,0.8c-0.8,0.6-4,2-4.1,2c0,0-2.7,1.1-3.1,1.4
	c-0.4,0.2-0.4,1.6-1.6,2.2c0,0-2.3,0.6-2.8,1s-0.7,1.6-1.4,2.1c-0.8,0.5-2.4,1-3.5,1.2c-1.2,0.1-2.9,0.3-3.4,0.9
	c-0.6,0.6-3.2,2-3.5,2.4c-0.3,0.5-1,2.2-1.6,2.9c-0.7,0.7-1.3,2.4-2.7,2.8c-1.5,0.4-3.8,0.5-4.9,0.1c-1.2-0.4-4.3-0.6-5.3-0.3
	s-2.8-0.6-3.4-0.7c-0.7-0.1-0.9-0.9-1.3-1s-0.1,0.1-0.9,0.2c-0.8,0.1-1.6,0.1-2.1-1c0,0-0.3-1.6-0.9-1.9c-0.6-0.3-1.7-0.3-1.8-1.2
	c-0.1-0.8-0.4-1.4-0.8-1s-1.1,0.9-1.4,0.7c-0.2-0.2-0.9-0.3-1.1-1.4c-0.2-1.1-0.8-1.6-1.1-1.6s-0.9,0.1-1.3-0.3
	c-0.3-0.5-0.2-0.8-0.8-1c-0.5-0.3-1.3-0.7-1.5-0.2c-0.2,0.4-1.1,0.6-1.6,0.8c-0.4,0.2-0.4,0.2-0.4,0.2s-1.1,0.3-1.3,0.3
	c-0.1,0-0.5-0.6-0.8-1.6c-0.2-0.9-1-0.4-1.7-0.8c-0.7-0.4-1.3-1.1-1.2-2.3c0.1-1.1,0.4-2.4,0.2-2.9c-0.2-0.5-0.5-0.6-1.2-0.6
	s-1.1-0.6-1.8-0.8c-0.8-0.2-1.8-0.4-2.3,0c-0.5,0.3-1.3,0.8-1.9,1.5c-0.7,0.7-1.6,1.3-2.2,2.1s-1.2,2-2.2,2.1s-3.4,1.1-4,0.5
	c-0.6-0.7-1.6-1.4-2-1c-0.3,0.4-1.7,1.1-2.3,1.1c-0.6,0-1.7,0-2.1,0.7c-0.3,0.8-1.6,1.1-2.3,0.9c-0.7-0.2-0.8-0.6-1.2-1.7
	c-0.5-1.1,0.4-2.2-0.6-2.5s-1.5-1.3-1.9-1.6s-1.1-1-1.6-0.9c0,0-0.4,0.4-1.2,0.6c-0.8,0.1-1.5,1.2-2.4,0.7s-0.7-1-1.3-1.5
	c-0.7-0.5-1.1-0.6-1.5-0.5s-1.4,0.1-2.1,0.1s-1.5,0.2-1.9-0.8c-0.4-0.9-1-0.8-1.6-1.1c-0.5-0.3-1.3-1.3-1.8-1
	c-0.6,0.3-0.7,0.2-1.5-0.2c-0.8-0.5-1.6-1.1-2.4-1.6c-0.8-0.6-1.2-1.7-0.6-2.5c0.7-0.8,0.9-1.1,0.9-1.6s0-1.2,0.4-1.7
	s1.4-0.8,1.7-0.9c0.3-0.1,0.5-0.2,0.6-0.8c0.1-0.6,0.3-0.6-0.5-1.6s-1.3-1.5-1.8-1.8s-0.1-2.1-0.9-2.1s-1.4,0.5-1.9-0.4
	s0.2-1-0.7-1.6c-0.8-0.6-1.2-1.4-1.1-2.4c0-1,0.5-1.6,0.6-2.6c0-0.9,0.3-1.1,0.5-1.7c0,0-0.9-0.4-1.1-0.8c-0.2-0.5-1.2-0.4-1-1.1
	c0.1-0.8,0.7-1.3,0.6-1.9c-0.1-0.7-0.7-1.3-1.1-0.9s-1.6,0.5-1.6,1.3s-0.9,2.5-1.2,3c-0.2,0.5-1,1.2-1.4,2c-0.4,0.8-0.4,1.7-0.9,2.1
	c-0.6,0.4-1.7,0.9-1.9,1.6c-0.2,0.7-0.6,0.8-0.8,1.4c-0.2,0.6,0,1.9-0.3,2.1c-0.3,0.2-1,0.7-1.7,1.1c-0.7,0.4-1.6,1.2-2,1.4
	c-0.3,0.2-0.5,0-1,0.2c-0.6,0.1-1-0.2-1.5,0.5s-0.9,1.2-1.7,1.2c-0.8,0-0.8-0.6-1.3-0.8c-0.5-0.2-1-0.9-1.8-0.9s-1.6,0-2.5,0.5
	c-0.8,0.5-2.1,1-2.8,1.3c-0.7,0.3-1.7,0.5-2,1.1s-1.1,0.2-1.7,0.2c0,0-3.1,0.1-3.6,0s-1.5-0.7-2.8-0.7s-1.8,0.5-2.7,0.5
	c-0.9,0-3.1,0-3.8,0.3c-0.6,0.2-0.6,1.3-1.5,1s-0.6-1.4-1.5-1s-1.1,1.1-2.2,1.1c-1,0-3-0.1-3.1,0s-0.5-0.2-1.2,0.8s-2.6,2-2.8,2
	c-0.2,0-2.1,0.2-3.2-0.5s-2.8,0-3.6,0.2c-0.8,0.2-3.7-0.6-4-0.6s-1.7-0.2-2.6,0.3s-2.1,0.1-2.7,0.9s-1.1,2.1-1.6,2.5
	s-1.3,1.2-1.8,1.9c-0.5,0.8-2,1.7-2.7,1.9c-0.7,0.2-1.7,0.3-2,1s0,1.9-0.4,2.5c0,0-0.8,0.5-1.3,1.2c-0.6,0.8-1.1,1.1-1.9,1.6
	s-1.5,1.4-2.4,1.6c-1,0.2-2.3,1-3,2c-0.7,0.9-0.7,0.9-0.7,0.9s-0.2,0.6-1.5,1.4c-1.3,0.8-1.8,1.8-2,2.8s-1,3.5-1.9,4.3
	s-2.1,0.3-2.7,1.8s-1.4,3.5-1.2,3.5c0.2,0,0.7,1.2,1.4,1.9c0.7,0.7,0.8,1,1.4,1.6c0.7,0.6,1.8,1.6,1.9,2c0,0-0.3,1.5-0.4,2.4
	s0,2.3,0,3s-1.2,1.8-2,1.8s-2.1-0.3-2.7,0.1s-2.2,0.2-2.7,0.8c-0.5,0.6,0.1,1.5-0.5,2.2s-2.9,1.9-3.3,2.4s-1.3,0.9-1.9,1.2
	c-0.7,0.3-0.5,0.6-1.6,1s-3.6,1.5-4.1,2s-1.2,1.5-2.1,2.1s-2.2,1.8-2.7,2.4s-1.8,2-2.1,2.8c-0.3,0.8,0.2-0.5-1.1,1.6
	c-1.4,2.1-1.2,2.9-1.7,3.7c-0.5,0.8-1.2,1.6-1.2,2.3c0,0,0.3,0.8,0.3,1.5c0,0.8,0.5,2.4,0.7,2.4c0.1,0,0,0.2,0.8,1.8
	c0.8,1.6,1.6,2.5,1.7,3.9c0.2,1.4-0.9-0.3,1.2,2c2.2,2.3,1.7,1.5,2.6,3.8s1.7,4.3,1.7,4.5c0,0.1,0.2,0.8-1.1,1c-1.4,0.3-2,0.8-3,1.9
	c-0.9,1.1-1.4,2.4-1.7,2.5c0,0,0.5,0.5,0.6,1.5s1,2.4,0.7,3.4s-1.1,1.8,0.1,2.9c1.3,1,1.6,1.9,2.3,2.6c0.7,0.7,1,0.9,3.1,1.4
	c2,0.5,3.2,0.7,4.1,1.6c0.9,0.8,0.8,1,2.4,1.1s3-0.7,3.7,0.4c0.7,1.1,0.3-0.7,2.4,2.9c2.1,3.5,0.4,3.1,2.1,4.8
	c1.7,1.6,1.5,0.8,3.2,3.1c1.7,2.4,1.8,3.4,2.5,4.1c0,0,1.2-0.2,1.2,1s-0.2,2.3-0.1,2.9c0,0.6,0.7,1.1,0.9,1.6
	c0.2,0.5,1.2-0.7,1.1,0.8c-0.1,1.4-0.9,2-0.2,3.1c0.7,1.1,1.5,1.3,1.6,2.1s-0.1,1.7,0.9,1.6c1-0.2,2.3-0.5,3-0.3
	c0.6,0.2,0.4-0.2,0.9,0.7s1.1,2.8,0.5,4s-0.6,1.1-0.3,1.9c0.3,0.8,1.2,1.8,0.7,2.8s-1.4,1.2-0.6,2.6c0.8,1.4,1.6,0.6,1.6,1.7
	s-1.3,2.5-0.8,3.3s-1,0.6,0.8,0.9c1.8,0.3,4.6,2.1,5,2s-0.5,0.8,0.9,0.6s0.6,2.4,0.3,3.7c0,0,0,1.5-0.6,2.1
	c-0.5,0.6,1.6,1.2-1.2,0.8c-2.8-0.4-4.7,0.5-5.8,0.8c-1.1,0.3-2.1,0.3-2.4,0.6c-0.4,0.3-1.6,0.4-1.8,1c-0.2,0.6-1.1,1.3-1.8,1.3
	c-0.8,0-2.3-0.5-2.7,0.2c-0.4,0.7-1.5,2.6-1.5,3.5c0,0.8,0.1,2.3-0.6,2.7c-0.7,0.5-1,2-1.6,2.8c-0.5,0.8-1.8,2.3-1.8,3
	c0,0.8-0.1,0.8,0.3,1.6s0.5,2.8,0,3c-0.5,0.1-0.9-1-2.1-0.5c-1.1,0.5-1.9,1.6-2.4,2s-1,0.9-1.7,0.9c0,0-1.7,0-1.7-0.6
	c0-0.5-1-1-1.6-0.6c-0.6,0.5-1.4,0.4-2.1,1s-1.7,0.5-2.4,0.6c-0.7,0.1-1.9-0.1-2.1,0.6c-0.2,0.7-0.9,2.6-1.4,2.9
	c-0.4,0.3-0.9-0.2-1.9-0.1c-0.9,0.1-2.3,0.2-2.4,0.9s0.4,0.3,0.3,1.7s-0.6,3.9-1.2,4.5s-0.8,3-0.8,3.5c0,0.6,0.8,1.1,0.8,2.2
	c0,1-0.4,2.9-0.6,3.7s0.6,2.6-0.2,3.1c-0.8,0.5-1.1,0.9-1.6,1.2c0,0-0.9,0.2-2.4,0.2s-2.1,0.4-3.3-0.3c-1.2-0.7-1.6,0.1-3-0.7
	c-1.3-0.8-1.5-1.6-2.4-2.6s-1.8-0.4-1.7-1.6c0-1.2-0.4-1.7-0.4-3c0-1.2,0.5-1.1,0.2-2.5s-0.6-2-1.2-2.4c0,0-1.5-0.4-2-1.3
	c-0.6-0.9-1-2-1.6-2.4c-0.5-0.4-0.9-1.3-1-2.1s-0.7-1.2-0.9-1.7s-0.2,0-0.7-1s-0.4-1.6-1.5-1.6c-1-0.1-1.6-0.2-2.2-0.5
	c-0.5-0.3-0.8-0.1-1.6,0.1c-0.7,0.2-1.3,0.6-1.5,0.6s-1.2-0.8-1.8-1.3c-0.7-0.5-1.1-0.8-1.8-0.9c-0.7-0.1-1.4-1.1-1.9-1.7
	c-0.5-0.6-0.8-1.9-1.6-1.9s-2.4-1-2.8-1.1c-0.5-0.1-1.6-0.2-1.6-0.7c-0.1-0.5,0.8-1.3-0.1-1.7c-0.9-0.4-1.4-0.4-2-0.1
	c-0.6,0.2-1.5-0.2-2,0.4c-0.6,0.6-0.6-0.1-1.3,0.3c-0.7,0.4-2.3,1-2.6,1.4s-0.3,1.3-1,1.4c-0.7,0.1-1.4,0.6-2.4,0.6
	c0,0-0.7,0.4-1.5,0s-1.6-1-2-1.3c-0.4-0.2-0.3,0.6-1.1,1s-2.2,0.9-2.8,1.1c-0.6,0.2-2.4,1.4-2.9,0s-0.8-1.3-1.2-1.5
	c-0.4-0.1-0.5-0.6-1.1-1.2c-0.6-0.7-1.6-1-2.1-0.4c-0.4,0.7-0.5,1.2-1.6,1.4s-3,1.2-3.6,1.6c-0.6,0.5-1.9,1-2.3,1
	C195.6,210.3,195.1,210.5,195.1,210.5z"/>
<g>
	<path class="st1" d="M608.2,464.2c0-1.1-0.8-1.9-1.9-1.9c-2.7,0-2.9,3.7-2.9,5.7c0,1.9,0.2,5.5,2.8,5.5c1.4,0,2.2-1,2.2-2.3h1.4
		c-0.1,2.1-1.4,3.4-3.6,3.4c-3.6,0-4.1-3.9-4.1-6.7c0-2.8,0.6-6.8,4.2-6.8c1.8,0,3.2,1.3,3.3,3.1L608.2,464.2L608.2,464.2z"/>
	<path class="st1" d="M620.2,461.4v9.6c0,2.4-1.8,3.7-3.6,3.7c-1.4,0-3.6-0.8-3.6-4.4v-8.8h1.4v9.6c0,1.9,1.2,2.5,2.3,2.5
		c1.7,0,2.2-1.2,2.2-2.7v-9.4h1.3V461.4z"/>
	<path class="st1" d="M630.3,463.7c-0.8-0.7-1.7-1.5-2.8-1.5c-1.2,0-2.1,0.8-2.1,2c0,0.7,0.1,1.3,1.9,2.4l1,0.6c2.4,1.5,3,2.1,3,3.7
		c0,2.3-1.5,3.7-3.8,3.7c-1.7,0-2.9-0.8-3.9-2.1l1-0.8c0.6,1,1.6,1.8,2.9,1.8c1.4,0,2.5-1,2.5-2.4c0-1-0.1-1.4-2.4-2.8l-1.2-0.7
		c-1.3-0.8-2.4-1.6-2.4-3.3c0-2,1.5-3.2,3.5-3.2c1.4,0,2.6,0.7,3.6,1.6L630.3,463.7z"/>
	<path class="st1" d="M640.6,464.2c0-1.1-0.8-1.9-1.9-1.9c-2.7,0-2.9,3.7-2.9,5.7c0,1.9,0.2,5.5,2.8,5.5c1.4,0,2.2-1,2.2-2.3h1.4
		c-0.1,2.1-1.4,3.4-3.6,3.4c-3.6,0-4.1-3.9-4.1-6.7c0-2.8,0.6-6.8,4.2-6.8c1.8,0,3.2,1.3,3.3,3.1L640.6,464.2L640.6,464.2z"/>
	<path class="st1" d="M649,461.1c3.8,0,4,4.3,4,6.7c0,1.7,0.1,6.7-4,6.7c-4,0-4-4.9-4-6.7C645.1,462.4,646.9,461.1,649,461.1z
		 M651.7,467.8c0-1.2,0.2-5.6-2.6-5.6c-2.9,0-2.6,4.8-2.6,5.6c0,1.5-0.1,5.6,2.6,5.6C650.4,473.4,651.7,472.5,651.7,467.8z"/>
	<path class="st1" d="M673,464.2c0-1.1-0.8-1.9-1.9-1.9c-2.7,0-2.9,3.7-2.9,5.7c0,1.9,0.2,5.5,2.8,5.5c1.4,0,2.2-1,2.2-2.3h1.4
		c-0.1,2.1-1.4,3.4-3.6,3.4c-3.6,0-4.1-3.9-4.1-6.7c0-2.8,0.6-6.8,4.2-6.8c1.8,0,3.2,1.3,3.3,3.1L673,464.2L673,464.2z"/>
	<path class="st1" d="M683.9,462.5h-1.8v10.7h1.8v1.1H679v-1.1h1.7v-10.7H679v-1.1h4.9V462.5z"/>
	<path class="st1" d="M696.6,462.5h-3.7v11.8h-1.4v-11.8h-3.6v-1.1h8.7V462.5z"/>
	<path class="st1" d="M705.2,461.4h1.5l-3.3,7.5v5.5H702v-5.5l-3.3-7.5h1.5l2.5,5.9L705.2,461.4z"/>
</g>
<g>
	<path class="st1" d="M365.4,365.1h1.3v13h-1.4v-9.9l0,0l-2.7,6.4l-2.6-6.4l0,0v9.8h-1.4v-13h1.3l2.7,6.5L365.4,365.1z"/>
	<path class="st1" d="M378.1,378.1h-1.5l-1.2-3.8h-3.9l-1.2,3.8H369l4.6-14L378.1,378.1z M371.9,373.1h3.3l-1.7-5.2L371.9,373.1z"/>
	<path class="st1" d="M386.7,367.9c0-1.1-0.8-1.9-1.9-1.9c-2.7,0-2.9,3.7-2.9,5.7c0,1.9,0.2,5.5,2.8,5.5c1.4,0,2.2-1,2.2-2.3h1.4
		c-0.1,2.1-1.4,3.4-3.6,3.4c-3.6,0-4.1-3.9-4.1-6.7c0-2.8,0.6-6.8,4.2-6.8c1.8,0,3.2,1.3,3.3,3.1L386.7,367.9L386.7,367.9z"/>
	<path class="st1" d="M392.9,370.8h4.5v-5.7h1.4v13h-1.4v-6.2h-4.5v6.2h-1.4v-13h1.4V370.8z"/>
	<path class="st1" d="M409.5,365.1v9.6c0,2.4-1.8,3.7-3.6,3.7c-1.4,0-3.6-0.8-3.6-4.4v-8.8h1.4v9.6c0,1.9,1.2,2.5,2.3,2.5
		c1.7,0,2.2-1.2,2.2-2.7v-9.4h1.3V365.1z"/>
	<path class="st1" d="M424.5,365.1h3.1c2.3,0,3.7,1.4,3.7,4c0,2.7-1.8,3.9-4.3,3.9h-1.1v5.1h-1.4L424.5,365.1L424.5,365.1z
		 M427.4,371.8c1.6,0,2.6-0.9,2.6-2.8c0-2-0.9-2.8-2.5-2.8h-1.6v5.6L427.4,371.8L427.4,371.8z"/>
	<path class="st1" d="M440.8,366.2H439v10.7h1.8v1.1h-4.9v-1.1h1.7v-10.7h-1.7v-1.1h4.9V366.2z"/>
	<path class="st1" d="M451.5,367.9c0-1.1-0.8-1.9-1.9-1.9c-2.7,0-2.9,3.7-2.9,5.7c0,1.9,0.2,5.5,2.8,5.5c1.4,0,2.2-1,2.2-2.3h1.4
		c-0.1,2.1-1.4,3.4-3.6,3.4c-3.6,0-4.1-3.9-4.1-6.7c0-2.8,0.6-6.8,4.2-6.8c1.8,0,3.2,1.3,3.3,3.1L451.5,367.9L451.5,367.9z"/>
	<path class="st1" d="M462.3,367.9c0-1.1-0.8-1.9-1.9-1.9c-2.7,0-2.9,3.7-2.9,5.7c0,1.9,0.2,5.5,2.8,5.5c1.4,0,2.2-1,2.2-2.3h1.4
		c-0.1,2.1-1.4,3.4-3.6,3.4c-3.6,0-4.1-3.9-4.1-6.7c0-2.8,0.6-6.8,4.2-6.8c1.8,0,3.2,1.3,3.3,3.1L462.3,367.9L462.3,367.9z"/>
	<path class="st1" d="M468.5,370.8h4.5v-5.7h1.4v13H473v-6.2h-4.5v6.2h-1.4v-13h1.4V370.8z"/>
	<path class="st1" d="M485.1,365.1v9.6c0,2.4-1.8,3.7-3.6,3.7c-1.4,0-3.6-0.8-3.6-4.4v-8.8h1.4v9.6c0,1.9,1.2,2.5,2.3,2.5
		c1.7,0,2.2-1.2,2.2-2.7v-9.4h1.3V365.1z"/>
</g>
<g>
	<path class="st1" d="M534.7,389.1c-0.8-0.7-1.7-1.5-2.8-1.5c-1.2,0-2.1,0.8-2.1,2c0,0.7,0.1,1.3,1.9,2.4l1,0.6c2.4,1.5,3,2.1,3,3.7
		c0,2.3-1.5,3.7-3.8,3.7c-1.7,0-2.9-0.8-3.9-2.1l1-0.8c0.6,1,1.6,1.8,2.9,1.8c1.4,0,2.5-1,2.5-2.4c0-1-0.1-1.4-2.4-2.8l-1.2-0.7
		c-1.3-0.8-2.4-1.6-2.4-3.3c0-2,1.5-3.2,3.5-3.2c1.4,0,2.6,0.7,3.6,1.6L534.7,389.1z"/>
	<path class="st1" d="M547.3,399.8h-1.5l-1.2-3.8h-3.9l-1.2,3.8H538l4.6-14L547.3,399.8z M541,394.8h3.3l-1.7-5.2L541,394.8z"/>
	<path class="st1" d="M555.8,389.6c0-1.1-0.8-1.9-1.9-1.9c-2.7,0-2.9,3.7-2.9,5.7c0,1.9,0.2,5.5,2.8,5.5c1.4,0,2.2-1,2.2-2.3h1.4
		c-0.1,2.1-1.4,3.4-3.6,3.4c-3.6,0-4.1-3.9-4.1-6.7c0-2.8,0.6-6.8,4.2-6.8c1.8,0,3.2,1.3,3.3,3.1L555.8,389.6L555.8,389.6z"/>
	<path class="st1" d="M561.2,386.8h3.4c3.2,0,3.5,2.9,3.5,3.7c0,1.3-0.5,2.6-2.3,3.6l3.5,5.7h-1.6l-3.2-5.4c-0.6,0-1.3,0-1.9,0v5.4
		h-1.4V386.8z M563.8,393.3c1.8,0,2.9-0.9,2.9-2.8c0-1.7-0.7-2.5-2.9-2.5h-1.3v5.3H563.8z"/>
	<path class="st1" d="M578.9,387.9h-5.4v4.6h3.9v1.1h-3.9v5h5.5v1.1h-6.9v-13h6.7v1.2H578.9z"/>
	<path class="st1" d="M582.5,386.8h3.3c2.5,0,4.2,1.4,4.2,6.5c0,5-1.5,6.5-4.4,6.5h-3.1V386.8z M583.8,398.6h1.7
		c1.9,0,3.1-0.5,3.1-5.3c0-5-1.4-5.3-3.2-5.3h-1.6V398.6z"/>
	<path class="st1" d="M609.7,386.8h1.5l-2.9,13.1h-1.9l-2.9-13.1h1.5l2.3,11l0,0L609.7,386.8z"/>
	<path class="st1" d="M622.9,399.8h-1.5l-1.2-3.8h-3.9l-1.2,3.8h-1.5l4.6-14L622.9,399.8z M616.6,394.8h3.3l-1.7-5.2L616.6,394.8z"
		/>
	<path class="st1" d="M627.8,398.6h5.6v1.1h-7v-13h1.4V398.6z"/>
	<path class="st1" d="M638.6,398.6h5.6v1.1h-7v-13h1.4V398.6z"/>
	<path class="st1" d="M654.5,387.9h-5.4v4.6h3.9v1.1h-3.9v5h5.5v1.1h-6.9v-13h6.7v1.2H654.5z"/>
	<path class="st1" d="M663.6,386.8h1.5l-3.3,7.5v5.5h-1.4v-5.5l-3.3-7.5h1.5l2.5,5.9L663.6,386.8z"/>
	<path class="st1" d="M537.3,406.6c3.8,0,4,4.3,4,6.7c0,1.7,0.1,6.7-4,6.7c-4,0-4-4.9-4-6.7C533.3,407.9,535.1,406.6,537.3,406.6z
		 M539.9,413.3c0-1.2,0.2-5.6-2.6-5.6c-2.9,0-2.6,4.8-2.6,5.6c0,1.5-0.1,5.6,2.6,5.6C538.6,418.9,539.9,418,539.9,413.3z"/>
	<path class="st1" d="M552.3,407.9h-5.6v4.5h4.2v1.1h-4.2v6.2h-1.4v-13h7V407.9z"/>
	<path class="st1" d="M574,407.9h-3.7v11.8H569v-11.8h-3.6v-1.1h8.7v1.1H574z"/>
	<path class="st1" d="M578.2,412.5h4.5v-5.7h1.4v13h-1.4v-6.2h-4.5v6.2h-1.4v-13h1.4V412.5z"/>
	<path class="st1" d="M595.1,407.9h-5.4v4.6h3.9v1.1h-3.9v5h5.5v1.1h-6.9v-13h6.7v1.2H595.1z"/>
	<path class="st1" d="M615.3,407.9h-1.8v10.7h1.8v1.1h-4.9v-1.1h1.7v-10.7h-1.7v-1.1h4.9V407.9z"/>
	<path class="st1" d="M620.3,406.8h1.6l3.9,9.7h0.1v-9.7h1.4v13.1H626l-4.2-10.5l0,0v10.3h-1.4L620.3,406.8L620.3,406.8z"/>
	<path class="st1" d="M636.8,409.6c0-1.1-0.8-1.9-1.9-1.9c-2.7,0-2.9,3.7-2.9,5.7c0,1.9,0.2,5.5,2.8,5.5c1.4,0,2.2-1,2.2-2.3h1.4
		c-0.1,2.1-1.4,3.4-3.6,3.4c-3.6,0-4.1-3.9-4.1-6.7c0-2.8,0.6-6.8,4.2-6.8c1.8,0,3.2,1.3,3.3,3.1L636.8,409.6L636.8,409.6z"/>
	<path class="st1" d="M649.9,419.8h-1.5l-1.2-3.8h-3.9l-1.2,3.8h-1.5l4.6-14L649.9,419.8z M643.6,414.8h3.3l-1.7-5.2L643.6,414.8z"
		/>
	<path class="st1" d="M658.9,409.1c-0.8-0.7-1.7-1.5-2.8-1.5c-1.2,0-2.1,0.8-2.1,2c0,0.7,0.1,1.3,1.9,2.4l1,0.6c2.4,1.5,3,2.1,3,3.7
		c0,2.3-1.5,3.7-3.8,3.7c-1.7,0-2.9-0.8-3.9-2.1l1-0.8c0.6,1,1.6,1.8,2.9,1.8c1.4,0,2.5-1,2.5-2.4c0-1-0.1-1.4-2.4-2.8L655,413
		c-1.3-0.8-2.4-1.6-2.4-3.3c0-2,1.5-3.2,3.5-3.2c1.4,0,2.6,0.7,3.6,1.6L658.9,409.1z"/>
</g>
<g>
	<path class="st2" d="M49,485.3c-0.1-4.8-3.5-8.6-8.4-8.6c-12.2,0-13,16.5-13,25.4c0,8.4,0.9,24.4,12.4,24.4c6,0,9.6-4.5,9.7-10.2h6
		c-0.6,9.4-6.3,15.2-15.9,15.2c-15.8,0-18.2-17.4-18.2-29.6c0-12.6,2.6-30.2,18.9-30.2c8,0,14,5.6,14.5,13.6H49z"/>
	<path class="st2" d="M102.5,472.8v42.5c0,10.9-8.2,16.2-15.9,16.2c-6.2,0-16-3.5-16-19.4v-39.3h6v42.5c0,8.3,5.4,11.2,10,11.2
		c7.4,0,9.9-5.4,9.9-11.9v-41.8H102.5z"/>
	<path class="st2" d="M147.2,483.2c-3.5-3.1-7.5-6.5-12.5-6.5c-5.1,0-9.3,3.5-9.3,8.8c0,3,0.6,5.8,8.3,10.5l4.6,2.8
		c10.6,6.5,13.4,9.5,13.4,16.2c0,10.3-6.9,16.5-17,16.5c-7.4,0-13-3.6-17.4-9.4l4.6-3.7c2.8,4.5,7.3,8,12.8,8c6,0,11-4.5,11-10.6
		c0-4.6-0.3-6.2-10.5-12.3l-5.2-3.1c-5.7-3.4-10.6-7.3-10.6-14.5c0-9,6.9-14.2,15.5-14.2c6,0,11.5,3.2,15.8,7.2L147.2,483.2z"/>
	<path class="st2" d="M193,485.3c-0.1-4.8-3.5-8.6-8.4-8.6c-12.2,0-13,16.5-13,25.4c0,8.4,0.9,24.4,12.4,24.4c6,0,9.6-4.5,9.7-10.2
		h6c-0.6,9.4-6.3,15.2-15.9,15.2c-15.8,0-18.2-17.4-18.2-29.6c0-12.6,2.6-30.2,18.9-30.2c8,0,14,5.6,14.5,13.6H193z"/>
	<path class="st2" d="M230.6,471.7c16.8,0,17.7,19.2,17.7,29.9c0,7.7,0.6,29.9-17.7,29.9c-17.8,0-17.7-21.8-17.7-29.9
		C212.9,477.5,220.9,471.7,230.6,471.7z M242.3,501.6c0-5.3,0.8-24.9-11.7-24.9c-12.8,0-11.7,21.5-11.7,24.9
		c0,6.6-0.3,24.9,11.7,24.9C236.6,526.5,242.3,522.5,242.3,501.6z"/>
</g>
<g>
	<path class="st3" d="M29.1,549.9h5.6c5.4,0,4.9,4.9,4.6,6.1c-0.5,2.2-1.8,4.3-5.1,6l3.8,9.5h-2.7l-3.3-9c-1.1,0-2.2,0-3.3,0.1
		l-1.9,8.9h-2.2L29.1,549.9z M31.2,560.6c3.1,0,5.2-1.6,5.9-4.7c0.6-2.9-0.4-4.1-3.9-4.1H31l-1.9,8.8H31.2z"/>
	<path class="st3" d="M58.2,551.8h-9l-1.6,7.7H54l-0.4,1.9h-6.4l-1.8,8.2h9.2l-0.4,1.9H42.8l4.6-21.6h11.2L58.2,551.8z"/>
	<path class="st3" d="M67.1,562.6l0.4-1.9h7.3l-2.4,11.2h-2.2l0.4-2.1c-1.4,1.3-3.2,2.1-5,2.1c-1.7,0-6.4-0.3-4.2-10.7
		c1.8-8.5,5.1-11.7,9.3-11.7c3.7,0,4.8,2.6,4.2,5.9h-2.2c0.6-2,0.1-4-2.2-4c-4.5,0-6,6.3-6.7,9.5c-0.6,3-1.8,9.2,2.4,9.2
		c2.1,0,4.8-1.7,5.7-6l0.3-1.4L67.1,562.6L67.1,562.6z"/>
	<path class="st3" d="M91.9,551.8H89l-3.8,17.8H88l-0.4,1.9h-8.1l0.4-1.9h2.9l3.8-17.8h-2.9l0.4-1.9h8.1L91.9,551.8z"/>
	<path class="st3" d="M106.3,549.5c6.3,0,5.1,7.2,4.3,11.2c-0.6,2.9-2.2,11.2-9,11.2c-6.7,0-4.9-8.2-4.2-11.2
		C99.2,551.7,102.7,549.5,106.3,549.5z M108.3,560.7c0.4-2,2.3-9.3-2.4-9.3c-4.8,0-6.1,8.1-6.4,9.3c-0.5,2.5-2.1,9.3,2.4,9.3
		C104.2,570,106.6,568.5,108.3,560.7z"/>
	<path class="st3" d="M118.6,549.9h2.6l3.1,16.1h0.1l3.4-16.1h2.2l-4.6,21.8h-2.1l-3.4-17.4l-0.1,0.1l-3.7,17.2h-2.2L118.6,549.9z"
		/>
</g>
<g>
	<g>
		<path class="st4" d="M893.2,141.3c3.8,29.6-17.2,56.7-47,60.5c-29.7,3.8-56.9-17.1-60.7-46.7s17.2-56.7,47-60.5
			S889.4,111.7,893.2,141.3z"/>
	</g>
	<g>
		<g id="XMLID_3_">
			<g>
				<path class="st1" d="M801.5,168.1c0,0,0.2,2.7,8.3,1.5c0,0,4.6,0.3,19-5.6l16.7,12c0,0,1.3,0.9,4.3-0.8l0.3-0.2l-6.1-10.9
					l2.4-6.7c0,0,12.2-4.4,20.4-9l1.8,2.4c0,0,1.2,1.2,2.4-0.5l1.7-7.5c0,0,2.2-1.5,1.9-2.2c0,0-0.6-1.2-1.4-0.9l1.8-9.1
					c0,0-2.2-1.7-4.4,1.5l-2.7,5.4l-3.8-6.8c0,0-1.3,0.4-1.8,2.2l1.2,8.8c-10.9,2.7-10.9,2.7-14.9,3.8l1.7-6.7l12.6-23.5l-2.7-0.3
					c0,0-1.4,0-2.3,1.3L828,153.1c0,0-12.7,4.3-13.3,4.6c0,0-1.1,0.1-2.4,0.4c0,0-4,0.4-6.6,3.5c0,0-2.8,3.2-3.7,4
					C802,165.6,800.9,167,801.5,168.1z"/>
			</g>
			<g>
				<path class="st5" d="M870.6,132.2l-2.7,5.4l-3.8-6.8c0,0-1.3,0.4-1.8,2.2l1.2,8.8c-10.9,2.7-10.9,2.7-14.9,3.8l1.7-6.7
					l12.6-23.5l-2.7-0.3c0,0-1.4,0-2.3,1.3L828,153.1c0,0-12.7,4.3-13.3,4.6c0,0-1.1,0.1-2.4,0.4c0,0-4,0.4-6.6,3.5
					c0,0-2.8,3.2-3.7,4c0,0-1.2,1.4-0.6,2.5c0,0,0.2,2.7,8.3,1.5c0,0,4.6,0.3,19-5.6l16.7,12c0,0,1.3,0.9,4.3-0.8l0.3-0.2l-6.1-10.9
					l2.4-6.7c0,0,12.2-4.4,20.4-9l1.8,2.4c0,0,1.2,1.2,2.4-0.5l1.7-7.5c0,0,2.2-1.5,1.9-2.2c0,0-0.6-1.2-1.4-0.9l1.8-9.1
					C875,130.7,872.8,129.1,870.6,132.2z"/>
			</g>
		</g>
	</g>
	<g>
		<path class="st6" d="M890.9,141.6c3.6,28.3-16.5,54.2-45,57.9c-28.5,3.6-54.5-16.4-58.1-44.7s16.5-54.2,45-57.9
			C861.3,93.3,887.3,113.3,890.9,141.6z"/>
		<line class="st7" x1="798.3" y1="116.7" x2="879.2" y2="181.3"/>
	</g>
</g>
<rect x="938.1" y="87.7" class="st3" width="127.5" height="33"/>
<g>
	<path class="st3" d="M962,152h-1.1l-1.3-4.4h-4.9l-1.3,4.4h-1l4.8-15L962,152z M954.9,146.8h4.5l-2.3-7.2L954.9,146.8z"/>
	<path class="st3" d="M984.1,139.6c-0.9-0.8-1.9-1.5-3.2-1.5c-1.5,0-2.7,1-2.7,2.5c0,1.1,0.5,1.9,2.3,2.9l1.2,0.7
		c2.3,1.4,3.3,2.2,3.3,4c0,2.5-1.6,4-4.1,4c-1.7,0-3-0.8-4.1-2.1l0.7-0.6c0.8,1.1,2,1.9,3.3,1.9c1.7,0,3.1-1.2,3.1-3
		c0-1.4-0.2-1.9-2.8-3.5l-1.3-0.8c-1.4-0.8-2.6-1.8-2.6-3.5c0-2.2,1.6-3.4,3.7-3.4c1.4,0,2.7,0.7,3.7,1.6L984.1,139.6z"/>
	<path class="st3" d="M995.9,142.2H992v7.2c0,1,0.4,2,1.7,2c1.2,0,2-0.9,2.5-1.9l0.9,0.2c-0.7,1.4-1.8,2.5-3.4,2.5
		c-1.4,0-2.6-0.7-2.6-3.3v-6.7h-2.4v-0.8h2.4V138h0.9v3.4h3.9L995.9,142.2L995.9,142.2z"/>
	<path class="st3" d="M1007.2,152.2c-0.2-0.6-0.3-1.2-0.4-1.8c-0.7,1.1-1.5,1.8-2.9,1.8c-1.9,0-2.9-1.6-2.9-3.4c0-2,1.1-3.8,3.2-3.8
		c0.9,0,1.8,0.3,2.6,0.7c0.1-2.7-0.4-3.8-2.2-3.8c-0.9,0-1.7,0.3-2.5,0.7l-0.2-0.9c0.9-0.4,1.8-0.6,2.8-0.6c1.9,0,3.1,1.4,3,3.7
		l-0.1,4.3c0,1,0.2,2,0.5,2.9L1007.2,152.2z M1006.7,146.5c-0.7-0.3-1.5-0.6-2.3-0.6c-1.8,0-2.5,1.5-2.5,3c0,1.2,0.7,2.5,2,2.5
		s2.1-1.1,2.8-2.1V146.5z"/>
	<path class="st3" d="M1019.7,142.2h-3.9v7.2c0,1,0.4,2,1.7,2c1.2,0,2-0.9,2.5-1.9l0.9,0.2c-0.7,1.4-1.8,2.5-3.4,2.5
		c-1.4,0-2.6-0.7-2.6-3.3v-6.7h-2.4v-0.8h2.4V138h0.9v3.4h3.9L1019.7,142.2L1019.7,142.2z"/>
	<path class="st3" d="M1032.5,151.2c-1.2,0.5-2.4,1-3.8,1c-3.1,0-4.2-2.8-4.2-5.5s1.2-5.6,4.3-5.6c1.8,0,3.9,1.3,3.9,5.7h-7.2
		c0.2,3.7,1.7,4.6,3.3,4.6c1.2,0,2.3-0.4,3.3-1L1032.5,151.2z M1031.7,146c0.1-1.8-1-4.1-3.1-4.1s-3.3,2.2-3.2,4.1H1031.7z"/>
	<path class="st3" d="M1048.3,146.7c0-4.1,2.1-5.5,4-5.5c1.8,0,4.1,1.2,4.1,5.5s-2.3,5.5-4.1,5.5
		C1050.6,152.2,1048.3,151,1048.3,146.7z M1055.5,146.7c0-2.1-0.5-4.7-3.1-4.7s-3.1,2.6-3.1,4.7c0,2.1,0.5,4.7,3.1,4.7
		C1054.9,151.4,1055.5,148.7,1055.5,146.7z"/>
	<path class="st3" d="M1068.8,139c-1-0.4-1.6-0.9-2.5-0.9c-1.4,0-2.2,0.8-2.2,2.2v1.9h3.5v0.8h-3.5v9.1h-0.9V143h-2.7v-0.8h2.7V141
		c0-2.7,1.6-3.6,3.1-3.6c0.9,0,1.8,0.3,2.6,0.7L1068.8,139L1068.8,139z"/>
	<path class="st3" d="M1092.1,138.4h-6.1v5.8h4.4v0.8h-4.4v6.2h6.2v0.8h-7.2v-14.4h7L1092.1,138.4L1092.1,138.4z"/>
	<path class="st3" d="M1095.5,144.6c0-1.4-0.2-2.5-0.4-3.4h1l0.3,1.4c0.6-0.8,1.4-1.4,2.5-1.4c0.9,0,1.3,0.5,1.6,1.3
		c0.5-0.7,1.3-1.3,2.2-1.3c1.4,0,2.1,0.9,2.1,2.2v8.6h-0.9v-8.5c0-1.1-0.5-1.5-1.3-1.5s-1.5,0.7-1.9,1.4v8.7h-0.9V144
		c0-0.8-0.1-1.9-1.1-1.9c-0.9,0-1.7,0.7-2.1,1.5v8.5h-0.9v-7.5H1095.5z"/>
	<path class="st3" d="M1115.8,151.2c-1.2,0.5-2.4,1-3.8,1c-3.1,0-4.2-2.8-4.2-5.5s1.2-5.6,4.3-5.6c1.8,0,3.9,1.3,3.9,5.7h-7.2
		c0.2,3.7,1.7,4.6,3.3,4.6c1.2,0,2.3-0.4,3.3-1L1115.8,151.2z M1115,146c0.1-1.8-1-4.1-3.1-4.1s-3.3,2.2-3.2,4.1H1115z"/>
	<path class="st3" d="M1122.1,152h-0.9v-7.3l-0.4-3.4h0.9l0.4,3c0.7-1.5,1.8-3.1,3.6-3.1c1.8,0,2.2,1.8,2.2,3.2h-0.9
		c0-1-0.1-2.4-1.4-2.4c-1.1,0-3.5,1.7-3.5,5.7L1122.1,152L1122.1,152z"/>
	<path class="st3" d="M1133,153.4c0.6,0.7,1.6,1.2,2.6,1.2c1.2,0,2.7-0.9,2.7-3.5v-1.3c-0.7,0.8-1.9,1.3-3,1.3
		c-2.5,0-3.7-2.5-3.7-4.7c0-2.4,1-5.1,3.9-5.1c1.2,0,2,0.5,2.9,1.2l0.3-1.2h1c-0.5,1.8-0.5,3.7-0.5,5.6v4.4c0,3.1-2.2,4.2-3.8,4.2
		c-1.1,0-2.3-0.6-3.1-1.4L1133,153.4z M1138.2,143.5c-0.6-0.9-1.6-1.5-2.8-1.5c-2.2,0-2.9,2.4-2.9,4.2c0,3.3,1.9,4.1,2.8,4.1
		c1.1,0,2.3-0.7,2.9-1.6V143.5z"/>
	<path class="st3" d="M1151.5,151.2c-1.2,0.5-2.4,1-3.8,1c-3.1,0-4.2-2.8-4.2-5.5s1.2-5.6,4.3-5.6c1.8,0,3.9,1.3,3.9,5.7h-7.2
		c0.2,3.7,1.7,4.6,3.3,4.6c1.2,0,2.3-0.4,3.3-1L1151.5,151.2z M1150.7,146c0.1-1.8-1-4.1-3.1-4.1s-3.3,2.2-3.2,4.1H1150.7z"/>
	<path class="st3" d="M1156.8,152h-0.9v-5.3c0-1.8-0.1-3.6-0.4-5.4h0.9l0.4,3l0,0c0.4-1.6,2.1-3.1,3.8-3.1c1.9,0,2.5,1.7,2.5,3.3
		v7.5h-0.9v-7.1c0-1.2,0-2.9-1.6-2.9c-1.5,0-3.6,1.5-3.6,5.6v4.4H1156.8z"/>
	<path class="st3" d="M1175.5,150.4c-1,1.1-2,1.8-3.5,1.8c-1.9,0-4.4-1.2-4.4-5.4c0-4.3,2.4-5.6,4.3-5.6c1.6,0,2.8,0.8,3.6,2.1
		l-0.8,0.6c-0.6-1.1-1.5-1.9-2.8-1.9s-3.4,0.8-3.4,4.7c0,3.6,1.9,4.8,3.5,4.8c1.2,0,2.2-0.8,2.9-1.7L1175.5,150.4z"/>
	<path class="st3" d="M1187.5,141.4l-4,10.1c-0.6,1.4-1.5,3.9-3.3,3.9c-1.2,0-2.1-0.9-2.4-2l0.8-0.4c0.3,0.7,0.8,1.6,1.6,1.6
		c1,0,1.5-1.2,1.9-2l0.8-1.8l-3.4-9.4h1l2.9,8.1l3-8.1L1187.5,141.4L1187.5,141.4z"/>
	<path class="st3" d="M1206.8,142.2h-3.1v-0.8h4V152h-0.9V142.2z M1208.3,138.3c0,0.6-0.5,1-1.1,1s-1-0.5-1-1s0.5-1,1-1
		S1208.3,137.8,1208.3,138.3z"/>
	<path class="st3" d="M1221.5,143.1c-0.8-0.6-1.8-1.1-2.8-1.1s-2.1,0.8-2.1,1.9c0,1.2,1.4,1.8,2.3,2.2c1.6,0.6,3.3,1.3,3.3,3.3
		c0,1.8-1.6,2.8-3.2,2.8c-1.3,0-3-0.8-4-1.7l0.5-0.8c0.9,0.9,2.3,1.7,3.5,1.7s2.2-0.7,2.2-1.9c0-1.6-1.2-2-2.5-2.5
		c-1.5-0.6-3.2-1.2-3.2-3.1c0-1.5,1.5-2.6,3.1-2.6c1.2,0,2.2,0.4,3.2,1.1L1221.5,143.1z"/>
	<path class="st3" d="M1246.2,148.3c0,1.3,0.1,2.6,0.5,3.8l-0.9,0.1l-0.4-1.7c-0.6,1.1-1.6,1.7-2.8,1.7c-1.8,0-4.1-1.5-4.1-5.6
		c0-4.2,2.7-5.4,4.2-5.4c0.9,0,1.9,0.3,2.6,0.9v-4.9h0.9L1246.2,148.3L1246.2,148.3z M1245.2,143c-0.7-0.6-1.5-1-2.4-1
		c-1.2,0-3.5,0.8-3.5,4.7c0,3.7,2,4.7,3.2,4.7c1.3,0,2.2-1,2.6-2.1V143H1245.2z"/>
	<path class="st3" d="M1258.6,151.2c-1.2,0.5-2.4,1-3.8,1c-3.1,0-4.2-2.8-4.2-5.5s1.2-5.6,4.3-5.6c1.8,0,3.9,1.3,3.9,5.7h-7.2
		c0.2,3.7,1.7,4.6,3.3,4.6c1.2,0,2.3-0.4,3.3-1L1258.6,151.2z M1257.8,146c0.1-1.8-1-4.1-3.1-4.1s-3.3,2.2-3.2,4.1H1257.8z"/>
	<path class="st3" d="M1270.7,150.4c-1,1.1-2,1.8-3.5,1.8c-1.9,0-4.4-1.2-4.4-5.4c0-4.3,2.4-5.6,4.3-5.6c1.6,0,2.8,0.8,3.6,2.1
		l-0.8,0.6c-0.6-1.1-1.5-1.9-2.8-1.9s-3.4,0.8-3.4,4.7c0,3.6,1.9,4.8,3.5,4.8c1.2,0,2.2-0.8,2.9-1.7L1270.7,150.4z"/>
	<path class="st3" d="M1278.1,137.9h-3.1v-0.8h4.1V152h-0.9L1278.1,137.9L1278.1,137.9z"/>
	<path class="st3" d="M1292.8,152.2c-0.2-0.6-0.3-1.2-0.4-1.8c-0.7,1.1-1.5,1.8-2.9,1.8c-1.9,0-2.9-1.6-2.9-3.4c0-2,1.1-3.8,3.2-3.8
		c0.9,0,1.8,0.3,2.6,0.7c0.1-2.7-0.4-3.8-2.2-3.8c-0.9,0-1.7,0.3-2.5,0.7l-0.2-0.9c0.9-0.4,1.8-0.6,2.8-0.6c1.9,0,3.1,1.4,3,3.7
		l-0.1,4.3c0,1,0.2,2,0.5,2.9L1292.8,152.2z M1292.3,146.5c-0.7-0.3-1.5-0.6-2.3-0.6c-1.8,0-2.5,1.5-2.5,3c0,1.2,0.7,2.5,2,2.5
		s2.1-1.1,2.8-2.1V146.5z"/>
	<path class="st3" d="M1300.6,152h-0.9v-7.3l-0.4-3.4h0.9l0.4,3c0.7-1.5,1.8-3.1,3.6-3.1c1.8,0,2.2,1.8,2.2,3.2h-0.9
		c0-1-0.1-2.4-1.4-2.4c-1.1,0-3.5,1.7-3.5,5.7L1300.6,152L1300.6,152z"/>
	<path class="st3" d="M1318.1,151.2c-1.2,0.5-2.4,1-3.8,1c-3.1,0-4.2-2.8-4.2-5.5s1.2-5.6,4.3-5.6c1.8,0,3.9,1.3,3.9,5.7h-7.2
		c0.2,3.7,1.7,4.6,3.3,4.6c1.2,0,2.3-0.4,3.3-1L1318.1,151.2z M1317.3,146c0.1-1.8-1-4.1-3.1-4.1s-3.3,2.2-3.2,4.1H1317.3z"/>
	<path class="st3" d="M1329.5,148.3c0,1.3,0.1,2.6,0.5,3.8l-0.9,0.1l-0.4-1.7c-0.6,1.1-1.6,1.7-2.8,1.7c-1.8,0-4.1-1.5-4.1-5.6
		c0-4.2,2.7-5.4,4.2-5.4c0.9,0,1.9,0.3,2.6,0.9v-4.9h0.9L1329.5,148.3L1329.5,148.3z M1328.5,143c-0.7-0.6-1.5-1-2.4-1
		c-1.2,0-3.5,0.8-3.5,4.7c0,3.7,2,4.7,3.2,4.7c1.3,0,2.2-1,2.6-2.1V143H1328.5z"/>
	<path class="st3" d="M959.6,180.2c-0.2-0.6-0.3-1.2-0.4-1.8c-0.7,1.1-1.5,1.8-2.9,1.8c-1.9,0-2.9-1.6-2.9-3.4c0-2,1.1-3.8,3.2-3.8
		c0.9,0,1.8,0.3,2.6,0.7c0.1-2.7-0.4-3.8-2.2-3.8c-0.9,0-1.7,0.3-2.5,0.7l-0.2-0.9c0.9-0.4,1.8-0.6,2.8-0.6c1.9,0,3.1,1.4,3,3.7
		l-0.1,4.3c0,1,0.2,2,0.5,2.9L959.6,180.2z M959.1,174.5c-0.7-0.3-1.5-0.6-2.3-0.6c-1.8,0-2.5,1.5-2.5,3c0,1.2,0.7,2.5,2,2.5
		s2.1-1.1,2.8-2.1V174.5z"/>
	<path class="st3" d="M972.1,170.2h-3.9v7.2c0,1,0.4,2,1.7,2c1.2,0,2-0.9,2.5-1.9l0.9,0.2c-0.7,1.4-1.8,2.5-3.4,2.5
		c-1.4,0-2.6-0.7-2.6-3.3v-6.7h-2.4v-0.8h2.4V166h0.9v3.4h3.9L972.1,170.2L972.1,170.2z"/>
	<path class="st3" d="M995.9,170.2H992v7.2c0,1,0.4,2,1.7,2c1.2,0,2-0.9,2.5-1.9l0.9,0.2c-0.7,1.4-1.8,2.5-3.4,2.5
		c-1.4,0-2.6-0.7-2.6-3.3v-6.7h-2.4v-0.8h2.4V166h0.9v3.4h3.9L995.9,170.2L995.9,170.2z"/>
	<path class="st3" d="M1001.3,165.1h0.9v6.6l0,0c0.6-1.3,1.9-2.5,3.5-2.5c1,0,2.5,0.8,2.5,3.1v7.7h-0.9v-6.6c0-1.3-0.2-3.4-1.7-3.4
		c-1.8,0-3.4,2.2-3.4,4.7v5.3h-0.9L1001.3,165.1L1001.3,165.1z"/>
	<path class="st3" d="M1020.6,179.2c-1.2,0.5-2.4,1-3.8,1c-3.1,0-4.2-2.8-4.2-5.5s1.2-5.6,4.3-5.6c1.8,0,3.9,1.3,3.9,5.7h-7.2
		c0.2,3.7,1.7,4.6,3.3,4.6c1.2,0,2.3-0.4,3.3-1L1020.6,179.2z M1019.8,174c0.1-1.8-1-4.1-3.1-4.1s-3.3,2.2-3.2,4.1H1019.8z"/>
	<path class="st3" d="M1037.8,180h-0.9v-5.3c0-1.8-0.1-3.6-0.4-5.4h0.9l0.4,3l0,0c0.4-1.6,2.1-3.1,3.8-3.1c1.9,0,2.5,1.7,2.5,3.3
		v7.5h-0.9v-7.1c0-1.2,0-2.9-1.6-2.9c-1.5,0-3.6,1.5-3.6,5.6v4.4H1037.8z"/>
	<path class="st3" d="M1054.8,180.2c-0.2-0.6-0.3-1.2-0.4-1.8c-0.7,1.1-1.5,1.8-2.9,1.8c-1.9,0-2.9-1.6-2.9-3.4c0-2,1.1-3.8,3.2-3.8
		c0.9,0,1.8,0.3,2.6,0.7c0.1-2.7-0.4-3.8-2.2-3.8c-0.9,0-1.7,0.3-2.5,0.7l-0.2-0.9c0.9-0.4,1.8-0.6,2.8-0.6c1.9,0,3.1,1.4,3,3.7
		l-0.1,4.3c0,1,0.2,2,0.5,2.9L1054.8,180.2z M1054.3,174.5c-0.7-0.3-1.5-0.6-2.3-0.6c-1.8,0-2.5,1.5-2.5,3c0,1.2,0.7,2.5,2,2.5
		s2.1-1.1,2.8-2.1V174.5z"/>
	<path class="st3" d="M1067.3,170.2h-3.9v7.2c0,1,0.4,2,1.7,2c1.2,0,2-0.9,2.5-1.9l0.9,0.2c-0.7,1.4-1.8,2.5-3.4,2.5
		c-1.4,0-2.6-0.7-2.6-3.3v-6.7h-2.4v-0.8h2.4V166h0.9v3.4h3.9V170.2z"/>
	<path class="st3" d="M1075.9,170.2h-3.1v-0.8h4V180h-0.9V170.2z M1077.4,166.3c0,0.6-0.5,1-1.1,1s-1-0.5-1-1s0.5-1,1-1
		S1077.4,165.8,1077.4,166.3z"/>
	<path class="st3" d="M1084,174.7c0-4.1,2.1-5.5,4-5.5c1.8,0,4.1,1.2,4.1,5.5s-2.3,5.5-4.1,5.5C1086.3,180.2,1084,179,1084,174.7z
		 M1091.2,174.7c0-2.1-0.5-4.7-3.1-4.7s-3.1,2.6-3.1,4.7c0,2.1,0.5,4.7,3.1,4.7C1090.6,179.4,1091.2,176.7,1091.2,174.7z"/>
	<path class="st3" d="M1097.3,180h-0.9v-5.3c0-1.8-0.1-3.6-0.4-5.4h0.9l0.4,3l0,0c0.4-1.6,2.1-3.1,3.8-3.1c1.9,0,2.5,1.7,2.5,3.3
		v7.5h-0.9v-7.1c0-1.2,0-2.9-1.6-2.9c-1.5,0-3.6,1.5-3.6,5.6v4.4H1097.3z"/>
	<path class="st3" d="M1114.3,180.2c-0.2-0.6-0.3-1.2-0.4-1.8c-0.7,1.1-1.5,1.8-2.9,1.8c-1.9,0-2.9-1.6-2.9-3.4c0-2,1.1-3.8,3.2-3.8
		c0.9,0,1.8,0.3,2.6,0.7c0.1-2.7-0.4-3.8-2.2-3.8c-0.9,0-1.7,0.3-2.5,0.7l-0.2-0.9c0.9-0.4,1.8-0.6,2.8-0.6c1.9,0,3.1,1.4,3,3.7
		l-0.1,4.3c0,1,0.2,2,0.5,2.9L1114.3,180.2z M1113.8,174.5c-0.7-0.3-1.5-0.6-2.3-0.6c-1.8,0-2.5,1.5-2.5,3c0,1.2,0.7,2.5,2,2.5
		s2.1-1.1,2.8-2.1V174.5z"/>
	<path class="st3" d="M1123.4,165.9h-3.1v-0.8h4.1V180h-0.9L1123.4,165.9L1123.4,165.9z"/>
	<path class="st3" d="M1147.2,165.9h-3.1v-0.8h4.1V180h-0.9L1147.2,165.9L1147.2,165.9z"/>
	<path class="st3" d="M1163.4,179.2c-1.2,0.5-2.4,1-3.8,1c-3.1,0-4.2-2.8-4.2-5.5s1.2-5.6,4.3-5.6c1.8,0,3.9,1.3,3.9,5.7h-7.2
		c0.2,3.7,1.7,4.6,3.3,4.6c1.2,0,2.3-0.4,3.3-1L1163.4,179.2z M1162.6,174c0.1-1.8-1-4.1-3.1-4.1s-3.3,2.2-3.2,4.1H1162.6z"/>
	<path class="st3" d="M1175.2,169.4l-3.3,10.7h-1.1l-3.3-10.7h1l2.9,9.3l2.9-9.3H1175.2z"/>
	<path class="st3" d="M1187.2,179.2c-1.2,0.5-2.4,1-3.8,1c-3.1,0-4.2-2.8-4.2-5.5s1.2-5.6,4.3-5.6c1.8,0,3.9,1.3,3.9,5.7h-7.2
		c0.2,3.7,1.7,4.6,3.3,4.6c1.2,0,2.3-0.4,3.3-1L1187.2,179.2z M1186.4,174c0.1-1.8-1-4.1-3.1-4.1s-3.3,2.2-3.2,4.1H1186.4z"/>
	<path class="st3" d="M1194.8,165.9h-3.1v-0.8h4.1V180h-0.9L1194.8,165.9L1194.8,165.9z"/>
	<path class="st3" d="M1221.4,180.2c-0.2-0.6-0.3-1.2-0.4-1.8c-0.7,1.1-1.5,1.8-2.9,1.8c-1.9,0-2.9-1.6-2.9-3.4c0-2,1.1-3.8,3.2-3.8
		c0.9,0,1.8,0.3,2.6,0.7c0.1-2.7-0.4-3.8-2.2-3.8c-0.9,0-1.7,0.3-2.5,0.7l-0.2-0.9c0.9-0.4,1.8-0.6,2.8-0.6c1.9,0,3.1,1.4,3,3.7
		l-0.1,4.3c0,1,0.2,2,0.5,2.9L1221.4,180.2z M1220.9,174.5c-0.7-0.3-1.5-0.6-2.3-0.6c-1.8,0-2.5,1.5-2.5,3c0,1.2,0.7,2.5,2,2.5
		s2.1-1.1,2.8-2.1V174.5z"/>
	<path class="st3" d="M1228.2,180h-0.9v-5.3c0-1.8-0.1-3.6-0.4-5.4h0.9l0.4,3l0,0c0.4-1.6,2.1-3.1,3.8-3.1c1.9,0,2.5,1.7,2.5,3.3
		v7.5h-0.9v-7.1c0-1.2,0-2.9-1.6-2.9c-1.5,0-3.6,1.5-3.6,5.6v4.4H1228.2z"/>
	<path class="st3" d="M1246.2,176.3c0,1.3,0.1,2.6,0.5,3.8l-0.9,0.1l-0.4-1.7c-0.6,1.1-1.6,1.7-2.8,1.7c-1.8,0-4.1-1.5-4.1-5.6
		c0-4.2,2.7-5.4,4.2-5.4c0.9,0,1.9,0.3,2.6,0.9v-4.9h0.9L1246.2,176.3L1246.2,176.3z M1245.2,171c-0.7-0.6-1.5-1-2.4-1
		c-1.2,0-3.5,0.8-3.5,4.7c0,3.7,2,4.7,3.2,4.7c1.3,0,2.2-1,2.6-2.1V171H1245.2z"/>
	<path class="st3" d="M1269.6,170.2h-3.9v7.2c0,1,0.4,2,1.7,2c1.2,0,2-0.9,2.5-1.9l0.9,0.2c-0.7,1.4-1.8,2.5-3.4,2.5
		c-1.4,0-2.6-0.7-2.6-3.3v-6.7h-2.4v-0.8h2.4V166h0.9v3.4h3.9V170.2z"/>
	<path class="st3" d="M1275,165.1h0.9v6.6l0,0c0.6-1.3,1.9-2.5,3.5-2.5c1,0,2.5,0.8,2.5,3.1v7.7h-0.9v-6.6c0-1.3-0.2-3.4-1.7-3.4
		c-1.8,0-3.4,2.2-3.4,4.7v5.3h-0.9V165.1z"/>
	<path class="st3" d="M1294.3,179.2c-1.2,0.5-2.4,1-3.8,1c-3.1,0-4.2-2.8-4.2-5.5s1.2-5.6,4.3-5.6c1.8,0,3.9,1.3,3.9,5.7h-7.2
		c0.2,3.7,1.7,4.6,3.3,4.6c1.2,0,2.3-0.4,3.3-1L1294.3,179.2z M1293.5,174c0.1-1.8-1-4.1-3.1-4.1s-3.3,2.2-3.2,4.1H1293.5z"/>
	<path class="st3" d="M961.3,206.4c-1,1.1-2,1.8-3.5,1.8c-1.9,0-4.4-1.2-4.4-5.4c0-4.3,2.4-5.6,4.3-5.6c1.6,0,2.8,0.8,3.6,2.1
		l-0.8,0.6c-0.6-1.1-1.5-1.9-2.8-1.9s-3.4,0.8-3.4,4.7c0,3.6,1.9,4.8,3.5,4.8c1.2,0,2.2-0.8,2.9-1.7L961.3,206.4z"/>
	<path class="st3" d="M965,202.7c0-4.1,2.1-5.5,4-5.5c1.8,0,4.1,1.2,4.1,5.5s-2.3,5.5-4.1,5.5C967.3,208.2,965,207,965,202.7z
		 M972.2,202.7c0-2.1-0.5-4.7-3.1-4.7s-3.1,2.6-3.1,4.7c0,2.1,0.5,4.7,3.1,4.7C971.6,207.4,972.2,204.7,972.2,202.7z"/>
	<path class="st3" d="M978.3,208h-0.9v-5.3c0-1.8-0.1-3.6-0.4-5.4h0.9l0.4,3l0,0c0.4-1.6,2.1-3.1,3.8-3.1c1.9,0,2.5,1.7,2.5,3.3v7.5
		h-0.9v-7.1c0-1.2,0-2.9-1.6-2.9c-1.5,0-3.6,1.5-3.6,5.6v4.4H978.3z"/>
	<path class="st3" d="M995.4,199.1c-0.8-0.6-1.8-1.1-2.8-1.1s-2.1,0.8-2.1,1.9c0,1.2,1.4,1.8,2.3,2.2c1.6,0.6,3.3,1.3,3.3,3.3
		c0,1.8-1.6,2.8-3.2,2.8c-1.3,0-3-0.8-4-1.7l0.5-0.8c0.9,0.9,2.3,1.7,3.5,1.7s2.2-0.7,2.2-1.9c0-1.6-1.2-2-2.5-2.5
		c-1.5-0.6-3.2-1.2-3.2-3.1c0-1.5,1.5-2.6,3.1-2.6c1.2,0,2.2,0.4,3.2,1.1L995.4,199.1z"/>
	<path class="st3" d="M1008.7,207.2c-1.2,0.5-2.4,1-3.8,1c-3.1,0-4.2-2.8-4.2-5.5s1.2-5.6,4.3-5.6c1.8,0,3.9,1.3,3.9,5.7h-7.2
		c0.2,3.7,1.7,4.6,3.3,4.6c1.2,0,2.3-0.4,3.3-1L1008.7,207.2z M1007.9,202c0.1-1.8-1-4.1-3.1-4.1s-3.3,2.2-3.2,4.1H1007.9z"/>
	<path class="st3" d="M1019.2,212.2v-4.9c-0.7,0.6-1.7,0.9-2.6,0.9c-1.4,0-4.2-1.2-4.2-5.4s2.3-5.6,4.1-5.6c1.2,0,2.3,0.6,2.8,1.7
		l0,0l0.4-1.7l0.9,0.1c-0.4,1.2-0.5,2.5-0.5,3.8v11.1L1019.2,212.2L1019.2,212.2z M1019.2,200.1c-0.5-1.1-1.3-2.1-2.7-2.1
		c-1.2,0-3.2,1.1-3.2,4.7c0,3.9,2.3,4.7,3.5,4.7c0.9,0,1.7-0.5,2.4-1V200.1z"/>
	<path class="st3" d="M1031.2,197.4h0.9v5.2c0,1.8,0.1,3.6,0.4,5.4h-0.9l-0.4-3l0,0c-0.4,1.6-2.1,3.2-3.7,3.2
		c-1.9,0-2.5-1.7-2.5-3.3v-7.5h0.9v7c0,2,0.5,3,1.6,3c1.6,0,3.6-1.7,3.6-5.7L1031.2,197.4L1031.2,197.4z"/>
	<path class="st3" d="M1044.4,207.2c-1.2,0.5-2.4,1-3.8,1c-3.1,0-4.2-2.8-4.2-5.5s1.2-5.6,4.3-5.6c1.8,0,3.9,1.3,3.9,5.7h-7.2
		c0.2,3.7,1.7,4.6,3.3,4.6c1.2,0,2.3-0.4,3.3-1L1044.4,207.2z M1043.6,202c0.1-1.8-1-4.1-3.1-4.1s-3.3,2.2-3.2,4.1H1043.6z"/>
	<path class="st3" d="M1049.7,208h-0.9v-5.3c0-1.8-0.1-3.6-0.4-5.4h0.9l0.4,3l0,0c0.4-1.6,2.1-3.1,3.8-3.1c1.9,0,2.5,1.7,2.5,3.3
		v7.5h-0.9v-7.1c0-1.2,0-2.9-1.6-2.9c-1.5,0-3.6,1.5-3.6,5.6v4.4H1049.7z"/>
	<path class="st3" d="M1067.3,198.2h-3.9v7.2c0,1,0.4,2,1.7,2c1.2,0,2-0.9,2.5-1.9l0.9,0.2c-0.7,1.4-1.8,2.5-3.4,2.5
		c-1.4,0-2.6-0.7-2.6-3.3v-6.7h-2.4v-0.8h2.4V194h0.9v3.4h3.9V198.2z"/>
	<path class="st3" d="M1085.5,193.1v4.9c0.7-0.6,1.7-0.9,2.6-0.9c1.5,0,4.2,1.2,4.2,5.4c0,4.1-2.3,5.6-4.1,5.6
		c-1.2,0-2.3-0.6-2.8-1.7l-0.4,1.7l-0.9-0.1c0.4-1.2,0.5-2.5,0.5-3.8v-11.1L1085.5,193.1L1085.5,193.1z M1085.5,205.3
		c0.5,1.1,1.2,2.1,2.6,2.1c1.2,0,3.2-1,3.2-4.7c0-3.9-2.3-4.7-3.5-4.7c-0.9,0-1.7,0.5-2.4,1v6.3H1085.5z"/>
	<path class="st3" d="M1095.9,202.7c0-4.1,2.1-5.5,4-5.5c1.8,0,4.1,1.2,4.1,5.5s-2.3,5.5-4.1,5.5
		C1098.2,208.2,1095.9,207,1095.9,202.7z M1103.1,202.7c0-2.1-0.5-4.7-3.1-4.7s-3.1,2.6-3.1,4.7c0,2.1,0.5,4.7,3.1,4.7
		C1102.5,207.4,1103.1,204.7,1103.1,202.7z"/>
	<path class="st3" d="M1110.2,208h-0.9v-7.3l-0.4-3.4h0.9l0.4,3c0.7-1.5,1.8-3.1,3.6-3.1c1.8,0,2.2,1.8,2.2,3.2h-0.9
		c0-1-0.1-2.4-1.4-2.4c-1.1,0-3.5,1.7-3.5,5.7L1110.2,208L1110.2,208z"/>
	<path class="st3" d="M1127.2,204.3c0,1.3,0.1,2.6,0.5,3.8l-0.9,0.1l-0.4-1.7c-0.6,1.1-1.6,1.7-2.8,1.7c-1.8,0-4.1-1.5-4.1-5.6
		c0-4.2,2.7-5.4,4.2-5.4c0.9,0,1.9,0.3,2.6,0.9v-4.9h0.9L1127.2,204.3L1127.2,204.3z M1126.2,199c-0.7-0.6-1.5-1-2.4-1
		c-1.2,0-3.5,0.8-3.5,4.7c0,3.7,2,4.7,3.2,4.7c1.3,0,2.2-1,2.6-2.1V199H1126.2z"/>
	<path class="st3" d="M1139.6,207.2c-1.2,0.5-2.4,1-3.8,1c-3.1,0-4.2-2.8-4.2-5.5s1.2-5.6,4.3-5.6c1.8,0,3.9,1.3,3.9,5.7h-7.2
		c0.2,3.7,1.7,4.6,3.3,4.6c1.2,0,2.3-0.4,3.3-1L1139.6,207.2z M1138.8,202c0.1-1.8-1-4.1-3.1-4.1s-3.3,2.2-3.2,4.1H1138.8z"/>
	<path class="st3" d="M1145.9,208h-0.9v-7.3l-0.4-3.4h0.9l0.4,3c0.7-1.5,1.8-3.1,3.6-3.1c1.8,0,2.2,1.8,2.2,3.2h-0.9
		c0-1-0.1-2.4-1.4-2.4c-1.1,0-3.5,1.7-3.5,5.7L1145.9,208L1145.9,208z"/>
	<path class="st3" d="M1175.5,206.4c-1,1.1-2,1.8-3.5,1.8c-1.9,0-4.4-1.2-4.4-5.4c0-4.3,2.4-5.6,4.3-5.6c1.6,0,2.8,0.8,3.6,2.1
		l-0.8,0.6c-0.6-1.1-1.5-1.9-2.8-1.9s-3.4,0.8-3.4,4.7c0,3.6,1.9,4.8,3.5,4.8c1.2,0,2.2-0.8,2.9-1.7L1175.5,206.4z"/>
	<path class="st3" d="M1182.9,193.9h-3.1v-0.8h4.1V208h-0.9L1182.9,193.9L1182.9,193.9z"/>
	<path class="st3" d="M1191.1,202.7c0-4.1,2.1-5.5,4-5.5c1.8,0,4.1,1.2,4.1,5.5s-2.3,5.5-4.1,5.5
		C1193.4,208.2,1191.1,207,1191.1,202.7z M1198.3,202.7c0-2.1-0.5-4.7-3.1-4.7s-3.1,2.6-3.1,4.7c0,2.1,0.5,4.7,3.1,4.7
		C1197.7,207.4,1198.3,204.7,1198.3,202.7z"/>
	<path class="st3" d="M1209.6,199.1c-0.8-0.6-1.8-1.1-2.8-1.1s-2.1,0.8-2.1,1.9c0,1.2,1.4,1.8,2.3,2.2c1.6,0.6,3.3,1.3,3.3,3.3
		c0,1.8-1.6,2.8-3.2,2.8c-1.3,0-3-0.8-4-1.7l0.5-0.8c0.9,0.9,2.3,1.7,3.5,1.7s2.2-0.7,2.2-1.9c0-1.6-1.2-2-2.5-2.5
		c-1.5-0.6-3.2-1.2-3.2-3.1c0-1.5,1.5-2.6,3.1-2.6c1.2,0,2.2,0.4,3.2,1.1L1209.6,199.1z"/>
	<path class="st3" d="M1221.6,197.4h0.9v5.2c0,1.8,0.1,3.6,0.4,5.4h-0.9l-0.4-3l0,0c-0.4,1.6-2.1,3.2-3.7,3.2
		c-1.9,0-2.5-1.7-2.5-3.3v-7.5h0.9v7c0,2,0.5,3,1.6,3c1.6,0,3.6-1.7,3.6-5.7L1221.6,197.4L1221.6,197.4z"/>
	<path class="st3" d="M1229.2,208h-0.9v-7.3l-0.4-3.4h0.9l0.4,3c0.7-1.5,1.8-3.1,3.6-3.1c1.8,0,2.2,1.8,2.2,3.2h-0.9
		c0-1-0.1-2.4-1.4-2.4c-1.1,0-3.5,1.7-3.5,5.7L1229.2,208L1229.2,208z"/>
	<path class="st3" d="M1246.7,207.2c-1.2,0.5-2.4,1-3.8,1c-3.1,0-4.2-2.8-4.2-5.5s1.2-5.6,4.3-5.6c1.8,0,3.9,1.3,3.9,5.7h-7.2
		c0.2,3.7,1.7,4.6,3.3,4.6c1.2,0,2.3-0.4,3.3-1L1246.7,207.2z M1245.9,202c0.1-1.8-1-4.1-3.1-4.1s-3.3,2.2-3.2,4.1H1245.9z"/>
	<path class="st3" d="M1257.2,199.1c-0.8-0.6-1.8-1.1-2.8-1.1s-2.1,0.8-2.1,1.9c0,1.2,1.4,1.8,2.3,2.2c1.6,0.6,3.3,1.3,3.3,3.3
		c0,1.8-1.6,2.8-3.2,2.8c-1.3,0-3-0.8-4-1.7l0.5-0.8c0.9,0.9,2.3,1.7,3.5,1.7s2.2-0.7,2.2-1.9c0-1.6-1.2-2-2.5-2.5
		c-1.5-0.6-3.2-1.2-3.2-3.1c0-1.5,1.5-2.6,3.1-2.6c1.2,0,2.2,0.4,3.2,1.1L1257.2,199.1z"/>
	<path class="st3" d="M1266.5,205.6c0.7,0,1.4,0.6,1.4,1.4s-0.6,1.3-1.4,1.3s-1.3-0.6-1.3-1.3S1265.8,205.6,1266.5,205.6z"/>
</g>
<g>
	<g>
		<path class="st8" d="M960.5,96.3h1.6v15.1h-1.6V99.9l0,0l-3.1,7.4l-3.1-7.4l0,0v11.5h-1.6V96.3h1.5l3.2,7.5L960.5,96.3z"/>
		<path class="st8" d="M975.5,111.4h-1.7l-1.3-4.5h-4.6l-1.3,4.5h-1.7l5.3-16.4L975.5,111.4z M968.2,105.6h3.8l-1.9-6.1L968.2,105.6
			z"/>
		<path class="st8" d="M979.4,96.3h3.9c3.8,0,4.1,3.4,4.1,4.3c0,1.6-0.6,3-2.7,4.2l4.1,6.7h-1.9l-3.7-6.3c-0.8,0-1.5,0-2.3,0v6.3
			h-1.6V96.3H979.4z M982.4,103.8c2.1,0,3.4-1.1,3.4-3.3c0-2-0.8-2.9-3.3-2.9H981v6.2C981,103.8,982.4,103.8,982.4,103.8z"/>
		<path class="st8" d="M998.5,99.5c0-1.3-0.9-2.2-2.2-2.2c-3.2,0-3.4,4.3-3.4,6.7c0,2.2,0.2,6.4,3.3,6.4c1.6,0,2.5-1.2,2.5-2.7h1.6
			c-0.2,2.5-1.7,4-4.2,4c-4.2,0-4.8-4.6-4.8-7.8c0-3.3,0.7-7.9,5-7.9c2.1,0,3.7,1.5,3.8,3.6L998.5,99.5L998.5,99.5z"/>
		<path class="st8" d="M1005.9,102.9h5.2v-6.6h1.6v15.1h-1.6v-7.2h-5.2v7.2h-1.6V96.3h1.6V102.9z"/>
		<path class="st8" d="M1035,110.1h2.7v1.3h-7.1v-1.3h2.8V97.5l-3,0.9v-1.2l4.5-1.4L1035,110.1L1035,110.1z"/>
		<path class="st8" d="M1050.5,98.2c-0.7-0.4-1.3-0.9-2.1-0.9c-2.6,0-4,3.8-4.1,6c0.9-1,1.8-1.5,3.2-1.5c2.6,0,3.9,2.4,3.9,4.7
			c0,2.6-1.5,5.2-4.3,5.2c-3.7,0-4.4-3.8-4.4-6.7c0-6.3,2.9-9,5.7-9c1,0,2,0.4,2.8,0.9L1050.5,98.2z M1047.3,103.1
			c-1.7,0-2.9,1.9-2.9,3.8c0,1.6,0.8,3.5,2.6,3.5c2.1,0,2.9-2.1,2.9-3.9C1049.8,104.8,1049.2,103.1,1047.3,103.1z"/>
	</g>
</g>
<g>
	<g>
		<path class="st3" d="M1223.1,95.9h-6.2v-4.1c0-1.2-0.1-1.9-0.2-2.2c-0.1-0.3-0.4-0.4-0.9-0.4s-0.8,0.2-1,0.5s-0.2,1.1-0.2,2.3v11
			c0,1.2,0.1,1.9,0.2,2.3s0.4,0.5,0.9,0.5s0.8-0.2,0.9-0.5c0.1-0.4,0.2-1.2,0.2-2.5v-3h6.2v0.9c0,2.5-0.2,4.2-0.5,5.2
			s-1.1,1.9-2.3,2.7c-1.2,0.8-2.6,1.2-4.4,1.2s-3.3-0.3-4.5-1s-1.9-1.6-2.3-2.7c-0.4-1.2-0.6-2.9-0.6-5.2V94c0-1.7,0.1-3,0.2-3.8
			c0.1-0.9,0.5-1.7,1-2.5c0.6-0.8,1.4-1.4,2.4-1.9s2.2-0.7,3.6-0.7c1.8,0,3.3,0.4,4.5,1.1s2,1.6,2.3,2.6c0.4,1,0.6,2.7,0.6,4.9v2.2
			H1223.1z"/>
		<path class="st3" d="M1241.2,99.4c0,2.4-0.1,4.1-0.2,5.1s-0.5,1.9-1.1,2.7c-0.6,0.8-1.4,1.5-2.4,1.9s-2.2,0.7-3.5,0.7
			s-2.4-0.2-3.4-0.6s-1.8-1-2.4-1.9s-1-1.7-1.1-2.7s-0.2-2.7-0.2-5.1v-4.1c0-2.4,0.1-4.1,0.2-5.1s0.5-1.9,1.1-2.7
			c0.6-0.8,1.4-1.5,2.4-1.9s2.2-0.7,3.5-0.7s2.4,0.2,3.4,0.6s1.8,1,2.4,1.9s1,1.7,1.1,2.7s0.2,2.7,0.2,5.1V99.4z M1235,91.6
			c0-1.1-0.1-1.8-0.2-2.1c-0.1-0.3-0.4-0.5-0.8-0.5c-0.3,0-0.6,0.1-0.7,0.4c-0.2,0.2-0.3,1-0.3,2.2v11.1c0,1.4,0.1,2.2,0.2,2.5
			s0.4,0.5,0.8,0.5s0.7-0.2,0.8-0.6s0.2-1.3,0.2-2.7V91.6z"/>
		<path class="st3" d="M1259.9,85.5l-3.1,23.7h-9.4l-3.6-23.7h6.5c0.8,6.5,1.3,12.1,1.6,16.6c0.3-4.6,0.7-8.6,1-12.2l0.4-4.4H1259.9
			z"/>
		<path class="st3" d="M1268.9,85.5v23.7h-6.2V85.5H1268.9z"/>
		<path class="st3" d="M1273.2,85.5h4.6c3,0,5,0.1,6,0.4s1.8,0.7,2.4,1.3s0.9,1.3,1,2.1c0.1,0.8,0.2,2.3,0.2,4.5v8.3
			c0,2.1-0.1,3.6-0.3,4.3c-0.2,0.7-0.5,1.3-1,1.7c-0.5,0.4-1.1,0.7-1.8,0.8c-0.7,0.2-1.8,0.2-3.3,0.2h-7.8L1273.2,85.5L1273.2,85.5z
			 M1279.4,89.6v15.6c0.9,0,1.4-0.2,1.6-0.5s0.3-1.3,0.3-2.9v-9.2c0-1.1,0-1.8-0.1-2.1s-0.2-0.5-0.5-0.7S1280.1,89.6,1279.4,89.6z"
			/>
		<path class="st3" d="M1298.7,97.5v4.1h-7.8v-4.1H1298.7z"/>
		<path class="st3" d="M1311.2,85.5v23.7h-5.9V96.5c0-1.8,0-2.9-0.1-3.3s-0.3-0.7-0.7-0.8c-0.4-0.2-1.3-0.3-2.6-0.3h-0.6v-2.8
			c2.9-0.6,5-1.9,6.5-3.8L1311.2,85.5L1311.2,85.5z"/>
		<path class="st3" d="M1315.3,103h5.9c0,1.1,0,1.8,0,2.1s0.1,0.5,0.4,0.7c0.2,0.2,0.5,0.3,0.9,0.3c0.3,0,0.6-0.1,0.7-0.3
			s0.3-0.4,0.3-0.7c0-0.3,0-0.9,0-1.8v-3.8c-0.3,0.6-0.7,1.1-1.3,1.4s-1.3,0.5-2.2,0.5c-1.1,0-2-0.3-2.9-0.9s-1.4-1.3-1.6-2.1
			s-0.3-1.9-0.3-3.3v-1.9c0-1.7,0.1-2.9,0.2-3.7s0.5-1.6,1-2.2c0.5-0.7,1.3-1.2,2.3-1.6s2.1-0.6,3.4-0.6c1.6,0,2.9,0.2,3.9,0.7
			s1.8,1.1,2.4,1.9s0.9,1.7,1,2.6s0.1,2.7,0.1,5.3v3.3c0,2.8,0,4.7-0.1,5.7s-0.4,1.9-1,2.7c-0.6,0.8-1.4,1.5-2.4,1.9
			s-2.2,0.6-3.6,0.6c-1.7,0-3-0.3-4.1-0.8s-1.8-1.3-2.3-2.3S1315.3,104.4,1315.3,103z M1321.2,95.6c0,1,0.1,1.6,0.4,1.8
			c0.3,0.2,0.5,0.4,0.8,0.4c0.4,0,0.7-0.1,0.9-0.4c0.2-0.3,0.3-0.9,0.3-1.8v-4.3c0-1-0.1-1.7-0.3-2.1c-0.2-0.3-0.5-0.5-0.9-0.5
			c-0.3,0-0.5,0.1-0.8,0.4c-0.3,0.2-0.4,0.9-0.4,2V95.6z"/>
	</g>
</g>
<line class="st9" x1="941.1" y1="119.9" x2="1342.8" y2="119.9"/>
<rect x="477.5" y="389.4" class="st1" width="8.5" height="8.5"/>
<rect x="583.9" y="460" class="st1" width="8.5" height="8.5"/>
<path class="st10" d="M584.7,464.2c-1.5,0-2.6,0-3.6-0.5c-0.2-0.1-1.1-0.9-1.4-1.1c-0.7-0.5-1.2,0.5-1.6-0.6
	c-0.4-1.2,2.9-2.7,2.2-3.9c-0.2-0.6-3.4-0.5-3.9-0.5c-0.2-0.1-0.4-0.9-1-0.7c-0.5,0.2-0.1,1-0.5,1.2c-0.7,0.5,0,1.5-1.4,0.7
	c-0.5-0.1-0.7-1.5-1.2-1.9c-0.6-0.5-1.4-0.1-1.9-0.6c-0.5-0.4-0.7-1.6-1.2-1.9c-1.1-0.5-1.7,1-2.9,0.5c-1-0.5-1.4-3.6-2.5-4.5
	c-1.1-1-2.7-0.4-4.1-0.6c-2.2-0.4-2.5-1-5,0.4c-1.6,0.9-3.5,2.1-5.5,1.6c-1.7-0.5-1.9-2.2-3.7-2.9c-1.9-0.5-4.2,0-6.1-0.7
	c-1.7-0.7-1.7-2.5-3.5-3.4c-0.7-0.4-1.6,0-2.4-0.2c-0.9-0.2-0.9-0.9-1.5-1.2c-1.5-1-2.5,0.1-4.1-0.5c-1.4-0.5-1.2-2.2-2.6-2.7
	c-1.2-0.5-2.4,0.5-3.6,0c-1.6-0.7-1.7-1.6-3.7-0.6c-1.6,0.7-1.9,1.6-3.6,0.5c-1.4-0.6-2-2-3.2-2.9c-1.2-0.7-2.4-0.5-3.5-1.1
	c-4.3-1.9,0.4-4.6,1.1-6.8c-0.4-0.1-2.5-0.5-2.6-0.7c-1.2-1.4,0.4-1.1,0.9-1.7c0.9-0.9,1-0.1,1-1.5c-0.1-0.4-0.9-1.9-1.2-2.1
	c-0.2-0.4-0.1-0.9-0.5-1c-0.6-0.2-0.9,0.7-1.1,0.6c-0.5-0.1-1.6-1.6-2.5-1.6c-1.4,0-2.4,2.7-3.7,2.5c-0.2,0-1.6-1.7-1.9-1.9
	c-0.7-0.7-1.4-1.2-1.5-2.5c0-0.7,0.4-1.4,0.4-2c0-0.7-0.4-1.4-0.4-2c0.1-2,1.5-2.6,1.2-4.6c-0.1-0.6-0.7-1.2-0.5-1.9
	c0.2-0.7,1.2-1.1,1.7-1.9c1.4-2.5-0.4-2.5-1.7-3.9c-0.7-1-0.6-2.2-1.6-2.9c-0.9-0.5-2.2-0.2-3.1-0.2c-1.6-0.1-3.2-0.4-4.6-1.2
	c-1-0.7-3-1.9-3.4-3.1"/>
<g>
	<path class="st3" d="M962,152h-1.1l-1.3-4.4h-4.9l-1.3,4.4h-1l4.8-15L962,152z M954.9,146.8h4.5l-2.3-7.2L954.9,146.8z"/>
	<path class="st3" d="M984.1,139.6c-0.9-0.8-1.9-1.5-3.2-1.5c-1.5,0-2.7,1-2.7,2.5c0,1.1,0.5,1.9,2.3,2.9l1.2,0.7
		c2.3,1.4,3.3,2.2,3.3,4c0,2.5-1.6,4-4.1,4c-1.7,0-3-0.8-4.1-2.1l0.7-0.6c0.8,1.1,2,1.9,3.3,1.9c1.7,0,3.1-1.2,3.1-3
		c0-1.4-0.2-1.9-2.8-3.5l-1.3-0.8c-1.4-0.8-2.6-1.8-2.6-3.5c0-2.2,1.6-3.4,3.7-3.4c1.4,0,2.7,0.7,3.7,1.6L984.1,139.6z"/>
	<path class="st3" d="M995.9,142.2H992v7.2c0,1,0.4,2,1.7,2c1.2,0,2-0.9,2.5-1.9l0.9,0.2c-0.7,1.4-1.8,2.5-3.4,2.5
		c-1.4,0-2.6-0.7-2.6-3.3v-6.7h-2.4v-0.8h2.4V138h0.9v3.4h3.9L995.9,142.2L995.9,142.2z"/>
	<path class="st3" d="M1007.2,152.2c-0.2-0.6-0.3-1.2-0.4-1.8c-0.7,1.1-1.5,1.8-2.9,1.8c-1.9,0-2.9-1.6-2.9-3.4c0-2,1.1-3.8,3.2-3.8
		c0.9,0,1.8,0.3,2.6,0.7c0.1-2.7-0.4-3.8-2.2-3.8c-0.9,0-1.7,0.3-2.5,0.7l-0.2-0.9c0.9-0.4,1.8-0.6,2.8-0.6c1.9,0,3.1,1.4,3,3.7
		l-0.1,4.3c0,1,0.2,2,0.5,2.9L1007.2,152.2z M1006.7,146.5c-0.7-0.3-1.5-0.6-2.3-0.6c-1.8,0-2.5,1.5-2.5,3c0,1.2,0.7,2.5,2,2.5
		s2.1-1.1,2.8-2.1V146.5z"/>
	<path class="st3" d="M1019.7,142.2h-3.9v7.2c0,1,0.4,2,1.7,2c1.2,0,2-0.9,2.5-1.9l0.9,0.2c-0.7,1.4-1.8,2.5-3.4,2.5
		c-1.4,0-2.6-0.7-2.6-3.3v-6.7h-2.4v-0.8h2.4V138h0.9v3.4h3.9L1019.7,142.2L1019.7,142.2z"/>
	<path class="st3" d="M1032.5,151.2c-1.2,0.5-2.4,1-3.8,1c-3.1,0-4.2-2.8-4.2-5.5s1.2-5.6,4.3-5.6c1.8,0,3.9,1.3,3.9,5.7h-7.2
		c0.2,3.7,1.7,4.6,3.3,4.6c1.2,0,2.3-0.4,3.3-1L1032.5,151.2z M1031.7,146c0.1-1.8-1-4.1-3.1-4.1s-3.3,2.2-3.2,4.1H1031.7z"/>
	<path class="st3" d="M1048.3,146.7c0-4.1,2.1-5.5,4-5.5c1.8,0,4.1,1.2,4.1,5.5s-2.3,5.5-4.1,5.5
		C1050.6,152.2,1048.3,151,1048.3,146.7z M1055.5,146.7c0-2.1-0.5-4.7-3.1-4.7s-3.1,2.6-3.1,4.7c0,2.1,0.5,4.7,3.1,4.7
		C1054.9,151.4,1055.5,148.7,1055.5,146.7z"/>
	<path class="st3" d="M1068.8,139c-1-0.4-1.6-0.9-2.5-0.9c-1.4,0-2.2,0.8-2.2,2.2v1.9h3.5v0.8h-3.5v9.1h-0.9V143h-2.7v-0.8h2.7V141
		c0-2.7,1.6-3.6,3.1-3.6c0.9,0,1.8,0.3,2.6,0.7L1068.8,139L1068.8,139z"/>
	<path class="st3" d="M1092.1,138.4h-6.1v5.8h4.4v0.8h-4.4v6.2h6.2v0.8h-7.2v-14.4h7L1092.1,138.4L1092.1,138.4z"/>
	<path class="st3" d="M1095.5,144.6c0-1.4-0.2-2.5-0.4-3.4h1l0.3,1.4c0.6-0.8,1.4-1.4,2.5-1.4c0.9,0,1.3,0.5,1.6,1.3
		c0.5-0.7,1.3-1.3,2.2-1.3c1.4,0,2.1,0.9,2.1,2.2v8.6h-0.9v-8.5c0-1.1-0.5-1.5-1.3-1.5s-1.5,0.7-1.9,1.4v8.7h-0.9V144
		c0-0.8-0.1-1.9-1.1-1.9c-0.9,0-1.7,0.7-2.1,1.5v8.5h-0.9v-7.5H1095.5z"/>
	<path class="st3" d="M1115.8,151.2c-1.2,0.5-2.4,1-3.8,1c-3.1,0-4.2-2.8-4.2-5.5s1.2-5.6,4.3-5.6c1.8,0,3.9,1.3,3.9,5.7h-7.2
		c0.2,3.7,1.7,4.6,3.3,4.6c1.2,0,2.3-0.4,3.3-1L1115.8,151.2z M1115,146c0.1-1.8-1-4.1-3.1-4.1s-3.3,2.2-3.2,4.1H1115z"/>
	<path class="st3" d="M1122.1,152h-0.9v-7.3l-0.4-3.4h0.9l0.4,3c0.7-1.5,1.8-3.1,3.6-3.1c1.8,0,2.2,1.8,2.2,3.2h-0.9
		c0-1-0.1-2.4-1.4-2.4c-1.1,0-3.5,1.7-3.5,5.7L1122.1,152L1122.1,152z"/>
	<path class="st3" d="M1133,153.4c0.6,0.7,1.6,1.2,2.6,1.2c1.2,0,2.7-0.9,2.7-3.5v-1.3c-0.7,0.8-1.9,1.3-3,1.3
		c-2.5,0-3.7-2.5-3.7-4.7c0-2.4,1-5.1,3.9-5.1c1.2,0,2,0.5,2.9,1.2l0.3-1.2h1c-0.5,1.8-0.5,3.7-0.5,5.6v4.4c0,3.1-2.2,4.2-3.8,4.2
		c-1.1,0-2.3-0.6-3.1-1.4L1133,153.4z M1138.2,143.5c-0.6-0.9-1.6-1.5-2.8-1.5c-2.2,0-2.9,2.4-2.9,4.2c0,3.3,1.9,4.1,2.8,4.1
		c1.1,0,2.3-0.7,2.9-1.6V143.5z"/>
	<path class="st3" d="M1151.5,151.2c-1.2,0.5-2.4,1-3.8,1c-3.1,0-4.2-2.8-4.2-5.5s1.2-5.6,4.3-5.6c1.8,0,3.9,1.3,3.9,5.7h-7.2
		c0.2,3.7,1.7,4.6,3.3,4.6c1.2,0,2.3-0.4,3.3-1L1151.5,151.2z M1150.7,146c0.1-1.8-1-4.1-3.1-4.1s-3.3,2.2-3.2,4.1H1150.7z"/>
	<path class="st3" d="M1156.8,152h-0.9v-5.3c0-1.8-0.1-3.6-0.4-5.4h0.9l0.4,3l0,0c0.4-1.6,2.1-3.1,3.8-3.1c1.9,0,2.5,1.7,2.5,3.3
		v7.5h-0.9v-7.1c0-1.2,0-2.9-1.6-2.9c-1.5,0-3.6,1.5-3.6,5.6v4.4H1156.8z"/>
	<path class="st3" d="M1175.5,150.4c-1,1.1-2,1.8-3.5,1.8c-1.9,0-4.4-1.2-4.4-5.4c0-4.3,2.4-5.6,4.3-5.6c1.6,0,2.8,0.8,3.6,2.1
		l-0.8,0.6c-0.6-1.1-1.5-1.9-2.8-1.9s-3.4,0.8-3.4,4.7c0,3.6,1.9,4.8,3.5,4.8c1.2,0,2.2-0.8,2.9-1.7L1175.5,150.4z"/>
	<path class="st3" d="M1187.5,141.4l-4,10.1c-0.6,1.4-1.5,3.9-3.3,3.9c-1.2,0-2.1-0.9-2.4-2l0.8-0.4c0.3,0.7,0.8,1.6,1.6,1.6
		c1,0,1.5-1.2,1.9-2l0.8-1.8l-3.4-9.4h1l2.9,8.1l3-8.1L1187.5,141.4L1187.5,141.4z"/>
	<path class="st3" d="M1206.8,142.2h-3.1v-0.8h4V152h-0.9V142.2z M1208.3,138.3c0,0.6-0.5,1-1.1,1s-1-0.5-1-1s0.5-1,1-1
		S1208.3,137.8,1208.3,138.3z"/>
	<path class="st3" d="M1221.5,143.1c-0.8-0.6-1.8-1.1-2.8-1.1s-2.1,0.8-2.1,1.9c0,1.2,1.4,1.8,2.3,2.2c1.6,0.6,3.3,1.3,3.3,3.3
		c0,1.8-1.6,2.8-3.2,2.8c-1.3,0-3-0.8-4-1.7l0.5-0.8c0.9,0.9,2.3,1.7,3.5,1.7s2.2-0.7,2.2-1.9c0-1.6-1.2-2-2.5-2.5
		c-1.5-0.6-3.2-1.2-3.2-3.1c0-1.5,1.5-2.6,3.1-2.6c1.2,0,2.2,0.4,3.2,1.1L1221.5,143.1z"/>
	<path class="st3" d="M1246.2,148.3c0,1.3,0.1,2.6,0.5,3.8l-0.9,0.1l-0.4-1.7c-0.6,1.1-1.6,1.7-2.8,1.7c-1.8,0-4.1-1.5-4.1-5.6
		c0-4.2,2.7-5.4,4.2-5.4c0.9,0,1.9,0.3,2.6,0.9v-4.9h0.9L1246.2,148.3L1246.2,148.3z M1245.2,143c-0.7-0.6-1.5-1-2.4-1
		c-1.2,0-3.5,0.8-3.5,4.7c0,3.7,2,4.7,3.2,4.7c1.3,0,2.2-1,2.6-2.1V143H1245.2z"/>
	<path class="st3" d="M1258.6,151.2c-1.2,0.5-2.4,1-3.8,1c-3.1,0-4.2-2.8-4.2-5.5s1.2-5.6,4.3-5.6c1.8,0,3.9,1.3,3.9,5.7h-7.2
		c0.2,3.7,1.7,4.6,3.3,4.6c1.2,0,2.3-0.4,3.3-1L1258.6,151.2z M1257.8,146c0.1-1.8-1-4.1-3.1-4.1s-3.3,2.2-3.2,4.1H1257.8z"/>
	<path class="st3" d="M1270.7,150.4c-1,1.1-2,1.8-3.5,1.8c-1.9,0-4.4-1.2-4.4-5.4c0-4.3,2.4-5.6,4.3-5.6c1.6,0,2.8,0.8,3.6,2.1
		l-0.8,0.6c-0.6-1.1-1.5-1.9-2.8-1.9s-3.4,0.8-3.4,4.7c0,3.6,1.9,4.8,3.5,4.8c1.2,0,2.2-0.8,2.9-1.7L1270.7,150.4z"/>
	<path class="st3" d="M1278.1,137.9h-3.1v-0.8h4.1V152h-0.9L1278.1,137.9L1278.1,137.9z"/>
	<path class="st3" d="M1292.8,152.2c-0.2-0.6-0.3-1.2-0.4-1.8c-0.7,1.1-1.5,1.8-2.9,1.8c-1.9,0-2.9-1.6-2.9-3.4c0-2,1.1-3.8,3.2-3.8
		c0.9,0,1.8,0.3,2.6,0.7c0.1-2.7-0.4-3.8-2.2-3.8c-0.9,0-1.7,0.3-2.5,0.7l-0.2-0.9c0.9-0.4,1.8-0.6,2.8-0.6c1.9,0,3.1,1.4,3,3.7
		l-0.1,4.3c0,1,0.2,2,0.5,2.9L1292.8,152.2z M1292.3,146.5c-0.7-0.3-1.5-0.6-2.3-0.6c-1.8,0-2.5,1.5-2.5,3c0,1.2,0.7,2.5,2,2.5
		s2.1-1.1,2.8-2.1V146.5z"/>
	<path class="st3" d="M1300.6,152h-0.9v-7.3l-0.4-3.4h0.9l0.4,3c0.7-1.5,1.8-3.1,3.6-3.1c1.8,0,2.2,1.8,2.2,3.2h-0.9
		c0-1-0.1-2.4-1.4-2.4c-1.1,0-3.5,1.7-3.5,5.7L1300.6,152L1300.6,152z"/>
	<path class="st3" d="M1318.1,151.2c-1.2,0.5-2.4,1-3.8,1c-3.1,0-4.2-2.8-4.2-5.5s1.2-5.6,4.3-5.6c1.8,0,3.9,1.3,3.9,5.7h-7.2
		c0.2,3.7,1.7,4.6,3.3,4.6c1.2,0,2.3-0.4,3.3-1L1318.1,151.2z M1317.3,146c0.1-1.8-1-4.1-3.1-4.1s-3.3,2.2-3.2,4.1H1317.3z"/>
	<path class="st3" d="M1329.5,148.3c0,1.3,0.1,2.6,0.5,3.8l-0.9,0.1l-0.4-1.7c-0.6,1.1-1.6,1.7-2.8,1.7c-1.8,0-4.1-1.5-4.1-5.6
		c0-4.2,2.7-5.4,4.2-5.4c0.9,0,1.9,0.3,2.6,0.9v-4.9h0.9L1329.5,148.3L1329.5,148.3z M1328.5,143c-0.7-0.6-1.5-1-2.4-1
		c-1.2,0-3.5,0.8-3.5,4.7c0,3.7,2,4.7,3.2,4.7c1.3,0,2.2-1,2.6-2.1V143H1328.5z"/>
	<path class="st3" d="M959.6,180.2c-0.2-0.6-0.3-1.2-0.4-1.8c-0.7,1.1-1.5,1.8-2.9,1.8c-1.9,0-2.9-1.6-2.9-3.4c0-2,1.1-3.8,3.2-3.8
		c0.9,0,1.8,0.3,2.6,0.7c0.1-2.7-0.4-3.8-2.2-3.8c-0.9,0-1.7,0.3-2.5,0.7l-0.2-0.9c0.9-0.4,1.8-0.6,2.8-0.6c1.9,0,3.1,1.4,3,3.7
		l-0.1,4.3c0,1,0.2,2,0.5,2.9L959.6,180.2z M959.1,174.5c-0.7-0.3-1.5-0.6-2.3-0.6c-1.8,0-2.5,1.5-2.5,3c0,1.2,0.7,2.5,2,2.5
		s2.1-1.1,2.8-2.1V174.5z"/>
	<path class="st3" d="M972.1,170.2h-3.9v7.2c0,1,0.4,2,1.7,2c1.2,0,2-0.9,2.5-1.9l0.9,0.2c-0.7,1.4-1.8,2.5-3.4,2.5
		c-1.4,0-2.6-0.7-2.6-3.3v-6.7h-2.4v-0.8h2.4V166h0.9v3.4h3.9L972.1,170.2L972.1,170.2z"/>
	<path class="st3" d="M995.9,170.2H992v7.2c0,1,0.4,2,1.7,2c1.2,0,2-0.9,2.5-1.9l0.9,0.2c-0.7,1.4-1.8,2.5-3.4,2.5
		c-1.4,0-2.6-0.7-2.6-3.3v-6.7h-2.4v-0.8h2.4V166h0.9v3.4h3.9L995.9,170.2L995.9,170.2z"/>
	<path class="st3" d="M1001.3,165.1h0.9v6.6l0,0c0.6-1.3,1.9-2.5,3.5-2.5c1,0,2.5,0.8,2.5,3.1v7.7h-0.9v-6.6c0-1.3-0.2-3.4-1.7-3.4
		c-1.8,0-3.4,2.2-3.4,4.7v5.3h-0.9L1001.3,165.1L1001.3,165.1z"/>
	<path class="st3" d="M1020.6,179.2c-1.2,0.5-2.4,1-3.8,1c-3.1,0-4.2-2.8-4.2-5.5s1.2-5.6,4.3-5.6c1.8,0,3.9,1.3,3.9,5.7h-7.2
		c0.2,3.7,1.7,4.6,3.3,4.6c1.2,0,2.3-0.4,3.3-1L1020.6,179.2z M1019.8,174c0.1-1.8-1-4.1-3.1-4.1s-3.3,2.2-3.2,4.1H1019.8z"/>
	<path class="st3" d="M1037.8,180h-0.9v-5.3c0-1.8-0.1-3.6-0.4-5.4h0.9l0.4,3l0,0c0.4-1.6,2.1-3.1,3.8-3.1c1.9,0,2.5,1.7,2.5,3.3
		v7.5h-0.9v-7.1c0-1.2,0-2.9-1.6-2.9c-1.5,0-3.6,1.5-3.6,5.6v4.4H1037.8z"/>
	<path class="st3" d="M1054.8,180.2c-0.2-0.6-0.3-1.2-0.4-1.8c-0.7,1.1-1.5,1.8-2.9,1.8c-1.9,0-2.9-1.6-2.9-3.4c0-2,1.1-3.8,3.2-3.8
		c0.9,0,1.8,0.3,2.6,0.7c0.1-2.7-0.4-3.8-2.2-3.8c-0.9,0-1.7,0.3-2.5,0.7l-0.2-0.9c0.9-0.4,1.8-0.6,2.8-0.6c1.9,0,3.1,1.4,3,3.7
		l-0.1,4.3c0,1,0.2,2,0.5,2.9L1054.8,180.2z M1054.3,174.5c-0.7-0.3-1.5-0.6-2.3-0.6c-1.8,0-2.5,1.5-2.5,3c0,1.2,0.7,2.5,2,2.5
		s2.1-1.1,2.8-2.1V174.5z"/>
	<path class="st3" d="M1067.3,170.2h-3.9v7.2c0,1,0.4,2,1.7,2c1.2,0,2-0.9,2.5-1.9l0.9,0.2c-0.7,1.4-1.8,2.5-3.4,2.5
		c-1.4,0-2.6-0.7-2.6-3.3v-6.7h-2.4v-0.8h2.4V166h0.9v3.4h3.9V170.2z"/>
	<path class="st3" d="M1075.9,170.2h-3.1v-0.8h4V180h-0.9V170.2z M1077.4,166.3c0,0.6-0.5,1-1.1,1s-1-0.5-1-1s0.5-1,1-1
		S1077.4,165.8,1077.4,166.3z"/>
	<path class="st3" d="M1084,174.7c0-4.1,2.1-5.5,4-5.5c1.8,0,4.1,1.2,4.1,5.5s-2.3,5.5-4.1,5.5C1086.3,180.2,1084,179,1084,174.7z
		 M1091.2,174.7c0-2.1-0.5-4.7-3.1-4.7s-3.1,2.6-3.1,4.7c0,2.1,0.5,4.7,3.1,4.7C1090.6,179.4,1091.2,176.7,1091.2,174.7z"/>
	<path class="st3" d="M1097.3,180h-0.9v-5.3c0-1.8-0.1-3.6-0.4-5.4h0.9l0.4,3l0,0c0.4-1.6,2.1-3.1,3.8-3.1c1.9,0,2.5,1.7,2.5,3.3
		v7.5h-0.9v-7.1c0-1.2,0-2.9-1.6-2.9c-1.5,0-3.6,1.5-3.6,5.6v4.4H1097.3z"/>
	<path class="st3" d="M1114.3,180.2c-0.2-0.6-0.3-1.2-0.4-1.8c-0.7,1.1-1.5,1.8-2.9,1.8c-1.9,0-2.9-1.6-2.9-3.4c0-2,1.1-3.8,3.2-3.8
		c0.9,0,1.8,0.3,2.6,0.7c0.1-2.7-0.4-3.8-2.2-3.8c-0.9,0-1.7,0.3-2.5,0.7l-0.2-0.9c0.9-0.4,1.8-0.6,2.8-0.6c1.9,0,3.1,1.4,3,3.7
		l-0.1,4.3c0,1,0.2,2,0.5,2.9L1114.3,180.2z M1113.8,174.5c-0.7-0.3-1.5-0.6-2.3-0.6c-1.8,0-2.5,1.5-2.5,3c0,1.2,0.7,2.5,2,2.5
		s2.1-1.1,2.8-2.1V174.5z"/>
	<path class="st3" d="M1123.4,165.9h-3.1v-0.8h4.1V180h-0.9L1123.4,165.9L1123.4,165.9z"/>
	<path class="st3" d="M1147.2,165.9h-3.1v-0.8h4.1V180h-0.9L1147.2,165.9L1147.2,165.9z"/>
	<path class="st3" d="M1163.4,179.2c-1.2,0.5-2.4,1-3.8,1c-3.1,0-4.2-2.8-4.2-5.5s1.2-5.6,4.3-5.6c1.8,0,3.9,1.3,3.9,5.7h-7.2
		c0.2,3.7,1.7,4.6,3.3,4.6c1.2,0,2.3-0.4,3.3-1L1163.4,179.2z M1162.6,174c0.1-1.8-1-4.1-3.1-4.1s-3.3,2.2-3.2,4.1H1162.6z"/>
	<path class="st3" d="M1175.2,169.4l-3.3,10.7h-1.1l-3.3-10.7h1l2.9,9.3l2.9-9.3H1175.2z"/>
	<path class="st3" d="M1187.2,179.2c-1.2,0.5-2.4,1-3.8,1c-3.1,0-4.2-2.8-4.2-5.5s1.2-5.6,4.3-5.6c1.8,0,3.9,1.3,3.9,5.7h-7.2
		c0.2,3.7,1.7,4.6,3.3,4.6c1.2,0,2.3-0.4,3.3-1L1187.2,179.2z M1186.4,174c0.1-1.8-1-4.1-3.1-4.1s-3.3,2.2-3.2,4.1H1186.4z"/>
	<path class="st3" d="M1194.8,165.9h-3.1v-0.8h4.1V180h-0.9L1194.8,165.9L1194.8,165.9z"/>
	<path class="st3" d="M1221.4,180.2c-0.2-0.6-0.3-1.2-0.4-1.8c-0.7,1.1-1.5,1.8-2.9,1.8c-1.9,0-2.9-1.6-2.9-3.4c0-2,1.1-3.8,3.2-3.8
		c0.9,0,1.8,0.3,2.6,0.7c0.1-2.7-0.4-3.8-2.2-3.8c-0.9,0-1.7,0.3-2.5,0.7l-0.2-0.9c0.9-0.4,1.8-0.6,2.8-0.6c1.9,0,3.1,1.4,3,3.7
		l-0.1,4.3c0,1,0.2,2,0.5,2.9L1221.4,180.2z M1220.9,174.5c-0.7-0.3-1.5-0.6-2.3-0.6c-1.8,0-2.5,1.5-2.5,3c0,1.2,0.7,2.5,2,2.5
		s2.1-1.1,2.8-2.1V174.5z"/>
	<path class="st3" d="M1228.2,180h-0.9v-5.3c0-1.8-0.1-3.6-0.4-5.4h0.9l0.4,3l0,0c0.4-1.6,2.1-3.1,3.8-3.1c1.9,0,2.5,1.7,2.5,3.3
		v7.5h-0.9v-7.1c0-1.2,0-2.9-1.6-2.9c-1.5,0-3.6,1.5-3.6,5.6v4.4H1228.2z"/>
	<path class="st3" d="M1246.2,176.3c0,1.3,0.1,2.6,0.5,3.8l-0.9,0.1l-0.4-1.7c-0.6,1.1-1.6,1.7-2.8,1.7c-1.8,0-4.1-1.5-4.1-5.6
		c0-4.2,2.7-5.4,4.2-5.4c0.9,0,1.9,0.3,2.6,0.9v-4.9h0.9L1246.2,176.3L1246.2,176.3z M1245.2,171c-0.7-0.6-1.5-1-2.4-1
		c-1.2,0-3.5,0.8-3.5,4.7c0,3.7,2,4.7,3.2,4.7c1.3,0,2.2-1,2.6-2.1V171H1245.2z"/>
	<path class="st3" d="M1269.6,170.2h-3.9v7.2c0,1,0.4,2,1.7,2c1.2,0,2-0.9,2.5-1.9l0.9,0.2c-0.7,1.4-1.8,2.5-3.4,2.5
		c-1.4,0-2.6-0.7-2.6-3.3v-6.7h-2.4v-0.8h2.4V166h0.9v3.4h3.9V170.2z"/>
	<path class="st3" d="M1275,165.1h0.9v6.6l0,0c0.6-1.3,1.9-2.5,3.5-2.5c1,0,2.5,0.8,2.5,3.1v7.7h-0.9v-6.6c0-1.3-0.2-3.4-1.7-3.4
		c-1.8,0-3.4,2.2-3.4,4.7v5.3h-0.9V165.1z"/>
	<path class="st3" d="M1294.3,179.2c-1.2,0.5-2.4,1-3.8,1c-3.1,0-4.2-2.8-4.2-5.5s1.2-5.6,4.3-5.6c1.8,0,3.9,1.3,3.9,5.7h-7.2
		c0.2,3.7,1.7,4.6,3.3,4.6c1.2,0,2.3-0.4,3.3-1L1294.3,179.2z M1293.5,174c0.1-1.8-1-4.1-3.1-4.1s-3.3,2.2-3.2,4.1H1293.5z"/>
	<path class="st3" d="M961.3,206.4c-1,1.1-2,1.8-3.5,1.8c-1.9,0-4.4-1.2-4.4-5.4c0-4.3,2.4-5.6,4.3-5.6c1.6,0,2.8,0.8,3.6,2.1
		l-0.8,0.6c-0.6-1.1-1.5-1.9-2.8-1.9s-3.4,0.8-3.4,4.7c0,3.6,1.9,4.8,3.5,4.8c1.2,0,2.2-0.8,2.9-1.7L961.3,206.4z"/>
	<path class="st3" d="M965,202.7c0-4.1,2.1-5.5,4-5.5c1.8,0,4.1,1.2,4.1,5.5s-2.3,5.5-4.1,5.5C967.3,208.2,965,207,965,202.7z
		 M972.2,202.7c0-2.1-0.5-4.7-3.1-4.7s-3.1,2.6-3.1,4.7c0,2.1,0.5,4.7,3.1,4.7C971.6,207.4,972.2,204.7,972.2,202.7z"/>
	<path class="st3" d="M978.3,208h-0.9v-5.3c0-1.8-0.1-3.6-0.4-5.4h0.9l0.4,3l0,0c0.4-1.6,2.1-3.1,3.8-3.1c1.9,0,2.5,1.7,2.5,3.3v7.5
		h-0.9v-7.1c0-1.2,0-2.9-1.6-2.9c-1.5,0-3.6,1.5-3.6,5.6v4.4H978.3z"/>
	<path class="st3" d="M995.4,199.1c-0.8-0.6-1.8-1.1-2.8-1.1s-2.1,0.8-2.1,1.9c0,1.2,1.4,1.8,2.3,2.2c1.6,0.6,3.3,1.3,3.3,3.3
		c0,1.8-1.6,2.8-3.2,2.8c-1.3,0-3-0.8-4-1.7l0.5-0.8c0.9,0.9,2.3,1.7,3.5,1.7s2.2-0.7,2.2-1.9c0-1.6-1.2-2-2.5-2.5
		c-1.5-0.6-3.2-1.2-3.2-3.1c0-1.5,1.5-2.6,3.1-2.6c1.2,0,2.2,0.4,3.2,1.1L995.4,199.1z"/>
	<path class="st3" d="M1008.7,207.2c-1.2,0.5-2.4,1-3.8,1c-3.1,0-4.2-2.8-4.2-5.5s1.2-5.6,4.3-5.6c1.8,0,3.9,1.3,3.9,5.7h-7.2
		c0.2,3.7,1.7,4.6,3.3,4.6c1.2,0,2.3-0.4,3.3-1L1008.7,207.2z M1007.9,202c0.1-1.8-1-4.1-3.1-4.1s-3.3,2.2-3.2,4.1H1007.9z"/>
	<path class="st3" d="M1019.2,212.2v-4.9c-0.7,0.6-1.7,0.9-2.6,0.9c-1.4,0-4.2-1.2-4.2-5.4s2.3-5.6,4.1-5.6c1.2,0,2.3,0.6,2.8,1.7
		l0,0l0.4-1.7l0.9,0.1c-0.4,1.2-0.5,2.5-0.5,3.8v11.1L1019.2,212.2L1019.2,212.2z M1019.2,200.1c-0.5-1.1-1.3-2.1-2.7-2.1
		c-1.2,0-3.2,1.1-3.2,4.7c0,3.9,2.3,4.7,3.5,4.7c0.9,0,1.7-0.5,2.4-1V200.1z"/>
	<path class="st3" d="M1031.2,197.4h0.9v5.2c0,1.8,0.1,3.6,0.4,5.4h-0.9l-0.4-3l0,0c-0.4,1.6-2.1,3.2-3.7,3.2
		c-1.9,0-2.5-1.7-2.5-3.3v-7.5h0.9v7c0,2,0.5,3,1.6,3c1.6,0,3.6-1.7,3.6-5.7L1031.2,197.4L1031.2,197.4z"/>
	<path class="st3" d="M1044.4,207.2c-1.2,0.5-2.4,1-3.8,1c-3.1,0-4.2-2.8-4.2-5.5s1.2-5.6,4.3-5.6c1.8,0,3.9,1.3,3.9,5.7h-7.2
		c0.2,3.7,1.7,4.6,3.3,4.6c1.2,0,2.3-0.4,3.3-1L1044.4,207.2z M1043.6,202c0.1-1.8-1-4.1-3.1-4.1s-3.3,2.2-3.2,4.1H1043.6z"/>
	<path class="st3" d="M1049.7,208h-0.9v-5.3c0-1.8-0.1-3.6-0.4-5.4h0.9l0.4,3l0,0c0.4-1.6,2.1-3.1,3.8-3.1c1.9,0,2.5,1.7,2.5,3.3
		v7.5h-0.9v-7.1c0-1.2,0-2.9-1.6-2.9c-1.5,0-3.6,1.5-3.6,5.6v4.4H1049.7z"/>
	<path class="st3" d="M1067.3,198.2h-3.9v7.2c0,1,0.4,2,1.7,2c1.2,0,2-0.9,2.5-1.9l0.9,0.2c-0.7,1.4-1.8,2.5-3.4,2.5
		c-1.4,0-2.6-0.7-2.6-3.3v-6.7h-2.4v-0.8h2.4V194h0.9v3.4h3.9V198.2z"/>
	<path class="st3" d="M1085.5,193.1v4.9c0.7-0.6,1.7-0.9,2.6-0.9c1.5,0,4.2,1.2,4.2,5.4c0,4.1-2.3,5.6-4.1,5.6
		c-1.2,0-2.3-0.6-2.8-1.7l-0.4,1.7l-0.9-0.1c0.4-1.2,0.5-2.5,0.5-3.8v-11.1L1085.5,193.1L1085.5,193.1z M1085.5,205.3
		c0.5,1.1,1.2,2.1,2.6,2.1c1.2,0,3.2-1,3.2-4.7c0-3.9-2.3-4.7-3.5-4.7c-0.9,0-1.7,0.5-2.4,1v6.3H1085.5z"/>
	<path class="st3" d="M1095.9,202.7c0-4.1,2.1-5.5,4-5.5c1.8,0,4.1,1.2,4.1,5.5s-2.3,5.5-4.1,5.5
		C1098.2,208.2,1095.9,207,1095.9,202.7z M1103.1,202.7c0-2.1-0.5-4.7-3.1-4.7s-3.1,2.6-3.1,4.7c0,2.1,0.5,4.7,3.1,4.7
		C1102.5,207.4,1103.1,204.7,1103.1,202.7z"/>
	<path class="st3" d="M1110.2,208h-0.9v-7.3l-0.4-3.4h0.9l0.4,3c0.7-1.5,1.8-3.1,3.6-3.1c1.8,0,2.2,1.8,2.2,3.2h-0.9
		c0-1-0.1-2.4-1.4-2.4c-1.1,0-3.5,1.7-3.5,5.7L1110.2,208L1110.2,208z"/>
	<path class="st3" d="M1127.2,204.3c0,1.3,0.1,2.6,0.5,3.8l-0.9,0.1l-0.4-1.7c-0.6,1.1-1.6,1.7-2.8,1.7c-1.8,0-4.1-1.5-4.1-5.6
		c0-4.2,2.7-5.4,4.2-5.4c0.9,0,1.9,0.3,2.6,0.9v-4.9h0.9L1127.2,204.3L1127.2,204.3z M1126.2,199c-0.7-0.6-1.5-1-2.4-1
		c-1.2,0-3.5,0.8-3.5,4.7c0,3.7,2,4.7,3.2,4.7c1.3,0,2.2-1,2.6-2.1V199H1126.2z"/>
	<path class="st3" d="M1139.6,207.2c-1.2,0.5-2.4,1-3.8,1c-3.1,0-4.2-2.8-4.2-5.5s1.2-5.6,4.3-5.6c1.8,0,3.9,1.3,3.9,5.7h-7.2
		c0.2,3.7,1.7,4.6,3.3,4.6c1.2,0,2.3-0.4,3.3-1L1139.6,207.2z M1138.8,202c0.1-1.8-1-4.1-3.1-4.1s-3.3,2.2-3.2,4.1H1138.8z"/>
	<path class="st3" d="M1145.9,208h-0.9v-7.3l-0.4-3.4h0.9l0.4,3c0.7-1.5,1.8-3.1,3.6-3.1c1.8,0,2.2,1.8,2.2,3.2h-0.9
		c0-1-0.1-2.4-1.4-2.4c-1.1,0-3.5,1.7-3.5,5.7L1145.9,208L1145.9,208z"/>
	<path class="st3" d="M1175.5,206.4c-1,1.1-2,1.8-3.5,1.8c-1.9,0-4.4-1.2-4.4-5.4c0-4.3,2.4-5.6,4.3-5.6c1.6,0,2.8,0.8,3.6,2.1
		l-0.8,0.6c-0.6-1.1-1.5-1.9-2.8-1.9s-3.4,0.8-3.4,4.7c0,3.6,1.9,4.8,3.5,4.8c1.2,0,2.2-0.8,2.9-1.7L1175.5,206.4z"/>
	<path class="st3" d="M1182.9,193.9h-3.1v-0.8h4.1V208h-0.9L1182.9,193.9L1182.9,193.9z"/>
	<path class="st3" d="M1191.1,202.7c0-4.1,2.1-5.5,4-5.5c1.8,0,4.1,1.2,4.1,5.5s-2.3,5.5-4.1,5.5
		C1193.4,208.2,1191.1,207,1191.1,202.7z M1198.3,202.7c0-2.1-0.5-4.7-3.1-4.7s-3.1,2.6-3.1,4.7c0,2.1,0.5,4.7,3.1,4.7
		C1197.7,207.4,1198.3,204.7,1198.3,202.7z"/>
	<path class="st3" d="M1209.6,199.1c-0.8-0.6-1.8-1.1-2.8-1.1s-2.1,0.8-2.1,1.9c0,1.2,1.4,1.8,2.3,2.2c1.6,0.6,3.3,1.3,3.3,3.3
		c0,1.8-1.6,2.8-3.2,2.8c-1.3,0-3-0.8-4-1.7l0.5-0.8c0.9,0.9,2.3,1.7,3.5,1.7s2.2-0.7,2.2-1.9c0-1.6-1.2-2-2.5-2.5
		c-1.5-0.6-3.2-1.2-3.2-3.1c0-1.5,1.5-2.6,3.1-2.6c1.2,0,2.2,0.4,3.2,1.1L1209.6,199.1z"/>
	<path class="st3" d="M1221.6,197.4h0.9v5.2c0,1.8,0.1,3.6,0.4,5.4h-0.9l-0.4-3l0,0c-0.4,1.6-2.1,3.2-3.7,3.2
		c-1.9,0-2.5-1.7-2.5-3.3v-7.5h0.9v7c0,2,0.5,3,1.6,3c1.6,0,3.6-1.7,3.6-5.7L1221.6,197.4L1221.6,197.4z"/>
	<path class="st3" d="M1229.2,208h-0.9v-7.3l-0.4-3.4h0.9l0.4,3c0.7-1.5,1.8-3.1,3.6-3.1c1.8,0,2.2,1.8,2.2,3.2h-0.9
		c0-1-0.1-2.4-1.4-2.4c-1.1,0-3.5,1.7-3.5,5.7L1229.2,208L1229.2,208z"/>
	<path class="st3" d="M1246.7,207.2c-1.2,0.5-2.4,1-3.8,1c-3.1,0-4.2-2.8-4.2-5.5s1.2-5.6,4.3-5.6c1.8,0,3.9,1.3,3.9,5.7h-7.2
		c0.2,3.7,1.7,4.6,3.3,4.6c1.2,0,2.3-0.4,3.3-1L1246.7,207.2z M1245.9,202c0.1-1.8-1-4.1-3.1-4.1s-3.3,2.2-3.2,4.1H1245.9z"/>
	<path class="st3" d="M1257.2,199.1c-0.8-0.6-1.8-1.1-2.8-1.1s-2.1,0.8-2.1,1.9c0,1.2,1.4,1.8,2.3,2.2c1.6,0.6,3.3,1.3,3.3,3.3
		c0,1.8-1.6,2.8-3.2,2.8c-1.3,0-3-0.8-4-1.7l0.5-0.8c0.9,0.9,2.3,1.7,3.5,1.7s2.2-0.7,2.2-1.9c0-1.6-1.2-2-2.5-2.5
		c-1.5-0.6-3.2-1.2-3.2-3.1c0-1.5,1.5-2.6,3.1-2.6c1.2,0,2.2,0.4,3.2,1.1L1257.2,199.1z"/>
	<path class="st3" d="M1266.5,205.6c0.7,0,1.4,0.6,1.4,1.4s-0.6,1.3-1.4,1.3s-1.3-0.6-1.3-1.3S1265.8,205.6,1266.5,205.6z"/>
</g>
</svg>
