<?xml version="1.0" encoding="utf-8"?>
<!-- Generator: Adobe Illustrator 25.0.0, SVG Export Plug-In . SVG Version: 6.00 Build 0)  -->
<svg version="1.1"
	 id="svg442" xmlns:cc="http://creativecommons.org/ns#" xmlns:dc="http://purl.org/dc/elements/1.1/" xmlns:inkscape="http://www.inkscape.org/namespaces/inkscape" xmlns:rdf="http://www.w3.org/1999/02/22-rdf-syntax-ns#" xmlns:sodipodi="http://sodipodi.sourceforge.net/DTD/sodipodi-0.dtd" xmlns:svg="http://www.w3.org/2000/svg"
	 xmlns="http://www.w3.org/2000/svg" xmlns:xlink="http://www.w3.org/1999/xlink" x="0px" y="0px" viewBox="0 0 1920 1080"
	 style="enable-background:new 0 0 1920 1080;" xml:space="preserve">
<style type="text/css">
	.st0{fill:#FBFBED;}
	.st1{fill:none;stroke:#A8A8A7;stroke-width:0.5;stroke-miterlimit:10;}
	.st2{fill:none;stroke:#A8A8A7;stroke-miterlimit:10;}
	.st3{fill:none;stroke:#B2B2B2;stroke-miterlimit:10;}
	.st4{fill:none;stroke:#B2B2B2;stroke-width:0.5;stroke-miterlimit:10;}
	.st5{fill:#8B6448;}
	.st6{fill:none;stroke:#341C00;stroke-miterlimit:10;}
	.st7{fill:none;stroke:#341C00;stroke-width:0.5;stroke-miterlimit:10;}
	.st8{fill:#504F4E;}
	.st9{fill:#818080;}
	.st10{fill:none;stroke:#563214;stroke-width:0.7;stroke-miterlimit:10;}
	.st11{display:none;}
	.st12{display:inline;fill:#FF1D13;fill-opacity:0.3038;}
	.st13{fill:#4F4F4E;}
	.st14{fill:#48251C;}
</style>
<sodipodi:namedview  bordercolor="#666666" borderopacity="1" gridtolerance="10" guidetolerance="10" id="namedview444" inkscape:current-layer="layer1" inkscape:cx="714.43367" inkscape:cy="512.45206" inkscape:document-rotation="0" inkscape:pageopacity="0" inkscape:pageshadow="2" inkscape:snap-page="true" inkscape:window-height="1043" inkscape:window-maximized="1" inkscape:window-width="1920" inkscape:window-x="0" inkscape:window-y="0" inkscape:zoom="1" objecttolerance="10" pagecolor="#ffffff" showgrid="false">
	</sodipodi:namedview>
<g id="FONDO" transform="matrix(1.0037865,0,0,1.0030185,-4.2861683,-1.1333909)">
	<rect id="rect6" x="4.3" y="1.1" class="st0" width="1920" height="1080"/>
</g>
<g id="rutas_grises" transform="translate(0,1.9999783e-5)">
	<path id="path9" class="st1" d="M1414.7,895.2c-8.2,2.1-12.6,14.3-21.3,12.1c-0.3-0.7-0.6-1.4-0.9-2c0.1,5.2,0.2,10.6-0.1,15.8
		c-7.2,0.6-10.6-6.5-13.5,3.1c0.3-2-0.4-4.7-0.3-6.7c-5.8,0.1-3.3,8.2-9.7,7.8c-0.6,11.1-1,16.5-7,25.4c-0.2-0.5-0.4-0.9-0.7-1.4
		c-0.5,1.5-1.6,2.6-1.7,4.7c-0.4-1.2-2.3-2.8-2.9-3.7c-6.7,8.2-3,10.4-3.8,19c-0.4,4-8,18.7-12.1,18.2c0.5-8.1-9.1-13.4-10.2-21.9
		c-13.8,4.9-2.1,29.4-12.3,34.8c-0.2-2.5-1.2-4.9-2.8-6.8c-1.7,3.2-4.2,5.8-5.5,9.2c-1,0.9-2,1.2-3.1,2.3c-3.7-1.2-3.8-3.3-8.1-3.5
		c-2.6-0.1-6.6,3-8.7,4.3c-4.9,3-7.5,7.9-14.2,7.9c0.8,2.2,2.3,4.1,4.3,5.3c0.2,2.8,0,4.3-2.2,6c0.6,3.4,3.5,7.3,3,10.7
		c-1.2,7.8-5.1,2.3-1.2,10.5c1.5,3.3,3.3,7.9,6.5,9.5c6.7,3.4,9.9-4.4,14.7-8.6"/>
	<path id="path11" class="st1" d="M1259.7,1077c0.8-6.7-6-8.8-4.5-14.4c1.9,0,3.3-1.1,5.2-1c-3.6-2.9-7.5-4.8-9-9.6
		c1.7-0.2,3.5-1.9,5.2-2c-2.7-4.6,2.3-6.4,1.5-8.8c-1.1-3.5-6.1-4.7-9.1-6.9c5.3-3.6,8.4-5.6,3-11.5c0.7-0.2,1.5-0.6,2.3-0.9
		c-0.8-8.2-2.8-14.7,8.4-16c0.6-4.9-1-8.4-2.3-12.7c-0.8-2.5-2.7-7.9-3.7-10.8c-3-9.1-5.3-18.2-15.2-17.7c7.9-8.5,2.1-13.6-0.1-23.6
		c-1-4.5-0.4-6.9-3-10.1c-2.2-2.6-8.5-5.5-11.3-6.6c-0.2,0.7-0.1,1.3-0.2,2.1c-3-0.1-4.1-0.5-4.7-3.6c-6.1-0.3-21.3,1.4-21.9-6.7
		c0.1,2.7,0.1,5.3-0.1,8c-4.8-2.6-5.6-7.9-7.5-12.9c-2.3-5.9-4.7-6.8-9.9-10.7c-7.2-5.3-12-14.9-13.9-22.7c-0.7,2.5-0.6,5.4-0.7,8.1
		c-5.4-0.7-3.8-6.9-7.4-9.2c-0.1-5.7-3.9-9.7-3.3-15c-1.9-0.5-6.3-2.2-7.5-3.9c-2.3-3.1,0.6-10-1.7-12.9c-2-2.5-7.3-0.2-9.1-3.2
		c-1.6-2.8,0.4-6.9,3-7.8c0.1-0.7,0.1-1.3,0-2c-3.6,0.7-6.1-1.9-8.2-4.1c-0.4-13.5-7.7-11.3-15.4-19c-2.9-2.9-3.3-9.2-6.1-13.1
		c-3.3-4.6-8.4-6.8-6.7-13.5c1.8,1.5,2.9,3.8,3.8,6.7c6.1,3,11.4-1.7,14.4-7.5"/>
	<path id="path13" class="st1" d="M1115.3,660c-2-10,2.8-7.7,9.2-10.9c5.7-2.8,7.8-8.9,13-11.9c6.5-3.7,12.3-4.4,18-10.9
		c6.1-7,9.1-18.6,6.4-28.2"/>
	<path id="path15" class="st1" d="M1255.8,981.5c-5.6,0.5-8.3-4.2-12.4-4.4c-3.8-0.2-7.7,3.2-12.8,4.6c-4.5,1.2-9.3,3-13.7,3.7
		c-5.6,0.8-12-1.3-17.6,0c-7,1.6-4.7,5.9-9.8,9.2c-3.6,2.4-10.7,0.4-14.7,2.2c-6.5,2.9-17,11.6-20.7,18.1c0.1-3.9,0.1-8-0.1-11.8
		c-6.1-1.1-9.2,6.4-10,11.1c-3.2-3.4-3.8-8.5-7.5-11.3c-1.3,2.6-3.6,4.7-6.7,4.8c-0.2,0.7,0.1,1.4-0.2,2
		c-14.3,0.6-23.8-7.7-32.9-17.3c-6.7-7.1-25-13.7-23.6-26.8c-5.8-1.3-8.9-3.8-15.2-4.7c-5-0.7-9.9-2.8-15.9-2.4
		c-0.1-4.9-4-14.5-9.9-13.5c-3.9,3.3-6.7-10.9-6.4-15.3c-2.9-0.5-4.2-2.4-3.8-5.3c-4.5-2.8-8.5-11.8-10.5-16.8
		c1.4,1.5,3.6,2,5.1,2.8c0.3-3.2-1.2-6.2-2.3-9c-1.8,0.7-3.3-0.1-5.1,1.4c-0.5-5.5-1.7-9.9-4.9-14.4c-0.5,2.5-0.8,5-0.7,7.5
		c-2.7-3.1-4.2-8.9-3.6-13.6c1,0.2,2.5-0.4,3.6-0.2c0.9-15.9-7.1-26.9,8.3-35.1c6-3.2,9.9-2.3,17-3c7.6-0.8,9.6-3.2,15.3-7.6
		c13.3-10.3,23.9-14.4,33.4-29.8c7.6-12.4,17.6-23.1,24.4-36c3.9-7.4,5.7-15.1,8.6-22.8c2.8-7.4,8-11.4,16.8-12.2
		c4.3-0.4,7.9,1.3,10.5-2.3c1.9-2.6-0.3-9.7-0.5-10.8c-0.9-7.8,2.4-13.6,2-21.9"/>
	<path id="path17" class="st1" d="M916.7,1079.3c0.4-4.7-1-8.6,0.2-12.8c1.4-4.7,4.3-5.1,3.6-11.6c-0.2-1.7-0.4-3.9-1.4-5.3
		c-1.4-2-3-1.8-4-3.1c-2.8-3.4-3.9-5.3-3.8-11.4c0.1-6.5,1.2-5.2,4-9c1-1.3,2.6-1.8,3.7-4c1-2-0.1-5.1,0.8-6.9
		c2.3-4.8,6.1-3.5,9.9-6.7c5-4.1,3.6-8.2,4-14.6c8.5-0.4,15.1,4.7,22.9,3.7c8.8-1.1,12.1-9.5,18.7-13.8c-0.9-0.3-1.7-0.7-2.7-0.9
		c0-2.8-0.5-5.6-1.6-8.2c10.4-0.2,13.8-5.5,21.9-9.4c0.4-2.8-0.4-5.6-1.3-8.2c0.7-0.2,1.4,0,2.1-0.2c1.2-7.8,8.5-13.6,9.4-20.4
		c2.4,0.2,5-0.4,7.4-0.2c-1.1-7.2,9-4.1,12.3-7.5"/>
	<path id="path19" class="st1" d="M1393.3,862.4c-17.2,2.8-8.8-17.7-14.6-25.2c-3.5-4.5-7.2-0.8-11.5-4c-4.1-3-1.2-11.1-8.2-11.5
		c-0.3-0.6,0.2-1.5-0.2-2.1c-1.4-0.4-2.9-0.7-4.4-0.8c-0.2,0.7,0.1,1.4-0.2,2.1c-3.5-1.2-5.8-7.5,0-8.4c0.4-2.2,0.4-4.4,0-6.6
		c-5-2.4-14-6.8-13.7-13.9c0.1-2.1,7.3-4.4,3.6-8.4s-7.8,2.7-9.7,4.8c-2.2-5.5-3.6-13.7-7.6-17c-3.3-2.7-5.3,0.7-7.6-4.6
		c-1.3-3-0.2-6.3,0.5-9.4c-2-0.4-4.3-2.3-5.9-2.8c6.2-1.9,9.5-0.9,9.9-9c-9-3.7,4.7-15.5,3.2-21.6c-0.8-3.6-7.2-7.7-9.2-11.4
		s-5.6-9.6-6.9-13c-1.8-4.6-1.9-6.4-4.6-9.8c-3.1-4-5.2-5.1-7.5-11.7c-2.7-7.6-5.4-14.7-7.8-22.1"/>
	<path id="path21" class="st1" d="M1196.5,657.5c-3.2-5.4-4.4-11.4-7.8-16.6c-2.6-3.9-6.8-7.5-9.8-11.7c-3.7-5.1-7.7-10.5-11-15.7
		c-7.3-2-15.1-15-14.4-22.3"/>
	<path id="path23" class="st1" d="M1270.4,725.7c-3.3-7.8-8.6-3.6-14.5-6.1c-3.5-1.5-9.7-9.3-13.2-12.1c-2-1.6-3.7-3.7-4.8-6.1"/>
	<path id="path25" class="st1" d="M1289.5,828c-6.4,0-14.3,1.2-20.6,0c-6.7-1.2-12.2-5.8-18-8.6c-6.9-3.4-15.5-5.1-23.1-8.4
		c-6-2.6-13-5.8-20-6.9c-14-2.2-32.2,5.2-45.8-0.2c-3.2-1.3-5.9-5.3-9.3-6.4c-3-0.9-6.7,0.7-9.8-0.1c-4-1.1-11.6-6.6-15.1-9.4
		c-9.3-7.5-19.3-14.1-29.9-19.6c-14.1-7.4-31.1-11.6-46.6-6.1c-6.6,2.3-11.5,7.4-18.5,9.2c-13.1,3.4-24.3,9.1-37.8,12
		c-6.3,1.4-11.1,3.7-17,5.5c-6.3,2-15.3,1.1-22.2,0.8c-14-0.7-24.3-5.2-36.7-11.3c-7-3.4-17.7-6.9-23.7-12.3
		c-4.6-4.2-6.5-11.3-10.6-16.6c1.1-0.5,2.2-2.1,3-2.5"/>
	<path id="path27" class="st1" d="M1510.2,1080.8c-12-0.1-16.4-5.8-23.9-14.3s-12.4-11.9-22.7-17.2c-5.1-2.7-10.3-5.1-15.7-7.2
		c-9-3.5-3.7-4.7-8.6-11.7c-2.8-4.1-9.4-4.2-11.8-6.8c-3.7-4.1-1.8-7.2-2.3-13c-5.6,2.5-6.6-4-11.2-4.8c-2.2-4.8-8.2-3.9-9.2-10.5
		c4.8-1.1,10.5,4.4,15.2,6.1c1.8-5-6.3-10.3-9.2-14.5c-3.5-4.9-3.9-7.1-3.8-13c0.1-7.1,1.9-8.7,5.9-14.2c1-1.4,2.8-2.1,4.1-3.5
		c0.5-0.6-1.9-2.9-0.7-3.9c1.4-1.2,3.5,0.2,4.6-0.7c3.3-2.5,3.6-0.2,6.1-3.8c1.1-1.6,1.3-5.3,1.9-7.1c1.6-5.2,2.6-11.3,4-17.2
		c1.8-7.3,3.8-12,4.6-19.9c0.6-5.8,4.7-9.9,4.7-15.3c7.2-2.2,14.6-3.2,22.1-3.2c6.8,0,13.7-2.7,19.6-2.3c-4.7,0.3-11.7,0-12.9-5.2
		c-6-0.4-12.9,1.3-17.4-2.4c-2.2-1.8-8.8-10.9-9.9-13.7c2.9-0.5,5.7,0.9,6.9,3.6c9,1.9-0.3-27,0-32.6c5.4,2.3,14.3,7.8,18.3-0.8
		c2.1-4.5,1.9-16.7,0.8-21.3c4.8,2.5,3.7,3.4,8.5,3.1c3.8-0.2,6.9-3.1,11.1-2.3c9.5,7.1,14.5,12,27.7,10c7.8-1.2,10,1.6,16.8,2.1
		c6,0.5,8.4-3.9,13.6-4.5c0,7.3,9.8,7.1,15.2,7.6c-3-2.5-17.4-18.7-17.9-23.2s12.7-14.5,18.9-15.8c5.3-1.1,8-0.5,12.9-3.2
		c4-2.2,6.4-4.3,10.7-5.2c9.3-1.9,20.1,1.9,29.7,1.4c3.8-4,3-8.1,3.3-13.5c11.5-0.6,19.8-5.8,19.1-18.3c0.7-0.2,1.3,0,2.1-0.2
		c-0.2-2,1.2-3.9,1-5.9c3.2-0.1,5.7,0.6,8.9,0.5c1.6-4,2.4-8.4,4-12.1c1.9-4.6,3.8-4.6,6.3-8.2c5.4-7.9,5.3-17.6,7.6-26.8
		c6.9-0.3,10.6,1.7,16.7,2.9c4.3,0.8,17.7,3.2,20.6,2.3"/>
	<path id="path29" class="st1" d="M1176.4,462.9c6.3,3.3,15.2,4.8,22.2,6.9c5.4,1.6,11.9,1.1,16.9,3.6c14,7,24.6,16.6,37.1,25
		c5.6,3.8,8.7,8.2,13.8,12c5.1,3.8,8.1,1.4,13.4-2.3c5.7-4.1,7.5-4.2,14.3-6.3c6.8-2.1,8.7-6.3,16.8-5.9c7.7,0.4,9.4,0.2,16.7-1.8
		c0.3-5.4,0-11,0.2-16.5c7.4-2.9,10.9-7,16.8-11.5c7.4-5.6,13.1-3.3,21.6-1.1c6.9,1.8,13.6,1.7,21.2,1.7c8.5,0,11-0.8,17,5.4
		c6.9,7.1,16.9,19.4,26,22.7c10.2,3.8,25.6-1.7,34.4-5.8c8.8-4,14.9,3.2,24.9,4.5c0.1,2.8-0.5,6.3,0.1,9c0.8,3.4,3.7,5.8,4.6,9.1
		c0.6,2.3-1.3,7.3-0.1,9.2c1.8,2.7,5.6,1.6,7.9,3c9.4,5.7,16.7,16.5,22,25c3.9,6.3,6.3,7.6,13.6,10.3c6.9,2.5,9.2,4.8,12.4,10.7
		c3.7,6.9,8.7,12.9,12.4,19.6c3.2,5.9,4,12.3,5.9,18.5c0.6,2,0.2,4.4,0.9,6.6c4.1,0.2,9.6-1,13.6,0.1c5.8,1.5,4.9,3.8,8.6,7.6
		c3.4,3.6,6,3.4,7.5,8.4s-0.2,12.2,0.1,17.5c6.7,2.3,11.2,11,16.7,15.4c5.4,4.4,10.8,9.4,16.6,13c13.3,8.2,31.7,12.4,46.8,15.3
		c8.5,1.6,13.1,0.6,20.7,5.2c6.7,4,8,7.7,12.7,13.9c7.4,9.9,11.2,20,19.1,30c7.2,9.1,12,19.2,18.7,28c3.6,4.6,6.8,9.5,9.8,14.6
		c3.4,5.9,7.9,6.8,13.7,11.2c11.8,8.8,25.1,16.5,36.7,25.4c5.8,4.5,12.8,5.5,18.5,9.7c4.3,3.1,6,8.3,9.9,11.5
		c3.4,2.8,7.3,3.3,10.7,6.1c3.2,2.7,4.9,6.1,7.6,9.3c5.8,6.8,15.4,8.9,19.6,15.3c9.2,14.1,22.4,24.1,38.9,27.6
		c1.4,7.3-4.8,10.8-5.2,18.2c-0.6,10,5.3,11.2,8.4,19.1"/>
	<path id="path31" class="st1" d="M1158.1,605.7c-8.7-4.9-16.9-14.5-21.5-24.3c-7.4-1.8-13.9-6.1-18.3-12.2c-2-2.6-3.8-5.4-5.4-8.4
		c-2.5-5-2.4-6.2-3.7-11.7c-1.7-7.3-9.5-14.2-14.3-20.6c-3.9-5.3-5.8-6.2-4.6-12.7c0.7-3.9,3.2-5.6,2.8-10.9c-1.7,0.8-1-0.1-2.3,1.3
		c-2.9,0-5,1.7-7.5,1.7c-2.3,0-5.4-2.1-8.3-1.9c2.1-8.7-8.9-4.7-13.7-8.3c7.6-12.4-2.7-20.5-4.1-31.8c-5-1.4-9.2-5.2-13.6-7
		c-6.2-2.6-11.5-1.7-4.6-9.2c3.6-3.9,10.6-6,13.2-11.3c2.7-5.5-4.5-8.5-11.5-8.4c-1.6,4.9-6.5,3.7-10.8,3.7"/>
	<path id="path33" class="st1" d="M891.5,757c15.4,1.8,24.5-13.6,30.7-24.5c2.8-4.8,6.1-8.4,11.3-10.9c4.5-2.1,8.8-4.6,12.7-7.7
		c3.6-2.5,7.1-5.2,10.3-8.2c4-3.8,9-5.6,12.8-9.8c3.7-4,6-9.7,10.1-13.8c4.8-4.7,6.9-6.3,7.5-13.2"/>
	<path id="path35" class="st1" d="M1055,658.4c-4.1-1-7.9-2.6-11.5-4.7c-1.8-1.3-3.7-3.2-5.3-4.4c-0.4-0.3-4.7-3.1-4.6-3
		c-2.8-2.9-4-6.7-7.4-9.5s-8.5-3-11.8-7.3c-2.8,1.3-6.3,0.6-8.7-0.8c0.9,1.5,0.7,3,1.1,4.4c-0.5,0.5-1.5-0.1-2.1,0.2
		c0.1,1.2,0,2.4-0.2,3.6c-1.5-0.3-3.7,0.6-5.1,0.2c-0.1,1-0.2,2-0.1,2.9"/>
	<path id="path37" class="st1" d="M1010.7,849.4c-9.3-11.1-35.8-1.7-48.1-4.6c-6.2-1.4-11.9-5.9-18.1-8.4
		c-6.5-2.6-14.1-2.5-20.9-5.3c-8-3.4-15.7-7.8-24.2-10c-3.5-0.9-7.4-0.7-10.9-1.5c-6.2-1.3-8.4-2.7-14-6.9
		c-6.2-4.7-13.5-3.7-19.7-7.6c-6.5-4-10.8-15.5-16.8-21.4c-10.4-10.3-18.9-16.4-32-21.5c-7.4-2.9-13.2-7.1-21.3-9.1
		c-6.1-1.5-12.7-3.3-18.5-6.2c-5.9-2.9-10.8-12.3-16.8-14.5c-4.5-1.7-13.5,1.4-18.4,1.6c-13.1,0.7-24.4,0.5-35.3-5.2
		c-4.8-2.5-7.3-4.8-13.4-3.9c0.6,10-26.3,5.7-18.5,19.6c-5.7,0.7-13.2-1.4-18.4-2.7c-4.1-1-11.8-6.7-16-3.3
		c-4.7,3.8-2.1,12.3-7.3,17c-2,1.8-4.5,1.1-6.5,3.4c-1.6,2-2.3,5.3-2.9,7.2c-1.5-3.8-0.7-5.9,0-9.1c0.6-2.6,4.8-8.3,2.1-11.5
		c-2.1-2.5-8.3-0.3-11.3-1.5c-3.4-1.3-5.2-4.2-8.3-5.4c-0.6,3.6,0.1,7.2,0.5,10.5c-1.6,0-3.4,1.4-5.1,1.2c0.1,2.4-0.4,5-0.3,7.3
		c-0.3-0.5-1.1-1.4-1.5-2.2c-2.6,3.1-4.8,6.3-8.1,1.5c-1.2,6.1,3.3,9.2,2,14.3c-5.6,0.1-6.2-5.3-10.5-5.9c-0.7,3.5-3,6.5-6.9,5.9
		c0-0.9-0.2-1.9-0.2-2.8c-3.2,0.6-4.6-0.2-6.2-2.3c-1.4,2.5-2.8,6.2-5.9,7.7c-4.5,2.2-9.7-1.6-10.1,5.9c-0.3-0.7-0.5-1.4-0.7-2.2
		c0.2-0.1-2.2-0.1-2,0c-1.3,4.4-4.7,3.6-7.8,6c-4.2,3.3-3.5,5.5-5.4,10.7c-2,5.7-7.2,18.9-15.1,17.7c-2.1,4-10.3,5.1-13.9,8.3
		c-4.3,3.8-7.9,9.9-11.4,13.7c-3,3.2-6.4,10.8-9.7,13.2c-4.1,2.9-12.5,1.3-17.8,1.3"/>
	<path id="path39" class="st1" d="M1069.5,760c-7.6,0.5-13-4-19.8-5.4c-7.6-1.6-12.3,3.2-19.1,3.8c-5.5,0.5-15.5,0.3-20.7-1.7
		c-4.4-1.7-2.9-2.1-5.9-5.2c-2.6-2.7-3.2-3.7-6.3-6.1c-5.5-4.3-7.3-6.4-9.2-13.8c-2.1-8.4-0.8-10.4,2.5-17.7c3-6.7,2.1-14.4,2.1-22
		c0-9.1,0.5-13.3-5-20.1c-8-9.7-8.7-23.6-15.8-34.2c-1.9-2.9-6.1-8.9-8.8-10.9c-2.3-1.8-6.9-1-9.4-3s-2.4-4.7-3.9-7.4
		c-2.4-4.6-6.4-8.7-10.1-13c-4.8-5.6-4.6-9.6-7.3-16.7c-4.3-11.6-13-21.2-9.3-34.5c2-7.1,7.8-11.6,10.7-19.1
		c2.8-7.3,6.5-14.3,11.2-20.6c-6.7-3.4-6.3-15.1-7.9-21.5c-2.4-9-6.5-17.1-6.9-26.4c-0.5-11.5-4.5-20.7,3.9-30
		c5.2-5.7,14.2-13.3,12.7-22c-0.5-0.1-1.3,0.4-1.5,0.4c0.1-2.9,0-5.9,0.2-8.8c10.5-2,14.4-8.6,17.5-18.5"/>
	<path id="path41" class="st1" d="M1144.3,516.4c-3.2-2.5-9.5-1.6-13.6-2.2c-0.1,1.8-1.7,3.4-1.8,5.1c-3.6,0.2-7.7-0.4-11.2,0.3
		s-5.3,3.4-9.3,2.8c-7.1-1.2-16.8-10-22.9-12.7c-2.7-1.2-3.6-4-6.9-4c-3.7,0.1-5.9,3.9-9.2,5.4c-2.5,1.1-7.2,0.7-9.8,1.4
		c-2.4,0.6-5.7,2.6-9.2,3.2c-1.2-3.9-12.7-5.1-16.9-6.8c-6.8-2.8-9.5-6-14-10.6s-8.2-5.1-14.3-8.6c-5.2-2.9-9.2-6.9-14.5-9.6
		c-7.7-3.9-8.5-5.2-13-13.1c-3.8-6.7-8.6-12.9-13.2-18.9c-9-11.8-9-26.6-16.4-38.5c-1.3-2.1-2.7-3.9-4-5.9"/>
	<path id="path43" class="st1" d="M958.7,504.9c-1.5-3.3,4.4-18.9,7.5-20.8c2.4-1.5,6.6-0.4,9.3-1.4c3-1,5.1-3.8,7.7-5.3"/>
	<path id="path45" class="st1" d="M1139.8,502.6c-9.3,0-18.5,1-27.5,3c-4.2,1-16.2,5.4-18.3,0"/>
	<path id="path47" class="st1" d="M1553,574.4c5.1,0.6,10.5-1,15.2-1.5c6.8-0.7,9.3-1.9,14-5.2c3.6-2.5,6.6-9,10.7-11.5
		c2-1.2,5,0.2,6.7-0.9c2.5-1.5,2.5-3.1,4.4-5.4c3.2-3.9,4.6-9.2,7.2-13c1.4-2,4.3-1.5,5.2-3.8s-0.6-5.9,0.1-8.4
		c2.6-8.9,12-16.3,17.3-23.5c-0.7-0.2-1.4-0.1-2.1-0.3c-0.3-6.5,2-9.4,3.6-15c-1.9,0.8-4.1,0.6-5.9,2.1c0.1-1.2-0.2-2.4,0-3.6
		c1-0.2,1.9-0.6,2.8-1c-1.1-2.9-3.3-10.6-5.4-11.3c1.6,0.4,3.7-0.2,5.3-0.1c0-0.9,0.2-1.9,0.2-2.8c11,3.8,16.7-11,8.4-9.4
		c-0.4-0.6-1-1.1-1.5-1.5c-1.5-6.2,3-8.2,3.8-13.5c6.3-2.5,6.1-8.9,9.6-11.8c4.7-3.8,9.2-0.8,14.8-1.3c9.1-0.8,15.5-10.8,20.6-18.1
		c-3.6,12.7,7.6-1,10.1-1.8c5.8-1.9,14.1,1.9,18.4,4.6c5,3.2,10.3,6.4,14.5,10.5c3.3,3.2,8.4,5.9,10.5,9.5c0.4-0.7,0.7-1.5,0.9-2.3
		c5-0.4,14.2-1,18.1,2.1c-1.7-1.8-2.7-4.2-2.8-6.6c4.4-3.9,7.6,1.7,12.1,3.1c4.9,1.5,11.5,0.7,16.7,0.4c-1-3.7-5.3-6.4-5.9-11.2
		c4.4,0.1,8.2-1.8,12.1-1.7c4.4,0.2,6.6,2.9,10.7,3.1c-0.2,0,10-2.8,10.1-2.9c3-2.3,1.8-7.5,3-10.8c5.2,0,4.1-4.6,7.5-6.9
		c3.1-2.1,5.9-1.7,9.8-1.8c-0.9-4.4-3.6-20.1-8.2-19.9c1-2.6,0.9-4.9-1.5-6.1c-0.4-7.9-1.5-15.7-3.1-23.5c1.2-0.2,2.4-0.3,3.6-0.2
		c0.2-0.5-0.2-1.7,0.2-2.1c4.3-0.2,9.4-0.7,13.5,0.6c-0.2-2.4,0.4-5.1,0.2-7.5c0.7-0.2,1.4-0.4,2-0.8c2.6,3.6,4.5,10.2,10,9.9
		c3.6,5,11.7,3,13.2,11.2c3.9,0.6,6.3-2.2,9-2.2c4.3,0,4.7,3.1,9.2,3.9c3.2,0.5,3.7-5.8,9-0.8c2.9,2.7,0.1,7.8,5.3,9.1
		c-1.8-11,7.7-4.6,13.9-6.7c2.7-0.9,3-3.6,6.8-4.6c2.9-0.7,7,0,9.9,0"/>
	<path id="path49" class="st1" d="M1694.3,692c4.1,3.8,10,0.5,14.7-1.3s6.3-3.2,11.9-0.3c0.2-4.8,0.9-9.3-2.8-12.7
		c1.1-1.2,0.6-1.6,1.6-3.1c0.7,0,1.4-0.1,2.1-0.2c0.5-10.7,0.2-11.8,10.8-14.5c-1.6-2-3.9-3-6.7-3.8c-0.6-6,7.2-3.9,9.8-1.4
		c2.8-3.1,4-7.1,6.7-9.9c2.4-2.5,6.8-4,7.2-7.5c1-0.2,1.9-0.5,2.8-1c-1.7-11.2,17.7-19.2,18.6-31.8c3.9,1.2,1.1,3,2.9,5.4
		c3.3,4.3,1.2,2.8,5.4,5.2c2.4,1.4,10,5.7,12.9,5.5c1.7,5.5-2.8,14.7-8.2,15.8c8.9,1.6,9.3-4.8,15.8-8.8c4.2,8.4,22.2-2,29.8-3.3
		c8.9-1.6,25.4-2.6,27.8,8.3c6.2,1,11.4,4.5,16.6,5.5c5.5,1.1,11.5,0,16.7,1.4c-0.2-3.6-0.8-7.8,3-9.2c0.5-4,4.4-5.8,5.3-9.2
		c1-3.3-0.9-5.8,0.1-9c-2.7-1.8-6.5-2.3-7.5-5.2c1.2,0.2,3.1-0.2,4.4-0.2c0-1.2,0.6-3.4,0.4-4.4c0.6-0.1,1.3-0.2,1.9-0.3
		c0.3-3.4-0.6-6.5-0.7-9.9c-0.4-0.8,0.5,1,0.8,1.4c-0.1-2.7-0.1-5.3,0.1-8c3.4,3.8,5.2,10.7,8.9,12.7c0.8-5.2-8.5-14.4-11.5-19
		c-4.1-6.2-7.9-11.8-9.7-18.5c-2-7.2-4.1-11.2-9.9-16.6c-3.8-3.5-11-6.5-12.2-11.6c-1.6-6.9,3.8-12.8-0.9-20.5
		c-1.2-2-6.7-2.8-4.9-6.1c1.2-2.2,8.7-0.3,10.4-0.1c11.8,0.8,22.4,8.4,32.8,19.3c2,2.1,3.6,4.3,6,5.3c-0.4-6.9,3.1-6.9,4.9-12.1
		c2.4-7-0.5-11.6-5.4-16.1s-5.7-4.8-8.5-10.7c-2.2-4.6-3.6-9.4-5.4-14.5c-2-5.4-4.7-6-7.4-10.8c-4.3-7.7-0.8-8.5-9.4-13.8
		c-5.2-3.2-7.6-5.8-13.7-6.7c-5.5-0.8-11.8,2.3-16.8-0.2c3.2-5,1.6-13,1-19c-8.1,2.2-7.2-5.8-5.6-9.8c0.7,0,1.3,0,2-0.1
		c-1.4,0.2-3-0.3-4.2-0.1c-2.9-11.1-17.9,2.6-22.3-4.5"/>
	<path id="path51" class="st1" d="M1488.8,494.2c3.3-5.9,3.5-10,2.9-16.7c-9.8-0.9,2.2-11.2,4.9-14.9c4.2-5.8,1.8-9.6,4.3-15.1
		c1.5-3.2,7.7-8,10.3-10.6c7.4-7.5,14.3-8.2,16.6-20.6c6.1-2.7,12.7-22.3,12.2-29.8c5.4-2.4,6.6-11.1,9.1-16s4.6-5.4,8.3-9.3
		c4-4.1,5-10.6,8.6-15.1c5.2-6.5,10.8-10.9,14.3-19.7c11.5-2.4,21-12.7,34.3-11.9c0.1-3,0.1-6,0-9c-5.8,0.9-7.1,4.1-12.9,3.7
		c-4.9-0.3-5.8-2.3-11.3-0.1c-1.3-4-4.3-6.5-5.6-10.4c-1.8,0.5-4.8-0.1-6.6,0.5c-0.2-2.9-2-9.4-1.7-11.3c1-5.1,5.4-6.7,4.5-12.9
		c-10.4,2-10.1-25.9-6.8-32.3c3.5-6.7,8.9-11,11.7-18.2c2.4-6.5,2.6-11.8,3-18.9c1.4,0.5,3.8,0,5.1,0.5c-0.5-2.3,0.2-3.2-1.5-5.2
		c0.9-0.5,1-1.1,2.3-1.6c0.5-2.2,0.5-4.5,0-6.7c-2,0.3-4.6-0.6-6.7-0.2c0.2-0.5,0.5-1.4,0.6-2c-2.1-0.2-3.8-1.7-6-1.8
		c1.3-7.5-9.8-9.4-7.6-17.4c13.1,13.1,9.8-12.1,21.9-12.4c2.3-4.1-0.4-5.4-1.6-9.1c-0.2-0.8-1.7-7.2-2-7.6c-2.3-2.9-5.6-2.1-8.8-4
		c-2.5-1.4-4.8-4.8-6.8-6.7c2.6,0.2,5.2,0.1,7.8-0.1c-3.2-2.1-6.9-1.4-9.7-2.8c-2.8-1.5-2.8-5.2-7.5-4.8c-1-7.8,3-16,3.7-23.6
		c0.4-4,1.1-8.1,0.8-12.2c-0.5-6.1-2.3-5.7-4.6-9.9c-1.6-2.8-0.9-6.9-2.2-9.2c-2.1-3.7-5.1-3.4-7.5-6.2s-8.3-15.8-8.6-19.7"/>
	<path id="path53" class="st1" d="M805.2,303.2c-1.9-2.1-3.6-4.6-5.2-6.2c-1.5-6.7,3.2-15.8,2.8-23.4c-1.3,0.2-3.1-0.5-4.4-0.2
		c0.6-2.4,0.8-4.9,0.8-7.4c9.4-2.8,3.4-13.9,5.2-19.8c1.9-6.2,11.4-8.7,9.8-16.1c-0.7-0.2-1.3,0-2.1-0.2c-1.4-7,7-19.7,9-26
		c2.9-9,2.7-16.1,8.7-23.6c-1.8,0.4-3.8-0.3-5.5-0.1c0-0.7,0-1.3-0.1-2c2-0.1,3.7-1.9,5.9-1.8c1.1-3.7,0.7-9.8,3.2-12.9
		c1.9-2.3,6.2-2.5,7.7-5.3c2.6-4.8-2.8-11.2,2.2-15.4c3.2,2.9,2.3,9.8,8.3,8.4c1.4-10.9-7.1-15.9,1.3-27.4
		c-4.8-0.4-12.4-1.3-11.3-7.5c-6.8-0.1-7.5-9.1-10-13.8c-2.6-5-7.9-8.7-9.6-13.8c-1.3,10.8,2.2,18.9,9.1,26c-0.4,0.7-1,0.8-1.4,1.5
		c4,1.6,8.5,3.6,8.9,8.3c-5.1-2.9-9.7-5-15-7.5c1.7,2.6,4.7,4.4,5.8,6.7c-4.3-0.8-9.3-5.5-13.5-7.4c-0.8,5,2.7,9.2,4.4,13.5
		c-15-5.8-23-24.1-37.9-27.3c0.8,0.9,1.4,2.2,2.2,3c-1.4,0.6-15.8-5-18.3-6.8c-2.8,6.4-11.3-7.5-14.7-10.2c-0.2,1.3-1.5,3.9-1.5,5.3
		c-1.1-6.3-8.3-11.9-13.7-12.6c-1.3-0.2-2.1,2.5-3.8,2.2c-2.4-0.5-2-2.6-3.2-3.1c-2.9-1.2-5.9-2.2-9-2.9c8.9-0.6,22.6-1.3,30.2,2
		c-9.9-5.3-25-9.3-31.2-18.1c-3.9-0.7-8.5,0.2-9.2,4.4c-1.8-9.1-26.4,3.2-24.4-13.6c-4.5,1.9-5.5,10.7-12.1,6.2
		c-4.4-3-2.1-10.9-5.2-14.7c-4.4-5.3-5.1,1.2-11.8-1.4c-4.1-1.6-11.2-11.7-8.2-14.6c-3-1.6-6.4-0.7-9.2-2.3s-2.4-3.3-4.5-5.4
		c-3.5-3.5-10.2-7-11.4-12c5.5,0.9,5.9-3.6,6-7.8"/>
	<path id="path55" class="st1" d="M1009.9,223.1v-1.9l1.4-1.4l0.7-2.4l-2.5-2.6v-2.9c0,0,2.9-4,3.6-4.7c0.5-0.6,1-1.1,1.5-1.7
		c0.6-0.4,2.9-2.4,2.9-2.4c-0.1-0.5-0.1-1.1,0-1.7c0.3-0.5,0.6-0.9,1.1-1.2v-2.4l1-0.8l-2.1-2.1l1-4.6l-2.3-4.2l0.4-1.3v-1.4
		c0.1-0.7,0.5-1.4,1-1.9c0.8-0.7,1.1-1.8,2-3.3s1.5-3.9,1.7-4c0.8-0.8,1.2-1.9,1.1-3.1c-0.1-0.9-0.6-1.8-1.4-2.4
		c-0.3-0.8-0.3-1.6,0-2.4c0.4-1.5,2.4-11,2.4-11"/>
	<path id="path57" class="st1" d="M1023.6,155.8c-6.9-0.6-3-13.3-3.8-18.3c-1.2-8-4-14.8-9.2-20.6c-4.9-5.5-7.9-11.3-12.8-16.3
		c-3.8-3.9-8.6-13.6-13.8-16c-0.2-0.7,0-1.4-0.2-2c-5.1-0.8-10,0.8-15.2,0.7s-9.5-2.2-14.4-2.4c-0.3-1.4-0.3-2.9,0-4.4
		c5.2-0.9,9.5-3.1,15-3.3c-1.5-8.3-16-11.7-23.6-11.3c-6.8,0.3-9.4,1.1-13.7,5.5c-3.2,3.2-6.2,10.4-11.4,9.6
		c-2.4-16.4,9-37.6-12.5-44c-10.7-3.2-16.8-4.1-25.6-11.8c-6.6-5.8-10.2-9.7-14.7-17.4"/>
	<path id="path59" class="st1" d="M1119.3,175.9c4-6.2,13-9.1,18.9-13.8c3.3-2.6,5.3-6.7,8.4-9.2c2.7-2.1,5.6-1.9,8.3-3.5
		c6.3-3.7,10.4-10.4,15.1-15.6c6.1-6.8,14.7-7.4,19.9-15.9c3.3-5.4,3.7-7.6,8.5-11c4.3-3.2,8.4-6.6,12.3-10.2
		c5-4.4,9.4-2.2,14.5-5.3c4.4-2.7,4.6-10.3,9-10.7c0.1,0.8,0.5,1.5,0.9,2.1c-0.2-1.2,0.2-2.7,0-3.8c10.9,0.7,18.4-7.9,28-11.4
		c3.2-1.2,7,0.2,10.3-0.8c5.4-1.6,5.3-5.1,9.2-7.9c7.8-5.8,30-12.1,30.3-25.9"/>
	<path id="path61" class="st1" d="M1087.8,271.7c0-18.1-0.6-29.3,10.9-42.5"/>
	<path id="path63" class="st1" d="M1001.5,102.4c-0.4-2,0-4.7,0.1-6.8c4.4-1.3,5.4,2.8,8.5,2.8c4,0,5.1-3.8,9.6-2.9
		c1.7-5.8,4.3-9,5.5-13.1c1.2-3.9-1.9-7.6,2.1-9.8c-0.4-3,0.8-4.9,3.7-5.8c-3.9-0.9-3.9-9.3-2.9-13.1c0.6-2.1,3.1-3,3.9-6.1
		c0.6-2.2-1.3-7.5,0-9.2c5.3-7.1,28.5,0.2,35,1.5c0.2-0.7,0.1-1.4,0.3-2.1c7.4-0.5,14.4,2.4,21.8,2.1c7.1-0.3,14-2.3,20.9-3.6
		c11.5-2.1,22.5-5,32.6-11.7c0.9-4.2,5-2.5,5.5-6.8"/>
	<path id="path65" class="st1" d="M1572.4,252.5c-3.8-0.3-7.4-2-10.8-0.7c-5.1-2.1-7.7-6.3-13.1-8c-3.6-1.2-11.9-4.6-15.3-4.4
		c0.2,3.4,2.3,6.2,5,8.5c-4.2-1-7.4-0.4-11-0.8c-3.3-0.4-5.6-5-8.8,0.1c-0.9,0.5-0.6-1.2-1-1.2c-1.5,6.4-5.6,1.6-7.6-2
		c2.8-1.5,6.3-3.8,5.6-7.7c1.2-0.2,2.4-0.2,3.6-0.2c-1.3-0.1,2-3.4,3.5-3.3c-3.5-8-7.8-15.7-12.7-22.9c-5.4-7.4-7.2-5.1-13.8-7.8
		c-6.4-2.7-11.8-13.5-16.1-18.8c-1.4,0.9-1,0.8-1.7,2.3c-3.2,0.3-4,1.2-3.8,4.7c-5.1-6.6-12.9-11.3-18.6-17.6
		c-5.9-6.6-8.2-14.8-16-20.5c-3.5-2.6-8-6-11.8-7.5c-4.2-1.6-10.8-5-15.1-6.2c-7.6-2-15.3,5-23.3-1c1.6-0.1,3.1-0.2,4.7-0.1
		c-2.8-3.4-5.6-1.9-9.2-2.9c-5.6-1.6-6-2.5-10.9-5.3c-4.1-2.4-10-7.7-14.5-8.8c0.2-8.2-5-13.9-8.8-20.7c-3.6-6.4-5.2-13.1-8.5-19.4
		c-2.8-5.3-6.4-14.6-9.8-18.3c-4.5-4.8-13-6.9-18.4-10c-0.2-4.5-2.9-2-4.6-4.7c-1.5-2.3-1.4-3.8-2.5-6.1c-1.5-3.1-2.8-11.1-5.3-13.4
		c-1.8-1.6-5.6-0.9-6.9-2.3c-2.2-2.5-0.8-4.8-1.9-7.5c-1.9-4.8-6.3-8.3-5.2-14.1"/>
	<path id="path67" class="st1" d="M1567.6,915.8c8.2,2.8,18.2,9.3,25.2,13.8s12.6,10.4,20.4,13.8c5.1,2.2,10.3,3.8,15.2,7.8
		c9,7.5,11,23.2,8,35c-0.8,3.2-3.5,5.9-4,9.1c-0.6,3.8,0.6,7.9,0.6,11.7c0,7.6-0.9,15.6-0.5,23.4c4.2-0.1,6.3,2.5,7.6,6.1
		c1.6,0.5,6.5,0,7.6,0.8c2.3,1.7,3.3,7.9,3.8,10.2c2.2-4.6,8.9-1.9,12.9,0c0.5,4.7,3.4,7.3,1.4,12c-1-0.1-2.4,0.3-3.4,0.2
		c-2,8.7,7.8,15.8,15.8,14.5c1,3.1,2.3,6.2,4,9"/>
	<path id="path69" class="st1" d="M1432.3,905.1c5.2,0.5,6.6-3,9.9-3.9c2.7-0.5,5.4-0.6,8.2-0.3"/>
	<path id="path71" class="st1" d="M1910.5,1080.1c-1.8-16.6-33.2-21-45.2-23.7c-10.6-2.4-19.8-10.5-29.6-13.2
		c-2.9-0.8-6.5,0.4-9.2-0.5c-3.6-1.2-6.4-5.2-9.8-7.2c-6-3.4-12.2-2.8-19.2-3.6c-2.5-0.3-10.4,0.2-12.8-0.8
		c-3.8-1.5-4.3-5.8-7.5-8.6c-6.7-5.8-16.4-9.5-23.4-15.5c-7.7-6.7-16-12-24.2-18.4c-9.8-7.6-17.3-12.8-28.3-17.2
		c-11-4.5-20.9-14.2-32.1-17.4c-15.4-4.5-33.6-2.2-48.1-7.6"/>
	<path id="path73" class="st1" d="M1572.4,910.3c-25.6,0.5-51.9-6.5-76.1-10.6c-3.6-0.6-7.1-1.5-10.6-2.8c-4.9-1.7-9-1.1-13.7-2.4
		c-5.1-1.4-13.2-7.7-17.5-10.7"/>
	<path id="path75" class="st1" d="M960.3,1081.2c1.8-3.8,1.4-15.1,6.2-13.9c0.1-0.5-0.4-1.6,0.1-2c2.3,14.2,4.3,1.9,10.5-0.6
		c-0.7-0.1-1.4-0.2-2.1-0.3c-0.2-3.5-0.2-6.9,0-10.4c4.7,0.6,11.4-3.4,15.1-6.3c-5-5.2-6.2-25.7,2.3-28.8c-0.1-0.9-0.1-1.8,0-2.8
		c-5.7-3.3-0.6-16-0.8-21.3c-1.3,0.3-3.2-0.5-4.3-0.4c0.4-3.8-0.7-7.3-1-11c-0.9,0-1.9-0.2-2.8-0.2c0.3-1.5-0.6-3.6-0.2-5.1
		c-0.9,0-1.9-0.2-2.8-0.2c-0.7-2.1-0.1-4.4,1.4-6"/>
	<path id="path77" class="st1" d="M741,1079.3c0-3.2-0.9-7.2-0.8-9.9c0.1-3.7,2.6-7.7,2.4-10.8c-0.6-7.2-6.3-9.6-1.6-18.2
		c-0.9,0-2-0.2-2.9-0.2c-0.1-4.5-0.5-8.5-1-12.8c-0.9-0.1-1.9-0.3-2.8-0.5c-1.4-7,2-8.7-4-13.4c4.6-2.6,3.4-6.9,4.8-11.4
		c2-6.4,11.9-10.7,12.2-16c4.6-2.3,0.7-7.5,2.1-11.6c1.2-3.4,6-7.1,8.2-10c-1.1,0.2-2.4-0.2-3.4,0c-0.2-3.5-0.1-7,0-10.5
		c7.9,4.2,5.8-0.8,10.6-5.3c3.3-3.1,10.3-2.6,9-9.2c-1.7,0.4-4.1-0.6-5.9-0.2c-1.1-1.1-2.4-1.8-3.8-2.3c-2.6-6.6-6.2-13.1-7.5-19.8
		c-1.1,3.8-2.4,7.6-2.7,11.5c-1.4-6.1-5-16.2-4.5-22.8l-1.3-0.3c3.5-5.2,11-4.2,15.1-10.5c2.5-3.9,4.9-10.5,4.9-15.2
		c7.8,1.3,10.9-5.4,13.8-11.5c1.5,0,3,0,4.5,0.2c0.3,0.9,2,3.1,2.1,3.8c0-4.5,2.1-8.4,1.8-13.1c1.7,0.2,3.4-1.1,5.1-1
		c-0.3-4.1,1-10.7,5.2-11.4c-13.8-0.3-1.8-7.2-1.3-16c0.5-8.2,1.8-15.9,0-22.8c-2-7.9-0.8-14.2,0-23c0.7-8.1,1.6-17.1,1.6-25.9"/>
	<path id="path79" class="st1" d="M112.4,934.2c0.2,5.7,7.4,2.4,11,5c2.6,1.9,3,6.8,3.2,9.8c5.9-0.2,11-3.2,18.5-2.8
		c0.2,0.7,0,1.3,0.2,2c3.5-0.3,10-3.7,12.4-0.7c2,2.6-1,11.1-2.3,13.4c4.2-0.3,6.9-5.4,11-7.2c3.9-1.7,8.4-1.6,12.6-3.9
		c2.1,5.1,8.4,2.1,13.1,3c3.9,0.7,4,1,7.6,4.5c3.3,3.2,11.9,13.2,16.5,13.6c0.9,3.6,1.8,7.3,2.6,11c5.4-1.8,8-0.5,13.2-1.5
		c1.6-0.3,1.6-3.2,3-3.7c2.3-0.8,5.4,0.6,7.8,0c2.7-0.6,4.6-2.8,6.2-3.2c6.8-1.8,9.4,3,15.8,1.8c7.5-1.5,7.6-9.2,13.2-12.2
		c1.2-5.1,3-8,3.4-14c12.9-2.4,25.3,14.9,38.2,8c0.9-0.5,1.3-3.6,2.3-4.6c1.9-1.7,4-1.5,6.5-2.8c5.4-2.7,5.1-3.9,8.3-7.5
		c6.3-7,10-4.9,19.4-7.7c7.1-2.2,9.8-7.2,15-10.3c3.6-2.2,6.8,0.5,10.4-4.5c0.9-1.2-0.2-3.7,0.5-4.5c0.9-1,3.7-1.9,4-2.2
		c4-5.2,10.3-9.8,14.2-16.6c1-1.6,3.8-6.4,3.5-8.2c-0.9-5.2-3.7-1.9-6.7-5.4c-3.9-4.6,0.7-13.7,1.5-20c6-1.1,10.4-4,15.3-6.3
		c4.3-2,10.5-2.8,15.6-4.5c6.3-2.1,10.8-1.5,17.4-2.8c4.6-0.9,6.5-5.9,12.4-0.8"/>
	<path id="path81" class="st1" d="M395,877.7c-0.6,11-2.1,20.9-14,22.9c-5.6,0.9-16-0.3-18.3,6.7c-5.4,1.6-4.5-2-7.5-3.7
		c-2.7-1.6-7.2-3.2-9.9-5.1c0.6-1.1,1.2-2.3,1.7-3.5c1.8,0.1,3.9-1.5,5.8-1.4c0.1-0.7,0-1.3,0.1-2c2.4,0.2,5.1-0.4,7.5-0.2
		c0.3-0.3,0.1-1.6,0.2-2.1c2.9-0.1,4.4-1.6,5.2-4.1c-6.8-3.9-0.5-8.1-3.8-11.5c-1.5-1.5-4.4,0-6.1-0.7s-4.5-3.4-6.2-4.4
		c-6.9-3.8-13-6.4-10.4-16.8c1.2-4.5,5.8-7.3,10.4-6.3c0.4-1,0.7-1.9,1-2.9c-12.8-2.8-8.5-22.5-5.4-31.2c3,0.2,6.1-0.2,9-1
		c-0.4-2.6-2-4.9-4.4-6.1c0.4-3.1-0.8-5.2-3.8-6.1c-0.2-3-1-5.5-3.8-6.9c-0.4-2.6-1.8-3-2.5-5c-0.6-1.8,0.2-5.8-0.9-7.5
		c-3-4.5-5-1.9-9-3.4c-5.4-2-11.9-8.2-9.8-15.2c4.9-0.2,5.4-5.3,5.2-9.3c-0.2-6-1.4-6.2-5.9-9.2c-4.9-3.3-6.6-1.7-9.4-9
		c-1.4-3.7-2.5-8.5-4.7-12.2c-5.5,0.8-7.3-3.8-10.4-7.2c-4.1-4.6-4.7-4-4.9-11.1c-6.7,0.5-8.7-7.3-11-11.5
		c-4.1-7.6-9.2-15.2-11.1-23.5c-1.3-5.8-3.8-10.8-5.2-16.2c-1.5-6.1,0.4-12.3-1.8-18.2c-9,0.3-5.8-8.3-2.8-13.7
		c6.9,0,11.8-8.2,15.3-12.9c2.9-3.9,3.4-3.3,4.5-9.2c0.8-4,0.6-8.9,1.9-12.5c2-5.6,5.9-10.3,6.3-16.6c0.4-6.1-1.2-12.9-1.5-19.1
		c-0.7-12.5-3.9-7.3-13.8-9.9c-1.3-0.3-4.7-3.1-6.3-3.8c-3-1.4-6.4-2.3-9.1-3.8c-3.1-1.8-5.2-5.9-8.2-7.5c-3.3-1.8-6.7-0.6-10-1.7
		c-6.5-2.1-8.2-7.9-13.8-12.2c-6.5-5.1-12.4-1.1-19-4.8c-9.5-5.3-7.3-17.3-13.2-23.3c-1.9-1.9-6.7-1.5-9.1-2.4
		c-3.1-1.2-5.4-3.1-8.5-4.6c-3.5-1.8-8.6-4.3-12.7-4.7c-4-0.4-6.2,1.8-10.1,2.5c-6.8,1.3-15.5-2.2-22,0c-7.1,2.4-9.3,12.6-17.9,14.5
		c-6.7,1.5-14.2-0.6-21.2,0c-9.2,0.8-8.7,1.5-9.3,10.6c-3.3-2.2-7.2-8.6-6.9-13.6c-8,0.5-11.7-2.6-19.1-4.5
		c-7.1-1.8-15.9,4.2-22,7.5c-5.1,2.7-10.8,7.8-16,9.3s-10.7,0.1-16.8,2.8"/>
	<path id="path83" class="st1" d="M1538.5,821.9c-0.1,3-0.5,5.6-0.1,8.2c-1,0.1-2.3,0.9-3.6,0.8c1.2,5.3,6.1,8.4,9,13.1
		c-5.1,1.2-8.9-1.7-12.8-4.2c4,1.8,9.2,4.3,11.3,8c-2.1-0.5-4.6,0-6.7-0.5c0.6,2.4,2.1,4.5,4.2,5.9c-0.4,0-0.8-0.1-1.1-0.3
		c2.4,2.2,8.8,5.4,11.5,1.1c6.7-1,12.2,9.6,16.9,13c3.5,2.6,8.4,2.7,11.1,6c2,2.5,1.1,6.6,1.8,9c-2.5,2.3-0.5,4.3-1.6,7.4
		c-1.4,4-3.8,5.4-5.9,9.3c-2.7,4.9-2.4,11.7-2.5,17.4"/>
	<path id="path85" class="st1" d="M1464.7,903c-0.9-3.9-3.4-5-5.8-9.2c-2.1-3.7-2.7-9-4.6-13.1"/>
	<path id="path87" class="st1" d="M1672.2,957.1c-5,5.8-22.2,7.2-29.8,6.1c-7.8-1.1-14.3-6.8-22.2-8.5c-6.7-1.4-10.1-0.3-16.6-4.3
		c-6.8-4.2-6.8-7.1-11.4-12.6c-6-7.3-16.3-6.7-25.2-6.7c-5.2,0-10.5,0.4-15.9,0.9"/>
	<path id="path89" class="st2" d="M804.8,301.1c1.1,1.3,5,7.5,5,8.8s1.9,7.1,2.3,10.5s2.7,3.8,4.2,7.3s6.9,6.5,9.5,7.8s4,1,6.9,3
		s3,3.2,4.6,3.5c2.5,0.3,5.1,0.3,7.6,0.1"/>
	<line id="line91" class="st3" x1="371.9" y1="190.9" x2="377" y2="209.5"/>
	<line id="line93" class="st3" x1="366.5" y1="190.9" x2="367.6" y2="210.8"/>
	<line id="line95" class="st3" x1="362" y1="190.9" x2="358.4" y2="209.5"/>
	<line id="line97" class="st3" x1="348.1" y1="206.5" x2="359.4" y2="189.7"/>
	<line id="line99" class="st3" x1="343.8" y1="190.9" x2="362" y2="184.6"/>
	<line id="line101" class="st3" x1="346.3" y1="181.7" x2="363.2" y2="179.2"/>
	<line id="line103" class="st3" x1="346.3" y1="173.4" x2="365.7" y2="172.7"/>
	<line id="line105" class="st3" x1="348.1" y1="166.9" x2="366.5" y2="165.9"/>
	<line id="line107" class="st3" x1="347.1" y1="160.9" x2="367.6" y2="156.8"/>
	<line id="line109" class="st3" x1="343.8" y1="156.8" x2="363.2" y2="149.8"/>
	<line id="line111" class="st3" x1="341.6" y1="152.1" x2="360.2" y2="143.2"/>
	<line id="line113" class="st3" x1="337.9" y1="147.6" x2="356.4" y2="138.7"/>
	<line id="line115" class="st3" x1="334.5" y1="143.2" x2="353.1" y2="134.3"/>
	<line id="line117" class="st3" x1="329.6" y1="140.4" x2="346.1" y2="128.1"/>
	<line id="line119" class="st3" x1="325.8" y1="137.6" x2="339" y2="121.8"/>
	<line id="line121" class="st3" x1="320.2" y1="137.3" x2="329.4" y2="118.9"/>
	<line id="line123" class="st3" x1="316.3" y1="137.2" x2="320.5" y2="117.1"/>
	<line id="line125" class="st3" x1="311.2" y1="137.4" x2="313" y2="116.9"/>
	<line id="line127" class="st3" x1="308.2" y1="138" x2="302.2" y2="118.3"/>
	<line id="line129" class="st3" x1="304.6" y1="139.3" x2="293.7" y2="121.9"/>
	<line id="line131" class="st3" x1="304.2" y1="143.4" x2="287.2" y2="131.8"/>
	<line id="line133" class="st3" x1="305.7" y1="148.2" x2="285.7" y2="143.1"/>
	<line id="line135" class="st3" x1="308.4" y1="153.5" x2="287.9" y2="153.2"/>
	<line id="line137" class="st3" x1="309.4" y1="160" x2="288.9" y2="159.7"/>
	<line id="line139" class="st3" x1="309.4" y1="166.5" x2="288.9" y2="166.2"/>
	<line id="line141" class="st3" x1="308.3" y1="174.5" x2="288" y2="171"/>
	<line id="line143" class="st3" x1="303.1" y1="181.9" x2="284.2" y2="173.9"/>
	<line id="line145" class="st3" x1="294.1" y1="186.6" x2="277.6" y2="174.4"/>
	<path id="path147" class="st4" d="M374.8,194.1c-3.2,0.6-6.5,0.9-9.7,0.9c-14.4-0.1-6.3-8.6-1.5-21.9c4.6-12.7-6.6-25.9-15.5-36.5
		c-7.9-9.5-15.2-14.2-28.7-14.9c-5.9-0.3-24.9,1.3-27.8,8c-2.8,6.4-0.4,11.9,0.9,17.8c1.3,6.2,4.7,15.4,1.7,21.1
		c-4,7.9-13.9,8.7-21.9,8.7"/>
	<path id="path149" class="st4" d="M379.3,204.8c-4.6,1.4-9.5,2-14.3,2c-14.4-0.1-21.2-8.6-16.4-21.9c4.6-12.7,6-23.6-2.9-34.2
		c-7.8-9.5-12.8-16.5-26.4-17.2c-5.9-0.3-14.6-2.1-17.5,4.6c-2.8,6.4,1.9,11.9,3.2,17.8c1.4,6.2,0.1,15.4-2.9,21.1
		c-4,7.9-11.6,8.7-19.6,8.7"/>
</g>
<g id="RUTA_principal_copia" transform="translate(0,1.9999783e-5)">
	<path id="path152" class="st5" d="M873.7,359.7c2.4,1.4,4.9,2.1,7.4,3.6c1.3,0.8,3,0.8,4.3,0.1c6.4-2.6,14-7.5,21-3.8
		c3.9,2.1,7.6,6.3,11.8,7.6c2.5,0.7,5.1,1.1,7.6,1.2c3.5,0.3,5,1.6,8,2.9c6.8,3,14.1,3.7,20.5,7.5c4.7,2.7,8.1,8.3,13.4,11
		c2.2,1.1,4.5,1.8,6.6,3c1.7,0.9,2.8,2.5,4.8,2.8c4.3,0.8,7.6,5.5,11.6,7.2c2.9,1.2,6.2,2.9,9.4,2.8c4.7-0.1,3.4-6.7,8.3-6.9
		c11.2-0.4,22.4-1.7,33.7-2.4c3.4-0.2,5.5-2.2,8.5-3.8c3.6-1.9,6.4-3.5,10.2-1.2c1.7,1,3.3,2.1,5,3.1c1.8,1.2,3.7,2.2,5.7,3.1
		c2.6,0.9,6,1.3,8.1,3.2c1,0.9,1.8,3,2.7,4.1c1.1,1.4,2.3,2.7,3.5,4c1.9,2,4.2,4.3,6.8,5.2c5.5,1.8,10.8,5.2,15.9,7.9
		c4.7,2.4,9.6,4.6,14.3,7.1c5.3,2.9,10.4,6.6,15.4,10c4,2.7,8.8,5.2,12.4,8.6c3.8,3.6,6.7,9,11.6,11.2c5.4,2.5,10.2,4.4,16.1,5.2
		l-1.1-1.4c0,7.3-12.9,2.6-17,1.2c-1.7-0.6-2.5,1.9-1.2,2.8c2.2,1.4,4.5,2.6,6.9,3.8c3.6,1.8,8.9,0.1,12,2.2l-0.5-2
		c-0.1,0.2-7.2,2.2-8.4,2.8c-0.7,0.4-0.9,1.4-0.5,2.1c0.3,0.4,0.7,0.7,1.3,0.7c1.6-0.1,3.2-0.1,4.9-0.1c1.8,0,3.7,0.2,5.5,0.6
		c0.7,0.1,2.5,1.4,2.4,0l1.1-1.4c-2.7,0.4-5.4,0-8.1,0.8c-2.4,0.7-3.8,1.3-6.2,1.1l-6.8-0.4c1.1,0.1-1-1-1.4-1.3l-2.8-2.1
		c-0.9-0.7-2.3,0.3-2.3,1.3c0,1.9-1.1,7.2,0.4,8.7l7.3,7.1c0.3-0.9,0.7-1.7,1.1-2.6h-9.3c-2.2,0-4-0.5-5.4,1.4
		c-2.6,3.5-5.1,7.1-7.8,10.5c-2.2,2.8-1.9,5.7-1.1,9c2,8.1,4.7,14.3,13.2,17.1c6.5,2.1,13.1-4,17.9-7.2l-1.8-0.2l1.9,1.6l1.3,1.1
		c1.1,1,0.2-1.2,0.2-0.1c-0.1,2.1-0.3,4.2-0.7,6.2c-0.4,2.9-0.9,5.8-1.4,8.7c-0.2,1-0.3,2-0.5,3s-0.7,1.7,0.1,1l-10.7,10.7
		c-3.4,3.4-7.6,6-12.1,7.6c-0.6,0.2-1.1,0.8-1.1,1.5c-0.4,5-1.4,10.1-0.3,15c0.7,3.2,1.7,6.3,2.8,9.3c1.1,2.9-0.1,6.5,1.3,9.2
		c0.6,1.2,1.8,1.5,3.1,2c2,0.7,3.9,2.4,6,2.7c1.8,0.2,7,0.1,7.9-1.8l6.8-15l-2.3,0.3c2.3,2.1,5.4,6.6,8.6,6.8
		c1.4,0.1,2.8,0.3,4.2,0.7c1.4,0.4,2.3,5.2,3.3,6.7c1.7,2.4,5,3.5,7.7,4.6c4.5,1.8,7.7,2.9,12.5,2.9c3.4,0,8.5,1.3,11-1.4
		c2.2-2.5,5.8-7.6,8.1-8.6l13.9-6.1c3.1-1.3,7-2.4,9.7-4.4c3.6-2.7,7.1-5.3,10.8-7.9l-2.1-2c-1.6,3.5-3.8,9.2-0.9,12.4l6.9,7.7
		c1.8,2,2.2,3,4.9,2.7c9.1-1,8.8,11.4,10.3,17.9c0.6,2.8,1.3,8.8,3.3,10.9c1.2,1.2,3.4,1.7,5,2.2c1.3,0.5,2.6,0.8,3.9,1.2
		c0.2,0-0.4,3.5-0.4,3.8c-0.5,4.2-1.8,8.4-1.9,12.7c-0.1,4.5-0.1,8.4-2.2,12.5c-1.7,3.4-3.6,6.7-5.2,10.1c-1.2,2.5-3.3,5-4.1,7.6
		c-1,3.2-0.8,6.8-1.5,10.1c-1,4-1.5,8.1-1.4,12.2c0.1,3.2,0.3,6.4,0.5,9.6c0.3,5.3,3.4,10.4-0.4,15.3c-1.2,1.5-3.9,0.8-6.7,0.8
		c-0.8,0-1.5,0.7-1.5,1.5c0,1.4-0.4,3.9,0.4,5.2c1.7,2.5-1.2,1.4-2.9,2.2c-1.4,0.6-2.8,2-2.4,3.8s1.3,3.2,1.3,4.9
		c-0.1,1,0.2,2,0.8,2.8c0.5,0.5,1.1,0.7,1.8,0.8c0.9,0.1-2.3,2.6-2.4,2.7c-1,0.9-1.8,2-2.3,3.2c-0.3,0.8-0.7,1.6-1,2.4
		c1.1-0.4,1.2-0.6,0.2-0.5c-1.2,0-3.1-0.4-3.9,0.7c-2.1,2.7-0.9,2.2-4.1,2.2c-0.5,0-1,0.3-1.3,0.7c-0.4,0.8-1.5,1.7-0.6,1.5
		l-2.6,0.5c-0.6,0.2-1.1,0.8-1.1,1.4c0,3.4,0.8,3.5,2.7,6.3c1.3,2,4.7,4.5,7.1,4.2c4.6-0.6,4-3.8,6.5-6.9c1.8-2.3,6.6-3.7,9.1-5
		l-2.1-2.1c-1.6,3.1-4.4,5.8-6.6,8.6c-2.4,3.3-2.3,6.3-3,10.3c-0.8,4.3-2.7,7.7-5,11.4s-1.9,6.3-2,10.7c-0.2,7.4,8,10.9,13,14.8
		s10,7.9,14.9,12c5.6,4.6,10.8,10.2,17.4,13.1c6.7,2.9,13.6,5.9,20.4,8.7c3.1,1.3,8.2,2.9,10,5.7c2.1,3.2,7,5.2,10.7,5.6
		c2.8,0.2,4.6,2,7,3.3c1.7,0.8,3.6,1.2,5.5,1.2c1.2,0,2.3-0.4,3.3-1.1c1.1-0.6,2-1.4,3.1-2.1c2.7-1.7,6.1,1.9,7.9,3.5
		c4.5,4,6.5,6.3,12.5,4.5c5.3-1.6,11.9-0.7,17.4-0.7c2.3-0.1,4.7,0,7,0.3c2.4,0.4,2.9,2.8,3.9,4.7c1.4,2.7,2.4,4.6,2.4,7.6
		s-5,4.8-7.1,6c-0.7,0.4-0.9,1.3-0.5,2c1.1,1.9,2.3,3.8,3.4,5.7c0.2-0.7,0.3-1.4,0.5-2l-8,5.9c-0.7,0.5-0.9,1.4-0.5,2.1
		c0.3,0.4,0.7,0.7,1.2,0.7h7.3c1.9,0,1.5,0.5,0.6-0.7l6.2,8.1c0.9,1.1,2.8,0.9,2.8-0.8v-4.5l-1.9,1.4c6.7,2.4,13.8,6.2,21,6.2
		c0.7,0,1.3-0.5,1.4-1.1c0.6-3.4,1.6-6.7,2.9-9.8c0.5-1.3,0.9-2.7,1.3-4.1c0.2-1,0.5-2.1,0.7-3.1c-0.2,1-0.6,0.7,0.7,0.1l5.7-2.5
		l2.8-1.2c1.3-0.6-0.2-0.2,0.4-0.1l11.1,1.5c1.9,0.3,1.9-2.8,0-3l-11.4-1.5c-0.8-0.1-2.1,0.8-2.8,1.1l-7.2,3.2
		c-3.1,1.4-2.3,4.4-3.4,7.3c-1.5,3.9-3,7.3-3.6,11.4c0.5-0.4,1-0.7,1.4-1.1c-6.6,0-13.7-3.8-20.2-6.1c-0.8-0.2-1.6,0.3-1.8,1.1
		c0,0.1-0.1,0.3-0.1,0.4v4.4l2.8-0.8c-2.1-2.8-4.1-6-6.5-8.5c-1.7-1.7-8-0.4-10.2-0.4c0.2,0.9,0.5,1.9,0.8,2.8l8-5.9
		c0.7-0.4,0.9-1.3,0.5-2c-1.2-1.9-2.3-3.8-3.4-5.7l-0.5,2c2.9-1.7,6-2.7,8.1-5.4c1.9-2.5,0.3-7.1-1-9.5s-2.4-6-4.4-7.8
		c-2.4-2.1-7.6-1.4-10.6-1.5c-4.3,0-8.6-0.1-12.9,0c-2.1,0.1-4.2,0.4-6.3,1.1c-4.3,1.3-6.8-2.4-9.6-4.9c-2.3-2.1-6.1-5.3-9.5-3.6
		c-1.8,0.9-3.8,3.2-5.8,3.3c-3.7,0.2-6.2-2.6-9.3-4c-1.6-0.7-3.5-0.6-5.2-1.2c-3.4-1.2-5.2-2.2-7.3-5.2c-0.9-1.2-2.2-2-3.6-2.4
		c-2-0.7-3.8-1.6-5.8-2.4c-6.5-2.6-13.1-5.1-19.4-8.2c-7.3-3.5-12.8-8.8-19.1-14c-4.9-4.1-9.9-8-14.9-11.9
		c-3.2-2.5-9.1-5.3-10.7-9.1c-1.1-2.6-0.5-5.6-0.5-8.3c-0.1-2.5,2.6-5.4,3.8-7.5c2.7-4.6,3.3-9.4,4-14.6c0.6-4.5,6.3-8,8.4-11.9
		c0.3-0.8,0-1.7-0.7-2c-0.4-0.2-0.9-0.2-1.3,0c-3.8,1.9-9.3,3.7-11.2,7.8s-3.6,3.6-6.8,1.4c-0.9-0.9-1.8-1.9-2.5-2.9
		c-0.6-0.8-0.7-0.8-0.3-0.2v-2.1c-0.4,0.5-0.7,1-1.1,1.5c2.2-0.4,3.3-0.3,4.3-2.3c0.6-0.9,0.5-1-0.4-0.3h2.4c1,0,1.4-0.4,2-1.2
		l1.1-1.4c0.9-1.1-1-0.3,0.5-0.3c1,0.1,2.1,0.1,3.1-0.1c0.8-0.2,1.2-1.1,1.5-1.8c0.9-1.8,0.9-2.7,2.4-4.2c0.8-0.8,2-1.2,2.7-2
		c1.3-1.4,2.9-3.3,1.1-5c-0.6-0.6-3-0.5-3.1-1.5c-0.1-0.8-1.3-6,0.6-5.8c2.7,0.4,4.6-2.1,4.7-4.5c-0.1-0.8-0.6-1.4-1.3-1.8
		c-0.8-0.4-0.4-3.1-0.5-4l-1.5,1.5c1.8,0,6.5,1,7.8-0.4c3.1-3.3,3.9-5.8,3.8-10.3c-0.1-3.1-1.3-6.3-1.5-9.2
		c-0.3-4.1-0.5-8.3-0.6-12.4c0-3.8,1.8-7.5,2-11.3c0.1-3.9,1.3-7.7,3.6-10.9c1.8-2.6,2.9-6.1,4.4-8.9c1.6-3.2,4-6.3,4.2-9.9
		c0.2-3.4-0.2-7.2,0.7-10.5c1.1-4.6,1.7-9.4,2-14.1c0.2-3-7.6-4-9.5-4.8c-1.2-0.5-1.6-4.8-1.9-6c-0.6-2.7-1.3-5.4-1.8-8.1
		c-0.7-3.5-1.6-7-2.6-10.5c-0.6-1.8-4-5.1-6-5.3c-1.8-0.2-3.6-0.1-5.3,0.2c-1.3,0.2,1.2,0.9,0.6,0.2l-1-1.1l-7.5-8.4l-1.2-1.3
		c0.3,1,0.5,1.1,0.4,0.3l0.2-2.5c0.2-2.9,0.3-3.1,1.5-5.8c0.6-1.2-0.7-3-2-2c-3.3,2.3-6.5,4.6-9.6,7c-2.8,2.1-6,3.2-9.2,4.6
		l-14.4,6.3c-3.1,1.4-4.9,4-7.2,6.6l-2.3,2.6c-1.1,1.2-1.7,1.1-0.4,1.1h-6.1c-5.8,0-8.1-0.4-13.5-2.4c-1.3-0.5-2.6-1-3.8-1.6
		c-2.9-1.4-3.2-4.1-4.5-6.5c-1.4-2.6-2.9-3.5-5.7-4c-1-0.2-2-0.3-3.1-0.3c-0.8-0.1-0.7,0,0.3,0.3l-1.3-1.2l-5.5-5
		c-0.6-0.6-1.6-0.6-2.1,0c-0.1,0.1-0.2,0.2-0.2,0.3c-2.1,4.5-4.1,9-6.2,13.5c-0.6,1.2-1.1,1.2-0.1,1c-1.7,0.5-4.2,1.5-5.9,0.7
		c-1.7-0.9-3.4-1.7-5.2-2.4c-2-0.6-1.5-4-1.6-5.5c-0.2-4.9-2.8-9.9-3.9-14.7c-0.8-3.4,0.5-8.7,0.8-12.4l-1.1,1.4c4.9-2,9-4,12.8-7.8
		c2.4-2.4,4.8-4.8,7.2-7.2c1.3-1.3,3.4-2.8,4.4-4.4c0.7-1.3,0.7-3.5,0.9-4.9c0.6-3.5,1.1-7,1.6-10.4c0.3-1.9,0.5-3.8,0.5-5.7
		c0-1.7-3.2-3.4-4.3-4.3c-0.5-0.5-1.2-0.6-1.8-0.2c-4.3,2.9-8.1,6.4-13.4,7c-8.7,1-11.8-9.2-13.4-15.6c-1.5-6.2,5.3-12,8.7-16.8
		c1-1.4-1.7,0.1,0,0.1h12.2c0.8,0,1.5-0.7,1.5-1.5c0-0.4-0.2-0.7-0.4-1l-6.6-6.4c-0.9-0.8-0.2-0.6-0.2,0.3v-7.5l-2.2,1.3
		c1.5,1.1,3.3,3.3,5.1,3.8c2,0.5,4.4,0.3,6.5,0.4c2,0.2,3.9,0.1,5.8-0.5c3.5-1,6.6-1.1,10.2-1.5c0.7-0.2,1.1-0.8,1.1-1.5
		c-0.4-4.6-12.9-3.7-15.7-3.5l0.8,2.8c1.8-0.8,3.6-1.6,5.5-2.2c1.3-0.4,3.4-0.2,4-1.7c0.4-0.7,0.2-1.6-0.5-2.1
		c-2.8-1.8-6.7-1-9.7-1.5c-3.1-0.5-6.6-2.9-9.2-4.5c-0.4,0.9-0.8,1.8-1.2,2.8c6.2,2.1,20.8,6.7,20.8-4.1c0-0.7-0.4-1.3-1.1-1.5
		c-5.9-0.8-14.2-2.6-18.5-7.1c-4.2-4.5-7.8-8.7-12.8-12.1c-6.8-4.7-13.6-9.4-20.6-13.8c-5.1-3.2-10.7-5.6-16.1-8.3
		c-6.1-3.1-12.7-5.8-18.7-9.1c-3.9-2.2-7.7-7-9.8-10.8c-1.5-2.7-4.2-3.3-7-4.2c-2.9-1-5.7-2.2-8.3-3.8c-2.6-1.5-6.2-5-9.3-4.9
		c-5.1,0.2-9.3,3.5-13.7,5.8c-3.4,1.8-9.2,0.9-13,1.1c-5,0.3-9.9,1.1-14.8,1.5c-3.5,0.3-7.3-0.2-10.8,0.5c-2.7,0.6-4,3.8-4.9,6.1
		c-0.8,2-8.4-1.8-9.6-2.3c-3.3-1.5-6.1-4.3-9.2-6.2c-1.5-1-3.3-1.2-4.8-2.4c-1.5-1.1-3.2-2-5-2.7c-5.3-2.4-9.2-6.3-13.4-10.3
		c-3.3-3.2-8.6-4.8-12.8-6c-2.8-0.8-5.6-1.7-8.4-2.6c-2.9-1-5.7-3.8-8.7-4c-3.1-0.2-6.1-0.5-9.1-1c-2-0.4-4.1-2.4-5.7-3.6
		c-3-2.2-7.2-5.5-11-5.8c-4.7-0.4-9.4,1.4-13.9,2.8c-1.9,0.6-5.8,3.6-7.6,2.1c-2-1.7-4.4-1.6-6.6-2.9c-0.7-0.4-1.6-0.2-2.1,0.5
		c-0.4,0.7-0.2,1.6,0.5,2.1L873.7,359.7z"/>
	<path id="path154" class="st5" d="M875,356.7c-0.4-0.6,1.5-3.1,1.8-3.6c0.4-0.7,0.1-1.6-0.6-2.1c-0.3-0.2-0.7-0.2-1.1-0.1
		c1.7,0.8,2.7,0.1,2.8-1.9c0.4-0.7,0.6-1.4,0.7-2.1c0.1-0.3,1-1.4,1.4-2c1.4-2.3-0.7-4.2-2.4-5.4c-0.3,0.9-0.5,1.9-0.8,2.8
		c3.4,0,3.6-1.3,6.5-3.1c0.8-0.7,1.4-1.6,1.5-2.7c0.3-0.8,0.1-0.7-0.7,0.4l2.3-0.7c3.2-1,1.6,0.6,4.6,1.3c2.3,0.6,4.7,0.7,7,0.2
		c2.2-0.3,4.5-0.3,6.8-0.2c2.6,0.1,3,3.4,5.5,3.4c4.3,0,6.4-5.2,6.4-8.6c0,1.9,3.3-0.8,4-1.5s-0.7-0.4,1.3-0.2l4.4,0.4
		c1.4,0.1,3.9,1,5.1,0c3.2-2.6,6.9-3.9,10.4-6c2-1.2,4.4-1.9,6.4-2.9c1.5-0.8,1.7-2.3,3.4-3c3.7-1.6,5.8-4.6,8.9-6.9
		c2.3-1.6,7-2,8.7-4.2c0.2-0.3,0.5-0.6,0.7-1c0.8-1.3,0.4-0.4-0.3-0.2l3.5-0.8c0.5-0.2,0.9-0.6,1-1c0.7-2.7,2.7-3.9,5.1-5.8
		c0.8-0.5,1.3-1.3,1.6-2.2c0.3-0.9,0.6-1.7,1-2.5c0.7-1.9,0.7-0.6-0.3-0.5c4.3-0.6,11-0.7,11-6.6l-1.5,1.5h1.1l-1.5-1.5v2
		c0,0.8,0.7,1.5,1.6,1.5c0.6,0,1.2-0.4,1.4-1.1l1.5-4.3c0.2-0.8-0.3-1.6-1.1-1.8c-0.1,0-0.3-0.1-0.4-0.1h-2.2c-0.7,0-0.7-1-0.3,0
		c-0.6-1.5-1.4-3.1-1.2-3.8c1-3,0.8-4-1.5-6.3c0.1,0.6,0.2,1.2,0.2,1.8c0.8-1.9,1.5-3.9,2-5.9c1.2-0.4,1.9-1.7,2.6-2.6
		c2.7-3.5,5.9-6.6,6.7-10.9c0.3-1.7,1.2-2.6,2.7-4.6c1-1.3,1.1-3.4,1.4-5s-1.2-3-2.1-4.2c-0.4-0.6-0.4-1.1-0.5-2.4
		c0,0.4-0.2,0.2,1.2,0.2c0.8,0,1.5-0.7,1.5-1.5c0-1.6-0.5-3.2-1.4-4.6l-0.8-1.6c-0.4-0.8-0.4-0.6-0.2,0.6c0.7-1.1,1.4-2.1,2.1-3.2
		c0.6-0.6,1.2-1.2,1.9-1.6c-0.9,0.8,1.1,0.3,1.5,0c1.2-0.7,2.2-2.7,3.4-3.7c1.5-1.3-0.7-3.4-2.1-2.1c-0.9,0.6-1.7,1.3-2.3,2.1
		c-0.6,1-1.2,0.9-0.1,0.9c-0.6-0.1-1.3,0-1.9,0.2c-2.4,1.4-3.7,3.9-5.1,6.1c-0.3,0.5-0.3,1,0,1.5c1,1.9,2.2,3.5,2.2,5.2l1.5-1.5
		c-3.2,0-6.1,2.8-3.7,6.2l2.2,3.1c0-0.9-0.1-1-0.2-0.1s-0.4,1.8-0.6,2.7s-2,2.6-3,4.3c-0.9,1.5-0.4,3.6-1.3,4.9l-5.1,6.8
		c-0.4,0.6-0.9,1.2-1.3,1.7c-0.6,0.8-2.3,0.5-2.9,1.6c-0.5,1-0.7,2.1-0.5,3.2c0.5,2.2,0.8,0.6-0.4,2.6c-0.3,0.6-0.2,1.3,0.2,1.8
		c1.8,1.8,1.5,0.9,0.7,3.4c-0.5,1.6,0,2.5,0.6,4c1.2,3.1,2.7,3.5,6,3.5c-0.5-0.6-1-1.3-1.5-1.9l-1.5,4.3l3,0.4v-1.9
		c0-0.8-0.7-1.5-1.5-1.5h-1.2c-0.8,0-1.5,0.7-1.5,1.5c0,0.7-1.2,2.6-2.3,2.8l-6.6,0.9c-0.5,0.1-0.9,0.5-1,1l-1.7,4.6
		c-0.1,0.3-3.2,2.3-4.1,3.1c-1,0.8-1.7,2-2.1,3.2c-0.4,1.6,1.3-0.1-0.2,0.2l-2.8,0.6c-0.5,0.1-0.9,0.5-1,1c-0.4,1.6-6.2,3.3-7.5,3.9
		c-2.9,1.5-4.8,4.3-7.4,6.2c-1.2,0.9-2.9,1.1-4,2.1s-1.7,1.8-3.2,2.7c-3.4,2-7.2,3.7-10.7,5.4c-1.3,0.6-2.5,1.3-3.7,2.2l-1.3,1
		c0.5-0.4,0.6-0.1-0.3-0.2l-7.5-0.7c-1.7-0.2-2.2-0.1-3.5,1.1c-1.6,1.5-1.9,0.5-4.2,1.9c-1.3,0.8-0.5,2.9-1,3.8
		c-1.2,2.4-2.2,4.3-4.7,1.4c-1.9-2.2-7.4-1.6-10-1.2c-2.9,0.5-5.9,1.4-8.2-1.1c-1-0.8-2.4-1.1-3.6-0.6c-1.2,0.4-4.1,0.6-4.8,1.9
		c-1.4,2.3-2.4,4.5-5.4,4.5c-0.8,0-1.5,0.7-1.5,1.5c0,0.5,0.3,1,0.7,1.2c2.1,1.5,0.7,1.5,0,2.8c-0.9,1.5-1.3,3.7-2,5.4
		s-0.3,3.8,1.8,3.5l-1.7-2.2c-1.2,2.2-3.5,4-1.8,6.7c1.1,1.6,3.7,0.1,2.6-1.5L875,356.7z"/>
	<path id="path156" class="st5" d="M1144.1,512.7c-3.5-0.2-7.1-0.5-10.6-1.1c-1.7-0.2-4.2-0.2-5.2,1.5c-1.2,2-0.7,4.7-4.1,4.4
		c-2.2-0.2-4.4,0.6-5.9,2.2c-0.7,0.6-2.5-0.2-3.4-0.5c-1-0.3-2.3,0.2-3.2,0.6c-2.2,0.9-4.3,0.5-6.5,0.9c-4.2,0.6-8.6,3.4-12.8,3.3
		c-0.8,0-1.5,0.7-1.5,1.5s0.7,1.5,1.5,1.5c3.8,0.1,8-2,11.7-3c1.9-0.5,2.2,0.3,4,0.2c3.2-0.2,5.5-2,8.8-1.2c1.3,0.3,2.7-0.2,3.6-1.3
		c2.2-2.6,5.9-0.3,8.5-2.2c1.6-1.2,0.8-5,3.3-5.1c3.8-0.2,7.9,1.1,11.8,1.2C1146,515.6,1146,512.6,1144.1,512.7L1144.1,512.7z"/>
	<path id="path158" class="st5" d="M1008.4,223.2c2.3,1.1,4.2,2.7,6.5,3.6s5.4-1.5,6.5,2.4c0.9,3.4,4.1,3.1,6.9,2.1
		c3-0.9,5.7-2.5,8-4.6c2.2-2.1,5.7-7.5,8.7-8.2c1.9-0.4,1.1-3.3-0.8-2.9c-5.7,1.4-7.8,9.7-13.5,11.2c-1,0.3-5.9,3.7-6.5,1.6
		c-0.3-1.3-0.9-2.5-1.8-3.6c-1-1.2-2.5-1.3-3.8-1.2c-3.8,0.2-5.5-1.4-8.8-3C1008.1,219.7,1006.6,222.3,1008.4,223.2L1008.4,223.2z"
		/>
	<path id="path160" class="st5" d="M1268.3,661.4c2.9-2.1,7.8-2.4,11.2-2.5s6.9,2.8,10.2,1.5c1.5-0.6,0.8-3-0.7-2.4
		c-3.1,1.2-7.7-1.7-11.2-1.5s-8,0.7-10.9,2.8C1265.8,660.2,1267.1,662.4,1268.3,661.4z"/>
	<path id="path162" class="st5" d="M844.9,343.7c1.8-0.1,3.5-0.1,5.3-0.1h1.8c1.4,0-0.8-0.9,0.2,0.1c1.8,1.8,3.6,3.5,5.5,5.1
		c2.3,2,4.6,4.1,7,5.9c2.8,2,6.3,2.8,9,5c1.5,1.2,3-1.4,1.5-2.6c-2.6-2-5.8-2.7-8.5-4.5c-2.8-2.1-5.5-4.3-8-6.7
		c-1.8-1.5-3.3-3.9-5.3-5c-2-1.2-6.4-0.3-8.6-0.2C842.9,340.8,842.9,343.8,844.9,343.7L844.9,343.7z"/>
</g>
<g id="RIELES_TREN" transform="translate(0,1.9999783e-5)">
	<line id="line165" class="st6" x1="690.7" y1="262.1" x2="686" y2="278"/>
	<line id="line167" class="st6" x1="697.9" y1="263.7" x2="692.7" y2="281.4"/>
	<line id="line169" class="st6" x1="705" y1="265.7" x2="699.8" y2="283.5"/>
	<line id="line171" class="st6" x1="712" y1="267.7" x2="706.9" y2="285.5"/>
	<line id="line173" class="st6" x1="719.2" y1="269.8" x2="714" y2="287.5"/>
	<line id="line175" class="st6" x1="726.2" y1="270.4" x2="721.1" y2="288.1"/>
	<line id="line177" class="st6" x1="733.9" y1="271.1" x2="729.5" y2="288.9"/>
	<line id="line179" class="st6" x1="741.2" y1="272.6" x2="736.8" y2="290.3"/>
	<line id="line181" class="st6" x1="684.2" y1="256.4" x2="678.8" y2="276.6"/>
	<line id="line183" class="st6" x1="675.7" y1="254.4" x2="671.9" y2="274.6"/>
	<line id="line185" class="st6" x1="666.5" y1="250.6" x2="663.9" y2="272.6"/>
	<line id="line187" class="st6" x1="657.8" y1="250.6" x2="656.6" y2="272.6"/>
	<line id="line189" class="st6" x1="647.5" y1="252.5" x2="651" y2="274.6"/>
	<line id="line191" class="st6" x1="636.8" y1="254.4" x2="641.7" y2="276.6"/>
	<line id="line193" class="st6" x1="628" y1="256.4" x2="633.3" y2="278.6"/>
	<line id="line195" class="st6" x1="619.6" y1="259" x2="624.9" y2="280"/>
	<line id="line197" class="st6" x1="610.4" y1="261.6" x2="617.7" y2="281.4"/>
	<line id="line199" class="st6" x1="601.6" y1="263.5" x2="608.1" y2="285.5"/>
	<line id="line201" class="st6" x1="592.5" y1="266.5" x2="601.6" y2="288.1"/>
	<line id="line203" class="st6" x1="584.4" y1="269.8" x2="592.5" y2="290.3"/>
	<line id="line205" class="st6" x1="577.3" y1="271.1" x2="582.4" y2="292.6"/>
	<line id="line207" class="st6" x1="569.9" y1="271.1" x2="569.9" y2="294.9"/>
	<line id="line209" class="st6" x1="561.9" y1="269.3" x2="558.1" y2="294.9"/>
	<line id="line211" class="st6" x1="553.9" y1="269.3" x2="550.1" y2="290.3"/>
	<line id="line213" class="st6" x1="547" y1="267.7" x2="542.4" y2="290.3"/>
	<line id="line215" class="st6" x1="539.4" y1="264.5" x2="534" y2="287.5"/>
	<line id="line217" class="st6" x1="534" y1="263.5" x2="525.2" y2="282.1"/>
	<line id="line219" class="st6" x1="527.9" y1="259" x2="515.7" y2="276"/>
	<line id="line221" class="st6" x1="523.3" y1="254.4" x2="507.3" y2="270.4"/>
	<line id="line223" class="st6" x1="518.7" y1="249.6" x2="501.6" y2="263.7"/>
	<line id="line225" class="st6" x1="515.3" y1="242.1" x2="497.7" y2="256.4"/>
	<line id="line227" class="st6" x1="512.6" y1="236" x2="494.3" y2="249.6"/>
	<line id="line229" class="st6" x1="507.3" y1="230.3" x2="494.3" y2="242.8"/>
	<line id="line231" class="st6" x1="503.5" y1="222.3" x2="489" y2="237.9"/>
	<line id="line233" class="st6" x1="494.3" y1="215.8" x2="483.6" y2="236"/>
	<line id="line235" class="st6" x1="483.6" y1="212.7" x2="478.3" y2="236"/>
	<line id="line237" class="st6" x1="472.9" y1="212.7" x2="471.8" y2="236.6"/>
	<line id="line239" class="st6" x1="466.4" y1="212.7" x2="459.9" y2="236"/>
	<line id="line241" class="st6" x1="459.9" y1="208.9" x2="450.8" y2="230.3"/>
	<line id="line243" class="st6" x1="443.2" y1="223.3" x2="455.3" y2="205.5"/>
	<line id="line245" class="st6" x1="438.1" y1="215.8" x2="450.8" y2="200.4"/>
	<line id="line247" class="st6" x1="434.2" y1="209.5" x2="446.2" y2="196.6"/>
	<line id="line249" class="st6" x1="429.6" y1="204.7" x2="443.2" y2="190.9"/>
	<line id="line251" class="st6" x1="424.3" y1="200.4" x2="438.1" y2="188.1"/>
	<line id="line253" class="st6" x1="422.6" y1="195.4" x2="433.5" y2="184.6"/>
	<line id="line255" class="st6" x1="419.6" y1="190.9" x2="431.2" y2="178.8"/>
	<line id="line257" class="st6" x1="413.7" y1="190" x2="425.4" y2="173.4"/>
	<line id="line259" class="st6" x1="409.7" y1="188.1" x2="414.6" y2="170.4"/>
	<line id="line261" class="st6" x1="406" y1="170.4" x2="406.3" y2="188.1"/>
	<line id="line263" class="st6" x1="398.7" y1="176.2" x2="403.4" y2="194.2"/>
	<line id="line265" class="st6" x1="392.5" y1="182.8" x2="400.4" y2="196.6"/>
	<line id="line267" class="st6" x1="387.2" y1="185.3" x2="395.8" y2="199.4"/>
	<line id="line269" class="st6" x1="382.6" y1="188.1" x2="391.5" y2="203.1"/>
	<line id="line271" class="st6" x1="377" y1="190" x2="385.1" y2="206.5"/>
	<line id="line273" class="st6" x1="744.3" y1="291.6" x2="748" y2="272.6"/>
	<line id="line275" class="st6" x1="754" y1="276.6" x2="749.7" y2="293.9"/>
	<line id="line277" class="st6" x1="761.7" y1="278.6" x2="754" y2="295.9"/>
	<line id="line279" class="st6" x1="761.7" y1="299.1" x2="768.9" y2="280"/>
	<line id="line281" class="st6" x1="767.8" y1="301.2" x2="775.6" y2="285.3"/>
	<line id="line283" class="st6" x1="773.5" y1="303.1" x2="781.8" y2="287.3"/>
	<line id="line285" class="st6" x1="779.5" y1="304.8" x2="788.4" y2="289.5"/>
	<line id="line287" class="st6" x1="783.9" y1="306.8" x2="793.8" y2="293.2"/>
	<line id="line289" class="st6" x1="788.9" y1="311.4" x2="797.5" y2="299.1"/>
	<line id="line291" class="st6" x1="793.8" y1="316.5" x2="803" y2="303.1"/>
	<line id="line293" class="st6" x1="798.4" y1="322" x2="809.9" y2="306.8"/>
	<line id="line295" class="st6" x1="804.1" y1="326.3" x2="814.2" y2="311.4"/>
	<line id="line297" class="st6" x1="809.9" y1="331.1" x2="819.6" y2="316.5"/>
	<line id="line299" class="st6" x1="814.7" y1="334.4" x2="824.5" y2="319.8"/>
	<line id="line301" class="st6" x1="819.6" y1="337.7" x2="829.3" y2="323.8"/>
	<line id="line303" class="st6" x1="824.5" y1="342" x2="835.1" y2="327.7"/>
	<line id="line305" class="st6" x1="829.3" y1="346.6" x2="840.8" y2="331.1"/>
	<line id="line307" class="st6" x1="835.1" y1="351.8" x2="846.5" y2="334.9"/>
	<line id="line309" class="st6" x1="841.9" y1="357.5" x2="852" y2="340.3"/>
	<line id="line311" class="st6" x1="850" y1="361.5" x2="858.3" y2="344.9"/>
	<line id="line313" class="st6" x1="858.3" y1="366.1" x2="863.7" y2="348.9"/>
	<line id="line315" class="st6" x1="870.3" y1="348.9" x2="868.9" y2="368.7"/>
	<line id="line317" class="st6" x1="875.9" y1="349.6" x2="878.3" y2="368.7"/>
	<path id="path319" class="st7" d="M882.3,352.5c-19.2,6.7-30.9-7.5-45.2-18.8c-13-10.4-27-19.8-39.5-31.1c-3.8-3.5-7.5-8.3-12.2-11
		c-4.9-2.8-11.2-3.7-16.7-6c-8.8-3.8-16.8-7.7-26.1-9.7c-14.3-3-29.4-3.1-43.4-7.5c-9.3-2.9-18.2-8.4-27.8-10.2
		c-9.8-1.9-24.3-1.4-33.9,1.6c-14.3,4.4-29.2,7-43.4,12c-7.2,2.5-12.4,5.4-20.3,5.7c-8.9,0.3-19.6-3.3-28.5-5
		c-14.6-2.8-15.4-3.1-25.5-13.8c-5.6-6-10-13-12.7-20.7c-2.6-7.4-9.8-14.2-17.3-17.4c-4.2-1.8-10.5-1.7-15.2-0.9
		c-2.4,0.4-1.4-0.1-6.9-0.1s-7.7-3.6-11.6-7.1c-11.6-10.3-19.5-24.4-31.5-34.2c-4-3.3-11.9-5.9-17.2-4.6c-5.4,1.3-6.5,5.2-9.8,8.6
		c-6,6.1-14.3,10-22.8,11.7"/>
	<path id="path321" class="st7" d="M882.3,364.4c-19.2,6.7-30.9-7.5-45.2-18.8c-13-10.4-27-19.8-39.5-31.1c-3.8-3.5-7.5-8.3-12.2-11
		c-4.9-2.8-11.2-3.7-16.7-6c-8.8-3.8-16.8-7.7-26.1-9.7c-14.3-3-29.4-3.1-43.4-7.5c-9.3-2.9-18.2-8.4-27.8-10.2
		c-9.8-1.9-24.3-1.3-33.9,1.6c-14.3,4.4-29.2,7-43.4,12c-7.2,2.5-12.4,5.4-20.3,5.7c-8.9,0.3-19.6-3.2-28.5-5
		c-14.6-2.8-22.3-5.4-32.4-16.1c-5.5-5.8-10.1-10.9-12.7-18.4c-2.6-7.4-3-14.2-10.4-17.4c-4.8-2-10.1-2.6-15.2-2
		c-2.4,0.4-4.2,2.2-6.9,2.2c-5.4-0.1-10-4.8-13.9-8.2c-11.5-10.3-19.5-24.4-31.5-34.3c-4-3.3-9.6-5.9-14.9-4.6
		c-5.4,1.3-6.5,5.2-9.8,8.6c-5.1,5-11.4,8.7-18.2,10.6"/>
</g>
<g id="text329" transform="translate(1182.36,443.12)">
	<path id="path1311" class="st8" d="M5.8-9.9v7.2c0,1.1-0.4,2-1.7,2c-0.8,0-1.7-0.5-1.7-1.9v-7.3h-1v6.8c0,2.7,1.7,3.3,2.8,3.3
		c1.3,0,2.7-0.9,2.7-2.8v-7.3H5.8z"/>
	<path id="path1313" class="st8" d="M11.4-3.1c0-2.4,1.4-3.6,2.1-3.6c0.8,0,0.7,1,0.7,1.6h1c0-1.1-0.3-2.5-1.7-2.5
		c-1.1,0-1.7,0.7-2.3,1.6L11-7.4h-1c0.2,0.9,0.3,1.9,0.3,3.1V0h1L11.4-3.1L11.4-3.1z"/>
	<path id="path1315" class="st8" d="M22.2-4.3c0,2.5-1.2,3.6-2.2,3.6c-0.9,0-0.9-1.1-0.9-1.8v-4.8h-1v5.1c0,1.3,0.5,2.4,1.9,2.4
		c0.9,0,1.9-0.8,2.4-1.6L22.6,0h1c-0.3-1.3-0.3-2.5-0.3-3.8v-3.6h-1v3.1C22.3-4.3,22.2-4.3,22.2-4.3z"/>
	<path id="path1317" class="st8" d="M26.3-10.2v7.5c0,0.9-0.1,1.9-0.4,2.7l1,0.1l0.2-0.8c0.6,0.5,0.9,0.8,1.8,0.8c1.3,0,3-1,3-3.9
		c0-2.8-1.8-3.8-3-3.8c-0.6,0-1,0.1-1.6,0.4v-3.1L26.3-10.2L26.3-10.2z M27.3-6c0.4-0.3,0.9-0.6,1.4-0.6c1.1,0,2.1,0.9,2.1,2.9
		c0,2.4-1.3,3-1.9,3c-0.8,0-1.3-0.6-1.6-1.3V-6z"/>
	<path id="path1319" class="st8" d="M35.1-6.1c0.6-0.2,1.2-0.6,1.8-0.6c0.8,0,1.3,0.6,1.3,1.4v0.7c-0.5-0.2-1-0.4-1.5-0.4
		c-1.5,0-2.4,1.2-2.4,2.7c0,1.3,0.8,2.4,2.2,2.4c0.8,0,1.3-0.3,1.8-0.9l0.3,0.9l1-0.1c-0.2-0.6-0.3-1.3-0.3-2v-3.2
		c0-1.2-0.9-2.4-2.3-2.4c-0.8,0-1.4,0.2-2.1,0.5L35.1-6.1z M38.2-2c-0.4,0.6-0.9,1.3-1.7,1.3s-1.2-0.8-1.2-1.5
		c0-0.9,0.4-1.8,1.5-1.8c0.5,0,1,0.2,1.4,0.4V-2z"/>
	<path id="path1321" class="st8" d="M42.2,0h1v-5.7c0.2-0.5,0.7-0.9,1.2-0.9S45-6.1,45-5.8V0h1v-5.9c0.2-0.4,0.6-0.8,1.1-0.8
		c0.4,0,0.7,0.3,0.7,0.8V0h1v-5.9c0-1-0.6-1.6-1.6-1.6c-0.6,0-1,0.3-1.4,0.7c-0.4-0.5-0.6-0.7-1.3-0.7c-0.6,0-1,0.3-1.4,0.7
		l-0.2-0.7h-1c0.2,0.8,0.3,1.4,0.3,2.4L42.2,0z"/>
	<path id="path1323" class="st8" d="M51-10.2v7.5c0,0.9,0,1.8-0.3,2.7l1,0.1l0.2-0.8c0.6,0.5,0.9,0.8,1.8,0.8c1.3,0,3-1,3-3.9
		c0-2.8-1.8-3.8-3-3.8c-0.6,0-1,0.1-1.6,0.4v-3.1L51-10.2L51-10.2z M52.1-6c0.4-0.3,0.9-0.6,1.4-0.6c1.1,0,2.1,0.9,2.1,2.9
		c0,2.4-1.3,3-1.9,3c-0.8,0-1.3-0.6-1.6-1.3V-6z"/>
	<path id="path1325" class="st8" d="M59.9-6.1c0.6-0.2,1.2-0.6,1.8-0.6c0.8,0,1.3,0.6,1.3,1.4v0.7C62.5-4.8,62-5,61.5-5
		c-1.5,0-2.4,1.2-2.4,2.7c0,1.3,0.8,2.4,2.2,2.4c0.8,0,1.3-0.3,1.8-0.9l0.3,0.9l1-0.1c-0.2-0.6-0.3-1.3-0.3-2v-3.2
		c0-1.2-0.9-2.4-2.3-2.4c-0.8,0-1.4,0.2-2.1,0.5L59.9-6.1z M63-2c-0.4,0.6-0.9,1.3-1.7,1.3s-1.2-0.8-1.2-1.5c0-0.9,0.4-1.8,1.5-1.8
		c0.5,0,1,0.2,1.4,0.4V-2z"/>
</g>
<g id="text331" transform="translate(1417.82,846.92)">
	<path id="path1328" class="st8" d="M6.9-8.9c-0.7-0.7-1.7-1.2-2.7-1.2c-1.5,0-2.7,0.9-2.7,2.4c0,1.2,0.9,1.9,1.8,2.5l0.9,0.5
		C6-3.6,6-3.3,6-2.5c0,1.1-0.9,1.8-1.9,1.8C3.2-0.7,2.4-1.3,2-2L1.2-1.4c0.8,1,1.7,1.6,3,1.6c1.7,0,2.9-1.1,2.9-2.8
		c0-1.2-0.5-1.7-2.3-2.8L4-5.9C2.6-6.7,2.5-7.2,2.5-7.7c0-0.9,0.7-1.5,1.6-1.5s1.5,0.6,2.1,1.1L6.9-8.9z"/>
	<path id="path1330" class="st8" d="M10.4-6.1c0.6-0.2,1.2-0.6,1.8-0.6c0.8,0,1.3,0.6,1.3,1.4v0.7C13-4.8,12.5-5,12-5
		c-1.5,0-2.4,1.2-2.4,2.7c0,1.3,0.8,2.4,2.2,2.4c0.8,0,1.3-0.3,1.8-0.9l0.3,0.9l1-0.1c-0.2-0.6-0.3-1.3-0.3-2v-3.2
		c0-1.2-0.9-2.4-2.3-2.4c-0.8,0-1.4,0.2-2.1,0.5L10.4-6.1z M13.5-2c-0.4,0.6-0.9,1.3-1.7,1.3s-1.2-0.8-1.2-1.5C10.6-3.1,11-4,12.1-4
		c0.5,0,1,0.2,1.4,0.4V-2z"/>
	<path id="path1332" class="st8" d="M23-1.9c-0.5,0.6-1.1,1.2-1.9,1.2c-0.9,0-2.1-0.7-2.1-3c0-2.2,1.1-2.9,2.1-2.9
		c0.9,0,1.4,0.6,1.8,1.4l0.9-0.6c-0.6-1-1.5-1.6-2.7-1.6c-1.5,0-3.1,1-3.1,3.9s1.8,3.8,3.2,3.8c1.1,0,1.9-0.6,2.6-1.3L23-1.9z"/>
	<path id="path1334" class="st8" d="M31.1-6.7c-0.7-0.5-1.5-0.9-2.4-0.9c-1.3,0-2.3,0.9-2.3,1.9c0,1.3,1.2,1.8,2.3,2.2
		C29.5-3.2,30.2-3,30.2-2c0,0.7-0.6,1.1-1.3,1.1c-0.9,0-1.8-0.6-2.4-1.2l-0.5,1c0.8,0.7,1.9,1.3,3,1.3s2.2-0.8,2.2-2
		c0-1.5-1.2-1.9-2.4-2.4c-0.6-0.2-1.4-0.6-1.4-1.3s0.6-1.1,1.2-1.1c0.7,0,1.4,0.4,2,0.8L31.1-6.7z"/>
	<path id="path1336" class="st8" d="M35.1-6.1c0.6-0.2,1.2-0.6,1.8-0.6c0.8,0,1.3,0.6,1.3,1.4v0.7c-0.5-0.2-1-0.4-1.5-0.4
		c-1.5,0-2.4,1.2-2.4,2.7c0,1.3,0.8,2.4,2.2,2.4c0.8,0,1.3-0.3,1.8-0.9l0.3,0.9l1-0.1c-0.2-0.6-0.3-1.3-0.3-2v-3.2
		c0-1.2-0.9-2.4-2.3-2.4c-0.8,0-1.4,0.2-2.1,0.5L35.1-6.1z M38.2-2c-0.4,0.6-0.9,1.3-1.7,1.3s-1.2-0.8-1.2-1.5
		c0-0.9,0.4-1.8,1.5-1.8c0.5,0,1,0.2,1.4,0.4V-2z"/>
	<path id="path1338" class="st8" d="M47.3-7.4l-1.9,5l-1.8-5h-1.1L44.9-1l-0.5,1.1c-0.2,0.4-0.5,1.2-1.1,1.2c-0.5,0-0.8-0.7-1-1.2
		l-0.9,0.5c0.3,0.9,0.9,1.6,1.9,1.6c1.3,0,2-1.6,2.4-2.7l2.7-6.9H47.3z"/>
	<path id="path1340" class="st8" d="M51.1,0h1v-2.7c0-0.9,0-1.7,0.4-2.6c0.3-0.6,1-1.3,1.8-1.3c0.9,0,0.9,1.7,0.9,2.3V0h1v-4.2
		c0-3-1-3.3-1.9-3.3S52.6-7,52.1-6.3v-3.9h-1V0z"/>
	<path id="path1342" class="st8" d="M63.4-4.3c0,2.5-1.2,3.6-2.2,3.6c-0.9,0-0.9-1.1-0.9-1.8v-4.8h-1v5.1c0,1.3,0.5,2.4,1.9,2.4
		c0.9,0,1.9-0.8,2.4-1.6L63.8,0h1c-0.3-1.3-0.3-2.5-0.3-3.8v-3.6h-1L63.4-4.3z"/>
	<path id="path1344" class="st8" d="M68.1-6.1c0.6-0.2,1.2-0.6,1.8-0.6c0.8,0,1.3,0.6,1.3,1.4v0.7c-0.5-0.2-1-0.4-1.5-0.4
		c-1.5,0-2.4,1.2-2.4,2.7c0,1.3,0.8,2.4,2.2,2.4c0.8,0,1.3-0.3,1.8-0.9l0.3,0.9l1-0.1c-0.2-0.6-0.3-1.3-0.3-2v-3.2
		c0-1.2-0.9-2.4-2.3-2.4c-0.8,0-1.4,0.2-2.1,0.5L68.1-6.1z M71.2-2c-0.4,0.6-0.9,1.3-1.7,1.3s-1.2-0.8-1.2-1.5
		c0-0.9,0.4-1.8,1.5-1.8c0.5,0,1,0.2,1.4,0.4L71.2-2z"/>
	<path id="path1346" class="st8" d="M75.1,0h1v-5.7c0.2-0.5,0.7-0.9,1.2-0.9s0.6,0.5,0.6,0.8V0h1v-5.9c0.2-0.4,0.6-0.8,1.1-0.8
		c0.4,0,0.7,0.3,0.7,0.8V0h1v-5.9c0-1-0.6-1.6-1.6-1.6c-0.6,0-1,0.3-1.4,0.7c-0.4-0.5-0.6-0.7-1.3-0.7c-0.6,0-1,0.3-1.4,0.7
		l-0.2-0.7h-1c0.2,0.8,0.3,1.4,0.3,2.4C75.1-5.1,75.1,0,75.1,0z"/>
	<path id="path1348" class="st8" d="M84.6-6.1c0.6-0.2,1.2-0.6,1.8-0.6c0.8,0,1.3,0.6,1.3,1.4v0.7c-0.5-0.2-1-0.4-1.5-0.4
		c-1.5,0-2.4,1.2-2.4,2.7c0,1.3,0.8,2.4,2.2,2.4c0.8,0,1.3-0.3,1.8-0.9l0.3,0.9l1-0.1c-0.2-0.6-0.3-1.3-0.3-2v-3.2
		c0-1.2-0.9-2.4-2.3-2.4c-0.8,0-1.4,0.2-2.1,0.5L84.6-6.1z M87.7-2c-0.4,0.6-0.9,1.3-1.7,1.3s-1.2-0.8-1.2-1.5
		c0-0.9,0.4-1.8,1.5-1.8c0.5,0,1,0.2,1.4,0.4L87.7-2z M87.7-10.7l-2.4,2L85.8-8l2.7-1.8L87.7-10.7z"/>
	<path id="path1350" class="st8" d="M93.2-3.1c0-2.6,1.2-3.6,2.2-3.6c0.9,0,0.9,1.1,0.9,1.8V0h1v-5.2c0-1.3-0.6-2.3-1.8-2.3
		c-1,0-2,0.6-2.5,1.5l-0.2-1.3h-1c0.3,1.2,0.3,2.4,0.3,3.7V0h1L93.2-3.1L93.2-3.1z"/>
</g>
<g id="text333" transform="translate(943.61,493.59)">
	<path id="path1353" class="st8" d="M4.1-5L2-9.9H1V0h1v-7.5l0,0l2,4.9l2-4.9l0,0V0h1v-9.9H6L4.1-5z"/>
	<path id="path1355" class="st8" d="M12.4,0.2c1.4,0,2.9-1,2.9-3.8c0-1.2-0.3-3.8-2.9-3.8c-1.4,0-2.9,1-2.9,3.8
		C9.5-0.7,11.1,0.2,12.4,0.2z M12.4-0.7c-1.6,0-1.9-1.7-1.9-3s0.3-3,1.9-3s1.9,1.7,1.9,3S14-0.7,12.4-0.7z"/>
	<path id="path1357" class="st8" d="M19.7-3.1c0-2.4,1.4-3.6,2.1-3.6c0.8,0,0.7,1,0.7,1.6h1c0-1.1-0.3-2.5-1.7-2.5
		c-1.1,0-1.7,0.7-2.3,1.6l-0.2-1.4h-1c0.2,0.9,0.3,1.9,0.3,3.1V0h1L19.7-3.1z"/>
	<path id="path1359" class="st8" d="M26.9-6.1c0.6-0.2,1.2-0.6,1.8-0.6c0.8,0,1.3,0.6,1.3,1.4v0.7C29.5-4.8,29-5,28.5-5
		c-1.5,0-2.4,1.2-2.4,2.7c0,1.3,0.8,2.4,2.2,2.4c0.8,0,1.3-0.3,1.8-0.9l0.3,0.9l1-0.1c-0.2-0.6-0.3-1.3-0.3-2v-3.2
		c0-1.2-0.9-2.4-2.3-2.4c-0.8,0-1.4,0.2-2.1,0.5L26.9-6.1z M30-2c-0.4,0.6-0.9,1.3-1.7,1.3s-1.2-0.8-1.2-1.5c0-0.9,0.4-1.8,1.5-1.8
		c0.5,0,1,0.2,1.4,0.4C30-3.6,30-2,30-2z"/>
	<path id="path1361" class="st8" d="M39.1-7.4l-1.9,5l-1.8-5h-1.1L36.6-1l-0.5,1.1c-0.2,0.4-0.5,1.2-1.1,1.2c-0.5,0-0.8-0.7-1-1.2
		l-0.9,0.5C33.4,1.5,34,2.2,35,2.2c1.3,0,2-1.6,2.4-2.7l2.7-6.9H39.1z"/>
</g>
<g id="text343" transform="translate(1095.45,780.87)">
	<path id="path1397" class="st9" d="M9.2,0H7.8l-1-2.8H2.5L1.5,0H0.2l3.6-10h1.8L9.2,0z M6.4-3.9L4.7-8.8L2.9-3.9H6.4z"/>
	<path id="path1399" class="st9" d="M16.2,0H15v-4.3c0-0.3,0-0.7-0.1-1c0-0.3-0.1-0.5-0.2-0.7c-0.1-0.2-0.3-0.3-0.5-0.4
		s-0.5-0.1-0.8-0.1s-0.7,0.1-1.1,0.3c-0.4,0.2-0.7,0.4-1.1,0.7V0H10v-7.5h1.3v0.8C11.6-7,12-7.2,12.4-7.4c0.4-0.2,0.9-0.3,1.3-0.3
		c0.8,0,1.4,0.2,1.9,0.7c0.5,0.5,0.6,1.2,0.6,2.1C16.2-4.9,16.2,0,16.2,0z"/>
	<path id="path1401" class="st9" d="M21.8-0.1C21.5,0,21.3,0,21,0.1c-0.3,0-0.5,0.1-0.7,0.1c-0.8,0-1.3-0.2-1.7-0.6S18-1.5,18-2.4
		v-4h-0.9v-1.1H18v-2.2h1.3v2.2h2.6v1.1h-2.6V-3c0,0.4,0,0.7,0,0.9s0.1,0.4,0.2,0.6s0.2,0.3,0.4,0.4C20-1,20.2-1,20.6-1
		c0.2,0,0.4,0,0.6,0c0.2-0.1,0.4-0.1,0.5-0.2h0.1L21.8-0.1z"/>
	<path id="path1403" class="st9" d="M29.5,0h-1.3v-0.8c-0.1,0.1-0.3,0.2-0.5,0.3s-0.4,0.2-0.6,0.3S26.6,0,26.4,0.1
		c-0.3,0.1-0.6,0.1-1,0.1c-0.7,0-1.2-0.2-1.7-0.7S23-1.5,23-2.2c0-0.6,0.1-1,0.4-1.4c0.2-0.4,0.6-0.6,1-0.8c0.5-0.2,1-0.3,1.6-0.4
		s1.3-0.1,2.1-0.2v-0.2c0-0.3-0.1-0.5-0.2-0.7c0.1-0.1,0-0.3-0.2-0.4s-0.4-0.2-0.6-0.2c-0.3,0-0.5-0.1-0.8-0.1s-0.7,0-1.1,0.1
		s-0.8,0.2-1.3,0.4h-0.1v-1.3c0.2-0.1,0.6-0.1,1.1-0.2s0.9-0.1,1.4-0.1s1,0,1.4,0.1s0.7,0.2,1,0.4C29-7,29.2-6.7,29.3-6.4
		s0.2,0.7,0.2,1.2V0z M28.3-1.8v-2.1c-0.4,0-0.8,0.1-1.4,0.1c-0.5,0-0.9,0.1-1.2,0.2c-0.4,0.1-0.7,0.3-0.9,0.5
		c-0.2,0.2-0.3,0.5-0.3,0.9s0.1,0.8,0.4,1C25.1-1.1,25.5-1,26.1-1c0.4,0,0.8-0.1,1.2-0.3C27.6-1.4,28-1.6,28.3-1.8z"/>
</g>
<g id="text353" transform="translate(945.06,675.12)">
	<path id="path1406" class="st9" d="M9,0H7.7v-4.9h-5V0H1.3v-10h1.3v3.9h5V-10H9V0z"/>
	<path id="path1408" class="st9" d="M18.2,0h-1.3v-0.8c-0.4,0.3-0.8,0.6-1.2,0.8c-0.4,0.2-0.8,0.3-1.3,0.3c-0.8,0-1.4-0.2-1.8-0.7
		c-0.4-0.5-0.7-1.2-0.7-2.1v-4.9h1.3v4.3c0,0.4,0,0.7,0.1,1c0,0.3,0.1,0.5,0.2,0.7C13.6-1.2,13.8-1.1,14-1c0.1,0,0.4,0,0.8,0
		c0.3,0,0.7-0.1,1.1-0.3S16.7-1.7,17-2v-5.6h1.3L18.2,0L18.2,0z"/>
	<path id="path1410" class="st9" d="M26.9,0h-1.3v-0.8c-0.1,0.1-0.3,0.2-0.5,0.3s-0.4,0.2-0.6,0.3S24,0,23.8,0.1
		c-0.3,0.1-0.6,0.1-1,0.1c-0.7,0-1.2-0.2-1.7-0.7c-0.5-0.4-0.7-1-0.7-1.7c0-0.6,0.1-1,0.4-1.4c0.2-0.4,0.6-0.6,1-0.8
		c0.5-0.2,1-0.3,1.6-0.4s1.3-0.1,2.1-0.2v-0.2c0-0.3-0.1-0.5-0.2-0.7s-0.2-0.3-0.4-0.4c-0.2-0.1-0.4-0.2-0.6-0.2
		c-0.3,0-0.5-0.1-0.8-0.1s-0.7,0-1.1,0.1s-0.8,0.2-1.3,0.4H21v-1.3c0.2-0.1,0.6-0.1,1.1-0.2s0.9-0.1,1.4-0.1s1,0,1.4,0.1
		s0.7,0.2,1,0.4c0.3,0.2,0.5,0.5,0.6,0.8s0.2,0.7,0.2,1.2L26.9,0z M25.7-1.8v-2.1c-0.4,0-0.8,0.1-1.4,0.1c-0.5,0-0.9,0.1-1.2,0.2
		c-0.4,0.1-0.7,0.3-0.9,0.5c-0.2,0.2-0.3,0.5-0.3,0.9s0.1,0.8,0.4,1C22.5-1.1,22.9-1,23.4-1c0.4,0,0.8-0.1,1.2-0.3
		C25-1.4,25.4-1.6,25.7-1.8z"/>
	<path id="path1412" class="st9" d="M33.8-6.1L33.8-6.1c-0.3,0-0.4-0.1-0.6-0.1c-0.2,0-0.4,0-0.6,0c-0.4,0-0.8,0.1-1.1,0.3
		c-0.4,0.2-0.7,0.4-1,0.7V0h-1.3v-7.5h1.3v1.1c0.5-0.4,0.9-0.7,1.3-0.9c0.4-0.2,0.8-0.3,1.2-0.3c0.2,0,0.4,0,0.5,0s0.2,0,0.4,0.1
		v1.4C33.9-6.1,33.8-6.1,33.8-6.1z"/>
	<path id="path1414" class="st9" d="M41.5-3.7c0,1.2-0.3,2.2-0.9,2.9c-0.6,0.7-1.5,1.1-2.5,1.1c-1.1,0-1.9-0.4-2.5-1.1
		s-0.9-1.7-0.9-2.9s0.3-2.2,0.9-2.9c0.6-0.7,1.5-1.1,2.5-1.1c1.1,0,1.9,0.4,2.5,1.1C41.2-5.9,41.5-5,41.5-3.7z M40.2-3.7
		c0-1-0.2-1.7-0.6-2.2c-0.4-0.5-0.9-0.7-1.6-0.7c-0.7,0-1.2,0.2-1.6,0.7c-0.4,0.5-0.6,1.2-0.6,2.2c0,0.9,0.2,1.7,0.6,2.1
		c0.4,0.5,0.9,0.7,1.6,0.7c0.7,0,1.2-0.2,1.6-0.7S40.2-2.8,40.2-3.7z"/>
	<path id="path1416" class="st9" d="M48.6-0.5c-0.4,0.2-0.8,0.4-1.2,0.5s-0.8,0.2-1.2,0.2c-0.5,0-1-0.1-1.5-0.2
		c-0.5-0.2-0.8-0.4-1.2-0.7c-0.3-0.3-0.6-0.7-0.8-1.2S42.4-3,42.4-3.6c0-1.2,0.3-2.2,1-2.9s1.6-1,2.7-1c0.4,0,0.9,0.1,1.3,0.2
		c0.4,0.1,0.8,0.3,1.1,0.4v1.4h-0.1C48-5.8,47.6-6,47.2-6.2S46.4-6.4,46-6.4c-0.7,0-1.3,0.2-1.7,0.7s-0.6,1.2-0.6,2.1
		s0.2,1.6,0.6,2.1c0.4,0.5,1,0.7,1.7,0.7c0.3,0,0.5,0,0.8-0.1s0.5-0.2,0.7-0.3s0.4-0.2,0.5-0.3c0.2-0.1,0.3-0.2,0.4-0.3h0.1
		L48.6-0.5C48.5-0.5,48.6-0.5,48.6-0.5z"/>
	<path id="path1418" class="st9" d="M56.8-3.7c0,1.2-0.3,2.2-0.9,2.9c-0.6,0.7-1.5,1.1-2.5,1.1c-1.1,0-1.9-0.4-2.5-1.1
		S50-2.5,50-3.7s0.3-2.2,0.9-2.9c0.6-0.7,1.5-1.1,2.5-1.1c1.1,0,1.9,0.4,2.5,1.1S56.8-5,56.8-3.7z M55.5-3.7c0-1-0.2-1.7-0.6-2.2
		c-0.4-0.5-0.9-0.7-1.6-0.7c-0.7,0-1.2,0.2-1.6,0.7c-0.4,0.5-0.6,1.2-0.6,2.2c0,0.9,0.2,1.7,0.6,2.1c0.4,0.5,0.9,0.7,1.6,0.7
		c0.7,0,1.2-0.2,1.6-0.7S55.5-2.8,55.5-3.7z"/>
	<path id="path1420" class="st9" d="M65.5,0h-1.3v-4.3c0-0.3,0-0.7-0.1-1c0-0.3-0.1-0.5-0.2-0.7c-0.1-0.2-0.3-0.3-0.5-0.4
		s-0.5-0.1-0.8-0.1s-0.7,0.1-1.1,0.3c-0.4,0.2-0.7,0.4-1.1,0.7V0h-1.3v-7.5h1.3v0.8c0.4-0.3,0.8-0.6,1.2-0.8
		c0.4-0.2,0.9-0.3,1.3-0.3c0.8,0,1.4,0.2,1.9,0.7c0.4,0.5,0.6,1.2,0.6,2.1L65.5,0z"/>
	<path id="path1422" class="st9" d="M74.4,0h-1.3v-0.8c-0.4,0.3-0.7,0.6-1.1,0.7c-0.4,0.2-0.8,0.3-1.3,0.3c-0.9,0-1.6-0.3-2.1-1
		s-0.8-1.6-0.8-2.9c0-0.6,0.1-1.2,0.3-1.7c0.2-0.5,0.4-0.9,0.7-1.3c0.3-0.3,0.7-0.6,1.1-0.8c0.4-0.2,0.8-0.3,1.3-0.3
		c0.4,0,0.7,0,1,0.1s0.6,0.2,1,0.4v-3.2h1.3L74.4,0L74.4,0z M73.1-1.8v-4.3c-0.3-0.2-0.6-0.3-0.9-0.3s-0.6-0.1-0.9-0.1
		c-0.7,0-1.3,0.2-1.7,0.7C69.2-5.3,69-4.6,69-3.7s0.2,1.6,0.5,2C69.9-1.2,70.4-1,71-1c0.4,0,0.7-0.1,1.1-0.2
		C72.5-1.4,72.8-1.6,73.1-1.8z"/>
	<path id="path1424" class="st9" d="M83.7-3.7c0,1.2-0.3,2.2-0.9,2.9s-1.5,1.1-2.5,1.1c-1.1,0-1.9-0.4-2.5-1.1s-0.9-1.7-0.9-2.9
		s0.3-2.2,0.9-2.9s1.5-1.1,2.5-1.1c1.1,0,1.9,0.4,2.5,1.1C83.4-5.9,83.7-5,83.7-3.7z M82.4-3.7c0-1-0.2-1.7-0.6-2.2
		s-0.9-0.7-1.6-0.7S79-6.4,78.6-5.9S78-4.7,78-3.7c0,0.9,0.2,1.7,0.6,2.1c0.4,0.5,0.9,0.7,1.6,0.7s1.2-0.2,1.6-0.7
		S82.4-2.8,82.4-3.7z"/>
</g>
<g id="text357" transform="translate(768.52,760.19)">
	<path id="path1427" class="st9" d="M9.2,0H7.8l-1-2.8H2.5L1.5,0H0.2l3.6-10h1.8L9.2,0z M6.4-3.9L4.7-8.8L2.9-3.9H6.4z"/>
	<path id="path1429" class="st9" d="M16.2,0H15v-4.3c0-0.3,0-0.7-0.1-1c0-0.3-0.1-0.5-0.2-0.7c-0.1-0.2-0.3-0.3-0.5-0.4
		s-0.5-0.1-0.8-0.1s-0.7,0.1-1.1,0.3c-0.4,0.2-0.7,0.4-1.1,0.7V0H10v-7.5h1.3v0.8C11.6-7,12-7.2,12.4-7.4c0.4-0.2,0.9-0.3,1.3-0.3
		c0.8,0,1.4,0.2,1.9,0.7c0.5,0.5,0.6,1.2,0.6,2.1C16.2-4.9,16.2,0,16.2,0z"/>
	<path id="path1431" class="st9" d="M24.6-0.5c-0.4,0.2-0.8,0.4-1.2,0.5c-0.4,0.1-0.8,0.2-1.2,0.2c-0.5,0-1-0.1-1.5-0.2
		c-0.5-0.2-0.8-0.4-1.2-0.7C19.2-1.1,19-1.5,18.8-2s-0.3-1.1-0.3-1.7c0-1.2,0.3-2.2,1-2.9s1.6-1,2.7-1c0.4,0,0.9,0.1,1.3,0.2
		s0.8,0.3,1.1,0.4v1.4h-0.1c-0.4-0.3-0.8-0.5-1.2-0.7c-0.4-0.2-0.8-0.2-1.2-0.2c-0.7,0-1.3,0.2-1.7,0.7c-0.4,0.5-0.6,1.2-0.6,2.1
		s0.2,1.6,0.6,2.1s1,0.7,1.7,0.7c0.3,0,0.5,0,0.8-0.1s0.5-0.2,0.7-0.3s0.4-0.2,0.5-0.3c0.2-0.1,0.3-0.2,0.4-0.3h0.1
		C24.6-1.9,24.6-0.5,24.6-0.5z"/>
	<path id="path1433" class="st9" d="M32.5,0h-1.3v-0.8c-0.1,0.1-0.3,0.2-0.5,0.3s-0.4,0.2-0.6,0.3C30-0.1,29.8,0,29.5,0.1
		s-0.6,0.1-1,0.1c-0.7,0-1.2-0.2-1.7-0.7s-0.7-1-0.7-1.7c0-0.6,0.1-1,0.4-1.4c0.2-0.4,0.6-0.6,1-0.8c0.5-0.2,1-0.3,1.6-0.4
		s1.3-0.1,2.1-0.2v-0.2c0-0.3-0.1-0.5-0.2-0.7c0-0.1-0.2-0.3-0.4-0.4c-0.2-0.1-0.4-0.2-0.6-0.2c-0.3,0-0.5-0.1-0.8-0.1
		s-0.7,0-1.1,0.1s-0.8,0.2-1.3,0.4h-0.1v-1.3c0.2-0.1,0.6-0.1,1.1-0.2s0.9-0.1,1.4-0.1s1,0,1.4,0.1s0.7,0.2,1,0.4
		c0.3,0.2,0.5,0.5,0.6,0.8s0.2,0.7,0.2,1.2L32.5,0z M31.2-1.8v-2.1c-0.4,0-0.8,0.1-1.4,0.1c-0.5,0-0.9,0.1-1.2,0.2
		c-0.4,0.1-0.7,0.3-0.9,0.5c-0.2,0.2-0.3,0.5-0.3,0.9s0.1,0.8,0.4,1C28.1-1.1,28.5-1,29-1c0.4,0,0.8-0.1,1.2-0.3
		C30.6-1.4,30.9-1.6,31.2-1.8z"/>
	<path id="path1435" class="st9" d="M41.6,0h-1.3v-4.3c0-0.3,0-0.7-0.1-1c0-0.3-0.1-0.5-0.2-0.7c-0.1-0.2-0.3-0.3-0.5-0.4
		S39-6.5,38.7-6.5S38-6.4,37.6-6.2s-0.7,0.4-1.1,0.7V0h-1.3v-10.4h1.3v3.8C37-7,37.4-7.2,37.8-7.4s0.9-0.3,1.3-0.3
		c0.8,0,1.4,0.2,1.9,0.7s0.6,1.2,0.6,2.1V0z"/>
	<path id="path1437" class="st9" d="M50.7,0h-1.3v-0.8C49-0.5,48.6-0.2,48.2,0s-0.8,0.3-1.3,0.3c-0.8,0-1.4-0.2-1.8-0.7
		c-0.4-0.5-0.7-1.2-0.7-2.1v-4.9h1.3v4.3c0,0.4,0,0.7,0.1,1c0,0.3,0.1,0.5,0.2,0.7c0.1,0.2,0.3,0.3,0.5,0.4c0.1,0,0.4,0,0.8,0
		c0.3,0,0.7-0.1,1.1-0.3c0.4-0.2,0.8-0.4,1.1-0.7v-5.6h1.3L50.7,0L50.7,0z"/>
	<path id="path1439" class="st9" d="M59.4,0h-1.3v-0.8c-0.1,0.1-0.3,0.2-0.5,0.3S57.2-0.3,57-0.2S56.5,0,56.3,0.1
		c-0.3,0.1-0.6,0.1-1,0.1c-0.7,0-1.2-0.2-1.7-0.7S53-1.5,53-2.2c0-0.6,0.1-1,0.4-1.4c0.2-0.4,0.6-0.6,1-0.8c0.5-0.2,1-0.3,1.6-0.4
		s1.3-0.1,2.1-0.2v-0.2c0-0.3-0.1-0.5-0.2-0.7c-0.1-0.2-0.2-0.3-0.4-0.4s-0.4-0.2-0.6-0.2s-0.5-0.1-0.8-0.1s-0.7,0-1.1,0.1
		c-0.4,0.1-0.8,0.2-1.3,0.4h-0.1v-1.3c0.2-0.1,0.6-0.1,1.1-0.2s0.9-0.1,1.4-0.1s1,0,1.4,0.1s0.7,0.2,1,0.4C58.8-7,59-6.7,59.1-6.4
		s0.2,0.7,0.2,1.2L59.4,0L59.4,0z M58.1-1.8v-2.1c-0.4,0-0.8,0.1-1.4,0.1c-0.5,0-0.9,0.1-1.2,0.2c-0.4,0.1-0.7,0.3-0.9,0.5
		s-0.3,0.5-0.3,0.9s0.1,0.8,0.4,1C55-1.1,55.4-1,55.9-1c0.4,0,0.8-0.1,1.2-0.3C57.5-1.4,57.8-1.6,58.1-1.8z"/>
	<path id="path1441" class="st9" d="M67.6-2.2c0,0.7-0.3,1.2-0.9,1.7c-0.6,0.4-1.3,0.7-2.3,0.7c-0.6,0-1.1-0.1-1.5-0.2
		c-0.5-0.1-0.8-0.3-1.2-0.4v-1.4h0.1c0.4,0.3,0.8,0.5,1.3,0.7s1,0.3,1.4,0.3c0.6,0,1-0.1,1.3-0.3s0.5-0.5,0.5-0.8S66.2-2.4,66-2.6
		c-0.2-0.2-0.5-0.3-1-0.4c-0.2,0-0.4-0.1-0.7-0.1c-0.3-0.1-0.5-0.1-0.8-0.2c-0.7-0.2-1.1-0.4-1.4-0.8c-0.3-0.3-0.4-0.8-0.4-1.2
		c0-0.3,0.1-0.6,0.2-0.9c0.1-0.3,0.3-0.5,0.6-0.7s0.6-0.4,1-0.5s0.8-0.2,1.3-0.2c0.4,0,0.9,0.1,1.4,0.2S67-7.2,67.3-7v1.3h-0.1
		c-0.3-0.2-0.7-0.4-1.2-0.6s-0.9-0.2-1.4-0.2s-0.9,0.1-1.2,0.3c-0.3,0.2-0.5,0.4-0.5,0.8c0,0.3,0.1,0.5,0.3,0.7s0.5,0.3,0.9,0.4
		c0.2,0.1,0.5,0.1,0.8,0.2S65.4-4,65.6-4c0.6,0.1,1,0.4,1.4,0.7C67.5-3.1,67.6-2.7,67.6-2.2z"/>
	<path id="path1443" class="st9" d="M71.2-8.8h-1.4v-1.3h1.4V-8.8z M71.1,0h-1.3v-7.5h1.3V0z"/>
</g>
<g id="text363" transform="translate(480.84,810.6)">
	<path id="path1446" class="st9" d="M7.7,0H1.3v-10h1.3v8.8h5L7.7,0L7.7,0z"/>
	<path id="path1448" class="st9" d="M10.7-8.8H9.2v-1.3h1.4v1.3H10.7z M10.6,0H9.3v-7.5h1.3V0z"/>
	<path id="path1450" class="st9" d="M24.5,0h-1.3v-4.3c0-0.3,0-0.6,0-0.9S23.1-5.7,23-5.9s-0.3-0.3-0.4-0.4
		c-0.2-0.1-0.5-0.1-0.8-0.1c-0.4,0-0.7,0.1-1.1,0.3c-0.4,0.2-0.7,0.4-1.1,0.7c0,0.1,0,0.2,0,0.4c0,0.1,0,0.3,0,0.4V0h-1.3v-4.3
		c0-0.3,0-0.6,0-0.9s-0.1-0.5-0.2-0.7s-0.3-0.3-0.4-0.4c-0.2-0.1-0.5-0.1-0.8-0.1s-0.7,0.1-1,0.3c-0.3,0.2-0.7,0.4-1,0.7V0h-1.3
		v-7.5h1.3v0.8c0.4-0.3,0.8-0.6,1.2-0.8c0.4-0.2,0.8-0.3,1.3-0.3s0.9,0.1,1.3,0.3c0.4,0.2,0.6,0.5,0.8,0.9c0.5-0.4,1-0.7,1.4-0.9
		c0.4-0.2,0.9-0.3,1.3-0.3C23-7.8,23.6-7.5,24-7s0.6,1.2,0.6,2.1L24.5,0z"/>
	<path id="path1452" class="st9" d="M32,0h-1.3v-0.8c-0.1,0.1-0.3,0.2-0.5,0.3s-0.4,0.2-0.6,0.3C29.5-0.1,29.3,0,29,0.1
		s-0.6,0.1-1,0.1c-0.7,0-1.2-0.2-1.7-0.7s-0.7-1-0.7-1.7c0-0.6,0.1-1,0.4-1.4c0.2-0.4,0.6-0.6,1-0.8c0.5-0.2,1-0.3,1.6-0.4
		S30-4.9,30.8-5v-0.2c0-0.3-0.1-0.5-0.2-0.7s-0.2-0.3-0.4-0.4c-0.2-0.1-0.4-0.2-0.6-0.2S29-6.6,28.7-6.6s-0.7,0-1.1,0.1
		s-0.8,0.2-1.3,0.4h-0.1v-1.3c0.2-0.1,0.6-0.1,1.1-0.2s0.9-0.1,1.4-0.1s1,0,1.4,0.1s0.7,0.2,1,0.4c0.3,0.2,0.5,0.5,0.6,0.8
		C31.9-6,32-5.6,32-5.1V0z M30.8-1.8v-2.1c-0.4,0-0.8,0.1-1.4,0.1c-0.5,0-0.9,0.1-1.2,0.2c-0.4,0.1-0.7,0.3-0.9,0.5
		C27.1-2.9,27-2.6,27-2.2s0.1,0.8,0.4,1C27.6-1.1,28-1,28.5-1c0.4,0,0.8-0.1,1.2-0.3C30.1-1.4,30.4-1.6,30.8-1.8z"/>
	<path id="path1454" class="st9" d="M38.6-0.1C38.3,0,38.1,0,37.8,0.1c-0.3,0-0.5,0.1-0.7,0.1c-0.8,0-1.3-0.2-1.7-0.6
		s-0.6-1.1-0.6-2v-4h-0.9v-1.1h0.9v-2.2H36v2.2h2.6v1.1H36V-3c0,0.4,0,0.7,0,0.9s0.1,0.4,0.2,0.6c0.1,0.2,0.2,0.3,0.4,0.4
		C36.7-1,37-1,37.4-1c0.2,0,0.4,0,0.6,0c0.2-0.1,0.4-0.1,0.5-0.2h0.1V-0.1z"/>
	<path id="path1456" class="st9" d="M46.3,0H45v-0.8c-0.1,0.1-0.3,0.2-0.5,0.3s-0.4,0.2-0.6,0.3c-0.2,0.1-0.5,0.2-0.7,0.3
		c-0.3,0.1-0.6,0.1-1,0.1c-0.7,0-1.2-0.2-1.7-0.7S40-1.5,40-2.2c0-0.6,0.1-1,0.4-1.4c0.2-0.4,0.6-0.6,1-0.8c0.5-0.2,1-0.3,1.6-0.4
		s1.3-0.1,2.1-0.2v-0.2c0-0.3-0.1-0.5-0.2-0.7c-0.1-0.2-0.2-0.3-0.4-0.4s-0.4-0.2-0.6-0.2c-0.3,0-0.5-0.1-0.8-0.1s-0.7,0-1.1,0.1
		c-0.4,0.1-0.8,0.2-1.3,0.4h-0.1v-1.3c0.2-0.1,0.6-0.1,1.1-0.2s0.9-0.1,1.4-0.1s1,0,1.4,0.1s0.7,0.2,1,0.4C45.8-7,46-6.7,46.1-6.4
		s0.2,0.7,0.2,1.2V0z M45.1-1.8v-2.1c-0.4,0-0.8,0.1-1.4,0.1c-0.5,0-0.9,0.1-1.2,0.2c-0.4,0.1-0.7,0.3-0.9,0.5s-0.3,0.5-0.3,0.9
		s0.1,0.8,0.4,1C41.9-1.1,42.3-1,42.8-1c0.4,0,0.8-0.1,1.2-0.3C44.4-1.4,44.8-1.6,45.1-1.8z"/>
	<path id="path1458" class="st9" d="M60.1,0h-1.3v-4.3c0-0.3,0-0.6,0-0.9s-0.1-0.5-0.2-0.7c-0.1-0.2-0.3-0.3-0.4-0.4
		s-0.5-0.1-0.8-0.1c-0.4,0-0.7,0.1-1.1,0.3c-0.4,0.2-0.7,0.4-1.1,0.7c0,0.1,0,0.2,0,0.4c0,0.1,0,0.3,0,0.4V0H54v-4.3
		c0-0.3,0-0.6,0-0.9s-0.1-0.5-0.2-0.7c-0.1-0.2-0.3-0.3-0.4-0.4c-0.2-0.1-0.5-0.1-0.8-0.1s-0.7,0.1-1,0.3c-0.3,0.2-0.7,0.4-1,0.7V0
		h-1.3v-7.5h1.3v0.8C51-7,51.4-7.3,51.8-7.5c0.4-0.2,0.8-0.3,1.3-0.3s0.9,0.1,1.3,0.3C54.8-7.3,55-7,55.2-6.6c0.5-0.4,1-0.7,1.4-0.9
		c0.4-0.2,0.9-0.3,1.3-0.3c0.8,0,1.4,0.3,1.8,0.8c0.4,0.5,0.6,1.2,0.6,2.1L60.1,0z"/>
	<path id="path1460" class="st9" d="M69.6-3.8c0,0.6-0.1,1.2-0.3,1.7c-0.2,0.5-0.4,0.9-0.7,1.3c-0.3,0.4-0.7,0.6-1,0.8
		c-0.4,0.2-0.8,0.3-1.3,0.3c-0.4,0-0.8-0.1-1.1-0.2c-0.3-0.1-0.6-0.2-0.9-0.4L64.2,0H63v-10.4h1.3v3.7C64.6-7,65-7.2,65.4-7.4
		c0.4-0.2,0.8-0.3,1.3-0.3c0.9,0,1.6,0.3,2.1,1S69.6-5,69.6-3.8z M68.3-3.8c0-0.9-0.1-1.6-0.4-2c-0.3-0.5-0.8-0.7-1.4-0.7
		c-0.4,0-0.7,0.1-1.1,0.2c-0.4,0.2-0.7,0.4-1,0.6v4.3c0.4,0.2,0.7,0.3,0.9,0.3C65.4-1,65.7-0.9,66-0.9c0.7,0,1.2-0.2,1.6-0.7
		C68.1-2.1,68.3-2.8,68.3-3.8z"/>
	<path id="path1462" class="st9" d="M78.3-3.7c0,1.2-0.3,2.2-0.9,2.9s-1.5,1.1-2.5,1.1c-1.1,0-1.9-0.4-2.5-1.1s-0.9-1.7-0.9-2.9
		s0.3-2.2,0.9-2.9s1.5-1.1,2.5-1.1c1.1,0,1.9,0.4,2.5,1.1S78.3-5,78.3-3.7z M77-3.7c0-1-0.2-1.7-0.6-2.2s-0.9-0.7-1.6-0.7
		s-1.2,0.2-1.6,0.7s-0.6,1.2-0.6,2.2c0,0.9,0.2,1.7,0.6,2.1c0.4,0.5,0.9,0.7,1.6,0.7s1.2-0.2,1.6-0.7S77-2.8,77-3.7z"/>
</g>
<g id="text369" transform="translate(1290.66,74.63)">
	<path id="path1465" class="st9" d="M7.7,0H1.3v-10h1.3v8.8h5L7.7,0L7.7,0z"/>
	<path id="path1467" class="st9" d="M15.1,0h-1.3v-0.8c-0.1,0.1-0.3,0.2-0.5,0.3s-0.4,0.2-0.6,0.3C12.5-0.1,12.2,0,12,0.1
		c-0.3,0.1-0.6,0.1-1,0.1c-0.7,0-1.2-0.2-1.7-0.7s-0.7-1-0.7-1.7c0-0.6,0.1-1,0.4-1.4C9.2-4,9.6-4.2,10-4.4c0.5-0.2,1-0.3,1.6-0.4
		s1.3-0.1,2.1-0.2v-0.2c0-0.3-0.1-0.5-0.2-0.7c-0.1-0.2-0.2-0.3-0.4-0.4s-0.4-0.2-0.6-0.2c-0.3,0-0.5-0.1-0.8-0.1s-0.7,0-1.1,0.1
		c-0.4,0.1-0.8,0.2-1.3,0.4h0.1v-1.3c0.2-0.1,0.6-0.1,1.1-0.2s0.9-0.1,1.4-0.1s1,0,1.4,0.1s0.7,0.2,1,0.4c0.3,0.2,0.5,0.5,0.6,0.8
		s0.2,0.7,0.2,1.2V0z M13.9-1.8v-2.1c-0.4,0-0.8,0.1-1.4,0.1c-0.5,0-0.9,0.1-1.2,0.2c-0.4,0.1-0.7,0.3-0.9,0.5s-0.3,0.5-0.3,0.9
		s0.1,0.8,0.4,1C10.7-1.1,11.1-1,11.6-1c0.4,0,0.8-0.1,1.2-0.3C13.2-1.4,13.6-1.6,13.9-1.8z"/>
	<path id="path1469" class="st9" d="M21.5-6.1L21.5-6.1c-0.3,0-0.4-0.1-0.6-0.1s-0.4,0-0.6,0c-0.4,0-0.8,0.1-1.1,0.3
		c-0.4,0.2-0.7,0.4-1,0.7V0h-1.3v-7.5h1.3v1.1c0.5-0.4,0.9-0.7,1.3-0.9c0.4-0.2,0.8-0.3,1.2-0.3c0.2,0,0.4,0,0.5,0s0.2,0,0.4,0.1
		L21.5-6.1z"/>
	<path id="path1471" class="st9" d="M28.9-3.6h-5.5c0,0.5,0.1,0.9,0.2,1.2s0.3,0.6,0.6,0.8c0.2,0.2,0.5,0.4,0.8,0.5s0.6,0.2,1,0.2
		c0.5,0,1-0.1,1.5-0.3s0.9-0.4,1.1-0.6h0.1v1.4c-0.4,0.2-0.9,0.3-1.3,0.4C27,0.1,26.5,0.2,26,0.2c-1.2,0-2.2-0.3-2.9-1
		c-0.7-0.7-1-1.6-1-2.9c0-1.2,0.3-2.2,1-2.9s1.6-1.1,2.6-1.1s1.8,0.3,2.3,0.9c0.6,0.6,0.8,1.4,0.8,2.5L28.9-3.6z M27.7-4.6
		c0-0.7-0.2-1.2-0.5-1.5c-0.3-0.4-0.8-0.5-1.5-0.5S24.5-6.4,24.1-6s-0.6,0.9-0.7,1.5L27.7-4.6L27.7-4.6z"/>
	<path id="path1473" class="st9" d="M36.6-2.2c0,0.7-0.3,1.2-0.9,1.7c-0.6,0.4-1.3,0.7-2.3,0.7c-0.6,0-1.1-0.1-1.5-0.2
		c-0.5-0.1-0.8-0.3-1.2-0.4v-1.4h0.1c0.4,0.3,0.8,0.5,1.3,0.7c0.5,0.2,1,0.3,1.4,0.3c0.6,0,1-0.1,1.3-0.3s0.5-0.5,0.5-0.8
		S35.2-2.4,35-2.6S34.5-2.9,34-3c-0.2,0-0.4-0.1-0.7-0.1c-0.3-0.1-0.5-0.1-0.8-0.2c-0.7-0.2-1.1-0.4-1.4-0.8
		c-0.3-0.3-0.4-0.8-0.4-1.2c0-0.3,0.1-0.6,0.2-0.9s0.3-0.5,0.6-0.7c0.3-0.2,0.6-0.4,1-0.5c0.4-0.1,0.8-0.2,1.3-0.2
		c0.4,0,0.9,0.1,1.4,0.2S36-7.2,36.3-7v1.3h-0.1C35.9-6,35.5-6.2,35-6.4c-0.5-0.2-0.9-0.2-1.4-0.2s-0.9,0.1-1.2,0.3
		C32.2-6.2,32-5.9,32-5.6s0.1,0.5,0.3,0.7s0.5,0.3,0.9,0.4c0.2,0.1,0.5,0.1,0.8,0.2s0.5,0.1,0.7,0.1c0.6,0.1,1,0.4,1.4,0.7
		C36.4-3.1,36.6-2.7,36.6-2.2z"/>
</g>
<g id="text377" transform="translate(276.8,882.13)">
	<path id="path1476" class="st9" d="M10.2,0H8.9v-8.6L6.1-2.8H5.3L2.6-8.6V0H1.3v-10h1.8l2.7,5.6L8.4-10h1.8V0z"/>
	<path id="path1478" class="st9" d="M19.1-3.7c0,1.2-0.3,2.2-0.9,2.9s-1.5,1.1-2.5,1.1c-1.1,0-1.9-0.4-2.5-1.1s-0.9-1.7-0.9-2.9
		s0.3-2.2,0.9-2.9c0.6-0.7,1.5-1.1,2.5-1.1c1.1,0,1.9,0.4,2.5,1.1C18.8-5.9,19.1-5,19.1-3.7z M17.8-3.7c0-1-0.2-1.7-0.6-2.2
		s-0.9-0.7-1.6-0.7c-0.7,0-1.2,0.2-1.6,0.7c-0.4,0.5-0.6,1.2-0.6,2.2c0,0.9,0.2,1.7,0.6,2.1c0.4,0.5,0.9,0.7,1.6,0.7
		s1.2-0.2,1.6-0.7C17.6-2.1,17.8-2.8,17.8-3.7z"/>
	<path id="path1480" class="st9" d="M22.8,0h-1.3v-10.4h1.3V0z"/>
	<path id="path1482" class="st9" d="M27,0h-1.3v-10.4H27V0z"/>
	<path id="path1484" class="st9" d="M36.2-3.6h-5.5c0,0.5,0.1,0.9,0.2,1.2s0.3,0.6,0.6,0.8c0.2,0.2,0.5,0.4,0.8,0.5
		C32.6-1,33-0.9,33.4-0.9c0.5,0,1-0.1,1.5-0.3s0.9-0.4,1.1-0.6l0,0v1.4c-0.4,0.2-0.9,0.3-1.3,0.4s-0.9,0.2-1.4,0.2
		c-1.2,0-2.2-0.3-2.9-1c-0.7-0.7-1-1.6-1-2.9c0-1.2,0.3-2.2,1-2.9C31-7.3,31.9-7.7,33-7.7c1,0,1.8,0.3,2.3,0.9
		c0.6,0.6,0.8,1.4,0.8,2.5v0.7C36.1-3.6,36.2-3.6,36.2-3.6z M34.9-4.6c0-0.7-0.2-1.2-0.5-1.5c-0.3-0.4-0.8-0.5-1.5-0.5
		S31.7-6.4,31.3-6s-0.6,0.9-0.7,1.5L34.9-4.6L34.9-4.6z"/>
	<path id="path1486" class="st9" d="M45.1-3.8c0,0.6-0.1,1.2-0.3,1.7s-0.4,0.9-0.7,1.3c-0.3,0.3-0.6,0.6-1,0.8s-0.8,0.3-1.3,0.3
		c-0.4,0-0.7,0-1.1-0.1c-0.3-0.1-0.6-0.2-1-0.4v3.1h-1.3V-7.5h1.3v0.8C40-7,40.4-7.2,40.8-7.4c0.4-0.2,0.9-0.3,1.3-0.3
		c0.9,0,1.6,0.3,2.1,1C44.8-6,45.1-5.1,45.1-3.8z M43.8-3.8c0-0.9-0.2-1.6-0.5-2s-0.8-0.7-1.4-0.7c-0.4,0-0.7,0.1-1.1,0.2
		c-0.4,0.2-0.7,0.4-1.1,0.6v4.2c0.4,0.2,0.7,0.3,0.9,0.3C40.9-1,41.2-1,41.5-1c0.7,0,1.3-0.2,1.6-0.7C43.6-2.2,43.8-2.9,43.8-3.8z"
		/>
	<path id="path1488" class="st9" d="M52.7,0h-1.3v-0.8c-0.1,0.1-0.3,0.2-0.5,0.3s-0.4,0.2-0.6,0.3C50.2-0.1,50,0,49.7,0.1
		s-0.6,0.1-1,0.1C48,0.2,47.5,0,47-0.5c-0.5-0.4-0.7-1-0.7-1.7c0-0.6,0.1-1,0.4-1.4c0.2-0.4,0.6-0.6,1-0.8c0.5-0.2,1-0.3,1.6-0.4
		C50-4.9,50.7-4.9,51.5-5v-0.2c0-0.3-0.1-0.5-0.2-0.7c-0.1-0.2-0.2-0.3-0.4-0.4s-0.4-0.2-0.6-0.2c-0.3,0-0.5-0.1-0.8-0.1
		s-0.7,0-1.1,0.1c-0.4,0.1-0.8,0.2-1.3,0.4H47v-1.3c0.2-0.1,0.6-0.1,1.1-0.2s0.9-0.1,1.4-0.1s1,0,1.4,0.1s0.7,0.2,1,0.4
		c0.3,0.2,0.5,0.5,0.6,0.8s0.2,0.7,0.2,1.2V0z M51.5-1.8v-2.1c-0.4,0-0.8,0.1-1.4,0.1c-0.5,0-0.9,0.1-1.2,0.2
		c-0.4,0.1-0.7,0.3-0.9,0.5s-0.3,0.5-0.3,0.9s0.1,0.8,0.4,1C48.3-1.1,48.7-1,49.2-1c0.4,0,0.8-0.1,1.2-0.3
		C50.8-1.4,51.1-1.6,51.5-1.8z"/>
	<path id="path1490" class="st9" d="M58.7-0.1C58.5,0,58.2,0,58,0.1c-0.3,0-0.5,0.1-0.7,0.1c-0.8,0-1.3-0.2-1.7-0.6S55-1.5,55-2.4
		v-4h-1v-1.1h0.9v-2.2h1.3v2.2h2.6v1.1h-2.6V-3c0,0.4,0,0.7,0,0.9s0.1,0.4,0.2,0.6c0.1,0.2,0.2,0.3,0.4,0.4C56.9-1,57.2-1,57.5-1
		c0.2,0,0.5,0,0.7,0c0.2-0.1,0.4-0.1,0.5-0.2h0.1L58.7-0.1z"/>
	<path id="path1492" class="st9" d="M66.5,0h-1.3v-0.8c-0.1,0.1-0.3,0.2-0.5,0.3s-0.4,0.2-0.6,0.3C64-0.1,63.8,0,63.5,0.1
		s-0.6,0.1-1,0.1c-0.7,0-1.2-0.2-1.7-0.7c-0.5-0.4-0.7-1-0.7-1.7c0-0.6,0.1-1,0.4-1.4c0.2-0.4,0.6-0.6,1-0.8c0.5-0.2,1-0.3,1.6-0.4
		s1.3-0.1,2.1-0.2v-0.2c0-0.3-0.1-0.5-0.2-0.7c0-0.1-0.1-0.3-0.3-0.4c-0.2-0.1-0.4-0.2-0.6-0.2c-0.3,0-0.5-0.1-0.8-0.1
		s-0.7,0-1.1,0.1c-0.4,0.1-0.8,0.2-1.3,0.4h-0.1v-1.3c0.2-0.1,0.6-0.1,1.1-0.2s0.9-0.1,1.4-0.1s1,0,1.4,0.1s0.7,0.2,1,0.4
		C66-7,66.2-6.7,66.3-6.4s0.2,0.7,0.2,1.2V0z M65.3-1.8v-2.1c-0.4,0-0.8,0.1-1.4,0.1c-0.5,0-0.9,0.1-1.2,0.2
		c-0.4,0.1-0.7,0.3-0.9,0.5s-0.3,0.5-0.3,0.9s0.1,0.8,0.4,1C62.1-1.1,62.5-1,63-1c0.4,0,0.8-0.1,1.2-0.3C64.6-1.4,64.9-1.6,65.3-1.8
		z"/>
</g>
<g id="text381" transform="translate(1468.57,496.46)">
	<path id="path1495" class="st9" d="M9.1-0.7C8.8-0.6,8.6-0.5,8.4-0.4C8.2-0.3,7.9-0.2,7.6-0.1C7.3,0,7,0,6.7,0.1
		c-0.3,0-0.6,0.1-1,0.1c-0.7,0-1.4-0.1-2-0.3s-1.1-0.5-1.5-1c-0.4-0.4-0.8-1-1-1.6C0.9-3.4,0.8-4.1,0.8-5c0-0.8,0.1-1.6,0.3-2.2
		s0.6-1.2,1-1.6c0.4-0.4,0.9-0.8,1.5-1s1.3-0.3,2-0.3c0.5,0,1.1,0.1,1.6,0.2C7.7-9.8,8.3-9.5,9-9.2v1.6l0,0c-0.6-0.5-1.1-0.8-1.6-1
		S6.2-9,5.6-9c-0.5,0-1,0-1.4,0.2S3.5-8.4,3.1-8C2.8-7.7,2.6-7.3,2.4-6.8C2.2-6.3,2.2-5.7,2.2-5s0.1,1.3,0.3,1.8S2.9-2.3,3.2-2
		s0.7,0.6,1.1,0.7C4.7-1,5.1-1,5.6-1c0.6,0,1.2-0.1,1.8-0.3s1.1-0.5,1.6-1h0.1V-0.7z"/>
	<path id="path1497" class="st9" d="M15.3,0H14v-0.8c-0.1,0.1-0.3,0.2-0.5,0.3s-0.4,0.2-0.6,0.3c-0.2,0.1-0.5,0.2-0.7,0.3
		c-0.3,0.1-0.6,0.1-1,0.1C10.5,0.2,10,0,9.5-0.5s-0.7-1-0.7-1.7c0-0.6,0.1-1,0.4-1.4c0.2-0.4,0.6-0.6,1-0.8c0.5-0.2,1-0.3,1.6-0.4
		S13.3-4.9,14-5v-0.2c0-0.3-0.1-0.5-0.2-0.7c-0.1-0.2-0.2-0.3-0.4-0.4S13-6.5,12.8-6.5c-0.3,0-0.5-0.1-0.8-0.1s-0.7,0-1.1,0.1
		c-0.4,0.1-0.8,0.2-1.3,0.4l0,0v-1.3c0.2-0.1,0.6-0.1,1.1-0.2s0.9-0.1,1.4-0.1s1,0,1.4,0.1s0.7,0.2,1,0.4C14.8-7,15-6.7,15.1-6.4
		s0.2,0.7,0.2,1.2V0z M14-1.8v-2.1c-0.4,0-0.8,0.1-1.4,0.1c-0.5,0-0.9,0.1-1.2,0.2c-0.4,0.1-0.7,0.3-0.9,0.5s-0.3,0.5-0.3,0.9
		s0.1,0.8,0.4,1C10.9-1.1,11.3-1,11.8-1c0.4,0,0.8-0.1,1.2-0.3C13.4-1.4,13.7-1.6,14-1.8z"/>
	<path id="path1499" class="st9" d="M19.4,0h-1.3v-10.4h1.3V0z"/>
	<path id="path1501" class="st9" d="M27.9-0.5c-0.4,0.2-0.8,0.4-1.2,0.5c-0.4,0.1-0.8,0.2-1.2,0.2c-0.5,0-1-0.1-1.5-0.2
		c-0.5-0.2-0.8-0.4-1.2-0.7C22.5-1,22.2-1.4,22-1.9S21.7-3,21.7-3.6c0-1.2,0.3-2.2,1-2.9s1.6-1,2.7-1c0.4,0,0.9,0.1,1.3,0.2
		s0.8,0.3,1.1,0.4v1.4h-0.1c-0.4-0.3-0.8-0.5-1.2-0.7c-0.4-0.2-0.8-0.2-1.2-0.2c-0.7,0-1.3,0.2-1.7,0.7C23.2-5.2,23-4.5,23-3.6
		s0.2,1.6,0.6,2.1s1,0.7,1.7,0.7c0.3,0,0.5,0,0.8-0.1s0.5-0.2,0.7-0.3s0.4-0.2,0.5-0.3c0.2-0.1,0.3-0.2,0.4-0.3h0.1L27.9-0.5
		L27.9-0.5z"/>
	<path id="path1503" class="st9" d="M35.8,0h-1.3v-0.8c-0.1,0.1-0.3,0.2-0.5,0.3s-0.4,0.2-0.6,0.3C33.3-0.1,33,0,32.8,0.1
		c-0.3,0.1-0.6,0.1-1,0.1c-0.7,0-1.2-0.2-1.7-0.7s-0.7-1-0.7-1.7c0-0.6,0.1-1,0.4-1.4c0.2-0.4,0.6-0.6,1-0.8c0.5-0.2,1-0.3,1.6-0.4
		C33-4.9,33.7-4.9,34.5-5v-0.2c0-0.3-0.1-0.5-0.2-0.7c-0.1-0.2-0.2-0.3-0.4-0.4s-0.4-0.2-0.6-0.2c-0.3,0-0.5-0.1-0.8-0.1
		s-0.7,0-1.1,0.1s-0.8,0.2-1.3,0.4H30v-1.3c0.2-0.1,0.6-0.1,1.1-0.2s0.9-0.1,1.4-0.1s1,0,1.4,0.1s0.7,0.2,1,0.4
		c0.3,0.2,0.5,0.5,0.6,0.8s0.2,0.7,0.2,1.2L35.8,0L35.8,0z M34.5-1.8v-2.1c-0.4,0-0.8,0.1-1.4,0.1c-0.5,0-0.9,0.1-1.2,0.2
		c-0.4,0.1-0.7,0.3-0.9,0.5c-0.2,0.2-0.3,0.5-0.3,0.9s0.1,0.8,0.4,1C31.3-1.1,31.7-1,32.3-1c0.4,0,0.8-0.1,1.2-0.3
		C33.8-1.4,34.2-1.6,34.5-1.8z"/>
</g>
<path id="path1506" class="st9" d="M1222.8,478.4l-3.5,5.6v4.4h-1.3v-4.2l-3.5-5.8h1.5l2.7,4.5l2.8-4.5H1222.8z"/>
<path id="path1508" class="st9" d="M1228.9,488.4h-1.3v-0.8c-0.4,0.3-0.8,0.6-1.2,0.8c-0.4,0.2-0.8,0.3-1.3,0.3
	c-0.8,0-1.4-0.2-1.8-0.7s-0.7-1.2-0.7-2.1V481h1.3v4.3c0,0.4,0,0.7,0.1,1c0,0.3,0.1,0.5,0.2,0.7s0.3,0.3,0.5,0.4s0.5,0.1,0.8,0.1
	s0.7-0.1,1.1-0.3c0.4-0.2,0.8-0.4,1.1-0.7v-5.6h1.3L1228.9,488.4L1228.9,488.4z"/>
<path id="path1510" class="st9" d="M1237.3,487.9c-0.4,0.2-0.8,0.4-1.2,0.5c-0.4,0.1-0.8,0.2-1.2,0.2c-0.5,0-1-0.1-1.5-0.2
	c-0.5-0.2-0.8-0.4-1.2-0.7c-0.3-0.3-0.6-0.7-0.8-1.2c-0.2-0.5-0.3-1.1-0.3-1.7c0-1.2,0.3-2.2,1-2.9c0.7-0.7,1.6-1,2.7-1
	c0.4,0,0.9,0.1,1.3,0.2s0.8,0.3,1.1,0.4v1.4h-0.1c-0.4-0.3-0.8-0.5-1.2-0.7c-0.4-0.2-0.8-0.2-1.2-0.2c-0.7,0-1.3,0.2-1.7,0.7
	c-0.4,0.5-0.6,1.2-0.6,2.1s0.2,1.6,0.6,2.1s1,0.7,1.7,0.7c0.3,0,0.5,0,0.8-0.1s0.5-0.2,0.7-0.3c0.2-0.1,0.4-0.2,0.5-0.3
	c0.2-0.1,0.3-0.2,0.4-0.3h0.1L1237.3,487.9L1237.3,487.9z"/>
<path id="path1512" class="st9" d="M1245.7,488.4h-1.3v-0.8c-0.1,0.1-0.3,0.2-0.5,0.3c-0.2,0.1-0.4,0.2-0.6,0.3
	c-0.2,0.1-0.5,0.2-0.7,0.3c-0.3,0.1-0.6,0.1-1,0.1c-0.7,0-1.2-0.2-1.7-0.7c-0.5-0.4-0.7-1-0.7-1.7c0-0.6,0.1-1,0.4-1.4
	c0.2-0.4,0.6-0.6,1-0.8c0.5-0.2,1-0.3,1.6-0.4s1.3-0.1,2.1-0.2v-0.2c0-0.3-0.1-0.5-0.2-0.7s-0.2-0.3-0.4-0.4
	c-0.2-0.1-0.4-0.2-0.6-0.2c-0.3,0-0.5-0.1-0.8-0.1s-0.7,0-1.1,0.1s-0.8,0.2-1.3,0.4h-0.1V481c0.2-0.1,0.6-0.1,1.1-0.2
	s0.9-0.1,1.4-0.1s1,0,1.4,0.1s0.7,0.2,1,0.4c0.3,0.2,0.5,0.5,0.6,0.8s0.2,0.7,0.2,1.2v5.2H1245.7z M1244.4,486.5v-2.1
	c-0.4,0-0.8,0.1-1.4,0.1c-0.5,0-0.9,0.1-1.2,0.2c-0.4,0.1-0.7,0.3-0.9,0.5c-0.2,0.2-0.3,0.5-0.3,0.9s0.1,0.8,0.4,1s0.7,0.3,1.2,0.3
	c0.4,0,0.8-0.1,1.2-0.3C1243.8,487,1244.1,486.8,1244.4,486.5z"/>
<path id="path1514" class="st9" d="M1254.4,480.9l-4.4,10.3h-1.3l1.4-3.1l-3-7.1h1.4l2.3,5.6l2.3-5.6L1254.4,480.9L1254.4,480.9z"/>
<g id="text395" transform="translate(1534.28,578.22)">
	<path id="path1517" class="st9" d="M7.7,0H1.3v-10h1.3v8.8h5L7.7,0L7.7,0z"/>
	<path id="path1519" class="st9" d="M15.1,0h-1.3v-0.8c-0.1,0.1-0.3,0.2-0.5,0.3s-0.4,0.2-0.6,0.3C12.5-0.1,12.2,0,12,0.1
		c-0.3,0.1-0.6,0.1-1,0.1c-0.7,0-1.2-0.2-1.7-0.7s-0.7-1-0.7-1.7c0-0.6,0.1-1,0.4-1.4C9.2-4,9.6-4.2,10-4.4c0.5-0.2,1-0.3,1.6-0.4
		s1.3-0.1,2.1-0.2v-0.2c0-0.3-0.1-0.5-0.2-0.7c-0.1-0.2-0.2-0.3-0.4-0.4s-0.4-0.2-0.6-0.2c-0.3,0-0.5-0.1-0.8-0.1s-0.7,0-1.1,0.1
		c-0.4,0.1-0.8,0.2-1.3,0.4h0.1v-1.3c0.2-0.1,0.6-0.1,1.1-0.2s0.9-0.1,1.4-0.1s1,0,1.4,0.1s0.7,0.2,1,0.4c0.3,0.2,0.5,0.5,0.6,0.8
		s0.2,0.7,0.2,1.2V0z M13.9-1.8v-2.1c-0.4,0-0.8,0.1-1.4,0.1c-0.5,0-0.9,0.1-1.2,0.2c-0.4,0.1-0.7,0.3-0.9,0.5s-0.3,0.5-0.3,0.9
		s0.1,0.8,0.4,1C10.7-1.1,11.1-1,11.6-1c0.4,0,0.8-0.1,1.2-0.3C13.2-1.4,13.6-1.6,13.9-1.8z"/>
	<path id="path1521" class="st9" d="M28.3,0H27v-4.3c0-0.3,0-0.6,0-0.9s-0.1-0.5-0.2-0.7s-0.3-0.3-0.4-0.4s-0.5-0.1-0.8-0.1
		c-0.4,0-0.7,0.1-1.1,0.3c-0.4,0.2-0.7,0.4-1.1,0.7c0,0.1,0,0.2,0,0.4c0,0.1,0,0.3,0,0.4V0h-1.3v-4.3c0-0.3,0-0.6,0-0.9
		S22-5.7,21.9-5.9s-0.3-0.3-0.4-0.4c-0.2-0.1-0.5-0.1-0.8-0.1s-0.7,0.1-1,0.3c-0.3,0.2-0.7,0.4-1,0.7V0h-1.3v-7.5h1.3v0.8
		C19-7,19.4-7.2,19.8-7.4c0.4-0.2,0.8-0.3,1.3-0.3s0.9,0.1,1.3,0.3c0.4,0.2,0.6,0.5,0.8,0.9c0.5-0.4,1-0.7,1.4-0.9
		c0.4-0.2,0.9-0.3,1.3-0.3c0.8,0,1.4,0.3,1.8,0.8s0.6,1.2,0.6,2.1L28.3,0z"/>
	<path id="path1523" class="st9" d="M35.9,0h-1.3v-0.8c-0.1,0.1-0.3,0.2-0.5,0.3s-0.4,0.2-0.6,0.3C33.3-0.1,33,0,32.8,0.1
		c-0.3,0.1-0.6,0.1-1,0.1c-0.7,0-1.2-0.2-1.7-0.7s-0.7-1-0.7-1.7c0-0.6,0.1-1,0.4-1.4c0.2-0.4,0.6-0.6,1-0.8c0.5-0.2,1-0.3,1.6-0.4
		C33-4.9,33.7-4.9,34.5-5v-0.2c0-0.3-0.1-0.5-0.2-0.7c-0.1-0.2-0.2-0.3-0.4-0.4s-0.4-0.2-0.6-0.2s-0.5-0.1-0.8-0.1s-0.7,0-1.1,0.1
		s-0.8,0.2-1.3,0.4H30v-1.3c0.2-0.1,0.6-0.1,1.1-0.2s0.9-0.1,1.4-0.1s1,0,1.4,0.1s0.7,0.2,1,0.4c0.3,0.2,0.5,0.5,0.6,0.8
		s0.2,0.7,0.2,1.2L35.9,0z M34.7-1.8v-2.1c-0.4,0-0.8,0.1-1.4,0.1c-0.5,0-0.9,0.1-1.2,0.2c-0.4,0.1-0.7,0.3-0.9,0.5
		c-0.2,0.2-0.3,0.5-0.3,0.9s0.1,0.8,0.4,1C31.5-1.1,31.9-1,32.4-1c0.4,0,0.8-0.1,1.2-0.3C34-1.4,34.4-1.6,34.7-1.8z"/>
	<path id="path1525" class="st9" d="M43.9-7.5L39.5,2.8h-1.3l1.4-3.1l-3-7.1H38l2.3,5.6l2.3-5.6h1.3C43.9-7.4,43.9-7.5,43.9-7.5z"/>
</g>
<g id="text399" transform="translate(1677.88,695.29)">
	<path id="path1528" class="st9" d="M7.9-7c0,0.4-0.1,0.9-0.2,1.2C7.5-5.4,7.3-5,7-4.8C6.7-4.4,6.3-4.2,5.8-4C5.3-3.8,4.7-3.7,4-3.7
		H2.7V0H1.3v-10H4c0.6,0,1.1,0.1,1.5,0.2C6-9.7,6.4-9.6,6.7-9.4c0.4,0.3,0.7,0.6,0.9,1S7.9-7.6,7.9-7z M6.5-6.9
		c0-0.3-0.1-0.6-0.2-0.9C6.2-8.1,6-8.3,5.8-8.5C5.6-8.6,5.3-8.7,5-8.8c-0.2,0-0.6-0.1-1-0.1H2.7v4h1.1c0.5,0,1,0,1.3-0.1
		s0.6-0.3,0.8-0.5c0.2-0.2,0.4-0.4,0.4-0.7C6.5-6.4,6.5-6.6,6.5-6.9z"/>
	<path id="path1530" class="st9" d="M10,0H8.7v-7.5H10V0z M11.3-11.3L9.5-8.7h-1l1.2-2.5h1.6V-11.3z"/>
	<path id="path1532" class="st9" d="M18.2-2.2c0,0.7-0.3,1.2-0.9,1.7C16.7-0.1,16,0.2,15,0.2c-0.6,0-1.1-0.1-1.5-0.2
		c-0.5-0.1-0.8-0.3-1.2-0.4v-1.4h0.1c0.4,0.3,0.8,0.5,1.3,0.7s1,0.3,1.4,0.3c0.6,0,1-0.1,1.3-0.3s0.5-0.5,0.5-0.8s-0.1-0.5-0.3-0.7
		s-0.5-0.3-1-0.4c-0.2,0-0.4-0.1-0.7-0.1c-0.3-0.1-0.5-0.1-0.8-0.2c-0.7-0.2-1.1-0.4-1.4-0.8c-0.3-0.3-0.4-0.8-0.4-1.2
		c0-0.3,0.1-0.6,0.2-0.9c0.1-0.3,0.3-0.5,0.6-0.7s0.6-0.4,1-0.5s0.8-0.2,1.3-0.2c0.4,0,0.9,0.1,1.4,0.2s0.8,0.2,1.1,0.4v1.3h-0.1
		c-0.3-0.2-0.7-0.4-1.2-0.6s-0.9-0.2-1.4-0.2S14.3-6.4,14-6.2c-0.3,0.2-0.5,0.4-0.5,0.8c0,0.3,0.1,0.5,0.3,0.7s0.5,0.3,0.9,0.4
		c0.2,0.1,0.5,0.1,0.8,0.2S16-4,16.2-4c0.6,0.1,1,0.4,1.4,0.7C18.1-3.1,18.2-2.7,18.2-2.2z"/>
	<path id="path1534" class="st9" d="M26.3,0H25v-0.8c-0.1,0.1-0.3,0.2-0.5,0.3s-0.4,0.2-0.6,0.3S23.4,0,23.2,0.1
		c-0.3,0.1-0.6,0.1-1,0.1c-0.7,0-1.2-0.2-1.7-0.7s-0.7-1-0.7-1.7c0-0.6,0.1-1,0.4-1.4c0.2-0.4,0.6-0.6,1-0.8c0.5-0.2,1-0.3,1.6-0.4
		S24.3-4.9,25-5v-0.2c0-0.3-0.1-0.5-0.2-0.7s-0.2-0.3-0.4-0.4c-0.2-0.1-0.4-0.2-0.6-0.2S23.3-6.6,23-6.6s-0.7,0-1.1,0.1
		s-0.8,0.2-1.3,0.4h-0.1v-1.3c0.2-0.1,0.6-0.1,1.1-0.2s0.9-0.1,1.4-0.1s1,0,1.4,0.1s0.7,0.2,1,0.4C25.7-7,25.9-6.7,26-6.4
		s0.2,0.7,0.2,1.2L26.3,0z M25-1.8v-2.1c-0.4,0-0.8,0.1-1.4,0.1c-0.5,0-0.9,0.1-1.2,0.2c-0.4,0.1-0.7,0.3-0.9,0.5
		c-0.2,0.2-0.3,0.5-0.3,0.9s0.1,0.8,0.4,1C21.9-1.1,22.3-1,22.8-1c0.4,0,0.8-0.1,1.2-0.3C24.4-1.4,24.7-1.6,25-1.8z"/>
	<path id="path1536" class="st9" d="M34.7-0.5c-0.4,0.2-0.8,0.4-1.2,0.5s-0.8,0.2-1.2,0.2c-0.5,0-1-0.1-1.5-0.2
		c-0.5-0.2-0.8-0.4-1.2-0.7C29.3-1,29-1.4,28.8-1.9S28.5-3,28.5-3.6c0-1.2,0.3-2.2,1-2.9s1.6-1,2.7-1c0.4,0,0.9,0.1,1.3,0.2
		C34-7.4,34.3-7.2,34.7-7v1.4h-0.1c-0.4-0.3-0.8-0.5-1.2-0.7s-0.8-0.2-1.2-0.2c-0.7,0-1.3,0.2-1.7,0.7c-0.4,0.5-0.6,1.2-0.6,2.1
		s0.2,1.6,0.6,2.1s1,0.7,1.7,0.7c0.3,0,0.5,0,0.8-0.1s0.5-0.2,0.7-0.3s0.4-0.2,0.5-0.3c0.2-0.1,0.3-0.2,0.4-0.3h0.1V-0.5z"/>
</g>
<g id="text405" transform="translate(1225.96,303.89)">
	<path id="path1539" class="st9" d="M9.1-0.7C8.8-0.6,8.6-0.5,8.4-0.4C8.2-0.3,7.9-0.2,7.6-0.1C7.3,0,7,0,6.7,0.1
		c-0.3,0-0.6,0.1-1,0.1c-0.7,0-1.4-0.1-2-0.3s-1.1-0.5-1.5-1c-0.4-0.4-0.8-1-1-1.6C0.9-3.4,0.8-4.1,0.8-5c0-0.8,0.1-1.6,0.3-2.2
		s0.6-1.2,1-1.6c0.4-0.4,0.9-0.8,1.5-1s1.3-0.3,2-0.3c0.5,0,1.1,0.1,1.6,0.2C7.7-9.8,8.3-9.5,9-9.2v1.6l0,0c-0.6-0.5-1.1-0.8-1.6-1
		S6.2-9,5.6-9c-0.5,0-1,0-1.4,0.2S3.5-8.4,3.1-8C2.8-7.7,2.6-7.3,2.4-6.8C2.2-6.3,2.2-5.7,2.2-5s0.1,1.3,0.3,1.8S2.9-2.3,3.2-2
		s0.7,0.6,1.1,0.7C4.7-1,5.1-1,5.6-1c0.6,0,1.2-0.1,1.8-0.3s1.1-0.5,1.6-1h0.1V-0.7z"/>
	<path id="path1541" class="st9" d="M17.5,0h-1.3v-4.3c0-0.3,0-0.7-0.1-1c0-0.3-0.1-0.5-0.2-0.7c-0.1-0.2-0.3-0.3-0.5-0.4
		s-0.5-0.1-0.8-0.1s-0.7,0.1-1.1,0.3s-0.7,0.4-1.1,0.7V0h-1.3v-10.4h1.3v3.8c0.4-0.3,0.8-0.6,1.2-0.8s0.9-0.3,1.3-0.3
		c0.8,0,1.4,0.2,1.9,0.7s0.6,1.2,0.6,2.1L17.5,0z"/>
	<path id="path1543" class="st9" d="M21.7-8.8h-1.4v-1.3h1.4V-8.8z M21.7,0h-1.3v-7.5h1.3V0z"/>
	<path id="path1545" class="st9" d="M29.5-0.5c-0.4,0.2-0.8,0.4-1.2,0.5c-0.4,0.1-0.8,0.2-1.2,0.2c-0.5,0-1-0.1-1.5-0.2
		c-0.5-0.2-0.8-0.4-1.2-0.7c-0.3-0.3-0.6-0.7-0.8-1.2c-0.2-0.5-0.3-1.1-0.3-1.7c0-1.2,0.3-2.2,1-2.9s1.6-1,2.7-1
		c0.4,0,0.9,0.1,1.3,0.2s0.8,0.3,1.1,0.4v1.4h-0.1c-0.4-0.3-0.8-0.5-1.2-0.7c-0.4-0.2-0.8-0.2-1.2-0.2c-0.7,0-1.3,0.2-1.7,0.7
		c-0.4,0.5-0.6,1.2-0.6,2.1s0.2,1.6,0.6,2.1s1,0.7,1.7,0.7c0.3,0,0.5,0,0.8-0.1s0.5-0.2,0.7-0.3s0.4-0.2,0.5-0.3
		c0.2-0.1,0.3-0.2,0.4-0.3h0.1L29.5-0.5z"/>
	<path id="path1547" class="st9" d="M37.6-3.7c0,1.2-0.3,2.2-0.9,2.9c-0.6,0.7-1.5,1.1-2.5,1.1c-1.1,0-1.9-0.4-2.5-1.1
		c-0.6-0.7-0.9-1.7-0.9-2.9s0.3-2.2,0.9-2.9c0.6-0.7,1.5-1.1,2.5-1.1c1.1,0,1.9,0.4,2.5,1.1C37.3-5.9,37.6-5,37.6-3.7z M36.3-3.7
		c0-1-0.2-1.7-0.6-2.2c-0.4-0.5-0.9-0.7-1.6-0.7c-0.7,0-1.2,0.2-1.6,0.7C32.2-5.4,32-4.7,32-3.7c0,0.9,0.2,1.7,0.6,2.1
		c0.4,0.5,0.9,0.7,1.6,0.7c0.7,0,1.2-0.2,1.6-0.7C36.1-2.1,36.3-2.8,36.3-3.7z M36.2-11.3l-1.8,2.5h-1l1.2-2.5H36.2z"/>
	<path id="path1549" class="st9" d="M46.2,0H45v-4.3c0-0.3,0-0.7-0.1-1c0-0.3-0.1-0.5-0.2-0.7c-0.1-0.2-0.3-0.3-0.5-0.4
		s-0.5-0.1-0.8-0.1s-0.7,0.1-1.1,0.3c-0.4,0.2-0.7,0.4-1.1,0.7V0H40v-7.5h1.3v0.8C41.6-7,42-7.2,42.4-7.4s0.9-0.3,1.3-0.3
		c0.8,0,1.4,0.2,1.9,0.7c0.4,0.5,0.6,1.2,0.6,2.1V0z"/>
</g>
<g id="text407" transform="translate(233.84,247.31)">
	<path id="path1552" class="st8" d="M4.8-5.8l-2.4-5.8H1.2V0h1.2v-8.8l0,0l2.4,5.7l2.4-5.7l0,0V0h1.2v-11.5H7.2L4.8-5.8z"/>
	<path id="path1554" class="st8" d="M12.1-7.1c0.7-0.3,1.4-0.6,2.1-0.6c0.9,0,1.5,0.7,1.5,1.6v0.8c-0.5-0.2-1.2-0.4-1.8-0.4
		c-1.7,0-2.7,1.4-2.7,3.1c0,1.5,0.9,2.8,2.6,2.8c0.9,0,1.6-0.4,2.1-1l0.3,1.1l1.1-0.1C17.1-0.7,17-1.5,17-2.3V-6
		c0-1.4-1-2.8-2.6-2.8c-0.9,0-1.7,0.3-2.5,0.6L12.1-7.1z M15.8-2.3c-0.5,0.7-1.1,1.5-2,1.5s-1.3-0.9-1.3-1.7c0-1.1,0.5-2.1,1.7-2.1
		c0.6,0,1.1,0.2,1.6,0.4V-2.3z"/>
	<path id="path1556" class="st8" d="M26.8-2.2c-0.6,0.7-1.3,1.4-2.3,1.4c-1.1,0-2.5-0.8-2.5-3.5c0-2.5,1.2-3.4,2.5-3.4
		c1.1,0,1.7,0.7,2.1,1.6l1-0.7c-0.8-1.1-1.7-1.9-3.2-1.9c-1.7,0-3.7,1.1-3.7,4.6c0,3.4,2.1,4.4,3.7,4.4c1.3,0,2.2-0.6,3.1-1.6
		L26.8-2.2z"/>
	<path id="path1558" class="st8" d="M30.7,0h1.2v-3.2c0-1.1,0-2,0.4-3c0.4-0.8,1.2-1.6,2.1-1.6c1.1,0,1.1,1.9,1.1,2.7v5h1.2V-5
		c0-3.5-1.2-3.8-2.2-3.8c-1.1,0-2,0.6-2.6,1.4V-12h-1.2C30.7-12,30.7,0,30.7,0z"/>
	<path id="path1560" class="st8" d="M45.1-5.1c0,2.9-1.4,4.2-2.6,4.2c-1.1,0-1.1-1.3-1.1-2.1v-5.6h-1.2v6c0,1.5,0.6,2.8,2.2,2.8
		c1.1,0,2.3-0.9,2.8-1.8L45.6,0h1.1c-0.3-1.5-0.4-2.9-0.4-4.4v-4.2h-1.2C45.1-8.6,45.1-5.1,45.1-5.1z"/>
	<path id="path1562" class="st8" d="M59.9,0h1.2v-4.5h1c2.3,0,3.9-1,3.9-3.5c0-2.3-1.2-3.5-3.3-3.5h-2.8V0z M61.1-5.5v-5h1.4
		c1.4,0,2.3,0.7,2.3,2.5c0,1.6-0.9,2.5-2.3,2.5H61.1z"/>
	<path id="path1564" class="st8" d="M71.8,0H73v-8.6h-3.6v1h2.4V0z M72.3-11.8c-0.6,0-1,0.4-1,1s0.4,1,1,1s1-0.4,1-1
		S72.9-11.8,72.3-11.8z"/>
	<path id="path1566" class="st8" d="M84.5-2.2c-0.6,0.7-1.3,1.4-2.3,1.4c-1.1,0-2.5-0.8-2.5-3.5c0-2.5,1.2-3.4,2.5-3.4
		c1.1,0,1.7,0.7,2.1,1.6l1-0.7c-0.8-1.1-1.7-1.9-3.2-1.9c-1.7,0-3.7,1.1-3.7,4.6c0,3.4,2.1,4.4,3.7,4.4c1.3,0,2.2-0.6,3.1-1.6
		L84.5-2.2z"/>
	<path id="path1568" class="st8" d="M94.1-2.2c-0.6,0.7-1.3,1.4-2.3,1.4c-1.1,0-2.5-0.8-2.5-3.5c0-2.5,1.2-3.4,2.5-3.4
		c1.1,0,1.7,0.7,2.1,1.6l1-0.7c-0.8-1.1-1.7-1.9-3.2-1.9C90-8.7,88-7.6,88-4.1c0,3.4,2.1,4.4,3.7,4.4c1.3,0,2.2-0.6,3.1-1.6
		L94.1-2.2z"/>
	<path id="path1570" class="st8" d="M98.1,0h1.2v-3.2c0-1.1,0-2,0.4-3c0.4-0.8,1.2-1.6,2.1-1.6c1.1,0,1.1,1.9,1.1,2.7v5h1.2V-5
		c0-3.5-1.2-3.8-2.2-3.8c-1.1,0-2,0.6-2.6,1.4V-12h-1.2V0z"/>
	<path id="path1572" class="st8" d="M112.5-5.1c0,2.9-1.4,4.2-2.6,4.2c-1.1,0-1.1-1.3-1.1-2.1v-5.6h-1.2v6c0,1.5,0.6,2.8,2.2,2.8
		c1.1,0,2.3-0.9,2.8-1.8l0.3,1.7h1.1c-0.3-1.5-0.4-2.9-0.4-4.4v-4.2h-1.2L112.5-5.1z"/>
</g>
<path id="path423" class="st10" d="M485.2,675.2c4.9-5.5,7-14.5,11.5-21.8c3.7-6,6.4-9.5,11.3-12.5"/>
<path id="path425" class="st10" d="M498.7,680.5c2.6-5,4.6-11,7.7-16.1c4.6-7.6,4.3-9.1,11.7-14.7"/>
<path id="line427" class="st10" d="M485.8,669.5l17.8,8.4"/>
<path id="line429" class="st10" d="M488.3,665.1l17.8,8.4"/>
<path id="line431" class="st10" d="M490.2,660.3l17.8,8.4"/>
<path id="line433" class="st10" d="M492.5,656.1l17.8,8.4"/>
<path id="line435" class="st10" d="M494.7,650.5l17.8,8.4"/>
<path id="line437" class="st10" d="M499.1,644.9l16.7,10.4"/>
<g id="layer1" inkscape:groupmode="layer" inkscape:label="puntos" class="st11">
	<path id="path410" class="st12" d="M398.5,159.7c0,6.1-4.9,11-10.9,11c-6.1,0-11-4.9-11-10.9c0-6.1,4.9-11,10.9-11l0,0
		C393.5,148.7,398.4,153.6,398.5,159.7z"/>
	<path id="path412" class="st12" d="M1055.6,217.1c0,6.1-4.9,11-11,11s-11-4.9-11-11s4.9-11,11-11l0,0
		C1050.7,206.1,1055.6,211,1055.6,217.1L1055.6,217.1z"/>
	<path id="path414" class="st12" d="M930.7,363.8c0,6.1-4.9,11-11,11s-11-4.9-11-11s4.9-11,11-11l0,0
		C925.7,352.8,930.7,357.7,930.7,363.8z"/>
	<path id="path416" class="st12" d="M1103.3,525.5c0,6.1-4.9,11-11,11s-11-4.9-11-11s4.9-11,11-11S1103.3,519.4,1103.3,525.5
		L1103.3,525.5z"/>
	<path id="path418" class="st12" d="M1273.7,660.4c0,6.1-4.9,11-11,11s-11-4.9-11-11s4.9-11,11-11l0,0
		C1268.7,649.4,1273.7,654.3,1273.7,660.4z"/>
	<path id="path420" class="st12" d="M1473.9,886.2c0,6.1-4.9,11-11,11s-11-4.9-11-11s4.9-11,11-11l0,0
		C1468.9,875.2,1473.9,880.1,1473.9,886.2C1474,886.1,1474,886.1,1473.9,886.2z"/>
</g>
<g>
	<path class="st13" d="M1017.9,435.6c-0.6-0.5-1.3-1.1-2.1-1.1c-0.9,0-1.6,0.6-1.6,1.5c0,0.5,0.1,1,1.4,1.8l0.8,0.5
		c1.8,1.1,2.3,1.6,2.3,2.8c0,1.8-1.2,2.8-2.9,2.8c-1.3,0-2.2-0.6-3-1.6l0.8-0.6c0.5,0.8,1.3,1.4,2.2,1.4c1,0,1.9-0.8,1.9-1.8
		c0-0.8-0.1-1.1-1.8-2.1l-0.9-0.5c-1-0.6-1.8-1.3-1.8-2.5c0-1.6,1.2-2.4,2.7-2.4c1,0,2,0.6,2.7,1.2L1017.9,435.6z"/>
	<path class="st13" d="M1021.7,436.7c0.7-0.3,1.3-0.5,2.1-0.5c1.4,0,2.3,1.2,2.3,2.4v3.2c0,0.7,0.1,1.4,0.3,2l-1,0.1l-0.3-0.9
		c-0.5,0.6-1.1,0.9-1.8,0.9c-1.4,0-2.2-1.1-2.2-2.4c0-1.4,0.9-2.7,2.4-2.7c0.6,0,1.1,0.2,1.5,0.4v-0.7c0-0.8-0.5-1.4-1.3-1.4
		c-0.6,0-1.3,0.3-1.8,0.5L1021.7,436.7z M1025.1,440c-0.4-0.2-0.9-0.4-1.4-0.4c-1,0-1.5,0.9-1.5,1.8c0,0.7,0.4,1.5,1.2,1.5
		s1.3-0.7,1.7-1.3V440z"/>
	<path class="st13" d="M1031.8,434.3h-2.1v-0.9h3.1v10.2h-1V434.3z"/>
	<path class="st13" d="M1042.7,437.2h-2.6v4.2c0,0.7,0,1.6,0.9,1.6c0.8,0,1.3-0.6,1.6-1.3l1,0.2c-0.5,1.1-1.3,1.9-2.6,1.9
		c-1.2,0-2-0.6-2-2.8v-3.9h-1.6v-0.9h1.6v-2.3h1v2.3h2.6L1042.7,437.2L1042.7,437.2z"/>
	<path class="st13" d="M1054.7,433.8h2.4c1.8,0,2.8,1.1,2.8,3c0,2.1-1.4,3-3.3,3h-0.9v3.9h-1V433.8z M1056.8,438.9
		c1.2,0,2-0.7,2-2.1c0-1.6-0.7-2.2-1.9-2.2h-1.2v4.3L1056.8,438.9L1056.8,438.9z"/>
	<path class="st13" d="M1063,436.7c0.7-0.3,1.3-0.5,2.1-0.5c1.4,0,2.3,1.2,2.3,2.4v3.2c0,0.7,0.1,1.4,0.3,2l-1,0.1l-0.3-0.9
		c-0.5,0.6-1.1,0.9-1.8,0.9c-1.4,0-2.2-1.1-2.2-2.4c0-1.4,0.9-2.7,2.4-2.7c0.6,0,1.1,0.2,1.5,0.4v-0.7c0-0.8-0.5-1.4-1.3-1.4
		c-0.6,0-1.3,0.3-1.8,0.5L1063,436.7z M1066.3,440c-0.4-0.2-0.9-0.4-1.4-0.4c-1,0-1.5,0.9-1.5,1.8c0,0.7,0.4,1.5,1.2,1.5
		c0.8,0,1.3-0.7,1.7-1.3L1066.3,440L1066.3,440z"/>
	<path class="st13" d="M1071.9,443.7h-1V440c0-1.2-0.1-2.5-0.3-3.7h1l0.2,1.3c0.5-0.9,1.5-1.5,2.5-1.5c1.2,0,1.8,1.1,1.8,2.3v5.2h-1
		v-4.9c0-0.7,0-1.8-0.9-1.8c-1,0-2.2,1-2.2,3.6L1071.9,443.7L1071.9,443.7z"/>
	<path class="st13" d="M1083.5,437.9c-0.6-0.4-1.2-0.8-2-0.8c-0.6,0-1.2,0.5-1.2,1.1c0,0.7,0.9,1.1,1.4,1.3c1.2,0.4,2.4,0.9,2.4,2.4
		c0,1.2-1.1,2-2.2,2s-2.2-0.6-3-1.3l0.6-0.8c0.6,0.6,1.5,1.2,2.4,1.2c0.7,0,1.3-0.4,1.3-1.1c0-1-0.8-1.2-1.5-1.5
		c-1-0.4-2.3-0.9-2.3-2.2c0-1.1,1-1.9,2.3-1.9c0.9,0,1.6,0.3,2.4,0.9L1083.5,437.9z"/>
	<path class="st13" d="M1016.9,457.2c0-2.8,1.5-3.8,2.9-3.8c2.6,0,2.9,2.6,2.9,3.8c0,2.8-1.5,3.8-2.9,3.8
		C1018.5,461,1016.9,460.2,1016.9,457.2z M1021.7,457.2c0-1.3-0.3-3-1.9-3s-1.9,1.7-1.9,3s0.3,3,1.9,3S1021.7,458.5,1021.7,457.2z"
		/>
	<path class="st13" d="M1031.3,452.3c-0.6-0.2-1.2-0.7-1.9-0.7c-0.9,0-1.3,0.6-1.3,1.5v0.8h2.4v0.9h-2.4v6h-1v-6h-1.8V454h1.8v-0.7
		c0-1.7,1.2-2.5,2.3-2.5c0.7,0,1.3,0.2,1.9,0.5V452.3z"/>
	<path class="st13" d="M1046.6,451h1v9.9h-1v-7.5l0,0l-2,4.9l-2-4.9l0,0v7.5h-1V451h1l2.1,4.9L1046.6,451z"/>
	<path class="st13" d="M1050.6,453.9c0.7-0.3,1.3-0.5,2.1-0.5c1.4,0,2.3,1.2,2.3,2.4v3.2c0,0.7,0.1,1.4,0.3,2l-1,0.1l-0.3-0.9
		c-0.5,0.6-1.1,0.9-1.8,0.9c-1.4,0-2.2-1.1-2.2-2.4c0-1.4,0.9-2.7,2.4-2.7c0.6,0,1.1,0.2,1.5,0.4v-0.7c0-0.8-0.5-1.4-1.3-1.4
		c-0.6,0-1.3,0.3-1.8,0.5L1050.6,453.9z M1054,457.2c-0.4-0.2-0.9-0.4-1.4-0.4c-1,0-1.5,0.9-1.5,1.8c0,0.7,0.4,1.5,1.2,1.5
		c0.8,0,1.3-0.7,1.7-1.3L1054,457.2L1054,457.2z"/>
	<path class="st13" d="M1060.1,460.9h-1v-4.2c0-1.2-0.1-2.2-0.3-3.1h1l0.2,1.4c0.6-0.9,1.2-1.6,2.3-1.6c1.4,0,1.7,1.3,1.7,2.5h-1
		c0-0.6,0.1-1.6-0.7-1.6c-0.8,0-2.1,1.2-2.1,3.6L1060.1,460.9L1060.1,460.9z"/>
	<path class="st13" d="M1067.1,453.9c0.7-0.3,1.3-0.5,2.1-0.5c1.4,0,2.3,1.2,2.3,2.4v3.2c0,0.7,0.1,1.4,0.3,2l-1,0.1l-0.3-0.9
		c-0.5,0.6-1.1,0.9-1.8,0.9c-1.4,0-2.2-1.1-2.2-2.4c0-1.4,0.9-2.7,2.4-2.7c0.6,0,1.1,0.2,1.5,0.4v-0.7c0-0.8-0.5-1.4-1.3-1.4
		c-0.6,0-1.3,0.3-1.8,0.5L1067.1,453.9z M1070.5,457.2c-0.4-0.2-0.9-0.4-1.4-0.4c-1,0-1.5,0.9-1.5,1.8c0,0.7,0.4,1.5,1.2,1.5
		c0.8,0,1.3-0.7,1.7-1.3L1070.5,457.2L1070.5,457.2z"/>
	<path class="st13" d="M1079.4,455.1c-0.6-0.4-1.2-0.8-2-0.8c-0.6,0-1.2,0.5-1.2,1.1c0,0.7,0.9,1.1,1.4,1.3c1.2,0.4,2.4,0.9,2.4,2.4
		c0,1.2-1.1,2-2.2,2s-2.2-0.6-3-1.3l0.6-0.8c0.6,0.6,1.5,1.2,2.4,1.2c0.7,0,1.3-0.4,1.3-1.1c0-1-0.8-1.2-1.5-1.5
		c-1-0.4-2.3-0.9-2.3-2.2c0-1.1,1-1.9,2.3-1.9c0.9,0,1.6,0.3,2.4,0.9L1079.4,455.1z"/>
</g>
<g>
	<path class="st14" d="M539.4,659.6h3c2.9,0,3.1,2.6,3.1,3.2c0,1.2-0.4,2.3-2,3.2l3.1,5.1h-1.4l-2.8-4.9c-0.6,0-1.1,0-1.7,0v4.8
		h-1.2v-11.5H539.4z M541.7,665.4c1.6,0,2.6-0.8,2.6-2.5c0-1.5-0.6-2.2-2.5-2.2h-1.2v4.8H541.7z"/>
	<path class="st14" d="M549.2,662.9c0.8-0.3,1.6-0.6,2.4-0.6c1.6,0,2.6,1.3,2.6,2.7v3.8c0,0.8,0.1,1.6,0.4,2.3l-1.1,0.1l-0.3-1.1
		c-0.6,0.7-1.2,1-2.1,1c-1.6,0-2.5-1.3-2.5-2.8c0-1.6,1-3.1,2.7-3.1c0.6,0,1.2,0.2,1.8,0.4v-0.8c0-0.9-0.6-1.6-1.5-1.6
		c-0.7,0-1.4,0.3-2.1,0.6L549.2,662.9z M553.1,666.9c-0.5-0.2-1-0.4-1.6-0.4c-1.2,0-1.7,1-1.7,2.1c0,0.8,0.4,1.7,1.3,1.7
		c0.9,0,1.5-0.8,2-1.5V666.9z"/>
	<path class="st14" d="M561.1,663.5h-2.4v-1h3.7v8.6h-1.2L561.1,663.5L561.1,663.5z M562.7,660.4c0,0.6-0.4,1-1,1c-0.6,0-1-0.4-1-1
		c0-0.6,0.4-1,1-1S562.7,659.8,562.7,660.4z"/>
	<path class="st14" d="M570.6,660.2h-2.4v-1h3.7v12h-1.2L570.6,660.2L570.6,660.2z"/>
	<path class="st14" d="M576.6,662.5h1.3l1,6.5l0,0l1.2-4.4h1.2l1.2,4.4l0,0l1-6.5h1.3l-1.5,8.7H582l-1.4-4.7l-1.4,4.7h-1.3
		L576.6,662.5z"/>
	<path class="st14" d="M587.8,662.9c0.8-0.3,1.6-0.6,2.4-0.6c1.6,0,2.6,1.3,2.6,2.7v3.8c0,0.8,0.1,1.6,0.4,2.3l-1.1,0.1l-0.3-1.1
		c-0.6,0.7-1.2,1-2.1,1c-1.6,0-2.5-1.3-2.5-2.8c0-1.6,1-3.1,2.7-3.1c0.6,0,1.2,0.2,1.8,0.4v-0.8c0-0.9-0.6-1.6-1.5-1.6
		c-0.7,0-1.4,0.3-2.1,0.6L587.8,662.9z M591.8,666.9c-0.5-0.2-1-0.4-1.6-0.4c-1.2,0-1.7,1-1.7,2.1c0,0.8,0.4,1.7,1.3,1.7
		c0.9,0,1.5-0.8,2-1.5V666.9z"/>
	<path class="st14" d="M603.8,662.5l-3.1,8.1c-0.5,1.2-1.2,3.1-2.8,3.1c-1.1,0-1.9-0.8-2.2-1.8l1-0.5c0.2,0.5,0.5,1.4,1.2,1.4
		c0.7,0,1.1-0.9,1.3-1.4l0.6-1.3l-2.7-7.5h1.3l2.1,5.9l2.2-5.9h1.1V662.5z"/>
</g>
</svg>
