<?xml version="1.0" encoding="utf-8"?>
<!-- Generator: Adobe Illustrator 25.0.0, SVG Export Plug-In . SVG Version: 6.00 Build 0)  -->
<svg version="1.1"
	 id="svg32" xmlns:cc="http://creativecommons.org/ns#" xmlns:dc="http://purl.org/dc/elements/1.1/" xmlns:inkscape="http://www.inkscape.org/namespaces/inkscape" xmlns:rdf="http://www.w3.org/1999/02/22-rdf-syntax-ns#" xmlns:sodipodi="http://sodipodi.sourceforge.net/DTD/sodipodi-0.dtd" xmlns:svg="http://www.w3.org/2000/svg"
	 xmlns="http://www.w3.org/2000/svg" xmlns:xlink="http://www.w3.org/1999/xlink" x="0px" y="0px" viewBox="0 0 1364.4 850.5"
	 style="enable-background:new 0 0 1364.4 850.5;" xml:space="preserve">
<style type="text/css">
	.st0{fill:#FDE1B7;}
	.st1{fill:#1D1D1B;}
	.st2{fill:#FFFFFF;stroke:#FFFFFF;stroke-width:0.2;stroke-miterlimit:10;}
	.st3{fill:#FFFFFF;}
	.st4{fill:#FFFFFF;stroke:#FFFFFF;stroke-width:8;stroke-miterlimit:10;}
	.st5{fill:none;stroke:#1D1D1B;stroke-miterlimit:10;}
	.st6{fill:none;stroke:#CF1317;stroke-width:10;stroke-miterlimit:10;}
	.st7{fill:none;stroke:#CF1317;stroke-width:9.5;stroke-miterlimit:10;}
	.st8{fill:#121310;}
	.st9{fill:none;stroke:#BBBAB5;stroke-width:2;stroke-miterlimit:10;}
	.st10{fill:none;stroke:#1D1D1B;stroke-width:1.2;stroke-miterlimit:10;}
</style>
<sodipodi:namedview  bordercolor="#666666" borderopacity="1" gridtolerance="10" guidetolerance="10" id="namedview34" inkscape:current-layer="svg32" inkscape:cx="812.61912" inkscape:cy="596.7183" inkscape:document-rotation="0" inkscape:pageopacity="0" inkscape:pageshadow="2" inkscape:window-height="1007" inkscape:window-maximized="1" inkscape:window-width="1920" inkscape:window-x="-9" inkscape:window-y="-9" inkscape:zoom="0.64104806" objecttolerance="10" pagecolor="#ffffff" showgrid="false">
	</sodipodi:namedview>
<path class="st0" d="M181.4,210c0,0-0.8,0.4,0,2.3c0.8,1.9,0.2,4.3,0,5.3c-0.2,0.9-0.5,4.1-0.3,4.9c0.1,0.8-0.8,2.8,0,2.8
	s1.5,0,1.5,0v2.4c0,0-0.9,2.1,0,2.1s3.4,0,3.4,0s1.7-1.9,2.1,0c0.4,1.9-1.1,3.6,0,3.9c1.1,0.4,2.8,1.7,3.8,2.8
	c0.9,1.1,2.6,1.1,3.6,2.3c0.9,1.1,0.6,1.9,1.5,2.4c0.9,0.6,0.4-1.1,1.7,0s1.1,0.6,1.3,3s0,3.2,1.5,5.8s1.5,3.6,2.4,5.6
	c0.9,2.1,1.5,1.9,0.9,3.9c-0.6,2.1-0.6,2.1-0.6,4.3c0,2.3,1.7,4.3,2.8,3.9s0-2.6,1.3-3s2.6-0.2,2.6,1.9s0.2,2.6,1.1,4.7
	c0.9,2.1,1.7,1.9,1.7,4.5s-0.9,3.2,0,4.1s0.4,2.1,0.9,2.4c0.6,0.4,0.8-2.3,2.3,0s1.9,2.6,2.4,4.1c0.6,1.5,2.4,1.9,3.8,2.8
	c1.3,0.9,1.9,0.6,3,0s0.6-2.6,1.9-2.6c1.3,0,1.3,1.9,1.9,3.2c0.6,1.3,1.3,1.5,2.4,2.6c1.1,1.1,0.8-3,0.9,0c0.2,3,0.6,3.4,2.1,3.9
	c1.5,0.6,2.3-1.7,2.6,0c0.4,1.7,0.6,2.1,1.5,3s2.6,1.3,2.6,3.4s-1.3,3.9,0,4.3s2.4,0.2,3.4,1.7c0.9,1.5,1.9,2.1,2.4,2.3
	c0.6,0.2,0.9-0.4,0.9,1.5s-0.8,2.4,0,3.9s0.8,2.1,1.9,3.4c1.1,1.3,1.5,0.9,2.4,1.5s2.4-0.4,2.3,1.9c-0.2,2.3-0.7,2.8,0,4.5
	s1.7,3.9,2.4,3.9c0.8,0,1.3,0,2.6,0.9c1.3,0.9,1.5,0.4,2.8,1.5s1.7,2.1,2.8,2.6c1.1,0.6,3.6,1.3,2.8,2.4c-0.8,1.1-2.6,1.3-3,2.4
	s0.6,0.9,0.8,3c0.2,2.1,1.6,2.1,2.4,2.1s1.4-0.4,2.3-0.9c0.9-0.6,0.4-2.1,1.1-1.7c0.8,0.4,0.8,1.5,0.8,2.6s-1.9,0.4-2.4,1.7
	c0,0-0.2,0.3-0.2,1.2c0,0.9,0.7,0.8,0.5,2.1c-0.2,1.3-0.3,1.5-1.6,2.1c-1.3,0.6-2.3,0-2.7,1c-0.5,1,0.3-0.3,0.8,1
	c0.6,1.3,0.3,2.1,0.8,3.1s0.8,0.7,1.7,1.3c0.8,0.7,1.5,0.5,2.6,0s1.1-0.5,1.6-1.4s0.6-0.7,1.7,0.2c1.1,0.8,0.9,1.4,0.8,3.2
	c-0.2,1.8-0.2,2.2-0.6,3.3c-0.4,1.1,0,0.6-1.2,1.1c-1.2,0.6-1.5-0.6-0.7,1.4s0.8,3.7,0.8,3.7s0.5-0.8,1.7-0.8c1.3,0,1.5,1.2,2.1,1.9
	c0.7,0.7,1.1,2.1,2,2.1c0.8,0-0.6,0.8,0,2.1c0.6,1.2,2.1,1,1.9,2.5s0.3,1.9-1,2.5c-1.3,0.7-1.1,1.7,0.2,1.7s1.5,1,2.3,1.5
	s0.4,0.3,1.7,0c1.3-0.3,2.7-0.9,2.7,0.9c0,1.9-1.3,2.3,0,2.9c1.3,0.7,2.1,1.2,2.1,2.3c0,1.1-1.4,0.5-0.9,1.6s1-0.5,0.9,0.8
	c-0.1,1.2,0,0.6-0.4,1.8c-0.4,1.2-1.4,0.7-1.7,1.8c-0.3,1.1,0.4,2.2,0.5,2.3c0.1,0.1,0.2-0.6,1.6,0s2.7,0.8,3,1.9
	c0.3,1,0.4,0.3,0.9,1.6c0.6,1.3,0.4,1.6,0.8,2.5s0.4,0.9,0.4,0.9s0.8,0.4,0.9,0.5s-0.1,0.9,0,1.8c0.1,0.8,0.3,2.3,0.8,2.8
	c0.6,0.5,0.1-0.2,1.5,0s3,1,3,1.2s0.7,0.8,0,1.9s-0.9,2-0.5,3.2c0.5,1.2,1.2,2.2,1.3,2.3c0,0,0.2,0,1,0s1-0.1,1.7,0.8
	c0.7,0.8,1,1.4,1.3,1.5s0.9,0.7,1.4,2.1s0.5,1.4,1.3,2.7c0.8,1.3,2.4,2.4,2.8,3.1s-0.3-2,0.4,0.7c0.7,2.6,1.9,2.5,2.6,3
	c0.8,0.5,1.1-1.1,1.6,0.6s1.6,2,2.6,3s0.6,0.1,1,1c0.5,0.9,1.2,1.9,3,2.3s2.1,0.4,3.8,0.5c1.7,0.1,3.2-0.5,3.9,0.8
	c0.7,1.3,0.1,2.7,1.3,3.8c1.2,1-0.1,1.2,0.8,2s0-0.1,1.5,0s2.4,0.5,2.5-0.8c0.2-1.2,0.5-1.8,1.3-1.8s-0.7-0.4,0-1.4s1.5-0.8,2-0.8
	s1.5,0.4,1.7,1.2c0.2,0.8,0.3,2,1.4,2.2s2.3-0.4,2.4-0.6s1.1,0.5,1.4,1.4s0.8,0.6,2,0.9c1.1,0.2,0.7-0.7,2.5-0.9
	c1.9-0.2,4.1-1.1,4.3-1.2c0.2-0.1,0.6-0.8,1.1-2c0.6-1.2,1.3-2.2,1.5-2.4c0.2-0.3,1.5-0.3,2.4-0.3s0.8,0.2,1.8,0.9
	c0.9,0.8,1.5,2,2.4,1.3s1.6-1.9,2.1-2.7c0.5-0.8,1.1-0.7,2-1.4c0.8-0.8,2.4-1.8,2.6-2.4s1.7-0.8,2.4-0.8c0,0,1.2,0.4,3,0.4
	s1.4,0,2.8-0.8s2.8-0.8,3.5-0.8c0.8,0,1.9,0.1,2.6,0.6c0.8,0.5,1.8,0.5,1.9,0.6s1.1,0.4,1.1,1.9s-0.3,1.8,0,2.6
	c0.3,0.9,0.6,1.9,2.3,1.4c1.6-0.5,2.9-1.4,3.6-0.5c0,0,0.4,1.3,1.4,1.3s0.1,0.5,1.1,0.5s1.5,0.1,2.4,0.1s1.5,0,2.4,0s2.6,0,2.6,0
	c1.8-0.5,2.8-0.5,3,0c0.3,0.5-0.1,1.3-0.5,2.4s-1,2.4-0.6,2.6c0.4,0.3,0.3,1.8,1.2,1.8c0.9,0,1.8-0.4,3.1-0.6
	c1.3-0.2,2.6,1.4,2.8,1.5c0.1,0.1,1,0,1.5,1.5s-0.4,2.9,0.9,2.9s3-1.3,3.5,0s1.1,2.3,1.5,2.3s0.3-1,1.1-0.9c0.9,0.1,0.8,2.3,1.8,2.5
	c1,0.3,2.3-0.5,2.8,0.8s1.4,2.4,2.6,2.6c1.3,0.3,1.4,0.5,2.6,0c1.3-0.5,3.3-1.5,3.8-0.4s-0.1,1.5,0.6,2.9c0.8,1.4,1.6,1.6,2.5,1.6
	c0,0,1-1.1,1.8,0s1-0.9,1.9,0s1.5,0,1.8,1s0.3,1.3,1.9,2.3s2.6,1.4,4.1,1.4s3.8,0.5,5.5,0.5c1.8,0,3.4-0.6,4,0s1,2,1.5,2
	c0,0,1.5-0.1,1.8,0s1.3,0.5,1.6,1.1c0.4,0.6,0.3,1.4,1.5,1.4c1.3,0,2.6-0.1,3.5,0s2-0.4,2.3,0.8c0.3,1.1,1.5,0.8,2.1,1.5
	c0.6,0.8,1.6-0.4,2.8,0c1.1,0.4,1.6,1.8,1.8,1.9c0.1,0.1-0.3,2.1,1.1,2.3c1.4,0.1,2.6,1,2.8,2.8c0.1,1.8,0,1.9,0,2.6
	c0,0.8-0.4-0.6-0.5,1.6c-0.1,2.3,0.1,1.1,1.6,1.1s1.9,0.1,3,0.3c1.1,0.2,0.6-2.6,1.8,0c1.1,2.6,0.1,2.7,1.9,3.1s3.3,1.1,3.4,1.1
	s0.6,0.9,1.3,1.5c0.6,0.6,0.3,0.8,2.4,1c2.1,0.3,1.4,1.4,2.8,2.1c1.4,0.8,2.1,0.4,2.5-0.8c0.4-1.1,2.3-2.5,2.6-2.6
	c0.4-0.1,0.4-1,1.6-1.1c1.3-0.1,1.4,1.3,3.6,1.3c2.3,0,2.9,0.6,3.1,1.8c0.3,1.1,1.1-0.5,1.6,1.9s0.9,3.5,1.6,3.5
	c0.8,0,1.1-0.5,2.6,0s2.3,0.8,3.1,2.3c0.9,1.5,1.9,2.4,3,2.4s0.8-1.6,2.5,0c1.8,1.6,1.8,3.5,1.9,3.9c0.1,0.4-0.8,1.5,0.9,2.5
	c1.6,1,2.6-1.8,3.4,1c0.8,2.8,0.3,4.8,1.5,5.3c0,0,0.9,1.9,1.8,2.4c0.9,0.5,1.5,0.4,1.5,1.6c0,1.3,0.1,4.4,0.8,4.8
	c0.6,0.4,0.1,0.8,1.1,3c1,2.3,2.9,4,3,4.1s-0.4,1,0,1.6s0,1.1,1.8,2.5s3.4,1.6,3.4,2.9c0,1.3,0.1,0.9,0,3.3
	c-0.1,2.4-0.4,1.3-0.6,4.3c-0.3,3,0.2,4,0.7,5.8c0.4,1.8,1.6,1.4,0.9,4c-0.6,2.6,0.6,3.8-0.6,5c-1.3,1.3-1.5,1.9-1.8,4
	s-1.5,1.8-0.9,3.4c0.6,1.6,1,1.4,1.5,3.9c0,0-0.4,1-0.2,2.6c0.1,1.6-0.9,1.6-0.8,2.5c0.1,0.9,1.1,0.5,0.5,2.1s-1.1,2.8-2,3.8
	s-1.1,1.3-2.4,2.3c-1.3,1-1.7,1.5-1.6,2.5c0.1,1,0,2.9,1,3.5s1.9,2.3,1.3,3.1c-0.6,0.9-0.7,1.3-2.2,2.3s-1.5,1.4-2.5,2.6
	c-1,1.3-1.1,2.3-3,3.3s-2,1.9-3.5,1.9s-1.9-1.8-3.3,0c-1.4,1.8-2.1,1.9-2.9,2.5c-0.8,0.6-0.9,2.1-0.9,3.1s0,2.5-1.5,3.1
	s-0.8,1.8-3.1,2.8c-2.4,1-2.3,1.4-2.9,2.4c-0.6,1-1.5,2.3-2.9,3c-1.4,0.8-3-0.8-3.1,0.9c-0.1,1.6,0.8,2-0.1,4.1
	c-0.9,2.1-0.9,2-0.9,4.1s-1.1,2.5-2.8,2.9c-1.6,0.4-2.9-0.8-4,0s-2.1-1.1-2.5,1s1,3.5,0.1,4s-1.8,0-2.6,0.9c-0.9,0.9-1.9,1.1-3,0.9
	c-1.1-0.2-2.6-1.8-3.4-1.9c-0.8-0.1-2-0.5-2.5,0.5s-0.8-0.7-1.6,1.5c-0.9,2.2,0.9,2.7,0.3,3.7s-0.9,1.3-2.6,1.3
	c-1.8,0-2.6,0.2-2.9,1.4c-0.3,1.1-0.1,1.4-2.1,2.1c-2,0.8-3.9-0.1-5.8,0s-2.9-0.6-2.9,1.1c0,1.8,0.5,2.5-1.1,2.6s-1.5-0.8-2.5,1.1
	c-1,1.9-2.6,1.4-3.6,2.9s-2.1,0.6-2.6,1.9c-0.5,1.3,0,2.4-0.9,2.8c0,0-1.4,1-0.6,1.9s1.5,1.4,2.3,2.5s1.5,1.1,1.5,2.5
	s1.5,1.1,2.1,1.8c0.6,0.6,1.4,1.3,1.5,2.1c0.1,0.9,0.8,1.3,0.4,2.8s-0.9,2.1-0.6,3.8c0.3,1.6-0.5,1.5-0.6,3.3s0.6,1.8,0.6,3.3
	s0.5,2.6-0.1,4.1s-1.3,2.1-2,3.3c-0.8,1.1-2.3,1.5-2.3,3.1s1,2,1,3.6s0.9,3.1,1.5,4.1s1.5,1.9,1.8,2.9s0.6,1.5,2.3,2.1
	c1.6,0.6,2.4,0.4,2.9,1.6c0.5,1.3,0.5,1.3,0.5,1.3s1.9-2.1,2.5,0s-0.1,4.4,1.1,4.6c1.3,0.3,3.5-0.1,4.9,0s3,1.1,5.1,1.3
	c2.1,0.1,4-0.8,5.5,0s3.3,1.3,4.5,1.3c1.3,0,0.4-1.4,2.3-2.1c1.9-0.8,2.9-0.4,4.4-1.1c1.5-0.8,3.4-1.8,3.8-2
	c0.4-0.3,1.4,1.1,2.9,1.1c1.5,0,2.5,0.5,3.3-0.8s1.1-0.9,2.6-1.4s1.6-1.4,2.1-2.6c0.5-1.3,1.5-1.3,2.8-1.5s1.8-0.2,3.1-0.2
	s1.5,2,2.4,1.3c0.9-0.8,1.8-1,2.9-0.9c1.1,0.1,2.5-0.1,2.5,1.4s-1.5,0.9-0.9,3.1c0.6,2.3-0.4,2.4,0.9,4.4c1.3,2,1.6,3.1,2.9,3.4
	c1.3,0.3,2.1,0.5,3.1,1.5s2,1.4,2.5,2.6c0.5,1.3,0.9,3,1.5,3.6s1.5,0.6,2.9,1s2.8,1.1,2.8,0s0-1.9,0.2-3.3c0.3-1.4,1.6-2.6,1.6-3.5
	c-0.1-0.9-1.3-2.8,0-3.1c1.3-0.4,2.8,0,2.8-1s-0.8-2.5-1.5-2.9c-0.8-0.4-2.1-1.5-1.5-2.6s1.4-2.8,0.9-2.8s-0.9-1.1-0.9-2
	s1.6-2.6,1-3.6s-0.6-0.4-1.3-1.6c-0.6-1.3-2-2.3-1.3-3.4c0.8-1.1,2-1.9,1.8-3.4c-0.3-1.5-0.9-1.5-0.4-3s1-2.3,1.3-3.1
	c0.2-0.9,0.8-0.1,1.9-1.8c1.1-1.6,1-1.9,1.6-3.3c0.6-1.4,1-2.3,1.4-3.1c0.4-0.9,1.1-0.9,2-0.9s2.1-0.9,2.6-1.4s1.3,0.1,1.3,0.5
	s0.4,1.6,0.8,2.8c0.4,1.1-0.1,2,0.9,2.5s2.3,0.9,3.1,2c0.9,1.1,2.3,2.1,3.1,2.5c0.9,0.4,2.5,1.4,1,1.8c-1.5,0.4-1.5,1.4-2.5,1.9
	s-1.4,1.8-1.1,2.4c0.2,0.6,0.1,1.3-0.4,1.8s-0.9,1.9-0.3,2.4c0.6,0.5,1.3,1.8,2,2.3c0.8,0.5,2.3,0.5,2.3,1.8s1.1,2.1,1.1,3.3
	c0,1.1,0,2.6,0.6,3.1s1.4,0.5,2.5,0.5s2.3,0,3,0c0.8,0,1.1,0.8,1.9,1.3c0.8,0.5,1.8,0.5,2,2.4c0.3,1.9,0.4,3.9,1,4.6
	c0.6,0.8,1.1,2.9,1.6,3.4s1.9,1.3,1.4,2.3s-1.3,1.4-1.8,2.6c-0.5,1.3-0.1,2.8,0.6,3c0.8,0.2,1.5-0.2,2.4,0s1.4-0.1,2.1,0.1
	c0,0,1,0.6,0.8,1.1c-0.3,0.5,0.3,1.1,0,2.1s1.2,0.5,2,0.5s0.4,0.8,1.8,0.1c1.4-0.6,1.9-1.6,2.8-1.6c0.9,0,1,1.3,1.1,1.9
	c0.1,0.6,0.5,1.6,1.9,1.9c1.4,0.2,0.4,0.8,1.6,1.6c1.3,0.9,2.4,1.4,3.5,1.8c1.1,0.4-0.1,1.3,0,2.5c0.1,1.3-0.6,0.4-1,2.5
	s-0.1,2.5-1,3.3s-1.4,0.1-0.3,1.6c1.1,1.5,0.1,1.6,0.1,3.1s-2.1,0.9-2.4,1c-0.2,0.1-0.6,0.2-2,0.9c-1.4,0.6-0.9,1-3.4,1.8
	s-2.6,2.1-4,2.5s-1.1,1.1-2.5,1.4c-1.4,0.3-2.1,0.1-2.1,1.6s1.5,2.1,1.5,3.1s0.4,0.9,1.5,1.4s2.1-0.5,3.1,0s-0.6,0.5,1.3-0.4
	c1.9-0.9,2.1-0.6,3.8,0.1s1.5,2,3.5,2.3s2.4-0.9,3.6,0c1.3,0.9,1.4,0.3,2.3,0c0.9-0.3,0.8,0.5,2,0.4c1.3-0.1,1.8,0,2.9,0.7
	c1.1,0.6,1.1,0.8,2.6,0.6c1.5-0.1,1.5,0.3,3.1,0s3-0.8,3.4,0.1c0.4,0.9-0.4,0.9,0,2.1c0.4,1.3,2.9,2.8,3,2.9
	c0.1,0.1,1.3,0.1,1.6,1.9c0.4,1.8,1.9,3.6,3,3.9c1.1,0.2,1.4,0.4,3.1,0c1.8-0.4,2-1.9,3.1-2.3c1.1-0.4,1.6-0.8,1.6-2
	c0-1.3-1-1.5,0-3.4s0.6-1.8,1.5-3.5c0.9-1.8,0.4-1.4,1.1-2.9c0.8-1.5,1.6-1.6,2.5-1.4c0.9,0.2,1.9,1.3,2.9,1.3s1.1,0.5,3.6,0.9
	s3.3,1,4.5-0.2c1.3-1.3,2.5-1.5,3.9-2s1.9-2.4,1.1-3.4c-0.8-1-0.3-1.1-2.4-2.1c-2.1-1-2.8-3.5-3.3-4.1s-0.5-2.8-0.5-3.4
	c0-0.6,0.5-3.5,0.5-3.5s1.5-0.4,2.9,0.3c1.4,0.6,3,1.9,4.3,1.6c1.3-0.2,1.4-1.8,2.5-1.8s1.8-0.6,2,1.1c0.3,1.8,1.1,3.6,2.1,3.6
	s2.9,1.4,2.9,2.8c0,1.4,1.1,3,1.3,3.4c0.1,0.4-0.9-0.4,0.9,0.5c1.8,0.9,2,1.4,2.9,2.8c0.9,1.4,0.5,1.3,1.6,2.3s2.5,1.5,3.4,2.5
	s0.6,0.5,2.1,2s-0.6,2.9,1.4,2.9s2,0,2,0s1.5-0.5,2,1.3s1.8,3.4,2.8,3.4s2.8-1.1,3.9-1.9c1.1-0.8,0.6-1.6,1.8-2.9
	c1.1-1.3,1.9-2.6,2-3.9c0.1-1.3,1-1.4,1.3-2.5c0.2-1.1,1-0.6,2.5-0.6s2.6,1.1,3.8,1.1c1.1,0,1.9-0.4,2.8-0.9c0.9-0.5,3.5-0.9,3.5,1
	s-0.9,2.3,0.5,3.3s2.6,1.6,3.4,1.9c0.8,0.3,2.4-0.5,2.9,0.6s0.8,0.5,1.1,1.8c0.4,1.3,2.3,2,2.6,3.6c0,0-0.1,3.1-0.8,3.1
	c-0.6,0-1.4,0.6-2.1,1.1c-0.8,0.5-1.6,0.5-2.3,1.3c-0.6,0.8-0.2,2.1-0.9,2.3c-0.6,0.1-1.9,0-1.5,1s0.9,0,1.3,1.4
	c0.4,1.4,1.4,1.8,2.3,2.8c0.9,1,1.8,1.9,0.9,2.4c-0.9,0.5-1.1,1.3-2,2.3s-0.9,1-0.9,1s0,0.1-0.5,1.4c-0.5,1.3,0.1,1.3-1.4,1.6
	c-1.5,0.4-3.6,0.9-3.4,2.1c0.3,1.3,0.5,1.6,0.5,2.5s0.9,2.6,1,2.9c0.1,0.2,1.8,1.1,2.5,1.3c0.8,0.1,1-0.4,1.4,1.3
	c0.4,1.6,1.3,3.9,1.3,5.3s-0.3,3.9,0.1,4.3c0.4,0.4,0.9,1.5,1.8,2.4c0.9,0.9,0.5,1.3,0.5,2.5c0,1.3,0.4,2.8-0.9,3s-2.4,0.5-2.5,2.3
	s-0.4,3.1-0.4,4.8c0,1.6-1.1,3.6,0,4.4c1.1,0.8,3.1,3.5,4.4,3.1c1.3-0.4,0.8-1.4,2.3-2s3.8-1.6,4.1-0.3c0.4,1.4,1.6,0.8,1.6,2.3
	s0.5,3,2.8,3.1s3.8-0.6,3.8-1.9c0-1.3,1.4-1.9,2.3-2.3c0.9-0.4,1.9-2.1,2.6-2.8c0.8-0.6,1.3-0.4,1.4-2.6c0.1-2.3,1.6-2.5,2.1-4.4
	s1.1-2.6,2-3.9c0.9-1.3,0.9-2.9,1.5-4.4s3.6-3.1,3.9-3.8c0.3-0.6,3-0.9,3.9-0.9s3.3,0.1,3.5-2c0.3-2.1-1.9-5.6-2.1-5.9
	c-0.2-0.2-1.5-0.9-1.9-3s-1.1-1.8-0.9-3.6c0.3-1.9,0-1.3,1.6-2.9c1.6-1.6-1-1-0.5-3s0.3-3.3,0-3.6c-0.3-0.4,0.1-1.4-0.3-3.8
	c-0.4-2.4-1.3-4.9-0.9-6.5c0.4-1.6,0.8-4.9,0.4-6.3c-0.4-1.4,1-2.1-0.5-3.9c-1.5-1.8-3.1-5.9-3-7.8c0.1-1.9,0.8-4.3,0.8-5.1
	c0,0-0.5-1-1.1-2.6s-0.3-2.6-0.9-3.9c-0.6-1.3,0.5-0.8,0.5-2.8s0.9-2.5,0.9-3.9s0.3-1,1-2.9c0.8-1.9,1.1-2.4,0.9-4.6
	c-0.3-2.3,0.4-4.4-0.5-5s-0.3-1.3-0.3-3.4s1-2.3,1-4.4c0-2.1-0.6-0.9-0.8-2.8c-0.1-1.9-1.1-3.3,0.2-4.3c1.4-1,1.6-0.4,1.8-1.9
	s0.9-3.5,0.4-4.3s-1.3-1.4-0.3-2.9s0.9-3.4,0.8-3.5c-0.1-0.1-2.1-1.6-2.9-2.1c-0.8-0.5-1.5-1-2.6-1.3s0.5-2.6-1.1-0.3
	c-1.6,2.4-1.9,2-2,3.4s-2.4,1.3-3,0.8s-2.3,0.5-2.5-1.5c-0.3-2-1.1-2.5-1.3-3.5c-0.1-1-0.6-1.8-1.3-2.3c-0.6-0.5-0.9-1.3-1.9-1.5
	c-1-0.3-1-1.3-1.6-1.9c-0.6-0.6,0-0.1,0-2s-0.5-2.9-1.3-3.1c-0.8-0.3-0.8-0.4-2.1-1.5c-1.4-1.1-0.2-0.3-0.4-2.3
	c-0.1-2-1.5-3-1.5-4.5c0,0,0.6-1.5,1.8-1.5c1.1,0,2.3,0.2,3.1-0.3c0.9-0.5,1.1-2.3,1.1-2.3s1.1,1.9,1.6,1.9s1.6-0.8,1.6-0.8
	s1.4-2.1,1.9-2.6s1.9-1.4,2.3-2c0.4-0.6,1.6-1.3,2.1-1.8s1.5-1.4,2.8-1.6c1.3-0.3,2.1-0.6,2.1-1.8c0-1.1,1.6-1.6,1.6-1.6
	s0.5,0.8,1.6,0.9c1.1,0.1,2.8,1.5,3.3,1.6s0.9-1.3,1-2.1c0.1-0.9,1.3-1.3,1.1-2.1c-0.1-0.9-2-1.5-2.2-2.6c-0.1-1.1-1.3-1.5-1.3-3.1
	s-0.2-2.6-0.6-3.6c-0.4-1-2-3.1-2-3.1s1.9-0.4,2.1-0.8c0.3-0.4,0.4-2.4,0.4-3.5s-0.8-3.8,0.4-4.4c1.1-0.6,1.8-1.8,2.5-2.3
	c0.8-0.5,1.6-2.5,1.6-2.5s-1-1.9-1.5-2.1c-0.5-0.3-0.1,0.1-1-1.8c-0.9-1.9-1.8-2.4-0.5-3.9s0.9-2,0.8-2.8c-0.1-0.8,1.6-0.9,2.3-1.6
	c0,0,0.8-1.3,1.3-1.8s1.8-0.1,2.3-1.1s2-1.3,2.5-2.4c0.5-1.1,1.9-0.4,2.1-0.4c0.2,0,1.9,1.3,2.1-0.1c0.3-1.4-0.6-1.9-0.6-2.9
	s0-1.5,0-2.8s0.9-1.6,1.5-2.3c0.6-0.6,0.9-0.6,1.8-1.5c0.9-0.9,2-1.8,2-2.9c0-1.1,1.1-2,1.4-2.1c0.3-0.1,0.2-0.8,0-1.6
	c-0.2-0.9-0.6-1.5-0.8-1.8c-0.1-0.3-0.8,0-1.4-1.8c-0.6-1.8-0.5-3-1.1-3.5s1.9-0.6,1.9-1.4c0-0.8,1.3-3.6,1.6-4.9
	c0.3-1.3-1.1-2-1.1-2.5s0.2-0.3,1.6-1.3c1.4-1,2.1-0.6,3-1.8c0.9-1.1,1.6-1.4,2.6-2.1c1-0.8,2.3-0.9,3.4-1.9c1.1-1,2-1.1,2.9-2.3
	c0.9-1.1,2-1.9,2.4-3.5s0.9-3.9,1-4.4s0.1-1.1,1.5-1.4c0,0,0.8-1.9-0.6-2.5c-1.4-0.6-1.4-1-2.8-0.8c-1.4,0.3-1.8,0.1-2,0
	c-0.3-0.1-0.1,1.3-2-0.6c-1.9-1.9-2.3-2-3.3-2.6s-0.9-1-1.1-2.1c-0.3-1.1-0.5-2-0.5-3.5s0.9-1,1.3-1.5c0.4-0.5,0.6-2,0.6-3.9
	s1.3-3.1,1.3-5s1-2.9,1.5-4.6c0.5-1.8,1.3-2.3,2.1-3.6c0.9-1.4,2.6-1.4,3-2.6c0.4-1.3-1.3-2.8-1.4-3.8c-0.1-1-0.9,0.9-1.6-0.4
	c-0.8-1.3,0.3-2.3-0.6-4.5c-0.9-2.3-1.3-3.1-3.3-3.6s-3.1-1.1-4.1-3s-1.1-2.9-0.8-4.8c0.4-1.9,1.4-2.4,2.5-2.8
	c1.1-0.4,1.8-1.6,1.9-2c0,0,0,1.3,0.5,1.5s0.3,1.3,0.3,1.5s-0.9,0.2,0.1,1.4s1.6,0.4,2,1.5s1.4,1.3,1.6,1.3c0.3,0,1.2-1.1,1.6-1.1
	s1.5-0.4,2.7,0s2.4,0.8,2.8,0c0.4-0.8,1.6-1.8,2.3-1.6c0.8,0.1,1.5,0.2,2.6,0.4c1.1,0.3,3.4,0.8,4.6,1.8c1.2,0.9,2.4,1.8,3.1,1.9
	c0.7,0.1,1.9,0.5,2.2,1.2s1,1.8,1,1.8s-0.3-2,0-2.9s0.7-2.1,1.2-2.8s0.2-2.6,0.8-3.1s-0.6-0.6-0.7-1.6c-0.1-1.1-1.6-3.4-1.8-3.5
	s-0.2-0.4-1-1.8c-0.8-1.3-1.1-2.3-1.1-3.8c0-1.4-1.3-0.9-1.6-1.7c-0.4-0.8-0.8-1.8-0.8-3.4s-0.1-3.9,1-4.1s1.4,0.3,1.9-1.1
	c0.6-1.3,0.1-1.4,0.3-2.3c0.1-0.9,0.3,0.6,0.6-0.6c0.2-1.2,0.7-2.4,0.7-3.2c0-0.8,0.6-0.8,1.4-0.8c0.8,0,1.6-0.3,1.8-0.6
	c0.1-0.3,1-0.8,1.2-0.8c0.2-0.1-0.3-0.6,0.3-1.1s1.3,0.2,1.3,0.3c0.1,0.1,0.8,0.3,1,0.8c0.3,0.5,0.3,0.8,1.4,1.2
	c1.1,0.4,2.4-1.1,2.8-1.8c0.4-0.6,2-2.2,2.4-2.4s0.4-0.3,0.4-0.3s1.6-0.8,1.7-0.8c0.1-0.1,1.6-1.4,2.1-2.1c0.6-0.6,0.4-1.6,1.6-2.4
	c1.2-0.8,2.2-1.5,2.6-2.2c0.4-0.7,1.9-0.5,2.3-0.8c0,0,0.9,0.5,1.4-0.1s0.8-2.2,1.2-2.3c0.4-0.1,1.4,0,1.8,0.1
	c0.4,0.1,1.1,0.6,1.8,0.1c0.6-0.4,1.6-1.2,2.2-1.8c0.6-0.6,1.5-1.4,1.4-2.1s-0.2-1.3-0.6-2c-0.3-0.8-0.9-1.7-0.5-2.3
	c0.4-0.6,1.1-2.3,1.8-2.7c0.7-0.4,1.3-1.3,1.6-2c0.4-0.7,0.9-1.3,1.6-1.6c0.6-0.4,1.5-0.4,2-0.4s1.6-0.4,2.6-0.7
	c0.9-0.3,2.1-0.9,2.3-1.6s1.2-2,1.6-2.5c0.4-0.5,1.4-0.9,1.8-1.9c0.3-1,0.3-1.7,0.8-2.3c0.6-0.6,1.7-0.9,1.7-1.6
	c0-0.8,1.3-1.8,0-1.9c-1.3-0.2-2-0.4-2.3-0.8s-0.2-1.8,0.4-2.3c0,0,1.3-0.4,1.6-1.2c0.3-0.8,0.5-0.9,0.9-1.8s0.9-2.1,1.2-2.6
	c0.3-0.6,1-0.9,1-1.8s-0.8-0.4-0.9-1.4c-0.1-1-0.1-0.9-0.1-2s-1.5-1.8-0.7-1.9c0.8-0.2,1.9-0.2,2.4-0.2s1.6-0.5,1.8-0.9
	s0.8-0.1,1.3-0.1c0.6,0,1.3,0.2,1.5,0.7c0.3,0.5,1.3,1,1.7,1.1s0.9,1.3,1.1,0.1c0.3-1.2,0.4-1.8,0.9-2.3s0.9-1.1,0.9-2
	s-0.3-1-0.9-1.4c-0.7-0.4-0.6,0.1-0.6-0.8s0.5-0.8,0.8-1.9s1.1-1.1,1.2-1.7c0.1-0.6,0.6-0.9,1.3-0.9c0.6,0,1.5,0.1,2.4-0.3
	s1.3-1.4,1.9-0.9c0.6,0.6,1.9,0.6,2.2,1.1c0.3,0.4,1.1-0.6,1.1-1.1c0-0.4-0.7-1.3-0.8-2s-2.4-1.2-2.8-1.5c-0.4-0.3-1.6-1.4-2.1-2.3
	c-0.5-0.8-1,0.1-2-0.2c-1-0.2-2.4-0.9-3.1-0.9c-0.7-0.1-1.5-0.9-2.3-1.3s-1.3-0.8-1.9-1.3c-0.6-0.5-0.3-1.7,0.3-2.1
	c0,0,0.8-1.4,1.2-1.5s0.8-0.4,1.3-0.8c0.6-0.4,1.6-0.6,2.6-0.9c0.9-0.3,1.4-1.4,1.3-1.9c-0.2-0.5-0.8-1.1-0.2-1.9s1.4-2.1,1.3-2.8
	c-0.1-0.6-0.5-1-1.1-1.6s-2.2-1.1-3.6-1.6c-1.4-0.6-2.8-0.9-3.6-1.4c-0.8-0.6-2.8-1.2-3.9-1.5c-1.1-0.3-3.4-1.9-4.4-2
	c-1.1-0.1-0.8,0.1-3.3,0.1s-4.4-0.1-5.7-0.3c-1.3-0.3-1.4-0.6-2.2-1.1c-0.8-0.4-1.6-0.8-2.4-0.4c-0.8,0.3-1.9-0.2-2.2-0.5
	s-1.1-2-1.7-2.4c-0.6-0.4-0.8-0.9-1.7-1.7c-0.9-0.8-1.2-1.3-1.8-2s-1.4-2.2-1.6-2.5c0,0-0.7-0.9-1.7-0.9c-1-0.1-2.2,0.4-3.4-0.1
	s-2.3-1.1-3.1-1.8c-0.8-0.6-1.4-0.3-2.4,0.1c-1.1,0.3-2.8,0.6-3.8,0.3c-1-0.4-2.3-0.6-3.1,0.1c-0.8,0.6-1.8,1.9-3.3,2.1
	s-2,0.8-3.1,0.9c-1.1,0.2-1.9-0.3-3.7-0.6c-1.8-0.3-2.9-0.4-4.3-0.5c-1.4-0.1-0.2-0.9-1.8-0.1s-2.4,1.1-2.8,0.3
	c-0.4-0.9-1.4-2.1-2.9-2.5c-1.4-0.4-1.6-1.1-2.8-2.3c-1.1-1.2-1.7-1.9-2.4-2.6c-0.8-0.6-1.2-1.3-2.2-0.9c-1,0.3-2.6-0.6-3.2,0.1
	c-0.6,0.8-1.3,1.3-1.5,2.3c-0.2,0.9,0,1.1-1.3,1.3c-1.3,0.3-1.4-0.5-2.2-1.2s-1.3-2.4-2.4-1.3c-1.1,1.2-2.6,1.6-2.9,2.5
	c-0.3,0.9,1.4,1.3,1.4,1.9c0,0.7-0.3,1.9-1.4,2.6c-1.2,0.7-2.4,0.8-3.4,1.6c-1,0.8-1.4,1.3-1.8,2.8c-0.4,1.6-0.8,0.2-1.6,1.4
	c-0.8,1.3-0.9,2-1.4,2.7c-0.6,0.7-1.7,1.4-2.2,1.4c0,0-1.3,0.6-1.6,1.1c-0.3,0.4-0.6,0.6-1.3,0.6c-0.6,0-2.1,0.3-2.4,0.9
	c-0.3,0.6-0.2,2.1-1.2,2.6c-1,0.4-1.1,1.1-1.2,1.9c-0.1,0.8-1.3,2.9-1.3,3.6s-0.8,2.4-1.1,2.7s-1.1,0.2-1.4,1.2
	c-0.3,1-0.4,2.9-0.5,3.9s0.1,2.2-1.1,2.4c-1.1,0.2-2.3,0.1-2.9,0.4c-0.6,0.3-1.4,0.4-2.4,0.1c-0.9-0.3-1.8-1.7-2.1-1.7
	c0,0-1,0.3-1.9-0.8c-0.9-1.1-2.3-1.6-3.1-2.1c-0.8-0.6-1.3-0.9-2.4-0.9c-1.2,0-3-0.5-3.9-0.5s-2-0.1-2.9-2s-1.9-4.1-2.4-5
	s-0.8-2.4-0.8-4.6c-0.1-2.2,0.3-3.9-0.1-5c-0.4-1-0.4-1.4-0.3-2.6c0.2-1.1-0.1-1.5-0.3-2.3s0,0.1-0.8-0.2c-0.8-0.3-2.3-0.9-2.4-1.9
	c-0.1-1,0.1-1.4-0.4-2.7c-0.4-1.3-0.4-3.1-0.4-3.1s0.9-0.9,1.3-1.6c0.3-0.6,0.8-0.8,0.8-1.7c0-0.9-0.7-0.9-1-1.8
	c0,0-1.4-0.9-1.8-1.3c-0.4-0.4-0.6-1.8-0.3-2.1c0.3-0.3,0.6-1.9,0.7-2.2c0.1-0.3,0.6-1.3,1.1-2.5s0.4-1.8-0.1-2.3s-0.5-0.4-0.9-1.1
	s-1.4-1.1-1.3-1.9c0.1-0.9,1.3-2.3,1.4-2.6s0.4-1.3,1.4-1.3c0.9-0.1,1.9-0.7,1.8-0.9c-0.1-0.2-0.4-0.6-0.9-1.2s-1.3-1.1-1.9-0.7
	c-0.6,0.4-0.1,0.1-1.2,0c-1.1-0.1-1.7,0.1-2.3-0.4s-0.7-0.8-1.9-0.4c-1.3,0.4-2.3-0.4-3.2-0.4s-2.4,0.1-2.4,0.7s-0.8,1-0.9,1.1
	c-0.1,0.1-2-0.6-3.3-0.9s-3.2-0.5-4.4-1.4c-1.3-0.9-2.6-1.2-3.3-2.3c-0.7-1.1-2.6-2.2-3.3-2.6s-2-1.8-2.9-2.6
	c-0.9-0.9-1.4-2.6-2.3-3.3c-0.9-0.7-2.1-2.1-2.1-2.3c-0.1-0.1-1.4-1.3-1.4-1.3l-0.5-0.4c0,0-0.5,1.2-0.8,1.4c-0.3,0.3-1.3,0.4-1.6,1
	s-0.8,0.7-1.6,0.5s-1.7-0.6-2-1.6s-0.8-1.4-1.3-2.1c-0.6-0.7,0.4,0.4-0.2,0.6c-0.6,0.3-1.4,0.8-2,1c-0.6,0.3-1.7,1.3-2.1,0.4
	c-0.4-0.8,0.3-0.1-0.6-1.1c-0.9-1.1-0.9-1.5-1.5-2.3s-0.7-0.4-1.9-1s-1.2-0.6-1.6-1.2c-0.4-0.6-0.9-1.4-0.9-1.4s0.5,0.2,1.1-0.6
	c0.6-0.8,0,0.2-0.5-1.1c-0.5-1.3-0.9-2.2-1.1-2.3c-0.1-0.1,0.3-0.4,0.2-2.1c-0.1-1.6-0.2-1.4-1-2.2c-0.8-0.8,0.2-0.3-1.1-1.4
	s-2-1.4-2.6-2s-0.8-2-1.4-2.3c-0.6-0.3-1-0.4-1.4-0.7c-0.4-0.3-0.4-0.8-0.8-1.3c-0.4-0.6-0.7-2.8-0.9-3.3c0,0,0.1-1.2-0.6-1.6
	c-0.7-0.4-1.2-1.2-1.5-1.9c-0.3-0.8-1.4-0.6-1.9-0.6s-2.6-0.2-2.8-0.4c-0.3-0.2-1.1-0.8-1.4-1.1c-0.2-0.4-0.5,0.1-1.1-1.2
	c-0.6-1.3-0.5-1.4-0.5-2.4s-0.2-1.4-0.9-1.4c-0.7-0.1-2.3-0.6-2.9-0.8c-0.6-0.1-2.8-0.5-3.1-0.7c-0.4-0.2-1.3-0.2-2.3-0.3
	c-1.1-0.1-2.3-0.2-2.5,0.3c-0.3,0.4-1.2,0.8-1.9,0.9c-0.8,0.1-1.7,0.6-2.4,0.8c-0.8,0.1-1.8,1.1-1.9,1.3c-0.1,0.3-0.9,1-1.6,1.4
	c-0.7,0.4-1,1.2-2.4,1.2s-2.3,0.3-3.1,0.4c-0.8,0.2-1.5,0.3-1.8,0.8c-0.2,0.6-0.6,1.4-0.6,2.1s0.1,2.2-0.6,2.4
	c-0.6,0.2-0.3,0.9-1.1,1.4c-0.8,0.4-1.8,1.9-1.9,2.3c-0.1,0.3-0.4,0.6-1.8,1.3c-1.4,0.7-4.5,1.5-5,1.9s-1.6,0.2-2.1-0.3
	c-0.6-0.5-1.8-2.6-1.5-3.2s0.1-1.5-0.6-1.8c-0.6-0.2-1.4-0.2-1.9-0.2c0,0-0.6-0.4-1.5-0.4s-1.9,0.7-2.3,0c-0.4-0.7-0.2-1.9-0.9-2.4
	c-0.8-0.5,0.1-1.8-1.8-2.1c-2-0.3-2.4-0.3-4.8-0.9c-2.4-0.7-2.2-0.8-3.9-1.4c-1.8-0.7-3.4-0.7-4.5-0.9c-1-0.2-2.8,0.8-4,0.1
	c-1.3-0.8-2.8-1.4-3.2-2.4c-0.4-0.9,0-2.2,0-2.2s-0.6-0.8-0.7-0.8c0,0-0.7-1.1-1.7-1.2c-1.1,0-2.3-1.2-3.6-1.2s-3-0.5-3.8-0.6
	s-1.5-0.9-1.6-1.7c0,0,0.4-0.8,0.6-0.9c0.2-0.1,0.9-1.3,0.9-1.4s1.2-1.3,1.7-1.6c0.5-0.4,1.6-1.9,1.4-2.5c-0.2-0.6,0-0.9-0.9-2.3
	s-1.5-2-1.2-3.1c0.3-1-0.2-1.3-0.8-1.4c-0.5-0.1-1.7-0.7-1.8-0.8c-0.1-0.2-0.8-0.7-0.2-1.6c0.5-1,0.4-2.1,0.4-2.7
	c0-0.7,0.6-1.3-1-1.7c-1.6-0.4-3.2-2.7-3.5-3.2s-1.5-2.1-1.3-2.9s-0.8-1.5-0.8-1.5s-1.2-0.7-1.6-1.2c0,0-0.8-1.6-1.5-1.8
	c-0.7-0.2-1.3-0.2-2.5-0.7s-2.4-0.8-2.4-1.8c0-0.9-0.7-1.3-1.4-1.3s-1.6,0.6-2.3,0c-0.8-0.6,0.1-1.6,0.2-1.6c0.1,0,0.4-0.6,0.5-1.7
	c0.1-1.2,0.3-2.5,0.9-3.7c0.6-1.2,1.1-2.4,1.1-3.2s-0.6-2.4,0.1-3.1c0.8-0.8,1.5-1.9,1.9-2.1c0.4-0.2,1.2-1.1,2.2-1.5
	c1-0.3,2.3-1.2,2.9-1.2c0.7,0,1.9-0.7,2.2-0.9s1.1-1.4,1.1-1.4s-0.5-0.5,1.1-0.5s2.7,0,3.2-0.1s1.6-0.3,1.6-1s0-0.9,0.6-1.3
	c0.6-0.3,1.1-0.8,1.6-1.4c0.5-0.6,0.3-1.3,0.5-2.2c0.2-0.8,0-1.2-0.3-1.4s-1.1-1.3-0.6-1.8s1.3-1.8,1.4-2.6c0.1-0.8,0.7-1.2,1.1-1.4
	c0.5-0.1,1.3-1.2,0.9-1.5c-0.4-0.3-0.2-0.8-1-1s-2.5-0.2-2.9-0.2s-1.6-0.2-1.8-0.6c-0.2-0.4-1.1-0.8-1.2-1.5c0-0.6,0.2-0.9-1.4-1.4
	c-1.6-0.5-2-0.1-2.7-0.7c-0.7-0.6-1.7-1.2-2.2-1.7s-2-0.9-2.3-1.5c0,0-0.2-0.3-0.1-1.4c0-1.1-0.4-1.6-0.5-2.2c0-0.6-0.2-0.2-1.1-1.3
	c-0.9-1.1-1.5-1.1-2.7-1.3s-3.4-0.5-3.9-1s-1.4-0.7-2.3-0.9c-0.8-0.2-2.3-1.1-2.6-1.3c-0.4-0.2-1-0.2-0.6-1.1c0.4-0.9,0.8-2,0.8-2.9
	s0.6-2.5,0.7-2.7c0-0.1,0.1-0.8,0.1-1.8c0-0.9,0-2.7,0-3.4c0-0.8-0.3-1.6-0.3-1.7c0,0,0-1.6,0.1-2.1c0.2-0.6,0.9-1.3,1.1-1.6
	c0.1-0.2,0.4-0.5,0.4-1.4s-0.2-1.5-0.4-2.1S547,188,547,187s0-2.9,0-3.5s0.1-2.6,0.1-3.1s1-1-0.6-1.3c-1.6-0.2-4.1-1.4-4.9-1.9
	c-0.8-0.5-3.3-0.9-4.1-1s-3.8-1.4-4.2-1.4c0,0-2.9-0.7-3.9-0.5c-0.9,0.2-2.5,0.2-4,0.2s-1.8,0.4-3.8,0.3c-2-0.1-1,0.1-2.7-0.6
	c-1.7-0.6-2.1-0.2-3.7-0.6c-1.6-0.4-2.7-1.3-3-2.2s-0.1-0.4,0.4-2.4s0.6-2.3,1-3.5c0.5-1.2,0.8-1.8,0-2.5s-1.9-1-2.4-1
	c-0.4,0-1.2,0.1-1.2-0.7s0.4-1,0.3-2s0.6-2.4-0.2-2.5c-0.8-0.1-0.4-0.3-2.1-0.2c-1.7,0-3,0-3.8,0.2c-0.8,0.3-1.9-0.3-2.8-0.2
	c-0.8,0.1-1.8-1.3-2-1.4c-0.2-0.1-0.5-0.6-0.1-2.1c0,0,0.1-1.2,0.4-2.1c0.2-0.9,0.2-2.7,0-3.1c-0.2-0.4-0.5-1.3-1.3-2.8
	s-0.9-3.3-0.9-3.9c0-0.5,0.6-1.2,1.1-2.3s0.6-2.4,1-3.2s0.8-1.2,0.4-1.7c-0.3-0.5-1.5-1.9-2.3-1.9s-1.6,0.6-3.1-0.7
	c-1.4-1.3-2-2.6-2.7-2.7c-0.8-0.1-2.3-0.8-2.6-1.1c0,0,0-0.4,0-1.5s-0.3-1,0.2-2c0.5-0.9,0.9-1,1.3-1s1.5-0.4,1.8-0.9
	s1.5-1.1,1.5-2.1s-0.1-2.5,0-2.8s-0.9-1.2-1.7-1.3c-0.8-0.1-2.1-1.2-2.4-2.5s-1.7-1-2.8-1.5c-1.1-0.5-3.1-2.2-3.1-2.2
	s-0.8,1.1-1.1-1.1c-0.3-2.2-0.2-1.8-0.6-3s0.2-2.3,0.4-2.4c0.1-0.1,1.4-1.3,1.4-1.4c0,0,0.6,0.4,0.9-0.7c0.4-1.1,0.2-2.5,0.5-3.5
	c0.2-0.9,0.8-2.1,1.3-2.3c0.5-0.2,2.3-1.4,2.5-2.1c0.3-0.7,2.7-2.2,2.9-2.7c0.2-0.5,0.6-2.6,1.5-3.1s1.5,0,2.5-0.4
	c1.1-0.5,2.9-2.9,3.2-3.2s1.3-0.7,2-1s2.1-0.8,2.5-2.2c0.5-1.3,0.2-2.2,0.4-3.2c0.1-1,0.3-1.8,0.1-2.4c0,0-0.3-1.6,0-2.2
	s0.5-1.8,1.2-2.3s0.8-2.2,0.8-2.7s-0.3-1.3-0.2-2.4c0.1-1.1-0.1-2.2-0.1-2.9s1.1-1,1.6-1.7s1.2-0.9,1.3-1.9c0.1-0.9,0.2-1.5,0.2-2.7
	s0.3-2.4,0.3-3.1c0-0.8-0.2-1.8-0.2-2.3c0,0,0.1-2.1,1.1-3c0.9-0.9,1.9-2.4,2.3-3.4c0.4-1.1,2-2,2.4-2.3s1.8-1.2,1.9-1.8
	c0.1-0.6,1.2-0.8,1.2-1.5c0-0.6,1.4-2,1.4-3.1c0-1,0.1-1.1-0.4-2.2c-0.5-1.1-1.1-0.8-1.4-1.6c-0.2-0.8-0.4-1.2-0.6-1.8
	s-0.4-0.4-0.9,0c-0.6,0.4-2.6,0.6-3.2,0.6c-0.6,0-0.9,0.2-1.2-1c-0.2-1.2-0.7-2-1.2-2.7s-0.7-0.7-1.6-1c-0.8-0.3-1.9-1.2-2.4-1.3
	c-0.5-0.1-0.8,0.1-1.1,0.6c-0.4,0.5,0.2,0.4-1,0.8s-3.3-0.1-3.9,0.3c-0.7,0.4-0.6,0.1-1.4,0.8c-0.8,0.7-1.8,0.8-2.4,1.3
	c-0.7,0.5-0.7,0.5-0.7,0.5s-2,1.1-2.7,1.3c-0.7,0.1-1.7,0.2-2.4,0.8c-0.8,0.6-4,2-4.1,2c0,0-2.7,1.1-3.1,1.4
	c-0.4,0.2-0.4,1.6-1.6,2.2c0,0-2.3,0.6-2.8,1s-0.7,1.6-1.4,2.1c-0.8,0.5-2.4,1-3.5,1.2c-1.2,0.1-2.9,0.3-3.4,0.9
	c-0.6,0.6-3.2,2-3.5,2.4c-0.3,0.5-1,2.2-1.6,2.9c-0.7,0.7-1.3,2.4-2.7,2.8c-1.5,0.4-3.8,0.5-4.9,0.1c-1.2-0.4-4.3-0.6-5.3-0.3
	s-2.8-0.6-3.4-0.7c-0.7-0.1-0.9-0.9-1.3-1s-0.1,0.1-0.9,0.2c-0.8,0.1-1.6,0.1-2.1-1c0,0-0.3-1.6-0.9-1.9c-0.6-0.3-1.7-0.3-1.8-1.2
	c-0.1-0.8-0.4-1.4-0.8-1s-1.1,0.9-1.4,0.7c-0.2-0.2-0.9-0.3-1.1-1.4c-0.2-1.1-0.8-1.6-1.1-1.6c-0.3,0-0.9,0.1-1.3-0.3
	c-0.3-0.5-0.2-0.8-0.8-1c-0.5-0.3-1.3-0.7-1.5-0.2c-0.2,0.4-1.1,0.6-1.6,0.8c-0.4,0.2-0.4,0.2-0.4,0.2s-1.1,0.3-1.3,0.3
	c-0.1,0-0.5-0.6-0.8-1.6c-0.2-0.9-1-0.4-1.7-0.8c-0.7-0.4-1.3-1.1-1.2-2.3c0.1-1.1,0.4-2.4,0.2-2.9c-0.2-0.5-0.5-0.6-1.2-0.6
	s-1.1-0.6-1.8-0.8c-0.8-0.2-1.8-0.4-2.3,0c-0.5,0.3-1.3,0.8-1.9,1.5c-0.7,0.7-1.6,1.3-2.2,2.1s-1.2,2-2.2,2.1s-3.4,1.1-4,0.5
	c-0.6-0.7-1.6-1.4-2-1c-0.3,0.4-1.7,1.1-2.3,1.1c-0.6,0-1.7,0-2.1,0.7c-0.3,0.8-1.6,1.1-2.3,0.9c-0.7-0.2-0.8-0.6-1.2-1.7
	c-0.5-1.1,0.4-2.2-0.6-2.5s-1.5-1.3-1.9-1.6s-1.1-1-1.6-0.9c0,0-0.4,0.4-1.2,0.6c-0.8,0.1-1.5,1.2-2.4,0.7s-0.7-1-1.3-1.5
	c-0.7-0.5-1.1-0.6-1.5-0.5s-1.4,0.1-2.1,0.1s-1.5,0.2-1.9-0.8c-0.4-0.9-1-0.8-1.6-1.1c-0.5-0.3-1.3-1.3-1.8-1
	c-0.6,0.3-0.7,0.2-1.5-0.2c-0.8-0.5-1.6-1.1-2.4-1.6c-0.8-0.6-1.2-1.7-0.6-2.5c0.7-0.8,0.9-1.1,0.9-1.6s0-1.2,0.4-1.7
	s1.4-0.8,1.7-0.9c0.3-0.1,0.5-0.2,0.6-0.8c0.1-0.6,0.3-0.6-0.5-1.6s-1.3-1.5-1.8-1.8s-0.1-2.1-0.9-2.1s-1.4,0.5-1.9-0.4
	s0.2-1-0.7-1.6c-0.8-0.6-1.2-1.4-1.1-2.4c0-1,0.5-1.6,0.6-2.6c0-0.9,0.3-1.1,0.5-1.7c0,0-0.9-0.4-1.1-0.8c-0.2-0.5-1.2-0.4-1-1.1
	c0.1-0.8,0.7-1.3,0.6-1.9c-0.1-0.7-0.7-1.3-1.1-0.9s-1.6,0.5-1.6,1.3s-0.9,2.5-1.2,3c-0.2,0.5-1,1.2-1.4,2s-0.4,1.7-0.9,2.1
	c-0.6,0.4-1.7,0.9-1.9,1.6c-0.2,0.7-0.6,0.8-0.8,1.4c-0.2,0.6,0,1.9-0.3,2.1c-0.3,0.2-1,0.7-1.7,1.1c-0.7,0.4-1.6,1.2-2,1.4
	c-0.3,0.2-0.5,0-1,0.2c-0.6,0.1-1-0.2-1.5,0.5s-0.9,1.2-1.7,1.2c-0.8,0-0.8-0.6-1.3-0.8c-0.5-0.2-1-0.9-1.8-0.9s-1.6,0-2.5,0.5
	c-0.8,0.5-2.1,1-2.8,1.3c-0.7,0.3-1.7,0.5-2,1.1s-1.1,0.2-1.7,0.2c0,0-3.1,0.1-3.6,0s-1.5-0.7-2.8-0.7s-1.8,0.5-2.7,0.5
	c-0.9,0-3.1,0-3.8,0.3c-0.6,0.2-0.6,1.3-1.5,1s-0.6-1.4-1.5-1s-1.1,1.1-2.2,1.1c-1,0-3-0.1-3.1,0s-0.5-0.2-1.2,0.8s-2.6,2-2.8,2
	c-0.2,0-2.1,0.2-3.2-0.5s-2.8,0-3.6,0.2c-0.8,0.2-3.7-0.6-4-0.6s-1.7-0.2-2.6,0.3s-2.1,0.1-2.7,0.9s-1.1,2.1-1.6,2.5
	s-1.3,1.2-1.8,1.9c-0.5,0.8-2,1.7-2.7,1.9c-0.7,0.2-1.7,0.3-2,1s0,1.9-0.4,2.5c0,0-0.8,0.5-1.3,1.2c-0.6,0.8-1.1,1.1-1.9,1.6
	s-1.5,1.4-2.4,1.6c-1,0.2-2.3,1-3,2c-0.7,0.9-0.7,0.9-0.7,0.9s-0.2,0.6-1.5,1.4c-1.3,0.8-1.8,1.8-2,2.8s-1,3.5-1.9,4.3
	s-2.1,0.3-2.7,1.8s-1.4,3.5-1.2,3.5c0.2,0,0.7,1.2,1.4,1.9c0.7,0.7,0.8,1,1.4,1.6c0.7,0.6,1.8,1.6,1.9,2c0,0-0.3,1.5-0.4,2.4
	s0,2.3,0,3s-1.2,1.8-2,1.8s-2.1-0.3-2.7,0.1s-2.2,0.2-2.7,0.8c-0.5,0.6,0.1,1.5-0.5,2.2s-2.9,1.9-3.3,2.4s-1.3,0.9-1.9,1.2
	c-0.7,0.3-0.5,0.6-1.6,1s-3.6,1.5-4.1,2s-1.2,1.5-2.1,2.1s-2.2,1.8-2.7,2.4s-1.8,2-2.1,2.8c-0.3,0.8,0.2-0.5-1.1,1.6
	c-1.4,2.1-1.2,2.9-1.7,3.7c-0.5,0.8-1.2,1.6-1.2,2.3c0,0,0.3,0.8,0.3,1.5c0,0.8,0.5,2.4,0.7,2.4c0.1,0,0,0.2,0.8,1.8
	c0.8,1.6,1.6,2.5,1.7,3.9c0.2,1.4-0.9-0.3,1.2,2c2.2,2.3,1.7,1.5,2.6,3.8s1.7,4.3,1.7,4.5s0.2,0.8-1.1,1c-1.4,0.3-2,0.8-3,1.9
	c-0.9,1.1-1.4,2.4-1.7,2.5c0,0,0.5,0.5,0.6,1.5s1,2.4,0.7,3.4s-1.1,1.8,0.1,2.9c1.3,1,1.6,1.9,2.3,2.6c0.7,0.7,1,0.9,3.1,1.4
	c2,0.5,3.2,0.7,4.1,1.6c0.9,0.8,0.8,1,2.4,1.1s3-0.7,3.7,0.4c0.7,1.1,0.3-0.7,2.4,2.9c2.1,3.5,0.4,3.1,2.1,4.8
	c1.7,1.6,1.5,0.8,3.2,3.1c1.7,2.4,1.8,3.4,2.5,4.1c0,0,1.2-0.2,1.2,1s-0.2,2.3-0.1,2.9c0,0.6,0.7,1.1,0.9,1.6
	c0.2,0.5,1.2-0.7,1.1,0.8c-0.1,1.4-0.9,2-0.2,3.1c0.7,1.1,1.5,1.3,1.6,2.1s-0.1,1.7,0.9,1.6c1-0.2,2.3-0.5,3-0.3
	c0.6,0.2,0.4-0.2,0.9,0.7s1.1,2.8,0.5,4s-0.6,1.1-0.3,1.9c0.3,0.8,1.2,1.8,0.7,2.8s-1.4,1.2-0.6,2.6c0.8,1.4,1.6,0.6,1.6,1.7
	s-1.3,2.5-0.8,3.3s-1,0.6,0.8,0.9c1.8,0.3,4.6,2.1,5,2s-0.5,0.8,0.9,0.6s0.6,2.4,0.3,3.7c0,0,0,1.5-0.6,2.1
	c-0.5,0.6,1.6,1.2-1.2,0.8c-2.8-0.4-4.7,0.5-5.8,0.8c-1.1,0.3-2.1,0.3-2.4,0.6c-0.4,0.3-1.6,0.4-1.8,1c-0.2,0.6-1.1,1.3-1.8,1.3
	c-0.8,0-2.3-0.5-2.7,0.2c-0.4,0.7-1.5,2.6-1.5,3.5c0,0.8,0.1,2.3-0.6,2.7c-0.7,0.5-1,2-1.6,2.8c-0.5,0.8-1.8,2.3-1.8,3
	c0,0.8-0.1,0.8,0.3,1.6s0.5,2.8,0,3c-0.5,0.1-0.9-1-2.1-0.5c-1.1,0.5-1.9,1.6-2.4,2s-1,0.9-1.7,0.9c0,0-1.7,0-1.7-0.6
	c0-0.5-1-1-1.6-0.6c-0.6,0.5-1.4,0.4-2.1,1s-1.7,0.5-2.4,0.6c-0.7,0.1-1.9-0.1-2.1,0.6c-0.2,0.7-0.9,2.6-1.4,2.9
	c-0.4,0.3-0.9-0.2-1.9-0.1c-0.9,0.1-2.3,0.2-2.4,0.9s0.4,0.3,0.3,1.7s-0.6,3.9-1.2,4.5s-0.8,3-0.8,3.5c0,0.6,0.8,1.1,0.8,2.2
	c0,1-0.4,2.9-0.6,3.7s0.6,2.6-0.2,3.1c-0.8,0.5-1.1,0.9-1.6,1.2c0,0-0.9,0.2-2.4,0.2s-2.1,0.4-3.3-0.3s-1.6,0.1-3-0.7
	c-1.3-0.8-1.5-1.6-2.4-2.6s-1.8-0.4-1.7-1.6c0-1.2-0.4-1.7-0.4-3c0-1.2,0.5-1.1,0.2-2.5s-0.6-2-1.2-2.4c0,0-1.5-0.4-2-1.3
	c-0.6-0.9-1-2-1.6-2.4c-0.5-0.4-0.9-1.3-1-2.1s-0.7-1.2-0.9-1.7s-0.2,0-0.7-1s-0.4-1.6-1.5-1.6c-1-0.1-1.6-0.2-2.2-0.5
	c-0.5-0.3-0.8-0.1-1.6,0.1c-0.7,0.2-1.3,0.6-1.5,0.6s-1.2-0.8-1.8-1.3c-0.7-0.5-1.1-0.8-1.8-0.9c-0.7-0.1-1.4-1.1-1.9-1.7
	c-0.5-0.6-0.8-1.9-1.6-1.9s-2.4-1-2.8-1.1c-0.5-0.1-1.6-0.2-1.6-0.7c-0.1-0.5,0.8-1.3-0.1-1.7c-0.9-0.4-1.4-0.4-2-0.1
	c-0.6,0.2-1.5-0.2-2,0.4c-0.6,0.6-0.6-0.1-1.3,0.3c-0.7,0.4-2.3,1-2.6,1.4s-0.3,1.3-1,1.4c-0.7,0.1-1.4,0.6-2.4,0.6
	c0,0-0.7,0.4-1.5,0s-1.6-1-2-1.3c-0.4-0.2-0.3,0.6-1.1,1s-2.2,0.9-2.8,1.1c-0.6,0.2-2.4,1.4-2.9,0s-0.8-1.3-1.2-1.5
	c-0.4-0.1-0.5-0.6-1.1-1.2c-0.6-0.7-1.6-1-2.1-0.4c-0.4,0.7-0.5,1.2-1.6,1.4s-3,1.2-3.6,1.6c-0.6,0.5-1.9,1-2.3,1
	C181.9,209.8,181.4,210,181.4,210z"/>
<g>
	<path class="st1" d="M588.1,460.8h3.1c2.3,0,3.7,1.4,3.7,4c0,2.7-1.8,3.9-4.3,3.9h-1.1v5.1h-1.4V460.8z M591,467.5
		c1.6,0,2.6-0.9,2.6-2.8c0-2-0.9-2.8-2.5-2.8h-1.6v5.6L591,467.5L591,467.5z"/>
	<path class="st1" d="M598.9,460.8h3.4c3.2,0,3.5,2.9,3.5,3.7c0,1.3-0.5,2.6-2.3,3.6l3.5,5.7h-1.6l-3.2-5.4c-0.6,0-1.3,0-1.9,0v5.4
		h-1.4V460.8z M601.5,467.3c1.8,0,2.9-0.9,2.9-2.8c0-1.7-0.7-2.5-2.9-2.5h-1.3v5.3H601.5z"/>
	<path class="st1" d="M612.7,460.6c3.8,0,4,4.3,4,6.7c0,1.7,0.1,6.7-4,6.7c-4,0-4-4.9-4-6.7C608.8,461.9,610.6,460.6,612.7,460.6z
		 M615.4,467.3c0-1.2,0.2-5.6-2.6-5.6c-2.9,0-2.6,4.8-2.6,5.6c0,1.5-0.1,5.6,2.6,5.6C614.1,472.9,615.4,472,615.4,467.3z"/>
	<path class="st1" d="M625.8,460.8h1.5l-2.9,13.1h-1.9l-2.9-13.1h1.5l2.3,11l0,0L625.8,460.8z"/>
	<path class="st1" d="M636.8,461.9H635v10.7h1.8v1.1h-4.9v-1.1h1.7v-10.7h-1.7v-1.1h4.9V461.9z"/>
	<path class="st1" d="M641.8,460.8h1.6l3.9,9.7h0.1v-9.7h1.4v13.1h-1.3l-4.2-10.5l0,0v10.3h-1.4L641.8,460.8L641.8,460.8z"/>
	<path class="st1" d="M658.3,463.6c0-1.1-0.8-1.9-1.9-1.9c-2.7,0-2.9,3.7-2.9,5.7c0,1.9,0.2,5.5,2.8,5.5c1.4,0,2.2-1,2.2-2.3h1.4
		c-0.1,2.1-1.4,3.4-3.6,3.4c-3.6,0-4.1-3.9-4.1-6.7c0-2.8,0.6-6.8,4.2-6.8c1.8,0,3.2,1.3,3.3,3.1L658.3,463.6L658.3,463.6z"/>
	<path class="st1" d="M669.2,461.9h-1.8v10.7h1.8v1.1h-4.9v-1.1h1.7v-10.7h-1.7v-1.1h4.9V461.9z"/>
	<path class="st1" d="M682.1,473.8h-1.5l-1.2-3.8h-3.9l-1.2,3.8H673l4.6-14L682.1,473.8z M675.9,468.8h3.3l-1.7-5.2L675.9,468.8z"/>
	<path class="st1" d="M587.8,483.8h3.3c2.5,0,4.2,1.4,4.2,6.5c0,5-1.5,6.5-4.4,6.5h-3.1V483.8z M589.1,495.6h1.7
		c1.9,0,3.1-0.5,3.1-5.3c0-5-1.4-5.3-3.2-5.3h-1.6V495.6z"/>
	<path class="st1" d="M605.8,484.9h-5.4v4.6h3.9v1.1h-3.9v5h5.5v1.1H599v-13h6.7L605.8,484.9L605.8,484.9z"/>
	<path class="st1" d="M625.9,486.6c0-1.1-0.8-1.9-1.9-1.9c-2.7,0-2.9,3.7-2.9,5.7c0,1.9,0.2,5.5,2.8,5.5c1.4,0,2.2-1,2.2-2.3h1.4
		c-0.1,2.1-1.4,3.4-3.6,3.4c-3.6,0-4.1-3.9-4.1-6.7c0-2.8,0.6-6.8,4.2-6.8c1.8,0,3.2,1.3,3.3,3.1L625.9,486.6L625.9,486.6z"/>
	<path class="st1" d="M637.9,483.8v9.6c0,2.4-1.8,3.7-3.6,3.7c-1.4,0-3.6-0.8-3.6-4.4v-8.8h1.4v9.6c0,1.9,1.2,2.5,2.3,2.5
		c1.7,0,2.2-1.2,2.2-2.7v-9.4h1.3V483.8z"/>
	<path class="st1" d="M648,486.2c-0.8-0.7-1.7-1.5-2.8-1.5c-1.2,0-2.1,0.8-2.1,2c0,0.7,0.1,1.3,1.9,2.4l1,0.6c2.4,1.5,3,2.1,3,3.7
		c0,2.3-1.5,3.7-3.8,3.7c-1.7,0-2.9-0.8-3.9-2.1l1-0.8c0.6,1,1.6,1.8,2.9,1.8c1.4,0,2.5-1,2.5-2.4c0-1-0.1-1.4-2.4-2.8l-1.2-0.7
		c-1.3-0.8-2.4-1.6-2.4-3.3c0-2,1.5-3.2,3.5-3.2c1.4,0,2.6,0.7,3.6,1.6L648,486.2z"/>
	<path class="st1" d="M658.3,486.6c0-1.1-0.8-1.9-1.9-1.9c-2.7,0-2.9,3.7-2.9,5.7c0,1.9,0.2,5.5,2.8,5.5c1.4,0,2.2-1,2.2-2.3h1.4
		c-0.1,2.1-1.4,3.4-3.6,3.4c-3.6,0-4.1-3.9-4.1-6.7c0-2.8,0.6-6.8,4.2-6.8c1.8,0,3.2,1.3,3.3,3.1L658.3,486.6L658.3,486.6z"/>
	<path class="st1" d="M666.7,483.6c3.8,0,4,4.3,4,6.7c0,1.7,0.1,6.7-4,6.7c-4,0-4-4.9-4-6.7C662.8,484.9,664.6,483.6,666.7,483.6z
		 M669.4,490.3c0-1.2,0.2-5.6-2.6-5.6c-2.9,0-2.6,4.8-2.6,5.6c0,1.5-0.1,5.6,2.6,5.6C668.1,495.9,669.4,495,669.4,490.3z"/>
</g>
<g>
	<path class="st1" d="M351.7,364.5h1.3v13h-1.4v-9.9l0,0L349,374l-2.6-6.4l0,0v9.8H345v-13h1.3l2.7,6.5L351.7,364.5z"/>
	<path class="st1" d="M364.4,377.5H363l-1.2-3.8h-3.9l-1.2,3.8h-1.5l4.6-14L364.4,377.5z M358.2,372.6h3.3l-1.7-5.2L358.2,372.6z"/>
	<path class="st1" d="M373,367.4c0-1.1-0.8-1.9-1.9-1.9c-2.7,0-2.9,3.7-2.9,5.7c0,1.9,0.2,5.5,2.8,5.5c1.4,0,2.2-1,2.2-2.3h1.4
		c-0.1,2.1-1.4,3.4-3.6,3.4c-3.6,0-4.1-3.9-4.1-6.7c0-2.8,0.6-6.8,4.2-6.8c1.8,0,3.2,1.3,3.3,3.1L373,367.4L373,367.4z"/>
	<path class="st1" d="M379.2,370.2h4.5v-5.7h1.4v13h-1.4v-6.2h-4.5v6.2h-1.4v-13h1.4V370.2z"/>
	<path class="st1" d="M395.8,364.5v9.6c0,2.4-1.8,3.7-3.6,3.7c-1.4,0-3.6-0.8-3.6-4.4v-8.8h1.4v9.6c0,1.9,1.2,2.5,2.3,2.5
		c1.7,0,2.2-1.2,2.2-2.7v-9.4h1.3V364.5z"/>
	<path class="st1" d="M410.8,364.5h3.1c2.3,0,3.7,1.4,3.7,4c0,2.7-1.8,3.9-4.3,3.9h-1.1v5.1h-1.4L410.8,364.5L410.8,364.5z
		 M413.7,371.3c1.6,0,2.6-0.9,2.6-2.8c0-2-0.9-2.8-2.5-2.8h-1.6v5.6L413.7,371.3L413.7,371.3z"/>
	<path class="st1" d="M427,365.7h-1.8v10.7h1.8v1.1h-4.9v-1.1h1.7v-10.7h-1.7v-1.1h4.9V365.7z"/>
	<path class="st1" d="M437.8,367.4c0-1.1-0.8-1.9-1.9-1.9c-2.7,0-2.9,3.7-2.9,5.7c0,1.9,0.2,5.5,2.8,5.5c1.4,0,2.2-1,2.2-2.3h1.4
		c-0.1,2.1-1.4,3.4-3.6,3.4c-3.6,0-4.1-3.9-4.1-6.7c0-2.8,0.6-6.8,4.2-6.8c1.8,0,3.2,1.3,3.3,3.1L437.8,367.4L437.8,367.4z"/>
	<path class="st1" d="M448.6,367.4c0-1.1-0.8-1.9-1.9-1.9c-2.7,0-2.9,3.7-2.9,5.7c0,1.9,0.2,5.5,2.8,5.5c1.4,0,2.2-1,2.2-2.3h1.4
		c-0.1,2.1-1.4,3.4-3.6,3.4c-3.6,0-4.1-3.9-4.1-6.7c0-2.8,0.6-6.8,4.2-6.8c1.8,0,3.2,1.3,3.3,3.1L448.6,367.4L448.6,367.4z"/>
	<path class="st1" d="M454.8,370.2h4.5v-5.7h1.4v13h-1.4v-6.2h-4.5v6.2h-1.4v-13h1.4V370.2z"/>
	<path class="st1" d="M471.4,364.5v9.6c0,2.4-1.8,3.7-3.6,3.7c-1.4,0-3.6-0.8-3.6-4.4v-8.8h1.4v9.6c0,1.9,1.2,2.5,2.3,2.5
		c1.7,0,2.2-1.2,2.2-2.7v-9.4h1.3V364.5z"/>
</g>
<g>
	<path class="st1" d="M520.4,386.3h1.5l-2.9,13.1h-1.9l-2.9-13.1h1.5l2.3,11l0,0L520.4,386.3z"/>
	<path class="st1" d="M533.6,399.2h-1.5l-1.2-3.8H527l-1.2,3.8h-1.5l4.6-14L533.6,399.2z M527.3,394.3h3.3L529,389L527.3,394.3z"/>
	<path class="st1" d="M538.5,398.1h5.6v1.1h-7v-13h1.4V398.1z"/>
	<path class="st1" d="M549.3,398.1h5.6v1.1h-7v-13h1.4V398.1z"/>
	<path class="st1" d="M565.2,387.4h-5.4v4.6h3.9v1.1h-3.9v5h5.5v1.1h-6.9v-13h6.7v1.2H565.2z"/>
	<path class="st1" d="M585.8,388.6c-0.8-0.7-1.7-1.5-2.8-1.5c-1.2,0-2.1,0.8-2.1,2c0,0.7,0.1,1.3,1.9,2.4l1,0.6c2.4,1.5,3,2.1,3,3.7
		c0,2.3-1.5,3.7-3.8,3.7c-1.7,0-2.9-0.8-3.9-2.1l1-0.8c0.6,1,1.6,1.8,2.9,1.8c1.4,0,2.5-1,2.5-2.4c0-1-0.1-1.4-2.4-2.8l-1.2-0.7
		c-1.3-0.8-2.4-1.6-2.4-3.3c0-2,1.5-3.2,3.5-3.2c1.4,0,2.6,0.7,3.6,1.6L585.8,388.6z"/>
	<path class="st1" d="M598.4,399.2h-1.5l-1.2-3.8h-3.9l-1.2,3.8h-1.5l4.6-14L598.4,399.2z M592.1,394.3h3.3l-1.7-5.2L592.1,394.3z"
		/>
	<path class="st1" d="M604.3,393.9v-1.1h4.4v6.7h-1.4v-1.3c-0.7,0.8-1.7,1.3-2.7,1.3s-3.9-0.2-3.9-6.4c0-5.1,1.6-7,4.1-7
		c2.2,0,3.2,1.5,3.3,3.6h-1.4c0.1-1.2-0.5-2.4-1.8-2.4c-2.7,0-2.8,3.8-2.8,5.7c0,1.8,0.1,5.5,2.6,5.5c1.3,0,2.6-1,2.6-3.6V394h-3
		V393.9z"/>
	<path class="st1" d="M612.3,386.3h3.4c3.2,0,3.5,2.9,3.5,3.7c0,1.3-0.5,2.6-2.3,3.6l3.5,5.7h-1.6l-3.2-5.4c-0.6,0-1.3,0-1.9,0v5.4
		h-1.4V386.3z M614.9,392.7c1.8,0,2.9-0.9,2.9-2.8c0-1.7-0.7-2.5-2.9-2.5h-1.3v5.3H614.9z"/>
	<path class="st1" d="M630.8,399.2h-1.5l-1.2-3.8h-3.9l-1.2,3.8h-1.5l4.6-14L630.8,399.2z M624.5,394.3h3.3l-1.7-5.2L624.5,394.3z"
		/>
	<path class="st1" d="M633.6,386.3h3.3c2.5,0,4.2,1.4,4.2,6.5c0,5-1.5,6.5-4.4,6.5h-3.1V386.3z M634.9,398.1h1.7
		c1.9,0,3.1-0.5,3.1-5.3c0-5-1.4-5.3-3.2-5.3h-1.6V398.1z"/>
	<path class="st1" d="M647.8,386c3.8,0,4,4.3,4,6.7c0,1.7,0.1,6.7-4,6.7c-4,0-4-4.9-4-6.7C643.8,387.3,645.6,386,647.8,386z
		 M650.4,392.7c0-1.2,0.2-5.6-2.6-5.6c-2.9,0-2.6,4.8-2.6,5.6c0,1.5-0.1,5.6,2.6,5.6C649.1,398.3,650.4,397.4,650.4,392.7z"/>
	<path class="st1" d="M520.2,406.3h3.3c2.5,0,4.2,1.4,4.2,6.5c0,5-1.5,6.5-4.4,6.5h-3.1V406.3z M521.5,418.1h1.7
		c1.9,0,3.1-0.5,3.1-5.3c0-5-1.4-5.3-3.2-5.3h-1.6V418.1z"/>
	<path class="st1" d="M538.2,407.4h-5.4v4.6h3.9v1.1h-3.9v5h5.5v1.1h-6.9v-13h6.7v1.2H538.2z"/>
	<path class="st1" d="M554.7,418.1h5.6v1.1h-7v-13h1.4V418.1z"/>
	<path class="st1" d="M566.8,406c3.8,0,4,4.3,4,6.7c0,1.7,0.1,6.7-4,6.7c-4,0-4-4.9-4-6.7C562.8,407.3,564.6,406,566.8,406z
		 M569.4,412.7c0-1.2,0.2-5.6-2.6-5.6c-2.9,0-2.6,4.8-2.6,5.6c0,1.5-0.1,5.6,2.6,5.6C568.1,418.3,569.4,417.4,569.4,412.7z"/>
	<path class="st1" d="M580.4,408.6c-0.8-0.7-1.7-1.5-2.8-1.5c-1.2,0-2.1,0.8-2.1,2c0,0.7,0.1,1.3,1.9,2.4l1,0.6c2.4,1.5,3,2.1,3,3.7
		c0,2.3-1.5,3.7-3.8,3.7c-1.7,0-2.9-0.8-3.9-2.1l1-0.8c0.6,1,1.6,1.8,2.9,1.8c1.4,0,2.5-1,2.5-2.4c0-1-0.1-1.4-2.4-2.8l-1.2-0.7
		c-1.3-0.8-2.4-1.6-2.4-3.3c0-2,1.5-3.2,3.5-3.2c1.4,0,2.6,0.7,3.6,1.6L580.4,408.6z"/>
	<path class="st1" d="M601.6,407.4h-1.8v10.7h1.8v1.1h-4.9v-1.1h1.7v-10.7h-1.7v-1.1h4.9V407.4z"/>
	<path class="st1" d="M606.6,406.3h1.6l3.9,9.7h0.1v-9.7h1.4v13.1h-1.3l-4.2-10.5l0,0v10.3h-1.4L606.6,406.3L606.6,406.3z"/>
	<path class="st1" d="M623.1,409.1c0-1.1-0.8-1.9-1.9-1.9c-2.7,0-2.9,3.7-2.9,5.7c0,1.9,0.2,5.5,2.8,5.5c1.4,0,2.2-1,2.2-2.3h1.4
		c-0.1,2.1-1.4,3.4-3.6,3.4c-3.6,0-4.1-3.9-4.1-6.7c0-2.8,0.6-6.8,4.2-6.8c1.8,0,3.2,1.3,3.3,3.1L623.1,409.1L623.1,409.1z"/>
	<path class="st1" d="M636.2,419.2h-1.5l-1.2-3.8h-3.9l-1.2,3.8H627l4.6-14L636.2,419.2z M629.9,414.3h3.3l-1.7-5.2L629.9,414.3z"/>
	<path class="st1" d="M645.2,408.6c-0.8-0.7-1.7-1.5-2.8-1.5c-1.2,0-2.1,0.8-2.1,2c0,0.7,0.1,1.3,1.9,2.4l1,0.6c2.4,1.5,3,2.1,3,3.7
		c0,2.3-1.5,3.7-3.8,3.7c-1.7,0-2.9-0.8-3.9-2.1l1-0.8c0.6,1,1.6,1.8,2.9,1.8c1.4,0,2.5-1,2.5-2.4c0-1-0.1-1.4-2.4-2.8l-1.2-0.7
		c-1.3-0.8-2.4-1.6-2.4-3.3c0-2,1.5-3.2,3.5-3.2c1.4,0,2.6,0.7,3.6,1.6L645.2,408.6z"/>
</g>
<g>
	<path class="st2" d="M35.3,494.7c-0.1-4.8-3.5-8.6-8.4-8.6c-12.2,0-13,16.5-13,25.4c0,8.4,0.9,24.4,12.4,24.4c6,0,9.6-4.5,9.7-10.2
		h6c-0.6,9.4-6.3,15.2-15.9,15.2c-15.8,0-18.2-17.4-18.2-29.6c0-12.6,2.6-30.2,18.9-30.2c8,0,14,5.6,14.5,13.6H35.3z"/>
	<path class="st2" d="M88.8,482.3v42.5c0,10.9-8.2,16.2-15.9,16.2c-6.2,0-16-3.5-16-19.4v-39.3h6v42.5c0,8.3,5.4,11.2,10,11.2
		c7.4,0,9.9-5.4,9.9-11.9v-41.8H88.8z"/>
	<path class="st2" d="M133.5,492.7c-3.5-3.1-7.5-6.5-12.5-6.5c-5.1,0-9.3,3.5-9.3,8.8c0,3,0.6,5.8,8.3,10.5l4.6,2.8
		c10.6,6.5,13.4,9.5,13.4,16.2c0,10.3-6.9,16.5-17,16.5c-7.4,0-13-3.6-17.4-9.4l4.6-3.7c2.8,4.5,7.3,8,12.8,8c6,0,11-4.5,11-10.6
		c0-4.6-0.3-6.2-10.5-12.3l-5.2-3.1c-5.7-3.4-10.6-7.3-10.6-14.5c0-9,6.9-14.2,15.5-14.2c6,0,11.5,3.2,15.8,7.2L133.5,492.7z"/>
	<path class="st2" d="M179.3,494.7c-0.1-4.8-3.5-8.6-8.4-8.6c-12.2,0-13,16.5-13,25.4c0,8.4,0.9,24.4,12.4,24.4
		c6,0,9.6-4.5,9.7-10.2h6c-0.6,9.4-6.3,15.2-15.9,15.2c-15.8,0-18.2-17.4-18.2-29.6c0-12.6,2.6-30.2,18.9-30.2c8,0,14,5.6,14.5,13.6
		H179.3z"/>
	<path class="st2" d="M216.9,481.1c16.8,0,17.7,19.2,17.7,29.9c0,7.7,0.6,29.9-17.7,29.9c-17.8,0-17.7-21.8-17.7-29.9
		C199.2,487,207.2,481.1,216.9,481.1z M228.6,511.1c0-5.3,0.8-24.9-11.7-24.9c-12.8,0-11.7,21.5-11.7,24.9c0,6.6-0.3,24.9,11.7,24.9
		C222.9,535.9,228.6,531.9,228.6,511.1z"/>
</g>
<g>
	<path class="st3" d="M16.4,444.2H22c5.4,0,4.9,4.9,4.6,6.1c-0.5,2.2-1.8,4.3-5.1,6l3.8,9.5h-2.7l-3.3-9c-1.1,0-2.2,0-3.3,0.1
		l-1.9,8.9h-2.2L16.4,444.2z M18.5,455c3.1,0,5.2-1.6,5.9-4.7c0.6-2.9-0.4-4.1-3.9-4.1h-2.2l-1.9,8.8L18.5,455L18.5,455z"/>
	<path class="st3" d="M45.5,446.1h-9l-1.6,7.7h6.4l-0.4,1.9h-6.4l-1.8,8.2h9.2l-0.4,1.9H30.1l4.6-21.6h11.2L45.5,446.1z"/>
	<path class="st3" d="M54.4,456.9l0.4-1.9h7.3l-2.4,11.2h-2.2l0.4-2.1c-1.4,1.3-3.2,2.1-5,2.1c-1.7,0-6.4-0.3-4.2-10.7
		c1.8-8.5,5.1-11.7,9.3-11.7c3.7,0,4.8,2.6,4.2,5.9H60c0.6-2,0.1-4-2.2-4c-4.5,0-6,6.3-6.7,9.5c-0.6,3-1.8,9.2,2.4,9.2
		c2.1,0,4.8-1.7,5.7-6l0.3-1.4h-5.1V456.9z"/>
	<path class="st3" d="M79.1,446.1h-2.9l-3.8,17.8h2.9l-0.4,1.9h-8.1l0.4-1.9h2.9l3.8-17.8H71l0.4-1.9h8.1L79.1,446.1z"/>
	<path class="st3" d="M93.6,443.8c6.3,0,5.1,7.2,4.3,11.2c-0.6,2.9-2.2,11.2-9,11.2c-6.7,0-4.9-8.2-4.2-11.2
		C86.5,446,89.9,443.8,93.6,443.8z M95.6,455c0.4-2,2.3-9.3-2.4-9.3c-4.8,0-6.1,8.1-6.4,9.3c-0.5,2.5-2.1,9.3,2.4,9.3
		C91.4,464.4,93.9,462.9,95.6,455z M98.1,438.9l-6.6,3.9l-0.8-1.5l6.2-4.3L98.1,438.9z"/>
	<path class="st3" d="M105.9,444.2h2.6l3.1,16.1h0.1l3.4-16.1h2.2l-4.6,21.8h-2.1l-3.4-17.4l-0.1,0.1l-3.7,17.2h-2.2L105.9,444.2z"
		/>
</g>
<g>
	<g>
		<path class="st4" d="M879.5,140.8c3.8,29.6-17.2,56.7-47,60.5c-29.7,3.8-56.9-17.1-60.7-46.7s17.2-56.7,47-60.5
			C848.5,90.3,875.7,111.2,879.5,140.8z"/>
	</g>
	<g>
		<g id="XMLID_3_">
			<g>
				<path class="st1" d="M787.8,167.5c0,0,0.2,2.7,8.3,1.5c0,0,4.6,0.3,19-5.6l16.7,12c0,0,1.3,0.9,4.3-0.8l0.3-0.2l-6.1-10.9
					l2.4-6.7c0,0,12.2-4.4,20.4-9l1.8,2.4c0,0,1.2,1.2,2.4-0.5l1.7-7.5c0,0,2.2-1.5,1.9-2.2c0,0-0.6-1.2-1.4-0.9l1.8-9.1
					c0,0-2.2-1.7-4.4,1.5l-2.7,5.4l-3.8-6.8c0,0-1.3,0.4-1.8,2.2l1.2,8.8c-10.9,2.7-10.9,2.7-14.9,3.8l1.7-6.7l12.6-23.5l-2.7-0.3
					c0,0-1.4,0-2.3,1.3l-29.9,36.6c0,0-12.7,4.3-13.3,4.6c0,0-1.1,0.1-2.4,0.4c0,0-4,0.4-6.6,3.5c0,0-2.8,3.2-3.7,4
					C788.3,165.1,787.2,166.5,787.8,167.5z"/>
			</g>
			<g>
				<path class="st5" d="M856.9,131.7l-2.7,5.4l-3.8-6.8c0,0-1.3,0.4-1.8,2.2l1.2,8.8c-10.9,2.7-10.9,2.7-14.9,3.8l1.7-6.7
					l12.6-23.5l-2.7-0.3c0,0-1.4,0-2.3,1.3l-29.9,36.6c0,0-12.7,4.3-13.3,4.6c0,0-1.1,0.1-2.4,0.4c0,0-4,0.4-6.6,3.5
					c0,0-2.8,3.2-3.7,4c0,0-1.2,1.4-0.6,2.5c0,0,0.2,2.7,8.3,1.5c0,0,4.6,0.3,19-5.6l16.7,12c0,0,1.3,0.9,4.3-0.8l0.3-0.2l-6.1-10.9
					l2.4-6.7c0,0,12.2-4.4,20.4-9l1.8,2.4c0,0,1.2,1.2,2.4-0.5l1.7-7.5c0,0,2.2-1.5,1.9-2.2c0,0-0.6-1.2-1.4-0.9l1.8-9.1
					C861.3,130.2,859.1,128.5,856.9,131.7z"/>
			</g>
		</g>
	</g>
	<g>
		<path class="st6" d="M877.2,141.1c3.6,28.3-16.5,54.2-45,57.9c-28.5,3.6-54.5-16.4-58.1-44.7s16.5-54.2,45-57.9
			C847.6,92.7,873.6,112.7,877.2,141.1z"/>
		<line class="st7" x1="784.6" y1="116.2" x2="865.5" y2="180.8"/>
	</g>
</g>
<rect x="927.4" y="86.1" class="st3" width="159.7" height="33"/>
<g>
	<path class="st3" d="M944.6,141.1c-0.9-0.8-1.9-1.5-3.2-1.5c-1.5,0-2.7,1-2.7,2.5c0,1.1,0.5,1.9,2.3,2.9l1.2,0.7
		c2.3,1.4,3.3,2.2,3.3,4c0,2.5-1.6,4-4.1,4c-1.7,0-3-0.8-4.1-2.1l0.7-0.6c0.8,1.1,2,1.9,3.3,1.9c1.7,0,3.1-1.2,3.1-3
		c0-1.4-0.2-1.9-2.8-3.5l-1.3-0.8c-1.4-0.8-2.6-1.8-2.6-3.5c0-2.2,1.6-3.4,3.7-3.4c1.4,0,2.7,0.7,3.7,1.6L944.6,141.1z"/>
	<path class="st3" d="M957.3,152.7c-1.2,0.5-2.4,1-3.8,1c-3.1,0-4.2-2.8-4.2-5.5s1.2-5.6,4.3-5.6c1.8,0,3.9,1.3,3.9,5.7h-7.2
		c0.2,3.7,1.7,4.6,3.3,4.6c1.2,0,2.3-0.4,3.3-1L957.3,152.7z M956.5,147.5c0.1-1.8-1-4.1-3.1-4.1s-3.3,2.2-3.2,4.1H956.5z"/>
	<path class="st3" d="M980.6,149.7c0,1.3,0.1,2.6,0.5,3.8l-0.9,0.1l-0.4-1.7c-0.6,1.1-1.6,1.7-2.8,1.7c-1.8,0-4.1-1.5-4.1-5.6
		c0-4.2,2.7-5.4,4.2-5.4c0.9,0,1.9,0.3,2.6,0.9v-4.9h0.9V149.7z M979.6,144.5c-0.7-0.6-1.5-1-2.4-1c-1.2,0-3.5,0.8-3.5,4.7
		c0,3.7,2,4.7,3.2,4.7c1.3,0,2.2-1,2.6-2.1v-6.3H979.6z"/>
	<path class="st3" d="M993,152.7c-1.2,0.5-2.4,1-3.8,1c-3.1,0-4.2-2.8-4.2-5.5s1.2-5.6,4.3-5.6c1.8,0,3.9,1.3,3.9,5.7H986
		c0.2,3.7,1.7,4.6,3.3,4.6c1.2,0,2.3-0.4,3.3-1L993,152.7z M992.2,147.5c0.1-1.8-1-4.1-3.1-4.1s-3.3,2.2-3.2,4.1H992.2z"/>
	<path class="st3" d="M1005.1,151.9c-1,1.1-2,1.8-3.5,1.8c-1.9,0-4.4-1.2-4.4-5.4c0-4.3,2.4-5.6,4.3-5.6c1.6,0,2.8,0.8,3.6,2.1
		l-0.8,0.6c-0.6-1.1-1.5-1.9-2.8-1.9s-3.4,0.8-3.4,4.7c0,3.6,1.9,4.8,3.5,4.8c1.2,0,2.2-0.8,2.9-1.7L1005.1,151.9z"/>
	<path class="st3" d="M1012.5,139.4h-3.1v-0.8h4.1v14.8h-0.9L1012.5,139.4L1012.5,139.4z"/>
	<path class="st3" d="M1027.2,153.7c-0.2-0.6-0.3-1.2-0.4-1.8c-0.7,1.1-1.5,1.8-2.9,1.8c-1.9,0-2.9-1.6-2.9-3.4c0-2,1.1-3.8,3.2-3.8
		c0.9,0,1.8,0.3,2.6,0.7c0.1-2.7-0.4-3.8-2.2-3.8c-0.9,0-1.7,0.3-2.5,0.7l-0.2-0.9c0.9-0.4,1.8-0.6,2.8-0.6c1.9,0,3.1,1.4,3,3.7
		l-0.1,4.3c0,1,0.2,2,0.5,2.9L1027.2,153.7z M1026.7,148c-0.7-0.3-1.5-0.6-2.3-0.6c-1.8,0-2.5,1.5-2.5,3c0,1.2,0.7,2.5,2,2.5
		c1.3,0,2.1-1.1,2.8-2.1V148z"/>
	<path class="st3" d="M1035,153.4h-0.9v-7.3l-0.4-3.4h0.9l0.4,3c0.7-1.5,1.8-3.1,3.6-3.1c1.8,0,2.2,1.8,2.2,3.2h-0.9
		c0-1-0.1-2.4-1.4-2.4c-1.1,0-3.5,1.7-3.5,5.7L1035,153.4L1035,153.4z"/>
	<path class="st3" d="M1051,153.7c-0.2-0.6-0.3-1.2-0.4-1.8c-0.7,1.1-1.5,1.8-2.9,1.8c-1.9,0-2.9-1.6-2.9-3.4c0-2,1.1-3.8,3.2-3.8
		c0.9,0,1.8,0.3,2.6,0.7c0.1-2.7-0.4-3.8-2.2-3.8c-0.9,0-1.7,0.3-2.5,0.7l-0.2-0.9c0.9-0.4,1.8-0.6,2.8-0.6c1.9,0,3.1,1.4,3,3.7
		l-0.1,4.3c0,1,0.2,2,0.5,2.9L1051,153.7z M1050.5,148c-0.7-0.3-1.5-0.6-2.3-0.6c-1.8,0-2.5,1.5-2.5,3c0,1.2,0.7,2.5,2,2.5
		s2.1-1.1,2.8-2.1V148z"/>
	<path class="st3" d="M1076.3,152.7c-1.2,0.5-2.4,1-3.8,1c-3.1,0-4.2-2.8-4.2-5.5s1.2-5.6,4.3-5.6c1.8,0,3.9,1.3,3.9,5.7h-7.2
		c0.2,3.7,1.7,4.6,3.3,4.6c1.2,0,2.3-0.4,3.3-1L1076.3,152.7z M1075.5,147.5c0.1-1.8-1-4.1-3.1-4.1s-3.3,2.2-3.2,4.1H1075.5z"/>
	<path class="st3" d="M1083.9,139.4h-3.1v-0.8h4.1v14.8h-0.9L1083.9,139.4L1083.9,139.4z"/>
	<path class="st3" d="M1112.1,139.8h-6.1v5.8h4.4v0.8h-4.4v6.2h6.2v0.8h-7.2V139h7L1112.1,139.8L1112.1,139.8z"/>
	<path class="st3" d="M1122.5,144.5c-0.8-0.6-1.8-1.1-2.8-1.1s-2.1,0.8-2.1,1.9c0,1.2,1.4,1.8,2.3,2.2c1.6,0.6,3.3,1.3,3.3,3.3
		c0,1.8-1.6,2.8-3.2,2.8c-1.3,0-3-0.8-4-1.7l0.5-0.8c0.9,0.9,2.3,1.7,3.5,1.7s2.2-0.7,2.2-1.9c0-1.6-1.2-2-2.5-2.5
		c-1.5-0.6-3.2-1.2-3.2-3.1c0-1.5,1.5-2.6,3.1-2.6c1.2,0,2.2,0.4,3.2,1.1L1122.5,144.5z"/>
	<path class="st3" d="M1134.9,143.7h-3.9v7.2c0,1,0.4,2,1.7,2c1.2,0,2-0.9,2.5-1.9l0.9,0.2c-0.7,1.4-1.8,2.5-3.4,2.5
		c-1.4,0-2.6-0.7-2.6-3.3v-6.7h-2.4v-0.8h2.4v-3.4h0.9v3.4h3.9V143.7z"/>
	<path class="st3" d="M1146.2,153.7c-0.2-0.6-0.3-1.2-0.4-1.8c-0.7,1.1-1.5,1.8-2.9,1.8c-1.9,0-2.9-1.6-2.9-3.4c0-2,1.1-3.8,3.2-3.8
		c0.9,0,1.8,0.3,2.6,0.7c0.1-2.7-0.4-3.8-2.2-3.8c-0.9,0-1.7,0.3-2.5,0.7l-0.2-0.9c0.9-0.4,1.8-0.6,2.8-0.6c1.9,0,3.1,1.4,3,3.7
		l-0.1,4.3c0,1,0.2,2,0.5,2.9L1146.2,153.7z M1145.7,148c-0.7-0.3-1.5-0.6-2.3-0.6c-1.8,0-2.5,1.5-2.5,3c0,1.2,0.7,2.5,2,2.5
		s2.1-1.1,2.8-2.1V148z"/>
	<path class="st3" d="M1159.1,149.7c0,1.3,0.1,2.6,0.5,3.8l-0.9,0.1l-0.4-1.7c-0.6,1.1-1.6,1.7-2.8,1.7c-1.8,0-4.1-1.5-4.1-5.6
		c0-4.2,2.7-5.4,4.2-5.4c0.9,0,1.9,0.3,2.6,0.9v-4.9h0.9L1159.1,149.7L1159.1,149.7z M1158.1,144.5c-0.7-0.6-1.5-1-2.4-1
		c-1.2,0-3.5,0.8-3.5,4.7c0,3.7,2,4.7,3.2,4.7c1.3,0,2.2-1,2.6-2.1v-6.3H1158.1z"/>
	<path class="st3" d="M1163.5,148.1c0-4.1,2.1-5.5,4-5.5c1.8,0,4.1,1.2,4.1,5.5s-2.3,5.5-4.1,5.5
		C1165.8,153.7,1163.5,152.5,1163.5,148.1z M1170.7,148.1c0-2.1-0.5-4.7-3.1-4.7s-3.1,2.6-3.1,4.7c0,2.1,0.5,4.7,3.1,4.7
		C1170.1,152.9,1170.7,150.2,1170.7,148.1z"/>
	<path class="st3" d="M1194.8,149.7c0,1.3,0.1,2.6,0.5,3.8l-0.9,0.1l-0.4-1.7c-0.6,1.1-1.6,1.7-2.8,1.7c-1.8,0-4.1-1.5-4.1-5.6
		c0-4.2,2.7-5.4,4.2-5.4c0.9,0,1.9,0.3,2.6,0.9v-4.9h0.9L1194.8,149.7L1194.8,149.7z M1193.8,144.5c-0.7-0.6-1.5-1-2.4-1
		c-1.2,0-3.5,0.8-3.5,4.7c0,3.7,2,4.7,3.2,4.7c1.3,0,2.2-1,2.6-2.1v-6.3H1193.8z"/>
	<path class="st3" d="M1207.2,152.7c-1.2,0.5-2.4,1-3.8,1c-3.1,0-4.2-2.8-4.2-5.5s1.2-5.6,4.3-5.6c1.8,0,3.9,1.3,3.9,5.7h-7.2
		c0.2,3.7,1.7,4.6,3.3,4.6c1.2,0,2.3-0.4,3.3-1L1207.2,152.7z M1206.4,147.5c0.1-1.8-1-4.1-3.1-4.1s-3.3,2.2-3.2,4.1H1206.4z"/>
	<path class="st3" d="M1231.1,139.8h-6.1v5.8h4.4v0.8h-4.4v6.2h6.2v0.8h-7.2V139h7L1231.1,139.8L1231.1,139.8z"/>
	<path class="st3" d="M1234.5,146.1c0-1.4-0.2-2.5-0.4-3.4h1l0.3,1.4c0.6-0.8,1.4-1.4,2.5-1.4c0.9,0,1.3,0.5,1.6,1.3
		c0.5-0.7,1.3-1.3,2.2-1.3c1.4,0,2.1,0.9,2.1,2.2v8.6h-0.9V145c0-1.1-0.5-1.5-1.3-1.5s-1.5,0.7-1.9,1.4v8.7h-0.9v-8.1
		c0-0.8-0.1-1.9-1.1-1.9c-0.9,0-1.7,0.7-2.1,1.5v8.5h-0.9v-7.5H1234.5z"/>
	<path class="st3" d="M1254.8,152.7c-1.2,0.5-2.4,1-3.8,1c-3.1,0-4.2-2.8-4.2-5.5s1.2-5.6,4.3-5.6c1.8,0,3.9,1.3,3.9,5.7h-7.2
		c0.2,3.7,1.7,4.6,3.3,4.6c1.2,0,2.3-0.4,3.3-1L1254.8,152.7z M1254,147.5c0.1-1.8-1-4.1-3.1-4.1s-3.3,2.2-3.2,4.1H1254z"/>
	<path class="st3" d="M1261.1,153.4h-0.9v-7.3l-0.4-3.4h0.9l0.4,3c0.7-1.5,1.8-3.1,3.6-3.1c1.8,0,2.2,1.8,2.2,3.2h-0.9
		c0-1-0.1-2.4-1.4-2.4c-1.1,0-3.5,1.7-3.5,5.7L1261.1,153.4L1261.1,153.4z"/>
	<path class="st3" d="M1272,154.8c0.6,0.7,1.6,1.2,2.6,1.2c1.2,0,2.7-0.9,2.7-3.5v-1.3c-0.7,0.8-1.9,1.3-3,1.3
		c-2.5,0-3.7-2.5-3.7-4.7c0-2.4,1-5.1,3.9-5.1c1.2,0,2,0.5,2.9,1.2l0.3-1.2h1c-0.5,1.8-0.5,3.7-0.5,5.6v4.4c0,3.1-2.2,4.2-3.8,4.2
		c-1.1,0-2.3-0.6-3.1-1.4L1272,154.8z M1277.2,145c-0.6-0.9-1.6-1.5-2.8-1.5c-2.2,0-2.9,2.4-2.9,4.2c0,3.3,1.9,4.1,2.8,4.1
		c1.1,0,2.3-0.7,2.9-1.6V145z"/>
	<path class="st3" d="M1290.5,152.7c-1.2,0.5-2.4,1-3.8,1c-3.1,0-4.2-2.8-4.2-5.5s1.2-5.6,4.3-5.6c1.8,0,3.9,1.3,3.9,5.7h-7.2
		c0.2,3.7,1.7,4.6,3.3,4.6c1.2,0,2.3-0.4,3.3-1L1290.5,152.7z M1289.7,147.5c0.1-1.8-1-4.1-3.1-4.1s-3.3,2.2-3.2,4.1H1289.7z"/>
	<path class="st3" d="M1295.8,153.4h-0.9v-5.3c0-1.8-0.1-3.6-0.4-5.4h0.9l0.4,3l0,0c0.4-1.6,2.1-3.1,3.8-3.1c1.9,0,2.5,1.7,2.5,3.3
		v7.5h-0.9v-7.1c0-1.2,0-2.9-1.6-2.9c-1.5,0-3.6,1.5-3.6,5.6v4.4H1295.8z"/>
	<path class="st3" d="M1314.5,151.9c-1,1.1-2,1.8-3.5,1.8c-1.9,0-4.4-1.2-4.4-5.4c0-4.3,2.4-5.6,4.3-5.6c1.6,0,2.8,0.8,3.6,2.1
		l-0.8,0.6c-0.6-1.1-1.5-1.9-2.8-1.9s-3.4,0.8-3.4,4.7c0,3.6,1.9,4.8,3.5,4.8c1.2,0,2.2-0.8,2.9-1.7L1314.5,151.9z"/>
	<path class="st3" d="M1322,143.7h-3.1v-0.8h4v10.6h-0.9V143.7z M1323.5,139.8c0,0.6-0.5,1-1.1,1s-1-0.5-1-1s0.5-1,1-1
		S1323.5,139.2,1323.5,139.8z"/>
	<path class="st3" d="M1336.6,153.7c-0.2-0.6-0.3-1.2-0.4-1.8c-0.7,1.1-1.5,1.8-2.9,1.8c-1.9,0-2.9-1.6-2.9-3.4c0-2,1.1-3.8,3.2-3.8
		c0.9,0,1.8,0.3,2.6,0.7c0.1-2.7-0.4-3.8-2.2-3.8c-0.9,0-1.7,0.3-2.5,0.7l-0.2-0.9c0.9-0.4,1.8-0.6,2.8-0.6c1.9,0,3.1,1.4,3,3.7
		l-0.1,4.3c0,1,0.2,2,0.5,2.9L1336.6,153.7z M1336.1,148c-0.7-0.3-1.5-0.6-2.3-0.6c-1.8,0-2.5,1.5-2.5,3c0,1.2,0.7,2.5,2,2.5
		s2.1-1.1,2.8-2.1V148z"/>
	<path class="st3" d="M943.9,181.7c-0.2-0.6-0.3-1.2-0.4-1.8c-0.7,1.1-1.5,1.8-2.9,1.8c-1.9,0-2.9-1.6-2.9-3.4c0-2,1.1-3.8,3.2-3.8
		c0.9,0,1.8,0.3,2.6,0.7c0.1-2.7-0.4-3.8-2.2-3.8c-0.9,0-1.7,0.3-2.5,0.7l-0.2-0.9c0.9-0.4,1.8-0.6,2.8-0.6c1.9,0,3.1,1.4,3,3.7
		l-0.1,4.3c0,1,0.2,2,0.5,2.9L943.9,181.7z M943.4,176c-0.7-0.3-1.5-0.6-2.3-0.6c-1.8,0-2.5,1.5-2.5,3c0,1.2,0.7,2.5,2,2.5
		s2.1-1.1,2.8-2.1V176z"/>
	<path class="st3" d="M962.6,181.4h-0.9v-5.3c0-1.8-0.1-3.6-0.4-5.4h0.9l0.4,3l0,0c0.4-1.6,2.1-3.1,3.8-3.1c1.9,0,2.5,1.7,2.5,3.3
		v7.5H968v-7.1c0-1.2,0-2.9-1.6-2.9c-1.5,0-3.6,1.5-3.6,5.6v4.4H962.6z"/>
	<path class="st3" d="M976.9,171.7h-3.1v-0.8h4v10.6h-0.9V171.7z M978.4,167.8c0,0.6-0.5,1-1.1,1s-1-0.5-1-1s0.5-1,1-1
		S978.4,167.2,978.4,167.8z"/>
	<path class="st3" d="M992.9,170.9l-3.3,10.7h-1.1l-3.3-10.7h1l2.9,9.3l2.9-9.3H992.9z"/>
	<path class="st3" d="M1004.9,180.7c-1.2,0.5-2.4,1-3.8,1c-3.1,0-4.2-2.8-4.2-5.5s1.2-5.6,4.3-5.6c1.8,0,3.9,1.3,3.9,5.7h-7.2
		c0.2,3.7,1.7,4.6,3.3,4.6c1.2,0,2.3-0.4,3.3-1L1004.9,180.7z M1004.1,175.5c0.1-1.8-1-4.1-3.1-4.1s-3.3,2.2-3.2,4.1H1004.1z"/>
	<path class="st3" d="M1012.5,167.4h-3.1v-0.8h4.1v14.8h-0.9L1012.5,167.4L1012.5,167.4z"/>
	<path class="st3" d="M1034,181.4h-0.9v-5.3c0-1.8-0.1-3.6-0.4-5.4h0.9l0.4,3l0,0c0.4-1.6,2.1-3.1,3.8-3.1c1.9,0,2.5,1.7,2.5,3.3
		v7.5h-0.9v-7.1c0-1.2,0-2.9-1.6-2.9c-1.5,0-3.6,1.5-3.6,5.6v4.4H1034z"/>
	<path class="st3" d="M1051,181.7c-0.2-0.6-0.3-1.2-0.4-1.8c-0.7,1.1-1.5,1.8-2.9,1.8c-1.9,0-2.9-1.6-2.9-3.4c0-2,1.1-3.8,3.2-3.8
		c0.9,0,1.8,0.3,2.6,0.7c0.1-2.7-0.4-3.8-2.2-3.8c-0.9,0-1.7,0.3-2.5,0.7l-0.2-0.9c0.9-0.4,1.8-0.6,2.8-0.6c1.9,0,3.1,1.4,3,3.7
		l-0.1,4.3c0,1,0.2,2,0.5,2.9L1051,181.7z M1050.5,176c-0.7-0.3-1.5-0.6-2.3-0.6c-1.8,0-2.5,1.5-2.5,3c0,1.2,0.7,2.5,2,2.5
		s2.1-1.1,2.8-2.1V176z"/>
	<path class="st3" d="M1064.6,179.9c-1,1.1-2,1.8-3.5,1.8c-1.9,0-4.4-1.2-4.4-5.4c0-4.3,2.4-5.6,4.3-5.6c1.6,0,2.8,0.8,3.6,2.1
		l-0.8,0.6c-0.6-1.1-1.5-1.9-2.8-1.9s-3.4,0.8-3.4,4.7c0,3.6,1.9,4.8,3.5,4.8c1.2,0,2.2-0.8,2.9-1.7L1064.6,179.9z"/>
	<path class="st3" d="M1072.1,171.7h-3.1v-0.8h4v10.6h-0.9V171.7z M1073.6,167.8c0,0.6-0.5,1-1.1,1s-1-0.5-1-1s0.5-1,1-1
		S1073.6,167.2,1073.6,167.8z"/>
	<path class="st3" d="M1080.2,176.1c0-4.1,2.1-5.5,4-5.5c1.8,0,4.1,1.2,4.1,5.5s-2.3,5.5-4.1,5.5
		C1082.5,181.7,1080.2,180.5,1080.2,176.1z M1087.4,176.1c0-2.1-0.5-4.7-3.1-4.7s-3.1,2.6-3.1,4.7c0,2.1,0.5,4.7,3.1,4.7
		C1086.8,180.9,1087.4,178.2,1087.4,176.1z"/>
	<path class="st3" d="M1093.5,181.4h-0.9v-5.3c0-1.8-0.1-3.6-0.4-5.4h0.9l0.4,3l0,0c0.4-1.6,2.1-3.1,3.8-3.1c1.9,0,2.5,1.7,2.5,3.3
		v7.5h-0.9v-7.1c0-1.2,0-2.9-1.6-2.9c-1.5,0-3.6,1.5-3.6,5.6v4.4H1093.5z"/>
	<path class="st3" d="M1110.5,181.7c-0.2-0.6-0.3-1.2-0.4-1.8c-0.7,1.1-1.5,1.8-2.9,1.8c-1.9,0-2.9-1.6-2.9-3.4c0-2,1.1-3.8,3.2-3.8
		c0.9,0,1.8,0.3,2.6,0.7c0.1-2.7-0.4-3.8-2.2-3.8c-0.9,0-1.7,0.3-2.5,0.7l-0.2-0.9c0.9-0.4,1.8-0.6,2.8-0.6c1.9,0,3.1,1.4,3,3.7
		l-0.1,4.3c0,1,0.2,2,0.5,2.9L1110.5,181.7z M1110,176c-0.7-0.3-1.5-0.6-2.3-0.6c-1.8,0-2.5,1.5-2.5,3c0,1.2,0.7,2.5,2,2.5
		s2.1-1.1,2.8-2.1V176z"/>
	<path class="st3" d="M1119.6,167.4h-3.1v-0.8h4.1v14.8h-0.9L1119.6,167.4L1119.6,167.4z"/>
	<path class="st3" d="M1148,170.9l-4,10.1c-0.6,1.4-1.5,3.9-3.3,3.9c-1.2,0-2.1-0.9-2.4-2l0.8-0.4c0.3,0.7,0.8,1.6,1.6,1.6
		c1,0,1.5-1.2,1.9-2l0.8-1.8l-3.4-9.4h1l2.9,8.1l3-8.1L1148,170.9L1148,170.9z"/>
	<path class="st3" d="M1171.5,180.7c-1.2,0.5-2.4,1-3.8,1c-3.1,0-4.2-2.8-4.2-5.5s1.2-5.6,4.3-5.6c1.8,0,3.9,1.3,3.9,5.7h-7.2
		c0.2,3.7,1.7,4.6,3.3,4.6c1.2,0,2.3-0.4,3.3-1L1171.5,180.7z M1170.7,175.5c0.1-1.8-1-4.1-3.1-4.1s-3.3,2.2-3.2,4.1H1170.7z"/>
	<path class="st3" d="M1179.1,167.4h-3.1v-0.8h4.1v14.8h-0.9L1179.1,167.4L1179.1,167.4z"/>
	<path class="st3" d="M1207.4,179.9c-1,1.1-2,1.8-3.5,1.8c-1.9,0-4.4-1.2-4.4-5.4c0-4.3,2.4-5.6,4.3-5.6c1.6,0,2.8,0.8,3.6,2.1
		l-0.8,0.6c-0.6-1.1-1.5-1.9-2.8-1.9s-3.4,0.8-3.4,4.7c0,3.6,1.9,4.8,3.5,4.8c1.2,0,2.2-0.8,2.9-1.7L1207.4,179.9z"/>
	<path class="st3" d="M1211.1,176.1c0-4.1,2.1-5.5,4-5.5c1.8,0,4.1,1.2,4.1,5.5s-2.3,5.5-4.1,5.5
		C1213.4,181.7,1211.1,180.5,1211.1,176.1z M1218.3,176.1c0-2.1-0.5-4.7-3.1-4.7s-3.1,2.6-3.1,4.7c0,2.1,0.5,4.7,3.1,4.7
		C1217.7,180.9,1218.3,178.2,1218.3,176.1z"/>
	<path class="st3" d="M1224.4,181.4h-0.9v-5.3c0-1.8-0.1-3.6-0.4-5.4h0.9l0.4,3l0,0c0.4-1.6,2.1-3.1,3.8-3.1c1.9,0,2.5,1.7,2.5,3.3
		v7.5h-0.9v-7.1c0-1.2,0-2.9-1.6-2.9c-1.5,0-3.6,1.5-3.6,5.6v4.4H1224.4z"/>
	<path class="st3" d="M1241.5,172.5c-0.8-0.6-1.8-1.1-2.8-1.1s-2.1,0.8-2.1,1.9c0,1.2,1.4,1.8,2.3,2.2c1.6,0.6,3.3,1.3,3.3,3.3
		c0,1.8-1.6,2.8-3.2,2.8c-1.3,0-3-0.8-4-1.7l0.5-0.8c0.9,0.9,2.3,1.7,3.5,1.7s2.2-0.7,2.2-1.9c0-1.6-1.2-2-2.5-2.5
		c-1.5-0.6-3.2-1.2-3.2-3.1c0-1.5,1.5-2.6,3.1-2.6c1.2,0,2.2,0.4,3.2,1.1L1241.5,172.5z"/>
	<path class="st3" d="M1250.6,171.7h-3.1v-0.8h4v10.6h-0.9V171.7z M1252.1,167.8c0,0.6-0.5,1-1.1,1s-1-0.5-1-1s0.5-1,1-1
		S1252.1,167.2,1252.1,167.8z"/>
	<path class="st3" d="M1260.1,182.8c0.6,0.7,1.6,1.2,2.6,1.2c1.2,0,2.7-0.9,2.7-3.5v-1.3c-0.7,0.8-1.9,1.3-3,1.3
		c-2.5,0-3.7-2.5-3.7-4.7c0-2.4,1-5.1,3.9-5.1c1.2,0,2,0.5,2.9,1.2l0.3-1.2h1c-0.5,1.8-0.5,3.7-0.5,5.6v4.4c0,3.1-2.2,4.2-3.8,4.2
		c-1.1,0-2.3-0.6-3.1-1.4L1260.1,182.8z M1265.3,173c-0.6-0.9-1.6-1.5-2.8-1.5c-2.2,0-2.9,2.4-2.9,4.2c0,3.3,1.9,4.1,2.8,4.1
		c1.1,0,2.3-0.7,2.9-1.6V173z"/>
	<path class="st3" d="M1277.3,170.9h0.9v5.2c0,1.8,0.1,3.6,0.4,5.4h-0.9l-0.4-3l0,0c-0.4,1.6-2.1,3.2-3.7,3.2
		c-1.9,0-2.5-1.7-2.5-3.3v-7.5h0.9v7c0,2,0.5,3,1.6,3c1.6,0,3.6-1.7,3.6-5.7L1277.3,170.9L1277.3,170.9z"/>
	<path class="st3" d="M1286.3,171.7h-3.1v-0.8h4v10.6h-0.9V171.7z M1287.8,167.8c0,0.6-0.5,1-1.1,1s-1-0.5-1-1s0.5-1,1-1
		S1287.8,167.2,1287.8,167.8z"/>
	<path class="st3" d="M1302.4,180.7c-1.2,0.5-2.4,1-3.8,1c-3.1,0-4.2-2.8-4.2-5.5s1.2-5.6,4.3-5.6c1.8,0,3.9,1.3,3.9,5.7h-7.2
		c0.2,3.7,1.7,4.6,3.3,4.6c1.2,0,2.3-0.4,3.3-1L1302.4,180.7z M1301.6,175.5c0.1-1.8-1-4.1-3.1-4.1s-3.3,2.2-3.2,4.1H1301.6z"/>
	<path class="st3" d="M1307.7,181.4h-0.9v-5.3c0-1.8-0.1-3.6-0.4-5.4h0.9l0.4,3l0,0c0.4-1.6,2.1-3.1,3.8-3.1c1.9,0,2.5,1.7,2.5,3.3
		v7.5h-0.9v-7.1c0-1.2,0-2.9-1.6-2.9c-1.5,0-3.6,1.5-3.6,5.6v4.4H1307.7z"/>
	<path class="st3" d="M1325.3,171.7h-3.9v7.2c0,1,0.4,2,1.7,2c1.2,0,2-0.9,2.5-1.9l0.9,0.2c-0.7,1.4-1.8,2.5-3.4,2.5
		c-1.4,0-2.6-0.7-2.6-3.3v-6.7h-2.4v-0.8h2.4v-3.4h0.9v3.4h3.9V171.7z"/>
	<path class="st3" d="M1338.1,180.7c-1.2,0.5-2.4,1-3.8,1c-3.1,0-4.2-2.8-4.2-5.5s1.2-5.6,4.3-5.6c1.8,0,3.9,1.3,3.9,5.7h-7.2
		c0.2,3.7,1.7,4.6,3.3,4.6c1.2,0,2.3-0.4,3.3-1L1338.1,180.7z M1337.3,175.5c0.1-1.8-1-4.1-3.1-4.1s-3.3,2.2-3.2,4.1H1337.3z"/>
	<path class="st3" d="M945.6,207.9c-1,1.1-2,1.8-3.5,1.8c-1.9,0-4.4-1.2-4.4-5.4c0-4.3,2.4-5.6,4.3-5.6c1.6,0,2.8,0.8,3.6,2.1
		l-0.8,0.6c-0.6-1.1-1.5-1.9-2.8-1.9s-3.4,0.8-3.4,4.7c0,3.6,1.9,4.8,3.5,4.8c1.2,0,2.2-0.8,2.9-1.7L945.6,207.9z"/>
	<path class="st3" d="M953.1,199.7H950v-0.8h4v10.6h-0.9V199.7z M954.6,195.8c0,0.6-0.5,1-1.1,1s-1-0.5-1-1s0.5-1,1-1
		S954.6,195.2,954.6,195.8z"/>
	<path class="st3" d="M969.2,208.7c-1.2,0.5-2.4,1-3.8,1c-3.1,0-4.2-2.8-4.2-5.5s1.2-5.6,4.3-5.6c1.8,0,3.9,1.3,3.9,5.7h-7.2
		c0.2,3.7,1.7,4.6,3.3,4.6c1.2,0,2.3-0.4,3.3-1L969.2,208.7z M968.4,203.5c0.1-1.8-1-4.1-3.1-4.1s-3.3,2.2-3.2,4.1H968.4z"/>
	<path class="st3" d="M975.5,209.4h-0.9v-7.3l-0.4-3.4h0.9l0.4,3c0.7-1.5,1.8-3.1,3.6-3.1s2.2,1.8,2.2,3.2h-0.9c0-1-0.1-2.4-1.4-2.4
		c-1.1,0-3.5,1.7-3.5,5.7L975.5,209.4L975.5,209.4z"/>
	<path class="st3" d="M987.4,209.4h-0.9v-7.3l-0.4-3.4h0.9l0.4,3c0.7-1.5,1.8-3.1,3.6-3.1s2.2,1.8,2.2,3.2h-0.9c0-1-0.1-2.4-1.4-2.4
		c-1.1,0-3.5,1.7-3.5,5.7L987.4,209.4L987.4,209.4z"/>
	<path class="st3" d="M1004.9,208.7c-1.2,0.5-2.4,1-3.8,1c-3.1,0-4.2-2.8-4.2-5.5s1.2-5.6,4.3-5.6c1.8,0,3.9,1.3,3.9,5.7h-7.2
		c0.2,3.7,1.7,4.6,3.3,4.6c1.2,0,2.3-0.4,3.3-1L1004.9,208.7z M1004.1,203.5c0.1-1.8-1-4.1-3.1-4.1s-3.3,2.2-3.2,4.1H1004.1z"/>
	<path class="st3" d="M1028.2,205.7c0,1.3,0.1,2.6,0.5,3.8l-0.9,0.1l-0.4-1.7c-0.6,1.1-1.6,1.7-2.8,1.7c-1.8,0-4.1-1.5-4.1-5.6
		c0-4.2,2.7-5.4,4.2-5.4c0.9,0,1.9,0.3,2.6,0.9v-4.9h0.9L1028.2,205.7L1028.2,205.7z M1027.2,200.5c-0.7-0.6-1.5-1-2.4-1
		c-1.2,0-3.5,0.8-3.5,4.7c0,3.7,2,4.7,3.2,4.7c1.3,0,2.2-1,2.6-2.1v-6.3H1027.2z"/>
	<path class="st3" d="M1040.6,208.7c-1.2,0.5-2.4,1-3.8,1c-3.1,0-4.2-2.8-4.2-5.5s1.2-5.6,4.3-5.6c1.8,0,3.9,1.3,3.9,5.7h-7.2
		c0.2,3.7,1.7,4.6,3.3,4.6c1.2,0,2.3-0.4,3.3-1L1040.6,208.7z M1039.8,203.5c0.1-1.8-1-4.1-3.1-4.1s-3.3,2.2-3.2,4.1H1039.8z"/>
	<path class="st3" d="M1065,196.4c-1-0.4-1.6-0.9-2.5-0.9c-1.4,0-2.2,0.8-2.2,2.2v1.9h3.5v0.8h-3.5v9.1h-0.9v-9.1h-2.7v-0.8h2.7
		v-1.2c0-2.7,1.6-3.6,3.1-3.6c0.9,0,1.8,0.3,2.6,0.7L1065,196.4L1065,196.4z"/>
	<path class="st3" d="M1070.7,209.4h-0.9v-7.3l-0.4-3.4h0.9l0.4,3c0.7-1.5,1.8-3.1,3.6-3.1c1.8,0,2.2,1.8,2.2,3.2h-0.9
		c0-1-0.1-2.4-1.4-2.4c-1.1,0-3.5,1.7-3.5,5.7L1070.7,209.4L1070.7,209.4z"/>
	<path class="st3" d="M1080.2,204.1c0-4.1,2.1-5.5,4-5.5c1.8,0,4.1,1.2,4.1,5.5s-2.3,5.5-4.1,5.5
		C1082.5,209.7,1080.2,208.5,1080.2,204.1z M1087.4,204.1c0-2.1-0.5-4.7-3.1-4.7s-3.1,2.6-3.1,4.7c0,2.1,0.5,4.7,3.1,4.7
		C1086.8,208.9,1087.4,206.2,1087.4,204.1z"/>
	<path class="st3" d="M1093.5,209.4h-0.9v-5.3c0-1.8-0.1-3.6-0.4-5.4h0.9l0.4,3l0,0c0.4-1.6,2.1-3.1,3.8-3.1c1.9,0,2.5,1.7,2.5,3.3
		v7.5h-0.9v-7.1c0-1.2,0-2.9-1.6-2.9c-1.5,0-3.6,1.5-3.6,5.6v4.4H1093.5z"/>
	<path class="st3" d="M1111.1,199.7h-3.9v7.2c0,1,0.4,2,1.7,2c1.2,0,2-0.9,2.5-1.9l0.9,0.2c-0.7,1.4-1.8,2.5-3.4,2.5
		c-1.4,0-2.6-0.7-2.6-3.3v-6.7h-2.4v-0.8h2.4v-3.4h0.9v3.4h3.9V199.7z"/>
	<path class="st3" d="M1123.9,208.7c-1.2,0.5-2.4,1-3.8,1c-3.1,0-4.2-2.8-4.2-5.5s1.2-5.6,4.3-5.6c1.8,0,3.9,1.3,3.9,5.7h-7.2
		c0.2,3.7,1.7,4.6,3.3,4.6c1.2,0,2.3-0.4,3.3-1L1123.9,208.7z M1123.1,203.5c0.1-1.8-1-4.1-3.1-4.1s-3.3,2.2-3.2,4.1H1123.1z"/>
	<path class="st3" d="M1130.2,209.4h-0.9v-7.3l-0.4-3.4h0.9l0.4,3c0.7-1.5,1.8-3.1,3.6-3.1c1.8,0,2.2,1.8,2.2,3.2h-0.9
		c0-1-0.1-2.4-1.4-2.4c-1.1,0-3.5,1.7-3.5,5.7L1130.2,209.4L1130.2,209.4z"/>
	<path class="st3" d="M1146.2,209.7c-0.2-0.6-0.3-1.2-0.4-1.8c-0.7,1.1-1.5,1.8-2.9,1.8c-1.9,0-2.9-1.6-2.9-3.4c0-2,1.1-3.8,3.2-3.8
		c0.9,0,1.8,0.3,2.6,0.7c0.1-2.7-0.4-3.8-2.2-3.8c-0.9,0-1.7,0.3-2.5,0.7l-0.2-0.9c0.9-0.4,1.8-0.6,2.8-0.6c1.9,0,3.1,1.4,3,3.7
		l-0.1,4.3c0,1,0.2,2,0.5,2.9L1146.2,209.7z M1145.7,204c-0.7-0.3-1.5-0.6-2.3-0.6c-1.8,0-2.5,1.5-2.5,3c0,1.2,0.7,2.5,2,2.5
		s2.1-1.1,2.8-2.1V204z"/>
	<path class="st3" d="M1158.2,200.5c-0.8-0.6-1.8-1.1-2.8-1.1s-2.1,0.8-2.1,1.9c0,1.2,1.4,1.8,2.3,2.2c1.6,0.6,3.3,1.3,3.3,3.3
		c0,1.8-1.6,2.8-3.2,2.8c-1.3,0-3-0.8-4-1.7l0.5-0.8c0.9,0.9,2.3,1.7,3.5,1.7s2.2-0.7,2.2-1.9c0-1.6-1.2-2-2.5-2.5
		c-1.5-0.6-3.2-1.2-3.2-3.1c0-1.5,1.5-2.6,3.1-2.6c1.2,0,2.2,0.4,3.2,1.1L1158.2,200.5z"/>
	<path class="st3" d="M1167.5,207c0.7,0,1.4,0.6,1.4,1.4s-0.6,1.3-1.4,1.3s-1.3-0.6-1.3-1.3S1166.8,207,1167.5,207z"/>
</g>
<g>
	<g>
		<path class="st8" d="M944.5,109.5h2.7v1.3h-7.1v-1.3h2.8V97l-3,0.9v-1.2l4.5-1.4L944.5,109.5L944.5,109.5z"/>
		<path class="st8" d="M959.9,97.6c-0.7-0.4-1.3-0.9-2.1-0.9c-2.6,0-4,3.8-4.1,6c0.9-1,1.8-1.5,3.2-1.5c2.6,0,3.9,2.4,3.9,4.7
			c0,2.6-1.5,5.2-4.3,5.2c-3.7,0-4.4-3.8-4.4-6.7c0-6.3,2.9-9,5.7-9c1,0,2,0.4,2.8,0.9L959.9,97.6z M956.7,102.5
			c-1.7,0-2.9,1.9-2.9,3.8c0,1.6,0.8,3.5,2.6,3.5c2.1,0,2.9-2.1,2.9-3.9C959.3,104.3,958.6,102.5,956.7,102.5z"/>
		<path class="st8" d="M978.1,95.7h3.8c2.9,0,4.9,1.7,4.9,7.6c0,5.8-1.8,7.6-5.1,7.6h-3.6L978.1,95.7L978.1,95.7z M979.7,109.5h1.9
			c2.2,0,3.6-0.6,3.6-6.2c0-5.8-1.7-6.2-3.7-6.2h-1.9v12.4H979.7z"/>
		<path class="st8" d="M999.3,97H993v5.4h4.5v1.3H993v5.8h6.4v1.3h-8V95.7h7.9L999.3,97L999.3,97z"/>
		<path class="st8" d="M1023.6,95.7h1.6v15.1h-1.6V99.3l0,0l-3.1,7.4l-3.1-7.4l0,0v11.5h-1.6V95.7h1.5l3.2,7.5L1023.6,95.7z"/>
		<path class="st8" d="M1038.6,110.8h-1.7l-1.3-4.5h-4.6l-1.3,4.5h-1.7l5.3-16.4L1038.6,110.8z M1031.4,105.1h3.8l-1.9-6.1
			L1031.4,105.1z"/>
		<path class="st8" d="M1042.5,95.7h3.9c3.8,0,4.1,3.4,4.1,4.3c0,1.6-0.6,3-2.7,4.2l4.1,6.7h-1.9l-3.7-6.3c-0.8,0-1.5,0-2.3,0v6.3
			h-1.6L1042.5,95.7L1042.5,95.7z M1045.6,103.2c2.1,0,3.4-1.1,3.4-3.3c0-2-0.8-2.9-3.3-2.9h-1.6v6.2
			C1044.1,103.2,1045.6,103.2,1045.6,103.2z"/>
		<path class="st8" d="M1062.9,95.7v1.1l-6.2,12.7h6.7v1.3h-8.6v-1.1l6.3-12.7h-6.1v-1.3H1062.9z"/>
		<path class="st8" d="M1071.7,95.4c4.4,0,4.6,5,4.6,7.9c0,2,0.1,7.9-4.6,7.9s-4.6-5.7-4.6-7.9C1067.1,97,1069.2,95.4,1071.7,95.4z
			 M1074.8,103.3c0-1.4,0.2-6.5-3.1-6.5c-3.4,0-3.1,5.6-3.1,6.5c0,1.7-0.1,6.5,3.1,6.5C1073.3,109.8,1074.8,108.8,1074.8,103.3z"/>
	</g>
</g>
<g>
	<g>
		<path class="st3" d="M1232.4,95.3h-6.2v-4.1c0-1.2-0.1-1.9-0.2-2.2c-0.1-0.3-0.4-0.4-0.9-0.4s-0.8,0.2-1,0.5s-0.2,1.1-0.2,2.3v11
			c0,1.2,0.1,1.9,0.2,2.3s0.4,0.5,0.9,0.5s0.8-0.2,0.9-0.5c0.1-0.4,0.2-1.2,0.2-2.5v-3h6.2v0.9c0,2.5-0.2,4.2-0.5,5.2
			s-1.1,1.9-2.3,2.7c-1.2,0.8-2.6,1.2-4.4,1.2s-3.3-0.3-4.5-1s-1.9-1.6-2.3-2.7c-0.4-1.2-0.6-2.9-0.6-5.2v-6.9c0-1.7,0.1-3,0.2-3.8
			c0.1-0.9,0.5-1.7,1-2.5c0.6-0.8,1.4-1.4,2.4-1.9s2.2-0.7,3.6-0.7c1.8,0,3.3,0.4,4.5,1.1s2,1.6,2.3,2.6c0.4,1,0.6,2.7,0.6,4.9v2.2
			H1232.4z"/>
		<path class="st3" d="M1250.5,98.9c0,2.4-0.1,4.1-0.2,5.1s-0.5,1.9-1.1,2.7c-0.6,0.8-1.4,1.5-2.4,1.9s-2.2,0.7-3.5,0.7
			s-2.4-0.2-3.4-0.6s-1.8-1-2.4-1.9s-1-1.7-1.1-2.7s-0.2-2.7-0.2-5.1v-4.1c0-2.4,0.1-4.1,0.2-5.1s0.5-1.9,1.1-2.7
			c0.6-0.8,1.4-1.5,2.4-1.9s2.2-0.7,3.5-0.7s2.4,0.2,3.4,0.6s1.8,1,2.4,1.9s1,1.7,1.1,2.7s0.2,2.7,0.2,5.1V98.9z M1244.3,91.1
			c0-1.1-0.1-1.8-0.2-2.1c-0.1-0.3-0.4-0.5-0.8-0.5c-0.3,0-0.6,0.1-0.7,0.4c-0.2,0.2-0.3,1-0.3,2.2v11.1c0,1.4,0.1,2.2,0.2,2.5
			s0.4,0.5,0.8,0.5s0.7-0.2,0.8-0.6s0.2-1.3,0.2-2.7V91.1z"/>
		<path class="st3" d="M1269.2,85l-3.1,23.7h-9.4l-3.6-23.7h6.5c0.8,6.5,1.3,12.1,1.6,16.6c0.3-4.6,0.7-8.6,1-12.2l0.4-4.4H1269.2z"
			/>
		<path class="st3" d="M1278.2,85v23.7h-6.2V85H1278.2z"/>
		<path class="st3" d="M1282.5,85h4.6c3,0,5,0.1,6,0.4s1.8,0.7,2.4,1.3s0.9,1.3,1,2.1c0.1,0.8,0.2,2.3,0.2,4.5v8.3
			c0,2.1-0.1,3.6-0.3,4.3c-0.2,0.7-0.5,1.3-1,1.7c-0.5,0.4-1.1,0.7-1.8,0.8c-0.7,0.2-1.8,0.2-3.3,0.2h-7.8L1282.5,85L1282.5,85z
			 M1288.7,89v15.6c0.9,0,1.4-0.2,1.6-0.5s0.3-1.3,0.3-2.9V92c0-1.1,0-1.8-0.1-2.1s-0.2-0.5-0.5-0.7S1289.4,89,1288.7,89z"/>
		<path class="st3" d="M1308,96.9v4.1h-7.8v-4.1H1308z"/>
		<path class="st3" d="M1320.5,85v23.7h-5.9V96c0-1.8,0-2.9-0.1-3.3s-0.3-0.7-0.7-0.8c-0.4-0.2-1.3-0.3-2.6-0.3h-0.6v-2.8
			c2.9-0.6,5-1.9,6.5-3.8L1320.5,85L1320.5,85z"/>
		<path class="st3" d="M1324.6,102.4h5.9c0,1.1,0,1.8,0,2.1s0.1,0.5,0.4,0.7c0.2,0.2,0.5,0.3,0.9,0.3c0.3,0,0.6-0.1,0.7-0.3
			s0.3-0.4,0.3-0.7c0-0.3,0-0.9,0-1.8V99c-0.3,0.6-0.7,1.1-1.3,1.4s-1.3,0.5-2.2,0.5c-1.1,0-2-0.3-2.9-0.9s-1.4-1.3-1.6-2.1
			s-0.3-1.9-0.3-3.3v-1.9c0-1.7,0.1-2.9,0.2-3.7s0.5-1.6,1-2.2c0.5-0.7,1.3-1.2,2.3-1.6s2.1-0.6,3.4-0.6c1.6,0,2.9,0.2,3.9,0.7
			s1.8,1.1,2.4,1.9s0.9,1.7,1,2.6s0.1,2.7,0.1,5.3v3.3c0,2.8,0,4.7-0.1,5.7s-0.4,1.9-1,2.7c-0.6,0.8-1.4,1.5-2.4,1.9
			s-2.2,0.6-3.6,0.6c-1.7,0-3-0.3-4.1-0.8s-1.8-1.3-2.3-2.3S1324.6,103.9,1324.6,102.4z M1330.5,95c0,1,0.1,1.6,0.4,1.8
			c0.3,0.2,0.5,0.4,0.8,0.4c0.4,0,0.7-0.1,0.9-0.4c0.2-0.3,0.3-0.9,0.3-1.8v-4.3c0-1-0.1-1.7-0.3-2.1c-0.2-0.3-0.5-0.5-0.9-0.5
			c-0.3,0-0.5,0.1-0.8,0.4c-0.3,0.2-0.4,0.9-0.4,2V95z"/>
	</g>
</g>
<line class="st9" x1="927.4" y1="119.3" x2="1350.4" y2="119.3"/>
<rect x="463.8" y="388.8" class="st1" width="8.5" height="8.5"/>
<rect x="570.2" y="459.4" class="st1" width="8.5" height="8.5"/>
<path class="st10" d="M571,463.7c-1.5,0-2.6,0-3.6-0.5c-0.2-0.1-1.1-0.9-1.4-1.1c-0.7-0.5-1.2,0.5-1.6-0.6c-0.4-1.2,2.9-2.7,2.2-3.9
	c-0.2-0.6-3.4-0.5-3.9-0.5c-0.2-0.1-0.4-0.9-1-0.7c-0.5,0.2-0.1,1-0.5,1.2c-0.7,0.5,0,1.5-1.4,0.7c-0.5-0.1-0.7-1.5-1.2-1.9
	c-0.6-0.5-1.4-0.1-1.9-0.6c-0.5-0.4-0.7-1.6-1.2-1.9c-1.1-0.5-1.7,1-2.9,0.5c-1-0.5-1.4-3.6-2.5-4.5c-1.1-1-2.7-0.4-4.1-0.6
	c-2.2-0.4-2.5-1-5,0.4c-1.6,0.9-3.5,2.1-5.5,1.6c-1.7-0.5-1.9-2.2-3.7-2.9c-1.9-0.5-4.2,0-6.1-0.7c-1.7-0.7-1.7-2.5-3.5-3.4
	c-0.7-0.4-1.6,0-2.4-0.2c-0.9-0.2-0.9-0.9-1.5-1.2c-1.5-1-2.5,0.1-4.1-0.5c-1.4-0.5-1.2-2.2-2.6-2.7c-1.2-0.5-2.4,0.5-3.6,0
	c-1.6-0.7-1.7-1.6-3.7-0.6c-1.6,0.7-1.9,1.6-3.6,0.5c-1.4-0.6-2-2-3.2-2.9c-1.2-0.7-2.4-0.5-3.5-1.1c-4.3-1.9,0.4-4.6,1.1-6.8
	c-0.4-0.1-2.5-0.5-2.6-0.7c-1.2-1.4,0.4-1.1,0.9-1.7c0.9-0.9,1-0.1,1-1.5c-0.1-0.4-0.9-1.9-1.2-2.1c-0.2-0.4-0.1-0.9-0.5-1
	c-0.6-0.2-0.9,0.7-1.1,0.6c-0.5-0.1-1.6-1.6-2.5-1.6c-1.4,0-2.4,2.7-3.7,2.5c-0.2,0-1.6-1.7-1.9-1.9c-0.7-0.7-1.4-1.2-1.5-2.5
	c0-0.7,0.4-1.4,0.4-2c0-0.7-0.4-1.4-0.4-2c0.1-2,1.5-2.6,1.2-4.6c-0.1-0.6-0.7-1.2-0.5-1.9c0.2-0.7,1.2-1.1,1.7-1.9
	c1.4-2.5-0.4-2.5-1.7-3.9c-0.7-1-0.6-2.2-1.6-2.9c-0.9-0.5-2.2-0.2-3.1-0.2c-1.6-0.1-3.2-0.4-4.6-1.2c-1-0.7-3-1.9-3.4-3.1"/>
<g>
	<path class="st3" d="M944.6,141.1c-0.9-0.8-1.9-1.5-3.2-1.5c-1.5,0-2.7,1-2.7,2.5c0,1.1,0.5,1.9,2.3,2.9l1.2,0.7
		c2.3,1.4,3.3,2.2,3.3,4c0,2.5-1.6,4-4.1,4c-1.7,0-3-0.8-4.1-2.1l0.7-0.6c0.8,1.1,2,1.9,3.3,1.9c1.7,0,3.1-1.2,3.1-3
		c0-1.4-0.2-1.9-2.8-3.5l-1.3-0.8c-1.4-0.8-2.6-1.8-2.6-3.5c0-2.2,1.6-3.4,3.7-3.4c1.4,0,2.7,0.7,3.7,1.6L944.6,141.1z"/>
	<path class="st3" d="M957.3,152.7c-1.2,0.5-2.4,1-3.8,1c-3.1,0-4.2-2.8-4.2-5.5s1.2-5.6,4.3-5.6c1.8,0,3.9,1.3,3.9,5.7h-7.2
		c0.2,3.7,1.7,4.6,3.3,4.6c1.2,0,2.3-0.4,3.3-1L957.3,152.7z M956.5,147.5c0.1-1.8-1-4.1-3.1-4.1s-3.3,2.2-3.2,4.1H956.5z"/>
	<path class="st3" d="M980.6,149.7c0,1.3,0.1,2.6,0.5,3.8l-0.9,0.1l-0.4-1.7c-0.6,1.1-1.6,1.7-2.8,1.7c-1.8,0-4.1-1.5-4.1-5.6
		c0-4.2,2.7-5.4,4.2-5.4c0.9,0,1.9,0.3,2.6,0.9v-4.9h0.9V149.7z M979.6,144.5c-0.7-0.6-1.5-1-2.4-1c-1.2,0-3.5,0.8-3.5,4.7
		c0,3.7,2,4.7,3.2,4.7c1.3,0,2.2-1,2.6-2.1v-6.3H979.6z"/>
	<path class="st3" d="M993,152.7c-1.2,0.5-2.4,1-3.8,1c-3.1,0-4.2-2.8-4.2-5.5s1.2-5.6,4.3-5.6c1.8,0,3.9,1.3,3.9,5.7H986
		c0.2,3.7,1.7,4.6,3.3,4.6c1.2,0,2.3-0.4,3.3-1L993,152.7z M992.2,147.5c0.1-1.8-1-4.1-3.1-4.1s-3.3,2.2-3.2,4.1H992.2z"/>
	<path class="st3" d="M1005.1,151.9c-1,1.1-2,1.8-3.5,1.8c-1.9,0-4.4-1.2-4.4-5.4c0-4.3,2.4-5.6,4.3-5.6c1.6,0,2.8,0.8,3.6,2.1
		l-0.8,0.6c-0.6-1.1-1.5-1.9-2.8-1.9s-3.4,0.8-3.4,4.7c0,3.6,1.9,4.8,3.5,4.8c1.2,0,2.2-0.8,2.9-1.7L1005.1,151.9z"/>
	<path class="st3" d="M1012.5,139.4h-3.1v-0.8h4.1v14.8h-0.9L1012.5,139.4L1012.5,139.4z"/>
	<path class="st3" d="M1027.2,153.7c-0.2-0.6-0.3-1.2-0.4-1.8c-0.7,1.1-1.5,1.8-2.9,1.8c-1.9,0-2.9-1.6-2.9-3.4c0-2,1.1-3.8,3.2-3.8
		c0.9,0,1.8,0.3,2.6,0.7c0.1-2.7-0.4-3.8-2.2-3.8c-0.9,0-1.7,0.3-2.5,0.7l-0.2-0.9c0.9-0.4,1.8-0.6,2.8-0.6c1.9,0,3.1,1.4,3,3.7
		l-0.1,4.3c0,1,0.2,2,0.5,2.9L1027.2,153.7z M1026.7,148c-0.7-0.3-1.5-0.6-2.3-0.6c-1.8,0-2.5,1.5-2.5,3c0,1.2,0.7,2.5,2,2.5
		c1.3,0,2.1-1.1,2.8-2.1V148z"/>
	<path class="st3" d="M1035,153.4h-0.9v-7.3l-0.4-3.4h0.9l0.4,3c0.7-1.5,1.8-3.1,3.6-3.1c1.8,0,2.2,1.8,2.2,3.2h-0.9
		c0-1-0.1-2.4-1.4-2.4c-1.1,0-3.5,1.7-3.5,5.7L1035,153.4L1035,153.4z"/>
	<path class="st3" d="M1051,153.7c-0.2-0.6-0.3-1.2-0.4-1.8c-0.7,1.1-1.5,1.8-2.9,1.8c-1.9,0-2.9-1.6-2.9-3.4c0-2,1.1-3.8,3.2-3.8
		c0.9,0,1.8,0.3,2.6,0.7c0.1-2.7-0.4-3.8-2.2-3.8c-0.9,0-1.7,0.3-2.5,0.7l-0.2-0.9c0.9-0.4,1.8-0.6,2.8-0.6c1.9,0,3.1,1.4,3,3.7
		l-0.1,4.3c0,1,0.2,2,0.5,2.9L1051,153.7z M1050.5,148c-0.7-0.3-1.5-0.6-2.3-0.6c-1.8,0-2.5,1.5-2.5,3c0,1.2,0.7,2.5,2,2.5
		s2.1-1.1,2.8-2.1V148z"/>
	<path class="st3" d="M1076.3,152.7c-1.2,0.5-2.4,1-3.8,1c-3.1,0-4.2-2.8-4.2-5.5s1.2-5.6,4.3-5.6c1.8,0,3.9,1.3,3.9,5.7h-7.2
		c0.2,3.7,1.7,4.6,3.3,4.6c1.2,0,2.3-0.4,3.3-1L1076.3,152.7z M1075.5,147.5c0.1-1.8-1-4.1-3.1-4.1s-3.3,2.2-3.2,4.1H1075.5z"/>
	<path class="st3" d="M1083.9,139.4h-3.1v-0.8h4.1v14.8h-0.9L1083.9,139.4L1083.9,139.4z"/>
	<path class="st3" d="M1112.1,139.8h-6.1v5.8h4.4v0.8h-4.4v6.2h6.2v0.8h-7.2V139h7L1112.1,139.8L1112.1,139.8z"/>
	<path class="st3" d="M1122.5,144.5c-0.8-0.6-1.8-1.1-2.8-1.1s-2.1,0.8-2.1,1.9c0,1.2,1.4,1.8,2.3,2.2c1.6,0.6,3.3,1.3,3.3,3.3
		c0,1.8-1.6,2.8-3.2,2.8c-1.3,0-3-0.8-4-1.7l0.5-0.8c0.9,0.9,2.3,1.7,3.5,1.7s2.2-0.7,2.2-1.9c0-1.6-1.2-2-2.5-2.5
		c-1.5-0.6-3.2-1.2-3.2-3.1c0-1.5,1.5-2.6,3.1-2.6c1.2,0,2.2,0.4,3.2,1.1L1122.5,144.5z"/>
	<path class="st3" d="M1134.9,143.7h-3.9v7.2c0,1,0.4,2,1.7,2c1.2,0,2-0.9,2.5-1.9l0.9,0.2c-0.7,1.4-1.8,2.5-3.4,2.5
		c-1.4,0-2.6-0.7-2.6-3.3v-6.7h-2.4v-0.8h2.4v-3.4h0.9v3.4h3.9V143.7z"/>
	<path class="st3" d="M1146.2,153.7c-0.2-0.6-0.3-1.2-0.4-1.8c-0.7,1.1-1.5,1.8-2.9,1.8c-1.9,0-2.9-1.6-2.9-3.4c0-2,1.1-3.8,3.2-3.8
		c0.9,0,1.8,0.3,2.6,0.7c0.1-2.7-0.4-3.8-2.2-3.8c-0.9,0-1.7,0.3-2.5,0.7l-0.2-0.9c0.9-0.4,1.8-0.6,2.8-0.6c1.9,0,3.1,1.4,3,3.7
		l-0.1,4.3c0,1,0.2,2,0.5,2.9L1146.2,153.7z M1145.7,148c-0.7-0.3-1.5-0.6-2.3-0.6c-1.8,0-2.5,1.5-2.5,3c0,1.2,0.7,2.5,2,2.5
		s2.1-1.1,2.8-2.1V148z"/>
	<path class="st3" d="M1159.1,149.7c0,1.3,0.1,2.6,0.5,3.8l-0.9,0.1l-0.4-1.7c-0.6,1.1-1.6,1.7-2.8,1.7c-1.8,0-4.1-1.5-4.1-5.6
		c0-4.2,2.7-5.4,4.2-5.4c0.9,0,1.9,0.3,2.6,0.9v-4.9h0.9L1159.1,149.7L1159.1,149.7z M1158.1,144.5c-0.7-0.6-1.5-1-2.4-1
		c-1.2,0-3.5,0.8-3.5,4.7c0,3.7,2,4.7,3.2,4.7c1.3,0,2.2-1,2.6-2.1v-6.3H1158.1z"/>
	<path class="st3" d="M1163.5,148.1c0-4.1,2.1-5.5,4-5.5c1.8,0,4.1,1.2,4.1,5.5s-2.3,5.5-4.1,5.5
		C1165.8,153.7,1163.5,152.5,1163.5,148.1z M1170.7,148.1c0-2.1-0.5-4.7-3.1-4.7s-3.1,2.6-3.1,4.7c0,2.1,0.5,4.7,3.1,4.7
		C1170.1,152.9,1170.7,150.2,1170.7,148.1z"/>
	<path class="st3" d="M1194.8,149.7c0,1.3,0.1,2.6,0.5,3.8l-0.9,0.1l-0.4-1.7c-0.6,1.1-1.6,1.7-2.8,1.7c-1.8,0-4.1-1.5-4.1-5.6
		c0-4.2,2.7-5.4,4.2-5.4c0.9,0,1.9,0.3,2.6,0.9v-4.9h0.9L1194.8,149.7L1194.8,149.7z M1193.8,144.5c-0.7-0.6-1.5-1-2.4-1
		c-1.2,0-3.5,0.8-3.5,4.7c0,3.7,2,4.7,3.2,4.7c1.3,0,2.2-1,2.6-2.1v-6.3H1193.8z"/>
	<path class="st3" d="M1207.2,152.7c-1.2,0.5-2.4,1-3.8,1c-3.1,0-4.2-2.8-4.2-5.5s1.2-5.6,4.3-5.6c1.8,0,3.9,1.3,3.9,5.7h-7.2
		c0.2,3.7,1.7,4.6,3.3,4.6c1.2,0,2.3-0.4,3.3-1L1207.2,152.7z M1206.4,147.5c0.1-1.8-1-4.1-3.1-4.1s-3.3,2.2-3.2,4.1H1206.4z"/>
	<path class="st3" d="M1231.1,139.8h-6.1v5.8h4.4v0.8h-4.4v6.2h6.2v0.8h-7.2V139h7L1231.1,139.8L1231.1,139.8z"/>
	<path class="st3" d="M1234.5,146.1c0-1.4-0.2-2.5-0.4-3.4h1l0.3,1.4c0.6-0.8,1.4-1.4,2.5-1.4c0.9,0,1.3,0.5,1.6,1.3
		c0.5-0.7,1.3-1.3,2.2-1.3c1.4,0,2.1,0.9,2.1,2.2v8.6h-0.9V145c0-1.1-0.5-1.5-1.3-1.5s-1.5,0.7-1.9,1.4v8.7h-0.9v-8.1
		c0-0.8-0.1-1.9-1.1-1.9c-0.9,0-1.7,0.7-2.1,1.5v8.5h-0.9v-7.5H1234.5z"/>
	<path class="st3" d="M1254.8,152.7c-1.2,0.5-2.4,1-3.8,1c-3.1,0-4.2-2.8-4.2-5.5s1.2-5.6,4.3-5.6c1.8,0,3.9,1.3,3.9,5.7h-7.2
		c0.2,3.7,1.7,4.6,3.3,4.6c1.2,0,2.3-0.4,3.3-1L1254.8,152.7z M1254,147.5c0.1-1.8-1-4.1-3.1-4.1s-3.3,2.2-3.2,4.1H1254z"/>
	<path class="st3" d="M1261.1,153.4h-0.9v-7.3l-0.4-3.4h0.9l0.4,3c0.7-1.5,1.8-3.1,3.6-3.1c1.8,0,2.2,1.8,2.2,3.2h-0.9
		c0-1-0.1-2.4-1.4-2.4c-1.1,0-3.5,1.7-3.5,5.7L1261.1,153.4L1261.1,153.4z"/>
	<path class="st3" d="M1272,154.8c0.6,0.7,1.6,1.2,2.6,1.2c1.2,0,2.7-0.9,2.7-3.5v-1.3c-0.7,0.8-1.9,1.3-3,1.3
		c-2.5,0-3.7-2.5-3.7-4.7c0-2.4,1-5.1,3.9-5.1c1.2,0,2,0.5,2.9,1.2l0.3-1.2h1c-0.5,1.8-0.5,3.7-0.5,5.6v4.4c0,3.1-2.2,4.2-3.8,4.2
		c-1.1,0-2.3-0.6-3.1-1.4L1272,154.8z M1277.2,145c-0.6-0.9-1.6-1.5-2.8-1.5c-2.2,0-2.9,2.4-2.9,4.2c0,3.3,1.9,4.1,2.8,4.1
		c1.1,0,2.3-0.7,2.9-1.6V145z"/>
	<path class="st3" d="M1290.5,152.7c-1.2,0.5-2.4,1-3.8,1c-3.1,0-4.2-2.8-4.2-5.5s1.2-5.6,4.3-5.6c1.8,0,3.9,1.3,3.9,5.7h-7.2
		c0.2,3.7,1.7,4.6,3.3,4.6c1.2,0,2.3-0.4,3.3-1L1290.5,152.7z M1289.7,147.5c0.1-1.8-1-4.1-3.1-4.1s-3.3,2.2-3.2,4.1H1289.7z"/>
	<path class="st3" d="M1295.8,153.4h-0.9v-5.3c0-1.8-0.1-3.6-0.4-5.4h0.9l0.4,3l0,0c0.4-1.6,2.1-3.1,3.8-3.1c1.9,0,2.5,1.7,2.5,3.3
		v7.5h-0.9v-7.1c0-1.2,0-2.9-1.6-2.9c-1.5,0-3.6,1.5-3.6,5.6v4.4H1295.8z"/>
	<path class="st3" d="M1314.5,151.9c-1,1.1-2,1.8-3.5,1.8c-1.9,0-4.4-1.2-4.4-5.4c0-4.3,2.4-5.6,4.3-5.6c1.6,0,2.8,0.8,3.6,2.1
		l-0.8,0.6c-0.6-1.1-1.5-1.9-2.8-1.9s-3.4,0.8-3.4,4.7c0,3.6,1.9,4.8,3.5,4.8c1.2,0,2.2-0.8,2.9-1.7L1314.5,151.9z"/>
	<path class="st3" d="M1322,143.7h-3.1v-0.8h4v10.6h-0.9V143.7z M1323.5,139.8c0,0.6-0.5,1-1.1,1s-1-0.5-1-1s0.5-1,1-1
		S1323.5,139.2,1323.5,139.8z"/>
	<path class="st3" d="M1336.6,153.7c-0.2-0.6-0.3-1.2-0.4-1.8c-0.7,1.1-1.5,1.8-2.9,1.8c-1.9,0-2.9-1.6-2.9-3.4c0-2,1.1-3.8,3.2-3.8
		c0.9,0,1.8,0.3,2.6,0.7c0.1-2.7-0.4-3.8-2.2-3.8c-0.9,0-1.7,0.3-2.5,0.7l-0.2-0.9c0.9-0.4,1.8-0.6,2.8-0.6c1.9,0,3.1,1.4,3,3.7
		l-0.1,4.3c0,1,0.2,2,0.5,2.9L1336.6,153.7z M1336.1,148c-0.7-0.3-1.5-0.6-2.3-0.6c-1.8,0-2.5,1.5-2.5,3c0,1.2,0.7,2.5,2,2.5
		s2.1-1.1,2.8-2.1V148z"/>
	<path class="st3" d="M943.9,181.7c-0.2-0.6-0.3-1.2-0.4-1.8c-0.7,1.1-1.5,1.8-2.9,1.8c-1.9,0-2.9-1.6-2.9-3.4c0-2,1.1-3.8,3.2-3.8
		c0.9,0,1.8,0.3,2.6,0.7c0.1-2.7-0.4-3.8-2.2-3.8c-0.9,0-1.7,0.3-2.5,0.7l-0.2-0.9c0.9-0.4,1.8-0.6,2.8-0.6c1.9,0,3.1,1.4,3,3.7
		l-0.1,4.3c0,1,0.2,2,0.5,2.9L943.9,181.7z M943.4,176c-0.7-0.3-1.5-0.6-2.3-0.6c-1.8,0-2.5,1.5-2.5,3c0,1.2,0.7,2.5,2,2.5
		s2.1-1.1,2.8-2.1V176z"/>
	<path class="st3" d="M962.6,181.4h-0.9v-5.3c0-1.8-0.1-3.6-0.4-5.4h0.9l0.4,3l0,0c0.4-1.6,2.1-3.1,3.8-3.1c1.9,0,2.5,1.7,2.5,3.3
		v7.5H968v-7.1c0-1.2,0-2.9-1.6-2.9c-1.5,0-3.6,1.5-3.6,5.6v4.4H962.6z"/>
	<path class="st3" d="M976.9,171.7h-3.1v-0.8h4v10.6h-0.9V171.7z M978.4,167.8c0,0.6-0.5,1-1.1,1s-1-0.5-1-1s0.5-1,1-1
		S978.4,167.2,978.4,167.8z"/>
	<path class="st3" d="M992.9,170.9l-3.3,10.7h-1.1l-3.3-10.7h1l2.9,9.3l2.9-9.3H992.9z"/>
	<path class="st3" d="M1004.9,180.7c-1.2,0.5-2.4,1-3.8,1c-3.1,0-4.2-2.8-4.2-5.5s1.2-5.6,4.3-5.6c1.8,0,3.9,1.3,3.9,5.7h-7.2
		c0.2,3.7,1.7,4.6,3.3,4.6c1.2,0,2.3-0.4,3.3-1L1004.9,180.7z M1004.1,175.5c0.1-1.8-1-4.1-3.1-4.1s-3.3,2.2-3.2,4.1H1004.1z"/>
	<path class="st3" d="M1012.5,167.4h-3.1v-0.8h4.1v14.8h-0.9L1012.5,167.4L1012.5,167.4z"/>
	<path class="st3" d="M1034,181.4h-0.9v-5.3c0-1.8-0.1-3.6-0.4-5.4h0.9l0.4,3l0,0c0.4-1.6,2.1-3.1,3.8-3.1c1.9,0,2.5,1.7,2.5,3.3
		v7.5h-0.9v-7.1c0-1.2,0-2.9-1.6-2.9c-1.5,0-3.6,1.5-3.6,5.6v4.4H1034z"/>
	<path class="st3" d="M1051,181.7c-0.2-0.6-0.3-1.2-0.4-1.8c-0.7,1.1-1.5,1.8-2.9,1.8c-1.9,0-2.9-1.6-2.9-3.4c0-2,1.1-3.8,3.2-3.8
		c0.9,0,1.8,0.3,2.6,0.7c0.1-2.7-0.4-3.8-2.2-3.8c-0.9,0-1.7,0.3-2.5,0.7l-0.2-0.9c0.9-0.4,1.8-0.6,2.8-0.6c1.9,0,3.1,1.4,3,3.7
		l-0.1,4.3c0,1,0.2,2,0.5,2.9L1051,181.7z M1050.5,176c-0.7-0.3-1.5-0.6-2.3-0.6c-1.8,0-2.5,1.5-2.5,3c0,1.2,0.7,2.5,2,2.5
		s2.1-1.1,2.8-2.1V176z"/>
	<path class="st3" d="M1064.6,179.9c-1,1.1-2,1.8-3.5,1.8c-1.9,0-4.4-1.2-4.4-5.4c0-4.3,2.4-5.6,4.3-5.6c1.6,0,2.8,0.8,3.6,2.1
		l-0.8,0.6c-0.6-1.1-1.5-1.9-2.8-1.9s-3.4,0.8-3.4,4.7c0,3.6,1.9,4.8,3.5,4.8c1.2,0,2.2-0.8,2.9-1.7L1064.6,179.9z"/>
	<path class="st3" d="M1072.1,171.7h-3.1v-0.8h4v10.6h-0.9V171.7z M1073.6,167.8c0,0.6-0.5,1-1.1,1s-1-0.5-1-1s0.5-1,1-1
		S1073.6,167.2,1073.6,167.8z"/>
	<path class="st3" d="M1080.2,176.1c0-4.1,2.1-5.5,4-5.5c1.8,0,4.1,1.2,4.1,5.5s-2.3,5.5-4.1,5.5
		C1082.5,181.7,1080.2,180.5,1080.2,176.1z M1087.4,176.1c0-2.1-0.5-4.7-3.1-4.7s-3.1,2.6-3.1,4.7c0,2.1,0.5,4.7,3.1,4.7
		C1086.8,180.9,1087.4,178.2,1087.4,176.1z"/>
	<path class="st3" d="M1093.5,181.4h-0.9v-5.3c0-1.8-0.1-3.6-0.4-5.4h0.9l0.4,3l0,0c0.4-1.6,2.1-3.1,3.8-3.1c1.9,0,2.5,1.7,2.5,3.3
		v7.5h-0.9v-7.1c0-1.2,0-2.9-1.6-2.9c-1.5,0-3.6,1.5-3.6,5.6v4.4H1093.5z"/>
	<path class="st3" d="M1110.5,181.7c-0.2-0.6-0.3-1.2-0.4-1.8c-0.7,1.1-1.5,1.8-2.9,1.8c-1.9,0-2.9-1.6-2.9-3.4c0-2,1.1-3.8,3.2-3.8
		c0.9,0,1.8,0.3,2.6,0.7c0.1-2.7-0.4-3.8-2.2-3.8c-0.9,0-1.7,0.3-2.5,0.7l-0.2-0.9c0.9-0.4,1.8-0.6,2.8-0.6c1.9,0,3.1,1.4,3,3.7
		l-0.1,4.3c0,1,0.2,2,0.5,2.9L1110.5,181.7z M1110,176c-0.7-0.3-1.5-0.6-2.3-0.6c-1.8,0-2.5,1.5-2.5,3c0,1.2,0.7,2.5,2,2.5
		s2.1-1.1,2.8-2.1V176z"/>
	<path class="st3" d="M1119.6,167.4h-3.1v-0.8h4.1v14.8h-0.9L1119.6,167.4L1119.6,167.4z"/>
	<path class="st3" d="M1148,170.9l-4,10.1c-0.6,1.4-1.5,3.9-3.3,3.9c-1.2,0-2.1-0.9-2.4-2l0.8-0.4c0.3,0.7,0.8,1.6,1.6,1.6
		c1,0,1.5-1.2,1.9-2l0.8-1.8l-3.4-9.4h1l2.9,8.1l3-8.1L1148,170.9L1148,170.9z"/>
	<path class="st3" d="M1171.5,180.7c-1.2,0.5-2.4,1-3.8,1c-3.1,0-4.2-2.8-4.2-5.5s1.2-5.6,4.3-5.6c1.8,0,3.9,1.3,3.9,5.7h-7.2
		c0.2,3.7,1.7,4.6,3.3,4.6c1.2,0,2.3-0.4,3.3-1L1171.5,180.7z M1170.7,175.5c0.1-1.8-1-4.1-3.1-4.1s-3.3,2.2-3.2,4.1H1170.7z"/>
	<path class="st3" d="M1179.1,167.4h-3.1v-0.8h4.1v14.8h-0.9L1179.1,167.4L1179.1,167.4z"/>
	<path class="st3" d="M1207.4,179.9c-1,1.1-2,1.8-3.5,1.8c-1.9,0-4.4-1.2-4.4-5.4c0-4.3,2.4-5.6,4.3-5.6c1.6,0,2.8,0.8,3.6,2.1
		l-0.8,0.6c-0.6-1.1-1.5-1.9-2.8-1.9s-3.4,0.8-3.4,4.7c0,3.6,1.9,4.8,3.5,4.8c1.2,0,2.2-0.8,2.9-1.7L1207.4,179.9z"/>
	<path class="st3" d="M1211.1,176.1c0-4.1,2.1-5.5,4-5.5c1.8,0,4.1,1.2,4.1,5.5s-2.3,5.5-4.1,5.5
		C1213.4,181.7,1211.1,180.5,1211.1,176.1z M1218.3,176.1c0-2.1-0.5-4.7-3.1-4.7s-3.1,2.6-3.1,4.7c0,2.1,0.5,4.7,3.1,4.7
		C1217.7,180.9,1218.3,178.2,1218.3,176.1z"/>
	<path class="st3" d="M1224.4,181.4h-0.9v-5.3c0-1.8-0.1-3.6-0.4-5.4h0.9l0.4,3l0,0c0.4-1.6,2.1-3.1,3.8-3.1c1.9,0,2.5,1.7,2.5,3.3
		v7.5h-0.9v-7.1c0-1.2,0-2.9-1.6-2.9c-1.5,0-3.6,1.5-3.6,5.6v4.4H1224.4z"/>
	<path class="st3" d="M1241.5,172.5c-0.8-0.6-1.8-1.1-2.8-1.1s-2.1,0.8-2.1,1.9c0,1.2,1.4,1.8,2.3,2.2c1.6,0.6,3.3,1.3,3.3,3.3
		c0,1.8-1.6,2.8-3.2,2.8c-1.3,0-3-0.8-4-1.7l0.5-0.8c0.9,0.9,2.3,1.7,3.5,1.7s2.2-0.7,2.2-1.9c0-1.6-1.2-2-2.5-2.5
		c-1.5-0.6-3.2-1.2-3.2-3.1c0-1.5,1.5-2.6,3.1-2.6c1.2,0,2.2,0.4,3.2,1.1L1241.5,172.5z"/>
	<path class="st3" d="M1250.6,171.7h-3.1v-0.8h4v10.6h-0.9V171.7z M1252.1,167.8c0,0.6-0.5,1-1.1,1s-1-0.5-1-1s0.5-1,1-1
		S1252.1,167.2,1252.1,167.8z"/>
	<path class="st3" d="M1260.1,182.8c0.6,0.7,1.6,1.2,2.6,1.2c1.2,0,2.7-0.9,2.7-3.5v-1.3c-0.7,0.8-1.9,1.3-3,1.3
		c-2.5,0-3.7-2.5-3.7-4.7c0-2.4,1-5.1,3.9-5.1c1.2,0,2,0.5,2.9,1.2l0.3-1.2h1c-0.5,1.8-0.5,3.7-0.5,5.6v4.4c0,3.1-2.2,4.2-3.8,4.2
		c-1.1,0-2.3-0.6-3.1-1.4L1260.1,182.8z M1265.3,173c-0.6-0.9-1.6-1.5-2.8-1.5c-2.2,0-2.9,2.4-2.9,4.2c0,3.3,1.9,4.1,2.8,4.1
		c1.1,0,2.3-0.7,2.9-1.6V173z"/>
	<path class="st3" d="M1277.3,170.9h0.9v5.2c0,1.8,0.1,3.6,0.4,5.4h-0.9l-0.4-3l0,0c-0.4,1.6-2.1,3.2-3.7,3.2
		c-1.9,0-2.5-1.7-2.5-3.3v-7.5h0.9v7c0,2,0.5,3,1.6,3c1.6,0,3.6-1.7,3.6-5.7L1277.3,170.9L1277.3,170.9z"/>
	<path class="st3" d="M1286.3,171.7h-3.1v-0.8h4v10.6h-0.9V171.7z M1287.8,167.8c0,0.6-0.5,1-1.1,1s-1-0.5-1-1s0.5-1,1-1
		S1287.8,167.2,1287.8,167.8z"/>
	<path class="st3" d="M1302.4,180.7c-1.2,0.5-2.4,1-3.8,1c-3.1,0-4.2-2.8-4.2-5.5s1.2-5.6,4.3-5.6c1.8,0,3.9,1.3,3.9,5.7h-7.2
		c0.2,3.7,1.7,4.6,3.3,4.6c1.2,0,2.3-0.4,3.3-1L1302.4,180.7z M1301.6,175.5c0.1-1.8-1-4.1-3.1-4.1s-3.3,2.2-3.2,4.1H1301.6z"/>
	<path class="st3" d="M1307.7,181.4h-0.9v-5.3c0-1.8-0.1-3.6-0.4-5.4h0.9l0.4,3l0,0c0.4-1.6,2.1-3.1,3.8-3.1c1.9,0,2.5,1.7,2.5,3.3
		v7.5h-0.9v-7.1c0-1.2,0-2.9-1.6-2.9c-1.5,0-3.6,1.5-3.6,5.6v4.4H1307.7z"/>
	<path class="st3" d="M1325.3,171.7h-3.9v7.2c0,1,0.4,2,1.7,2c1.2,0,2-0.9,2.5-1.9l0.9,0.2c-0.7,1.4-1.8,2.5-3.4,2.5
		c-1.4,0-2.6-0.7-2.6-3.3v-6.7h-2.4v-0.8h2.4v-3.4h0.9v3.4h3.9V171.7z"/>
	<path class="st3" d="M1338.1,180.7c-1.2,0.5-2.4,1-3.8,1c-3.1,0-4.2-2.8-4.2-5.5s1.2-5.6,4.3-5.6c1.8,0,3.9,1.3,3.9,5.7h-7.2
		c0.2,3.7,1.7,4.6,3.3,4.6c1.2,0,2.3-0.4,3.3-1L1338.1,180.7z M1337.3,175.5c0.1-1.8-1-4.1-3.1-4.1s-3.3,2.2-3.2,4.1H1337.3z"/>
	<path class="st3" d="M945.6,207.9c-1,1.1-2,1.8-3.5,1.8c-1.9,0-4.4-1.2-4.4-5.4c0-4.3,2.4-5.6,4.3-5.6c1.6,0,2.8,0.8,3.6,2.1
		l-0.8,0.6c-0.6-1.1-1.5-1.9-2.8-1.9s-3.4,0.8-3.4,4.7c0,3.6,1.9,4.8,3.5,4.8c1.2,0,2.2-0.8,2.9-1.7L945.6,207.9z"/>
	<path class="st3" d="M953.1,199.7H950v-0.8h4v10.6h-0.9V199.7z M954.6,195.8c0,0.6-0.5,1-1.1,1s-1-0.5-1-1s0.5-1,1-1
		S954.6,195.2,954.6,195.8z"/>
	<path class="st3" d="M969.2,208.7c-1.2,0.5-2.4,1-3.8,1c-3.1,0-4.2-2.8-4.2-5.5s1.2-5.6,4.3-5.6c1.8,0,3.9,1.3,3.9,5.7h-7.2
		c0.2,3.7,1.7,4.6,3.3,4.6c1.2,0,2.3-0.4,3.3-1L969.2,208.7z M968.4,203.5c0.1-1.8-1-4.1-3.1-4.1s-3.3,2.2-3.2,4.1H968.4z"/>
	<path class="st3" d="M975.5,209.4h-0.9v-7.3l-0.4-3.4h0.9l0.4,3c0.7-1.5,1.8-3.1,3.6-3.1s2.2,1.8,2.2,3.2h-0.9c0-1-0.1-2.4-1.4-2.4
		c-1.1,0-3.5,1.7-3.5,5.7L975.5,209.4L975.5,209.4z"/>
	<path class="st3" d="M987.4,209.4h-0.9v-7.3l-0.4-3.4h0.9l0.4,3c0.7-1.5,1.8-3.1,3.6-3.1s2.2,1.8,2.2,3.2h-0.9c0-1-0.1-2.4-1.4-2.4
		c-1.1,0-3.5,1.7-3.5,5.7L987.4,209.4L987.4,209.4z"/>
	<path class="st3" d="M1004.9,208.7c-1.2,0.5-2.4,1-3.8,1c-3.1,0-4.2-2.8-4.2-5.5s1.2-5.6,4.3-5.6c1.8,0,3.9,1.3,3.9,5.7h-7.2
		c0.2,3.7,1.7,4.6,3.3,4.6c1.2,0,2.3-0.4,3.3-1L1004.9,208.7z M1004.1,203.5c0.1-1.8-1-4.1-3.1-4.1s-3.3,2.2-3.2,4.1H1004.1z"/>
	<path class="st3" d="M1028.2,205.7c0,1.3,0.1,2.6,0.5,3.8l-0.9,0.1l-0.4-1.7c-0.6,1.1-1.6,1.7-2.8,1.7c-1.8,0-4.1-1.5-4.1-5.6
		c0-4.2,2.7-5.4,4.2-5.4c0.9,0,1.9,0.3,2.6,0.9v-4.9h0.9L1028.2,205.7L1028.2,205.7z M1027.2,200.5c-0.7-0.6-1.5-1-2.4-1
		c-1.2,0-3.5,0.8-3.5,4.7c0,3.7,2,4.7,3.2,4.7c1.3,0,2.2-1,2.6-2.1v-6.3H1027.2z"/>
	<path class="st3" d="M1040.6,208.7c-1.2,0.5-2.4,1-3.8,1c-3.1,0-4.2-2.8-4.2-5.5s1.2-5.6,4.3-5.6c1.8,0,3.9,1.3,3.9,5.7h-7.2
		c0.2,3.7,1.7,4.6,3.3,4.6c1.2,0,2.3-0.4,3.3-1L1040.6,208.7z M1039.8,203.5c0.1-1.8-1-4.1-3.1-4.1s-3.3,2.2-3.2,4.1H1039.8z"/>
	<path class="st3" d="M1065,196.4c-1-0.4-1.6-0.9-2.5-0.9c-1.4,0-2.2,0.8-2.2,2.2v1.9h3.5v0.8h-3.5v9.1h-0.9v-9.1h-2.7v-0.8h2.7
		v-1.2c0-2.7,1.6-3.6,3.1-3.6c0.9,0,1.8,0.3,2.6,0.7L1065,196.4L1065,196.4z"/>
	<path class="st3" d="M1070.7,209.4h-0.9v-7.3l-0.4-3.4h0.9l0.4,3c0.7-1.5,1.8-3.1,3.6-3.1c1.8,0,2.2,1.8,2.2,3.2h-0.9
		c0-1-0.1-2.4-1.4-2.4c-1.1,0-3.5,1.7-3.5,5.7L1070.7,209.4L1070.7,209.4z"/>
	<path class="st3" d="M1080.2,204.1c0-4.1,2.1-5.5,4-5.5c1.8,0,4.1,1.2,4.1,5.5s-2.3,5.5-4.1,5.5
		C1082.5,209.7,1080.2,208.5,1080.2,204.1z M1087.4,204.1c0-2.1-0.5-4.7-3.1-4.7s-3.1,2.6-3.1,4.7c0,2.1,0.5,4.7,3.1,4.7
		C1086.8,208.9,1087.4,206.2,1087.4,204.1z"/>
	<path class="st3" d="M1093.5,209.4h-0.9v-5.3c0-1.8-0.1-3.6-0.4-5.4h0.9l0.4,3l0,0c0.4-1.6,2.1-3.1,3.8-3.1c1.9,0,2.5,1.7,2.5,3.3
		v7.5h-0.9v-7.1c0-1.2,0-2.9-1.6-2.9c-1.5,0-3.6,1.5-3.6,5.6v4.4H1093.5z"/>
	<path class="st3" d="M1111.1,199.7h-3.9v7.2c0,1,0.4,2,1.7,2c1.2,0,2-0.9,2.5-1.9l0.9,0.2c-0.7,1.4-1.8,2.5-3.4,2.5
		c-1.4,0-2.6-0.7-2.6-3.3v-6.7h-2.4v-0.8h2.4v-3.4h0.9v3.4h3.9V199.7z"/>
	<path class="st3" d="M1123.9,208.7c-1.2,0.5-2.4,1-3.8,1c-3.1,0-4.2-2.8-4.2-5.5s1.2-5.6,4.3-5.6c1.8,0,3.9,1.3,3.9,5.7h-7.2
		c0.2,3.7,1.7,4.6,3.3,4.6c1.2,0,2.3-0.4,3.3-1L1123.9,208.7z M1123.1,203.5c0.1-1.8-1-4.1-3.1-4.1s-3.3,2.2-3.2,4.1H1123.1z"/>
	<path class="st3" d="M1130.2,209.4h-0.9v-7.3l-0.4-3.4h0.9l0.4,3c0.7-1.5,1.8-3.1,3.6-3.1c1.8,0,2.2,1.8,2.2,3.2h-0.9
		c0-1-0.1-2.4-1.4-2.4c-1.1,0-3.5,1.7-3.5,5.7L1130.2,209.4L1130.2,209.4z"/>
	<path class="st3" d="M1146.2,209.7c-0.2-0.6-0.3-1.2-0.4-1.8c-0.7,1.1-1.5,1.8-2.9,1.8c-1.9,0-2.9-1.6-2.9-3.4c0-2,1.1-3.8,3.2-3.8
		c0.9,0,1.8,0.3,2.6,0.7c0.1-2.7-0.4-3.8-2.2-3.8c-0.9,0-1.7,0.3-2.5,0.7l-0.2-0.9c0.9-0.4,1.8-0.6,2.8-0.6c1.9,0,3.1,1.4,3,3.7
		l-0.1,4.3c0,1,0.2,2,0.5,2.9L1146.2,209.7z M1145.7,204c-0.7-0.3-1.5-0.6-2.3-0.6c-1.8,0-2.5,1.5-2.5,3c0,1.2,0.7,2.5,2,2.5
		s2.1-1.1,2.8-2.1V204z"/>
	<path class="st3" d="M1158.2,200.5c-0.8-0.6-1.8-1.1-2.8-1.1s-2.1,0.8-2.1,1.9c0,1.2,1.4,1.8,2.3,2.2c1.6,0.6,3.3,1.3,3.3,3.3
		c0,1.8-1.6,2.8-3.2,2.8c-1.3,0-3-0.8-4-1.7l0.5-0.8c0.9,0.9,2.3,1.7,3.5,1.7s2.2-0.7,2.2-1.9c0-1.6-1.2-2-2.5-2.5
		c-1.5-0.6-3.2-1.2-3.2-3.1c0-1.5,1.5-2.6,3.1-2.6c1.2,0,2.2,0.4,3.2,1.1L1158.2,200.5z"/>
	<path class="st3" d="M1167.5,207c0.7,0,1.4,0.6,1.4,1.4s-0.6,1.3-1.4,1.3s-1.3-0.6-1.3-1.3S1166.8,207,1167.5,207z"/>
</g>
</svg>
