<?xml version="1.0" encoding="utf-8"?>
<!-- Generator: Adobe Illustrator 25.0.0, SVG Export Plug-In . SVG Version: 6.00 Build 0)  -->
<svg version="1.1" id="Capa_1" xmlns="http://www.w3.org/2000/svg" xmlns:xlink="http://www.w3.org/1999/xlink" x="0px" y="0px"
	 viewBox="0 0 313 90.1" style="enable-background:new 0 0 313 90.1;" xml:space="preserve">
<style type="text/css">
	.st0{fill:#48251C;}
</style>
<g id="Capa_2_1_">
</g>
<g>
	<path class="st0" d="M55,72.2h-5.5l-4.4-14.5h-15l-4.4,14.5h-5.5l17.4-53.4L55,72.2z M31.4,53.4h12.5l-6.3-19.9L31.4,53.4z"/>
	<path class="st0" d="M86.5,35.6h5.1v17.7c0,6.4,0.1,12.7,1.6,18.9h-4.9l-1.2-7c-2.4,4-7.3,7.8-12,7.8c-6.5,0-9.2-5.5-9.2-11.9V35.6
		H71v23.9c0,3.4,0,9.1,4.5,9.1c5.1,0,10.9-5.7,10.9-18.1L86.5,35.6L86.5,35.6z"/>
	<path class="st0" d="M129.2,72.9l-1.1-4.1c-3.1,2.7-4.7,4.1-9,4.1c-6.4,0-14.6-4.9-14.6-19.3c0-14,8.9-18.8,14.8-18.8
		c3.1,0,5.2,0.8,7.7,2.1V21.4h5.1v37.7c0,4.5,0.4,9,1.8,13.2L129.2,72.9z M127,42.1c-2-1.6-4.3-3-6.9-3c-5.5,0-10.5,4.6-10.5,14.7
		c0,11.9,6.2,14.8,9.6,14.8c4,0,6.4-2.9,7.8-6.3V42.1z"/>
	<path class="st0" d="M159.1,39.9h-10.4v-4.3h15.5v36.6h-5.1V39.9z M165.8,26.3c0,2.5-1.9,4.3-4.3,4.3s-4.3-1.8-4.3-4.3
		s1.9-4.3,4.3-4.3S165.8,23.8,165.8,26.3z"/>
	<path class="st0" d="M187.3,53.9c0-14.2,7.5-19.1,14.5-19.1c12.9,0,14.6,13.1,14.6,19.1c0,14.2-7.5,19-14.6,19
		C195.4,72.9,187.3,68.7,187.3,53.9z M211.2,53.9c0-6.3-1.4-14.8-9.4-14.8s-9.4,8.5-9.4,14.8s1.4,14.7,9.4,14.7
		S211.2,60.2,211.2,53.9z"/>
</g>
</svg>
