<?xml version="1.0" encoding="UTF-8" standalone="no"?>
<svg
   xmlns:dc="http://purl.org/dc/elements/1.1/"
   xmlns:cc="http://creativecommons.org/ns#"
   xmlns:rdf="http://www.w3.org/1999/02/22-rdf-syntax-ns#"
   xmlns:svg="http://www.w3.org/2000/svg"
   xmlns="http://www.w3.org/2000/svg"
   xmlns:sodipodi="http://sodipodi.sourceforge.net/DTD/sodipodi-0.dtd"
   xmlns:inkscape="http://www.inkscape.org/namespaces/inkscape"
   width="66.49575mm"
   height="38.460892mm"
   viewBox="0 0 66.49575 38.460892"
   version="1.1"
   id="svg2520"
   inkscape:version="1.0.1 (0767f8302a, 2020-10-17)"
   sodipodi:docname="back.svg">
  <defs
     id="defs2514">
    <clipPath
       clipPathUnits="userSpaceOnUse"
       id="clipPath242">
      <path
         d="M 0,1080 H 1920 V 0 H 0 Z"
         id="path240" />
    </clipPath>
  </defs>
  <sodipodi:namedview
     id="base"
     pagecolor="#ffffff"
     bordercolor="#666666"
     borderopacity="1.0"
     inkscape:pageopacity="0.0"
     inkscape:pageshadow="2"
     inkscape:zoom="0.35"
     inkscape:cx="14.232686"
     inkscape:cy="444.11057"
     inkscape:document-units="mm"
     inkscape:current-layer="layer1"
     inkscape:document-rotation="0"
     showgrid="false"
     inkscape:window-width="1465"
     inkscape:window-height="926"
     inkscape:window-x="227"
     inkscape:window-y="58"
     inkscape:window-maximized="0" />
  <metadata
     id="metadata2517">
    <rdf:RDF>
      <cc:Work
         rdf:about="">
        <dc:format>image/svg+xml</dc:format>
        <dc:type
           rdf:resource="http://purl.org/dc/dcmitype/StillImage" />
        <dc:title></dc:title>
      </cc:Work>
    </rdf:RDF>
  </metadata>
  <g
     inkscape:label="Capa 1"
     inkscape:groupmode="layer"
     id="layer1"
     transform="translate(-102.0676,-30.662412)">
    <g
       id="g232"
       transform="matrix(0.35277777,0,0,-0.35277777,161.45527,69.123303)">
      <path
         d="M 0,0 -168.343,54.51 0,109.023 Z"
         style="fill:#1d1d1b;fill-opacity:1;fill-rule:nonzero;stroke:none"
         id="path234" />
    </g>
    <g
       id="g236"
       transform="matrix(0.35277777,0,0,-0.35277777,-187.56528,227.63352)">
      <g
         id="g238"
         clip-path="url(#clipPath242)">
        <g
           id="g244"
           transform="translate(880.0615,502.834)">
          <path
             d="m 0,0 h 128.711 c 0.968,0 0.968,1.5 0,1.5 H 0 C -0.967,1.5 -0.967,0 0,0"
             style="fill:#ffffff;fill-opacity:1;fill-rule:nonzero;stroke:none"
             id="path246" />
        </g>
        <g
           id="g248"
           transform="translate(911.7485,486.6934)">
          <path
             d="M 0,0 C 6.906,5.346 13.812,10.693 20.718,16.039 21.482,16.631 20.412,17.684 19.657,17.1 12.751,11.754 5.845,6.406 -1.061,1.061 -1.825,0.469 -0.755,-0.584 0,0"
             style="fill:#ffffff;fill-opacity:1;fill-rule:nonzero;stroke:none"
             id="path250" />
        </g>
        <g
           id="g252"
           transform="translate(918.2051,520.7227)">
          <path
             d="m 0,0 20.786,-17.174 c 0.739,-0.611 1.808,0.444 1.061,1.061 L 1.061,1.061 C 0.321,1.672 -0.747,0.615 0,0"
             style="fill:#ffffff;fill-opacity:1;fill-rule:nonzero;stroke:none"
             id="path254" />
        </g>
        <g
           id="g256"
           transform="translate(946.2705,521.8379)">
          <path
             d="m 0,0 c 6.929,-6.098 13.856,-12.193 20.785,-18.289 0.723,-0.637 1.788,0.42 1.061,1.06 C 14.917,-11.133 7.989,-5.037 1.061,1.061 0.338,1.697 -0.728,0.639 0,0"
             style="fill:#ffffff;fill-opacity:1;fill-rule:nonzero;stroke:none"
             id="path258" />
        </g>
        <g
           id="g260"
           transform="translate(938.5918,484.7637)">
          <path
             d="m 0,0 c 6.905,6.096 13.81,12.193 20.715,18.291 0.726,0.641 -0.339,1.697 -1.061,1.061 C 12.749,13.254 5.844,7.156 -1.061,1.061 -1.787,0.418 -0.722,-0.639 0,0"
             style="fill:#ffffff;fill-opacity:1;fill-rule:nonzero;stroke:none"
             id="path262" />
        </g>
      </g>
    </g>
  </g>
</svg>
