<?xml version="1.0" encoding="UTF-8" standalone="no"?>
<svg
   xmlns:dc="http://purl.org/dc/elements/1.1/"
   xmlns:cc="http://creativecommons.org/ns#"
   xmlns:rdf="http://www.w3.org/1999/02/22-rdf-syntax-ns#"
   xmlns:svg="http://www.w3.org/2000/svg"
   xmlns="http://www.w3.org/2000/svg"
   xmlns:sodipodi="http://sodipodi.sourceforge.net/DTD/sodipodi-0.dtd"
   xmlns:inkscape="http://www.inkscape.org/namespaces/inkscape"
   width="85.800591mm"
   height="88.824409mm"
   viewBox="0 0 85.80059 88.82441"
   version="1.1"
   id="svg2520"
   inkscape:version="1.0 (4035a4fb49, 2020-05-01)"
   sodipodi:docname="back-2.svg">
  <defs
     id="defs2514">
    <clipPath
       clipPathUnits="userSpaceOnUse"
       id="clipPath242">
      <path
         d="M 0,1080 H 1920 V 0 H 0 Z"
         id="path240" />
    </clipPath>
  </defs>
  <sodipodi:namedview
     id="base"
     pagecolor="#ffffff"
     bordercolor="#666666"
     borderopacity="1.0"
     inkscape:pageopacity="0.0"
     inkscape:pageshadow="2"
     inkscape:zoom="1.4"
     inkscape:cx="184.32898"
     inkscape:cy="204.67746"
     inkscape:document-units="mm"
     inkscape:current-layer="text848"
     inkscape:document-rotation="0"
     showgrid="false"
     inkscape:window-width="1920"
     inkscape:window-height="1007"
     inkscape:window-x="-9"
     inkscape:window-y="-9"
     inkscape:window-maximized="1" />
  <metadata
     id="metadata2517">
    <rdf:RDF>
      <cc:Work
         rdf:about="">
        <dc:format>image/svg+xml</dc:format>
        <dc:type
           rdf:resource="http://purl.org/dc/dcmitype/StillImage" />
        <dc:title />
      </cc:Work>
    </rdf:RDF>
  </metadata>
  <g
     inkscape:label="Capa 1"
     inkscape:groupmode="layer"
     id="layer1"
     transform="translate(-87.899673,-26.315685)">
    <rect
       style="fill:#ffffff;fill-opacity:1;stroke-width:0.266647"
       id="rect852"
       width="85.800591"
       height="88.824409"
       x="87.899673"
       y="26.315685" />
    <g
       id="g232"
       transform="matrix(0.35277777,0,0,-0.35277777,161.45527,69.123303)">
      <path
         d="M 0,0 -168.343,54.51 0,109.023 Z"
         style="fill:#1d1d1b;fill-opacity:1;fill-rule:nonzero;stroke:none"
         id="path234" />
    </g>
    <g
       id="g236"
       transform="matrix(0.35277777,0,0,-0.35277777,-187.56528,227.63352)">
      <g
         id="g238"
         clip-path="url(#clipPath242)">
        <g
           id="g244"
           transform="translate(880.0615,502.834)">
          <path
             d="m 0,0 h 128.711 c 0.968,0 0.968,1.5 0,1.5 H 0 C -0.967,1.5 -0.967,0 0,0"
             style="fill:#ffffff;fill-opacity:1;fill-rule:nonzero;stroke:none"
             id="path246" />
        </g>
        <g
           id="g248"
           transform="translate(911.7485,486.6934)">
          <path
             d="M 0,0 C 6.906,5.346 13.812,10.693 20.718,16.039 21.482,16.631 20.412,17.684 19.657,17.1 12.751,11.754 5.845,6.406 -1.061,1.061 -1.825,0.469 -0.755,-0.584 0,0"
             style="fill:#ffffff;fill-opacity:1;fill-rule:nonzero;stroke:none"
             id="path250" />
        </g>
        <g
           id="g252"
           transform="translate(918.2051,520.7227)">
          <path
             d="m 0,0 20.786,-17.174 c 0.739,-0.611 1.808,0.444 1.061,1.061 L 1.061,1.061 C 0.321,1.672 -0.747,0.615 0,0"
             style="fill:#ffffff;fill-opacity:1;fill-rule:nonzero;stroke:none"
             id="path254" />
        </g>
        <g
           id="g256"
           transform="translate(946.2705,521.8379)">
          <path
             d="m 0,0 c 6.929,-6.098 13.856,-12.193 20.785,-18.289 0.723,-0.637 1.788,0.42 1.061,1.06 C 14.917,-11.133 7.989,-5.037 1.061,1.061 0.338,1.697 -0.728,0.639 0,0"
             style="fill:#ffffff;fill-opacity:1;fill-rule:nonzero;stroke:none"
             id="path258" />
        </g>
        <g
           id="g260"
           transform="translate(938.5918,484.7637)">
          <path
             d="m 0,0 c 6.905,6.096 13.81,12.193 20.715,18.291 0.726,0.641 -0.339,1.697 -1.061,1.061 C 12.749,13.254 5.844,7.156 -1.061,1.061 -1.787,0.418 -0.722,-0.639 0,0"
             style="fill:#ffffff;fill-opacity:1;fill-rule:nonzero;stroke:none"
             id="path262" />
        </g>
      </g>
    </g>
    <g
       style="font-style:normal;font-weight:normal;font-size:16.4179px;line-height:1.25;font-family:sans-serif;fill:#000000;fill-opacity:1;stroke:none;stroke-width:0.410449"
       id="text848"
       aria-label="VOLVER
AL MAPA">
      <path
         id="path850"
         style="font-style:normal;font-variant:normal;font-weight:bold;font-stretch:normal;font-family:'Letter Gothic Std';-inkscape-font-specification:'Letter Gothic Std Bold';text-align:end;text-anchor:end;stroke-width:0.410449"
         d="m 107.14014,88.717971 h -0.0328 l -2.13433,-10.031336 h -1.34627 l 2.62687,11.935813 h 1.69104 l 2.67612,-11.935813 h -1.36269 z" />
      <path
         id="path852"
         style="font-style:normal;font-variant:normal;font-weight:bold;font-stretch:normal;font-family:'Letter Gothic Std';-inkscape-font-specification:'Letter Gothic Std Bold';text-align:end;text-anchor:end;stroke-width:0.410449"
         d="m 113.40537,84.597079 c 0,1.674625 -0.0164,6.140294 3.62835,6.140294 3.74328,0 3.62836,-4.564176 3.62836,-6.140294 0,-2.199999 -0.1806,-6.140295 -3.62836,-6.140295 -1.98656,0 -3.62835,1.198507 -3.62835,6.140295 z m 3.62835,5.105966 c -2.46268,0 -2.39701,-3.759699 -2.39701,-5.105966 0,-0.689552 -0.22985,-5.105967 2.39701,-5.105967 2.5612,0 2.39702,4.022385 2.39702,5.105967 0,4.285071 -1.16567,5.105966 -2.39702,5.105966 z" />
      <path
         id="path854"
         style="font-style:normal;font-variant:normal;font-weight:bold;font-stretch:normal;font-family:'Letter Gothic Std';-inkscape-font-specification:'Letter Gothic Std Bold';text-align:end;text-anchor:end;stroke-width:0.410449"
         d="m 125.7288,78.686635 h -1.23135 v 11.820888 h 6.35373 v -1.034328 h -5.12238 z" />
      <path
         id="path856"
         style="font-style:normal;font-variant:normal;font-weight:bold;font-stretch:normal;font-family:'Letter Gothic Std';-inkscape-font-specification:'Letter Gothic Std Bold';text-align:end;text-anchor:end;stroke-width:0.410449"
         d="m 136.67312,88.717971 h -0.0328 l -2.13433,-10.031336 h -1.34627 l 2.62687,11.935813 h 1.69104 l 2.67612,-11.935813 h -1.36269 z" />
      <path
         id="path858"
         style="font-style:normal;font-variant:normal;font-weight:bold;font-stretch:normal;font-family:'Letter Gothic Std';-inkscape-font-specification:'Letter Gothic Std Bold';text-align:end;text-anchor:end;stroke-width:0.410449"
         d="m 150.06372,78.686635 h -6.1403 v 11.820888 h 6.25522 v -1.034328 h -5.02388 v -4.514923 h 3.52985 v -1.034327 h -3.52985 v -4.202983 h 4.90896 z" />
      <path
         id="path860"
         style="font-style:normal;font-variant:normal;font-weight:bold;font-stretch:normal;font-family:'Letter Gothic Std';-inkscape-font-specification:'Letter Gothic Std Bold';text-align:end;text-anchor:end;stroke-width:0.410449"
         d="m 153.6364,90.507523 h 1.23135 v -4.892535 c 0.59104,-0.01642 1.18209,-0.01642 1.77313,-0.03283 l 2.87313,4.92537 h 1.49403 l -3.18507,-5.204475 c 1.64179,-0.93582 2.10149,-2.052237 2.10149,-3.267162 0,-0.689552 -0.26269,-3.349251 -3.21791,-3.349251 h -3.07015 z m 1.23135,-5.94328 v -4.843281 h 1.21492 c 1.95373,0 2.61045,0.673134 2.61045,2.249253 0,1.740297 -0.98508,2.594028 -2.6597,2.594028 z" />
      <path
         id="path862"
         style="font-style:normal;font-variant:normal;font-weight:bold;font-stretch:normal;font-family:'Letter Gothic Std';-inkscape-font-specification:'Letter Gothic Std Bold';text-align:end;text-anchor:end;stroke-width:0.410449"
         d="M 97.361487,98.968164 93.19134,111.77413 h 1.32985 l 1.050746,-3.4806 h 3.59552 l 1.050744,3.4806 h 1.32985 z m 0,3.513426 1.510447,4.77761 h -3.004476 z" />
      <path
         id="path864"
         style="font-style:normal;font-variant:normal;font-weight:bold;font-stretch:normal;font-family:'Letter Gothic Std';-inkscape-font-specification:'Letter Gothic Std Bold';text-align:end;text-anchor:end;stroke-width:0.410449"
         d="m 106.04014,99.953238 h -1.23134 v 11.820892 h 6.35373 v -1.03433 h -5.12239 z" />
      <path
         id="path866"
         style="font-style:normal;font-variant:normal;font-weight:bold;font-stretch:normal;font-family:'Letter Gothic Std';-inkscape-font-specification:'Letter Gothic Std Bold';text-align:end;text-anchor:end;stroke-width:0.410449"
         d="m 126.87805,105.84726 -2.4791,-5.894022 h -1.19851 v 11.820892 h 1.23134 v -8.96418 l 0.0328,-0.0328 2.41343,5.79552 2.42985,-5.79552 h 0.0328 v 8.99701 h 1.23134 V 99.953238 h -1.21493 z" />
      <path
         id="path868"
         style="font-style:normal;font-variant:normal;font-weight:bold;font-stretch:normal;font-family:'Letter Gothic Std';-inkscape-font-specification:'Letter Gothic Std Bold';text-align:end;text-anchor:end;stroke-width:0.410449"
         d="m 136.73879,98.968164 -4.17014,12.805966 h 1.32985 l 1.05074,-3.4806 h 3.59552 l 1.05075,3.4806 h 1.32985 z m 0,3.513426 1.51045,4.77761 h -3.00447 z" />
      <path
         id="path870"
         style="font-style:normal;font-variant:normal;font-weight:bold;font-stretch:normal;font-family:'Letter Gothic Std';-inkscape-font-specification:'Letter Gothic Std Bold';text-align:end;text-anchor:end;stroke-width:0.410449"
         d="m 143.84133,111.77413 h 1.23134 v -4.64627 h 1.03433 c 2.31493,0 3.95672,-1.06716 3.95672,-3.56268 0,-2.33135 -1.24776,-3.611942 -3.38209,-3.611942 h -2.8403 z m 1.23134,-5.6806 v -5.10596 h 1.44478 c 1.46119,0 2.31492,0.7388 2.31492,2.59402 0,1.65821 -0.96865,2.51194 -2.39701,2.51194 z" />
      <path
         id="path872"
         style="font-style:normal;font-variant:normal;font-weight:bold;font-stretch:normal;font-family:'Letter Gothic Std';-inkscape-font-specification:'Letter Gothic Std Bold';text-align:end;text-anchor:end;stroke-width:0.410449"
         d="m 156.42745,98.968164 -4.17015,12.805966 h 1.32985 l 1.05075,-3.4806 h 3.59552 l 1.05075,3.4806 h 1.32985 z m 0,3.513426 1.51045,4.77761 h -3.00448 z" />
    </g>
  </g>
</svg>
