<?xml version="1.0" encoding="utf-8"?>
<!-- Generator: Adobe Illustrator 25.0.0, SVG Export Plug-In . SVG Version: 6.00 Build 0)  -->
<svg version="1.1"
	 id="svg2520" sodipodi:docname="back-2.svg" xmlns:cc="http://creativecommons.org/ns#" xmlns:dc="http://purl.org/dc/elements/1.1/" xmlns:inkscape="http://www.inkscape.org/namespaces/inkscape" xmlns:rdf="http://www.w3.org/1999/02/22-rdf-syntax-ns#" xmlns:sodipodi="http://sodipodi.sourceforge.net/DTD/sodipodi-0.dtd" xmlns:svg="http://www.w3.org/2000/svg"
	 xmlns="http://www.w3.org/2000/svg" xmlns:xlink="http://www.w3.org/1999/xlink" x="0px" y="0px" viewBox="0 0 243.2 251.8"
	 style="enable-background:new 0 0 243.2 251.8;" xml:space="preserve">
<style type="text/css">
	.st0{fill:#FFFFFF;}
	.st1{fill:#1D1D1B;}
	.st2{clip-path:url(#SVGID_2_);}
</style>
<sodipodi:namedview  bordercolor="#666666" borderopacity="1.0" id="base" inkscape:current-layer="text848" inkscape:cx="184.32898" inkscape:cy="204.67746" inkscape:document-rotation="0" inkscape:document-units="mm" inkscape:pageopacity="0.0" inkscape:pageshadow="2" inkscape:window-height="1007" inkscape:window-maximized="1" inkscape:window-width="1920" inkscape:window-x="-9" inkscape:window-y="-9" inkscape:zoom="1.4" pagecolor="#ffffff" showgrid="false">
	</sodipodi:namedview>
<rect id="rect852" x="0" class="st0" width="243.2" height="251.8"/>
<g id="g232" transform="matrix(0.35277777,0,0,-0.35277777,161.45527,69.123303)">
	<path id="path234" class="st1" d="M133.4-148L-343.8,6.5L133.4,161V-148z"/>
</g>
<g id="g236" transform="matrix(0.35277777,0,0,-0.35277777,-187.56528,227.63352)">
	<g>
		<defs>
			<rect id="SVGID_1_" x="79.5" y="18.3" width="1920" height="1080"/>
		</defs>
		<clipPath id="SVGID_2_">
			<use xlink:href="#SVGID_1_"  style="overflow:visible;"/>
		</clipPath>
		<g id="g238" class="st2">
			<g id="g244" transform="translate(880.0615,502.834)">
				<path id="path246" class="st0" d="M-67.1-49.8h364.8c2.7,0,2.7,4.3,0,4.3H-67.1C-69.9-45.6-69.9-49.8-67.1-49.8"/>
			</g>
			<g id="g248" transform="translate(911.7485,486.6934)">
				<path id="path250" class="st0" d="M-9-79.5C10.6-64.3,30.1-49.2,49.7-34c2.2,1.7-0.9,4.7-3,3C27.1-46.1,7.6-61.3-12-76.5
					C-14.2-78.1-11.1-81.1-9-79.5"/>
			</g>
			<g id="g252" transform="translate(918.2051,520.7227)">
				<path id="path254" class="st0" d="M2.8-17l58.9-48.7c2.1-1.7,5.1,1.3,3,3L5.8-14C3.8-12.3,0.7-15.3,2.8-17"/>
			</g>
			<g id="g256" transform="translate(946.2705,521.8379)">
				<path id="path258" class="st0" d="M54.3-15C74-32.3,93.6-49.5,113.2-66.8c2-1.8,5.1,1.2,3,3C96.6-46.5,77-29.3,57.3-12
					C55.3-10.2,52.3-13.2,54.3-15"/>
			</g>
			<g id="g260" transform="translate(938.5918,484.7637)">
				<path id="path262" class="st0" d="M40.2-83C59.8-65.7,79.4-48.4,99-31.2c2.1,1.8-1,4.8-3,3C76.4-45.4,56.8-62.7,37.2-80
					C35.2-81.8,38.2-84.8,40.2-83"/>
			</g>
		</g>
	</g>
</g>
<g>
	<path d="M17.9,176.8v-34.2h7.2c3.9,0,10.7,0.5,10.7,8.6c0,3.3-1.7,5.8-4.5,7.4c3.9,1.9,6,4.5,6,8.9c0,5-3.6,9.3-9.6,9.3H17.9z
		 M21.5,157.5h4.1c3.2,0,6.6-2.3,6.6-6.4c0-5.7-4.7-5.5-6.9-5.5h-3.8V157.5z M27.5,173.8c3.1,0,6.3-1.9,6.3-6.1
		c0-3.8-2.4-7.2-7.8-7.2h-4.5v13.3H27.5z"/>
	<path d="M67.7,176.8h-3.8l-3-10.1H50.4l-3,10.1h-3.8l12.1-37L67.7,176.8z M51.3,163.7h8.7l-4.4-13.8L51.3,163.7z"/>
	<path d="M90.2,150c0-2.8-2.1-5.1-5-5.1c-7.2,0-7.7,9.8-7.7,15c0,5,0.5,14.5,7.4,14.5c3.6,0,5.7-2.7,5.7-6h3.6c-0.4,5.6-3.7,9-9.4,9
		c-9.4,0-10.8-10.3-10.8-17.6c0-7.5,1.6-17.9,11.2-17.9c4.7,0,8.3,3.3,8.6,8.1H90.2z"/>
	<path d="M108,157.6c2.5-0.3,8.3-6.2,11.6-15.5l3.5,1.9l-2.8,4.7c-4.5,7.5-6.8,9.4-9,10.8l14.8,17.2h-4.7l-13.1-16.1H108v16.1h-3.6
		v-34.2h3.6V157.6z"/>
	<path d="M181,145.6h-9.7v31.2h-3.6v-31.2h-9.5v-3H181V145.6z"/>
	<path d="M198,141.9c10,0,10.5,11.4,10.5,17.8c0,4.6,0.3,17.8-10.5,17.8c-10.5,0-10.5-12.9-10.5-17.8
		C187.5,145.4,192.3,141.9,198,141.9z M204.9,159.7c0-3.1,0.5-14.8-6.9-14.8c-7.6,0-6.9,12.8-6.9,14.8c0,3.9-0.2,14.8,6.9,14.8
		C201.6,174.4,204.9,172.1,204.9,159.7z"/>
	<path d="M38.5,202.6h-9.7v31.2h-3.6v-31.2h-9.5v-3h22.8V202.6z"/>
	<path d="M49.6,214.5h11.9v-15H65v34.2h-3.6v-16.2H49.6v16.2H46v-34.2h3.6V214.5z"/>
	<path d="M94.1,202.6H79.9v12.2h10.2v3H79.9v13.1h14.5v3H76.4v-34.2h17.8V202.6z"/>
	<path d="M148.2,199.6h3.5v34.2h-3.6v-26H148l-7,16.8l-7-16.8l-0.1,0.1v25.9h-3.6v-34.2h3.5l7.2,17L148.2,199.6z"/>
	<path d="M181.7,233.8h-3.8l-3-10.1h-10.4l-3,10.1h-3.8l12.1-37L181.7,233.8z M165.2,220.7h8.7l-4.4-13.8L165.2,220.7z"/>
	<path d="M190.1,199.6h8.2c6.2,0,9.8,3.7,9.8,10.4c0,7.2-4.7,10.3-11.4,10.3h-3v13.4h-3.6V199.6z M197.6,217.3
		c4.1,0,6.9-2.5,6.9-7.3c0-5.4-2.5-7.5-6.7-7.5h-4.2v14.8H197.6z"/>
</g>
</svg>
