<?xml version="1.0" encoding="UTF-8" standalone="no"?>
<svg
   xmlns:dc="http://purl.org/dc/elements/1.1/"
   xmlns:cc="http://creativecommons.org/ns#"
   xmlns:rdf="http://www.w3.org/1999/02/22-rdf-syntax-ns#"
   xmlns:svg="http://www.w3.org/2000/svg"
   xmlns="http://www.w3.org/2000/svg"
   xmlns:sodipodi="http://sodipodi.sourceforge.net/DTD/sodipodi-0.dtd"
   xmlns:inkscape="http://www.inkscape.org/namespaces/inkscape"
   sodipodi:docname="circle-2.svg"
   inkscape:version="1.0 (4035a4fb49, 2020-05-01)"
   id="svg1276"
   version="1.1"
   viewBox="0 0 7.6432834 7.6432834"
   height="7.6432834mm"
   width="7.6432834mm">
  <defs
     id="defs1270" />
  <sodipodi:namedview
     inkscape:window-maximized="0"
     inkscape:window-y="58"
     inkscape:window-x="227"
     inkscape:window-height="926"
     inkscape:window-width="1465"
     showgrid="false"
     inkscape:document-rotation="0"
     inkscape:current-layer="layer1"
     inkscape:document-units="mm"
     inkscape:cy="8.0936015"
     inkscape:cx="29.82423"
     inkscape:zoom="11.2"
     inkscape:pageshadow="2"
     inkscape:pageopacity="0.0"
     borderopacity="1.0"
     bordercolor="#666666"
     pagecolor="#ffffff"
     id="base" />
  <metadata
     id="metadata1273">
    <rdf:RDF>
      <cc:Work
         rdf:about="">
        <dc:format>image/svg+xml</dc:format>
        <dc:type
           rdf:resource="http://purl.org/dc/dcmitype/StillImage" />
        <dc:title />
      </cc:Work>
    </rdf:RDF>
  </metadata>
  <g
     transform="translate(-143.58907,-110.32716)"
     id="layer1"
     inkscape:groupmode="layer"
     inkscape:label="Capa 1">
    <g
       style="fill:#ffffff"
       transform="matrix(0.35277777,0,0,-0.35277777,147.41071,117.44128)"
       id="g220">
      <path
         id="path222"
         style="fill:#ffffff;stroke:#1d1d1b;stroke-width:3;stroke-linecap:butt;stroke-linejoin:miter;stroke-miterlimit:10;stroke-dasharray:none;stroke-opacity:1"
         d="m 0,0 c -5.154,0 -9.333,4.179 -9.333,9.333 0,5.154 4.179,9.333 9.333,9.333 5.154,0 9.333,-4.179 9.333,-9.333 C 9.333,4.179 5.154,0 0,0 Z" />
    </g>
    <g
       transform="matrix(0.35277777,0,0,-0.35277777,147.41071,114.79545)"
       id="g224">
      <path
         id="path226"
         style="fill:#1d1d1b;fill-opacity:1;fill-rule:nonzero;stroke:none"
         d="m 0,0 c -1.012,0 -1.833,0.82 -1.833,1.833 0,1.013 0.821,1.834 1.833,1.834 1.013,0 1.834,-0.821 1.834,-1.834 C 1.834,0.82 1.013,0 0,0" />
    </g>
    <g
       transform="matrix(0.35277777,0,0,-0.35277777,147.41071,114.79545)"
       id="g228">
      <path
         id="path230"
         style="fill:none;stroke:#1d1d1b;stroke-width:4;stroke-linecap:butt;stroke-linejoin:miter;stroke-miterlimit:10;stroke-dasharray:none;stroke-opacity:1"
         d="m 0,0 c -1.012,0 -1.833,0.82 -1.833,1.833 0,1.013 0.821,1.834 1.833,1.834 1.013,0 1.834,-0.821 1.834,-1.834 C 1.834,0.82 1.013,0 0,0 Z" />
    </g>
  </g>
</svg>
