<?xml version="1.0" encoding="utf-8"?>
<!-- Generator: Adobe Illustrator 25.0.0, SVG Export Plug-In . SVG Version: 6.00 Build 0)  -->
<svg version="1.1" id="continuar_ruta" xmlns="http://www.w3.org/2000/svg" xmlns:xlink="http://www.w3.org/1999/xlink" x="0px"
	 y="0px" viewBox="0 0 264 117" style="enable-background:new 0 0 264 117;" xml:space="preserve">
<style type="text/css">
	.st0{fill:none;stroke:#000000;stroke-width:2.8;stroke-miterlimit:10;}
</style>
<polygon points="48.3,63.4 19.8,55.5 48.3,47.6 "/>
<polyline class="st0" points="55.3,55.5 231.5,55.5 231.5,95.5 146.2,95.5 "/>
<g>
	<path d="M74.3,29.8c0-1.8-1.3-3.2-3.2-3.2c-4.6,0-4.9,6.2-4.9,9.5c0,3.1,0.3,9.1,4.6,9.1c2.2,0,3.6-1.7,3.6-3.8h2.2
		c-0.2,3.5-2.4,5.7-6,5.7c-5.9,0-6.8-6.5-6.8-11.1c0-4.7,1-11.3,7.1-11.3c3,0,5.2,2.1,5.4,5.1C76.3,29.8,74.3,29.8,74.3,29.8z"/>
	<path d="M88.4,24.7c6.3,0,6.6,7.2,6.6,11.2c0,2.9,0.2,11.2-6.6,11.2c-6.7,0-6.6-8.2-6.6-11.2C81.7,26.9,84.7,24.7,88.4,24.7z
		 M92.7,35.9c0-2,0.3-9.3-4.4-9.3c-4.8,0-4.4,8.1-4.4,9.3c0,2.5-0.1,9.3,4.4,9.3C90.6,45.2,92.7,43.7,92.7,35.9z"/>
	<path d="M100.8,25.1h2.6l6.6,16.1h0.1V25.1h2.2v21.8h-2.1l-7.1-17.4l-0.1,0.1v17.2h-2.2V25.1z"/>
	<path d="M131.6,27h-6.2v19.7h-2.2V27h-6v-1.9h14.4V27z"/>
	<path d="M146.4,27h-2.9v17.8h2.9v1.9h-8.1v-1.9h2.9V27h-2.9v-1.9h8.1V27z"/>
	<path d="M154.8,25.1h2.6l6.6,16.1h0.1V25.1h2.2v21.8h-2.1l-7.1-17.4l-0.1,0.1v17.2h-2.2V25.1z"/>
	<path d="M184.3,25.1V41c0,4.1-3.1,6.1-6,6.1c-2.3,0-6-1.3-6-7.3V25.1h2.2V41c0,3.1,2,4.2,3.7,4.2c2.8,0,3.7-2,3.7-4.5V25.1H184.3z"
		/>
	<path d="M204,46.7h-2.4l-1.9-6.4h-6.6l-1.9,6.4h-2.4l7.6-23.4L204,46.7z M193.7,38.5h5.5l-2.8-8.7L193.7,38.5z"/>
	<path d="M209.3,25.1h5.6c5.4,0,5.9,4.9,5.9,6.1c0,2.2-0.8,4.3-3.8,6l5.8,9.5H220l-5.2-9c-1.1,0-2.2,0-3.2,0.1v8.9h-2.2V25.1H209.3z
		 M213.7,35.8c3.1,0,4.9-1.6,4.9-4.7c0-2.9-1.2-4.1-4.8-4.1h-2.2v8.8H213.7z"/>
	<path d="M155.3,65.1h5.6c5.4,0,5.9,4.9,5.9,6.1c0,2.2-0.8,4.3-3.8,6l5.8,9.5H166l-5.2-9c-1.1,0-2.2,0-3.2,0.1v8.9h-2.2V65.1H155.3z
		 M159.7,75.8c3.1,0,4.9-1.6,4.9-4.7c0-2.9-1.2-4.1-4.8-4.1h-2.2v8.8C157.6,75.8,159.7,75.8,159.7,75.8z"/>
	<path d="M184.3,65.1V81c0,4.1-3.1,6.1-6,6.1c-2.3,0-6-1.3-6-7.3V65.1h2.2V81c0,3.1,2,4.2,3.8,4.2c2.8,0,3.7-2,3.7-4.5V65.1H184.3z"
		/>
	<path d="M203.6,67h-6.1v19.7h-2.2V67h-6v-1.9h14.4L203.6,67L203.6,67z"/>
	<path d="M222,86.7h-2.4l-1.9-6.4h-6.6l-1.9,6.4h-2.4l7.6-23.4L222,86.7z M211.7,78.5h5.5l-2.8-8.7L211.7,78.5z"/>
</g>
</svg>
