<?xml version="1.0" encoding="utf-8"?>
<!-- Generator: Adobe Illustrator 25.0.0, SVG Export Plug-In . SVG Version: 6.00 Build 0)  -->
<svg version="1.1" id="Capa_1" xmlns="http://www.w3.org/2000/svg" xmlns:xlink="http://www.w3.org/1999/xlink" x="0px" y="0px"
	 viewBox="0 0 246.5 108.9" style="enable-background:new 0 0 246.5 108.9;" xml:space="preserve">
<style type="text/css">
	.st0{fill:#1D1D1B;}
	.st1{fill:none;stroke:#1D1D1B;stroke-width:2.8;stroke-miterlimit:10;}
</style>
<polygon class="st0" points="58.6,56.4 30.2,48.5 58.6,40.6 "/>
<polyline class="st1" points="65.5,48.5 224,48.5 224,88.5 121.5,88.5 "/>
<g>
	<path class="st0" d="M84.8,22.8c0-1.8-1.3-3.2-3.1-3.2c-4.6,0-4.9,6.2-4.9,9.5c0,3.1,0.3,9.1,4.6,9.1c2.2,0,3.6-1.7,3.6-3.8h2.2
		c-0.2,3.5-2.4,5.7-6,5.7c-5.9,0-6.8-6.5-6.8-11.1c0-4.7,1-11.3,7.1-11.3c3,0,5.2,2.1,5.4,5.1C86.9,22.8,84.8,22.8,84.8,22.8z"/>
	<path class="st0" d="M98.9,17.7c6.3,0,6.6,7.2,6.6,11.2c0,2.9,0.2,11.2-6.6,11.2c-6.7,0-6.6-8.2-6.6-11.2
		C92.2,19.9,95.2,17.7,98.9,17.7z M103.2,28.9c0-2,0.3-9.3-4.4-9.3c-4.8,0-4.4,8.1-4.4,9.3c0,2.5-0.1,9.3,4.4,9.3
		C101.1,38.2,103.2,36.7,103.2,28.9z"/>
	<path class="st0" d="M111.3,18.1h2.6l6.6,16.1h0.1V18.1h2.2v21.8h-2.1l-7.1-17.4l-0.1,0.1v17.2h-2.2V18.1z"/>
	<path class="st0" d="M142.1,20H136v19.7h-2.2V20h-6v-1.9h14.4L142.1,20L142.1,20z"/>
	<path class="st0" d="M156.9,20H154v17.8h2.9v1.9h-8.1v-1.9h2.9V20h-2.9v-1.9h8.1V20z"/>
	<path class="st0" d="M165.3,18.1h2.6l6.6,16.1h0.1V18.1h2.2v21.8h-2.1l-7.1-17.4l-0.1,0.1v17.2h-2.2V18.1z"/>
	<path class="st0" d="M194.8,18.1V34c0,4.1-3.1,6.1-6,6.1c-2.3,0-6-1.3-6-7.3V18.1h2.2V34c0,3.1,2,4.2,3.8,4.2c2.8,0,3.7-2,3.7-4.5
		V18.1H194.8z"/>
	<path class="st0" d="M213.2,20h-9v7.7h6.4v1.9h-6.4v8.2h9.2v1.9H202V18.1h11.2V20z"/>
	<path class="st0" d="M129.8,58.1h5.6c5.4,0,5.9,4.9,5.9,6.1c0,2.2-0.8,4.3-3.8,6l5.8,9.5h-2.7l-5.2-9c-1.1,0-2.2,0-3.2,0.1v8.9H130
		V58.1H129.8z M134.2,68.8c3.1,0,4.9-1.6,4.9-4.7c0-2.9-1.2-4.1-4.8-4.1H132v8.8C132,68.8,134.2,68.8,134.2,68.8z"/>
	<path class="st0" d="M152.9,57.7c6.3,0,6.6,7.2,6.6,11.2c0,2.9,0.2,11.2-6.6,11.2c-6.7,0-6.6-8.2-6.6-11.2
		C146.2,59.9,149.2,57.7,152.9,57.7z M157.2,68.9c0-2,0.3-9.3-4.4-9.3c-4.8,0-4.4,8.1-4.4,9.3c0,2.5-0.1,9.3,4.4,9.3
		C155.1,78.2,157.2,76.7,157.2,68.9z"/>
	<path class="st0" d="M176.8,58.1V74c0,4.1-3.1,6.1-6,6.1c-2.3,0-6-1.3-6-7.3V58.1h2.2V74c0,3.1,2,4.2,3.7,4.2c2.8,0,3.7-2,3.7-4.5
		V58.1H176.8z"/>
	<path class="st0" d="M196.1,60h-6.2v19.7h-2.2V60h-6v-1.9h14.4V60z"/>
	<path class="st0" d="M213.2,60h-9v7.7h6.5v1.9h-6.5v8.2h9.2v1.9H202V58.1h11.2V60z"/>
</g>
</svg>
