<?xml version="1.0" encoding="utf-8"?>
<!-- Generator: Adobe Illustrator 25.0.0, SVG Export Plug-In . SVG Version: 6.00 Build 0)  -->
<svg version="1.1" id="Capa_1" xmlns="http://www.w3.org/2000/svg" xmlns:xlink="http://www.w3.org/1999/xlink" x="0px" y="0px"
	 viewBox="0 0 142 91" style="enable-background:new 0 0 142 91;" xml:space="preserve">
<style type="text/css">
	.st0{fill:#1D1D1B;}
	.st1{fill:#BCBCBB;}
</style>
<g>
	<g>
		<path class="st0" d="M18.9,42.5c5.8,3.5,11.6,7.1,17.5,10.6c9.3,5.6,18.6,11.3,27.9,16.9c2.1,1.3,4.3,2.6,6.4,3.9
			c1.1,0.7,2.7,0.7,3.8,0c5.4-3.5,10.9-6.9,16.3-10.4c8.6-5.5,17.3-11,25.9-16.5c2-1.3,4-2.5,6-3.8c1.7-1.1,2.4-3.3,1.3-5.1
			c-1-1.7-3.4-2.4-5.1-1.3c-5.4,3.5-10.9,6.9-16.3,10.4c-8.6,5.5-17.3,11-25.9,16.5c-2,1.3-4,2.5-6,3.8c1.3,0,2.5,0,3.8,0
			c-5.8-3.5-11.6-7.1-17.5-10.6c-9.3-5.6-18.6-11.3-27.9-16.9c-2.1-1.3-4.3-2.6-6.4-3.9c-1.7-1.1-4.1-0.4-5.1,1.3
			C16.5,39.1,17.2,41.4,18.9,42.5L18.9,42.5z"/>
	</g>
</g>
<g>
	<g>
		<path class="st1" d="M18.9,24.9c5.8,3.5,11.6,7.1,17.5,10.6c9.3,5.6,18.6,11.3,27.9,16.9c2.1,1.3,4.3,2.6,6.4,3.9
			c1.1,0.7,2.7,0.7,3.8,0c5.4-3.5,10.9-6.9,16.3-10.4c8.6-5.5,17.3-11,25.9-16.5c2-1.3,4-2.5,6-3.8c1.7-1.1,2.4-3.3,1.3-5.1
			c-1-1.7-3.4-2.4-5.1-1.3c-5.4,3.5-10.9,6.9-16.3,10.4C93.9,35,85.2,40.5,76.6,46c-2,1.3-4,2.5-6,3.8c1.3,0,2.5,0,3.8,0
			c-5.8-3.5-11.6-7.1-17.5-10.6c-9.3-5.6-18.6-11.3-27.9-16.9c-2.1-1.3-4.3-2.6-6.4-3.9c-1.7-1.1-4.1-0.4-5.1,1.3
			C16.5,21.5,17.2,23.8,18.9,24.9L18.9,24.9z"/>
	</g>
</g>
</svg>
