<?xml version="1.0" encoding="UTF-8" standalone="no"?>
<svg
   xmlns:dc="http://purl.org/dc/elements/1.1/"
   xmlns:cc="http://creativecommons.org/ns#"
   xmlns:rdf="http://www.w3.org/1999/02/22-rdf-syntax-ns#"
   xmlns:svg="http://www.w3.org/2000/svg"
   xmlns="http://www.w3.org/2000/svg"
   xmlns:sodipodi="http://sodipodi.sourceforge.net/DTD/sodipodi-0.dtd"
   xmlns:inkscape="http://www.inkscape.org/namespaces/inkscape"
   width="37.828335mm"
   height="19.962179mm"
   viewBox="0 0 37.828335 19.962179"
   version="1.1"
   id="svg2023"
   inkscape:version="1.0.1 (3bc2e813f5, 2020-09-07)"
   sodipodi:docname="down-arrow.svg">
  <defs
     id="defs2017">
    <clipPath
       clipPathUnits="userSpaceOnUse"
       id="clipPath336">
      <path
         d="M 0,1080 H 1920 V 0 H 0 Z"
         id="path334" />
    </clipPath>
  </defs>
  <sodipodi:namedview
     id="base"
     pagecolor="#ffffff"
     bordercolor="#666666"
     borderopacity="1.0"
     inkscape:pageopacity="0.0"
     inkscape:pageshadow="2"
     inkscape:zoom="5.6"
     inkscape:cx="77.121555"
     inkscape:cy="43.339265"
     inkscape:document-units="mm"
     inkscape:current-layer="layer1"
     inkscape:document-rotation="0"
     showgrid="false"
     inkscape:window-width="1465"
     inkscape:window-height="926"
     inkscape:window-x="227"
     inkscape:window-y="58"
     inkscape:window-maximized="0" />
  <metadata
     id="metadata2020">
    <rdf:RDF>
      <cc:Work
         rdf:about="">
        <dc:format>image/svg+xml</dc:format>
        <dc:type
           rdf:resource="http://purl.org/dc/dcmitype/StillImage" />
        <dc:title></dc:title>
      </cc:Work>
    </rdf:RDF>
  </metadata>
  <g
     inkscape:label="Capa 1"
     inkscape:groupmode="layer"
     id="layer1"
     transform="translate(-132.27631,47.778709)">
    <g
       id="g338"
       transform="matrix(0.35277777,0,0,-0.35277777,132.90653,-39.076511)"
       style="fill:#ffffff;fill-opacity:0.56121403">
      <path
         d="m 0,0 c 17.24,-10.467 34.48,-20.935 51.722,-31.402 1.108,-0.673 2.679,-0.703 3.785,0 16.062,10.216 32.124,20.432 48.186,30.648 4.068,2.587 0.309,9.08 -3.785,6.477 C 83.846,-4.494 67.783,-14.71 51.722,-24.926 h 3.785 C 38.267,-14.459 21.025,-3.991 3.785,6.477 -0.36,8.993 -4.127,2.506 0,0"
         style="fill:#ffffff;fill-opacity:0.56121403;fill-rule:nonzero;stroke:none"
         id="path340" />
    </g>
    <g
       id="g342"
       transform="matrix(0.35277777,0,0,-0.35277777,132.90653,-45.292844)"
       style="fill:#ffffff;fill-opacity:1">
      <path
         d="m 0,0 c 17.24,-10.467 34.48,-20.934 51.722,-31.401 1.108,-0.673 2.679,-0.703 3.785,0 16.062,10.216 32.124,20.432 48.186,30.648 4.068,2.587 0.309,9.08 -3.785,6.477 C 83.846,-4.493 67.783,-14.709 51.722,-24.925 h 3.785 C 38.267,-14.458 21.025,-3.991 3.785,6.477 -0.36,8.993 -4.127,2.506 0,0"
         style="fill:#ffffff;fill-opacity:1;fill-rule:nonzero;stroke:none"
         id="path344" />
    </g>
  </g>
</svg>
