<?xml version="1.0" encoding="UTF-8" standalone="no"?>
<svg
   xmlns:dc="http://purl.org/dc/elements/1.1/"
   xmlns:cc="http://creativecommons.org/ns#"
   xmlns:rdf="http://www.w3.org/1999/02/22-rdf-syntax-ns#"
   xmlns:svg="http://www.w3.org/2000/svg"
   xmlns="http://www.w3.org/2000/svg"
   xmlns:sodipodi="http://sodipodi.sourceforge.net/DTD/sodipodi-0.dtd"
   xmlns:inkscape="http://www.inkscape.org/namespaces/inkscape"
   viewBox="0 0 508.17 87.24"
   version="1.1"
   id="svg35"
   sodipodi:docname="espanol.svg"
   inkscape:version="1.0.1 (0767f8302a, 2020-10-17)">
  <metadata
     id="metadata39">
    <rdf:RDF>
      <cc:Work
         rdf:about="">
        <dc:format>image/svg+xml</dc:format>
        <dc:type
           rdf:resource="http://purl.org/dc/dcmitype/StillImage" />
      </cc:Work>
    </rdf:RDF>
  </metadata>
  <sodipodi:namedview
     pagecolor="#ffffff"
     bordercolor="#666666"
     borderopacity="1"
     objecttolerance="10"
     gridtolerance="10"
     guidetolerance="10"
     inkscape:pageopacity="0"
     inkscape:pageshadow="2"
     inkscape:window-width="1920"
     inkscape:window-height="1048"
     id="namedview37"
     showgrid="false"
     inkscape:zoom="2.6565912"
     inkscape:cx="113.8425"
     inkscape:cy="24.206764"
     inkscape:window-x="0"
     inkscape:window-y="0"
     inkscape:window-maximized="1"
     inkscape:current-layer="svg35" />
  <defs
     id="defs4">
    <style
       id="style2">.cls-1{fill:#1d1d1b;}.cls-2{fill:#fff;}</style>
  </defs>
  <g
     id="TEXTO">
    <path
       class="cls-1"
       d="M 199.72,22.7 H 174.3 v 21.76 h 18.27 v 5.35 H 174.3 v 23.38 h 26 v 5.36 H 167.92 V 17.34 h 31.8 z"
       id="path19" />
    <path
       class="cls-1"
       d="m 246,28.39 c -3.74,-3.31 -8,-6.88 -13.26,-6.88 -5.44,0 -9.86,3.74 -9.86,9.35 0,3.23 0.6,6.12 8.84,11.13 l 4.85,3 c 11.22,6.88 14.28,10.11 14.28,17.26 0,11 -7.31,17.51 -18,17.51 -7.91,0 -13.77,-3.83 -18.53,-9.95 l 4.93,-3.91 c 3,4.76 7.73,8.5 13.6,8.5 a 11.32,11.32 0 0 0 11.64,-11.3 c 0,-4.94 -0.34,-6.64 -11.13,-13.1 l -5.53,-3.31 c -6,-3.57 -11.3,-7.74 -11.3,-15.39 0,-9.6 7.31,-15.13 16.49,-15.13 6.37,0 12.24,3.4 16.83,7.65 z"
       id="path21" />
    <path
       class="cls-1"
       d="m 269.5,17.34 h 14.7 c 11.05,0 17.51,6.63 17.51,18.7 0,12.92 -8.5,18.45 -20.48,18.45 h -5.36 v 24.06 h -6.37 z m 13.43,31.79 c 7.39,0 12.41,-4.42 12.41,-13 0,-9.61 -4.42,-13.43 -12,-13.43 h -7.48 v 26.43 z"
       id="path23" />
    <path
       class="cls-1"
       d="m 356.37,78.55 h -6.89 l -5.44,-18 h -18.61 l -5.45,18 H 313.1 L 334.69,12.24 Z M 327,55.17 h 15.55 l -7.82,-24.74 z"
       id="path25" />
    <path
       class="cls-1"
       d="m 402.44,2.55 c -1.53,4.34 -5,8.08 -9.86,8.08 -2.89,0 -5,-1.19 -7.4,-2.64 -1.7,-1.1 -3.74,-2.63 -5.87,-2.63 -2.8,0 -4.42,3.57 -5.35,5.78 l -5.27,-1.87 c 2.12,-4.68 5,-9.27 10.79,-9.27 3,0 4.93,1.28 7.4,2.72 1.36,0.77 3.91,2.55 5.53,2.55 2.8,0 3.91,-2.72 4.84,-4.84 z m -32.56,14.79 h 7.39 l 18.62,45.74 h 0.26 V 17.34 h 6.37 v 61.8 h -6 l -20.1,-49.39 -0.17,0.17 v 48.63 h -6.37 z"
       id="path27" />
    <path
       class="cls-1"
       d="m 436.6,16.15 c 17.86,0 18.79,20.4 18.79,31.79 0,8.16 0.6,31.8 -18.79,31.8 -18.87,0 -18.78,-23.13 -18.78,-31.8 0,-25.58 8.5,-31.79 18.78,-31.79 z M 449,47.94 c 0,-5.61 0.85,-26.43 -12.42,-26.43 -13.6,0 -12.41,22.86 -12.41,26.43 0,7 -0.34,26.44 12.41,26.44 6.42,0 12.42,-4.25 12.42,-26.44 z"
       id="path29" />
    <path
       class="cls-1"
       d="m 481.65,73.19 h 26.52 v 5.36 H 475.28 V 17.34 h 6.37 z"
       id="path31" />
  </g>
  <path
     id="polygon6-3"
     style="fill:#1d1d1b"
     d="M 115.473,12.706963 0.92222032,49.796803 115.473,86.896423 V 50.706963 H 94.96324 l -1.49024,1.32031 -12.37109,10.91992 c -0.72,0.64 -1.78055,-0.42054 -1.06055,-1.06054 l 1.73047,-1.5293 10.93359,-9.65039 h -15.7832 l -1.75,1.38086 -12.33008,9.53906 c -0.76,0.59 -1.83054,-0.47054 -1.06054,-1.06054 l 1.75976,-1.35938 10.95313,-8.5 H 41.121439 a 0.75,0.75 0 0 1 0,-1.5 0.75,0.75 0 0 0 0.15039,0 c 1.12,-0.1 2.299922,0 3.419922,0 H 79.88316 l -0.60156,-0.5 -12.35938,-10.23047 h -0.0606 c -0.74,-0.62 0.32055,-1.66859 1.06055,-1.05859 l 1.78906,1.44922 12.39063,10.24023 c 0.0375,0.0309 0.0516,0.0667 0.0801,0.0996 h 16.85937 l -0.6582,-0.58008 -12.39063,-10.91992 v 0.0606 c -0.5475,-0.48 -0.0822,-1.19047 0.48828,-1.25 0.19016,-0.0198 0.39227,0.0319 0.57227,0.18945 l 1.75,1.49023 12.38867,10.91016 c 0.0359,0.0314 0.0488,0.0665 0.0762,0.0996 H 115.473 Z" />
</svg>
