<?xml version="1.0" encoding="utf-8"?>
<!-- Generator: Adobe Illustrator 25.0.0, SVG Export Plug-In . SVG Version: 6.00 Build 0)  -->
<svg version="1.1"
	 id="svg977" sodipodi:docname="logo-h.svg" xmlns:cc="http://creativecommons.org/ns#" xmlns:dc="http://purl.org/dc/elements/1.1/" xmlns:inkscape="http://www.inkscape.org/namespaces/inkscape" xmlns:rdf="http://www.w3.org/1999/02/22-rdf-syntax-ns#" xmlns:sodipodi="http://sodipodi.sourceforge.net/DTD/sodipodi-0.dtd" xmlns:svg="http://www.w3.org/2000/svg"
	 xmlns="http://www.w3.org/2000/svg" xmlns:xlink="http://www.w3.org/1999/xlink" x="0px" y="0px" viewBox="0 0 661 225.7"
	 style="enable-background:new 0 0 661 225.7;" xml:space="preserve">
<style type="text/css">
	.st0{fill:#1D1D1B;}
	.st1{fill:none;stroke:#000000;stroke-width:6.441;stroke-miterlimit:3.9637;}
</style>
<sodipodi:namedview  bordercolor="#666666" borderopacity="1.0" id="base" inkscape:current-layer="text92" inkscape:cx="152.99193" inkscape:cy="312.1991" inkscape:document-rotation="0" inkscape:document-units="mm" inkscape:pageopacity="0.0" inkscape:pageshadow="2" inkscape:window-height="1007" inkscape:window-maximized="1" inkscape:window-width="1920" inkscape:window-x="-9" inkscape:window-y="-9" inkscape:zoom="0.35" pagecolor="#ffffff" showgrid="false">
	</sodipodi:namedview>
<polygon id="polygon6" class="st0" points="14,97.8 75.3,80.7 75.3,114.9 "/>
<polyline id="polyline40" class="st1" points="279.7,218.5 641.5,218.5 641.5,97.8 89.1,97.8 "/>
<path d="M159.6,45.5v-5.1h19.7v30h-6v-5.6c-3,3.6-7.3,5.6-12.1,5.6c-4.7,0-17.4-0.8-17.4-28.6c0-22.8,7-31.2,18.1-31.2
	c9.7,0,14.3,6.9,14.5,15.8h-6c0.5-5.2-2.1-10.8-8.2-10.8c-12,0-12.5,16.7-12.5,25.3c0,8,0.4,24.5,11.6,24.5c5.6,0,11.7-4.5,11.7-16
	v-3.8L159.6,45.5L159.6,45.5z"/>
<path d="M219.4,16.7h-7.8v47.5h7.8v5.1h-21.7v-5.1h7.7V16.7h-7.7v-5.1h21.7V16.7z"/>
<path d="M243.1,11.7h15c14.4,0,15.6,13,15.6,16.3c0,5.9-2.2,11.4-10.2,15.9L279,69.3h-7.3l-14-24c-2.9,0.1-5.7,0.1-8.7,0.2v23.9h-6
	L243.1,11.7L243.1,11.7z M254.8,40.3c8.2,0,13-4.2,13-12.7c0-7.7-3.2-11-12.7-11h-5.9v23.6L254.8,40.3L254.8,40.3z"/>
<path d="M325.1,69.3h-6.5l-5.2-17h-17.6l-5.2,17h-6.5l20.3-62.4L325.1,69.3z M297.4,47.3h14.7L304.8,24L297.4,47.3z"/>
<path d="M339.1,11.7h15c14.4,0,15.6,13,15.6,16.3c0,5.9-2.2,11.4-10.2,15.9l15.6,25.4h-7.3l-14-24c-2.9,0.1-5.7,0.1-8.7,0.2v23.9h-6
	L339.1,11.7L339.1,11.7z M350.8,40.3c8.2,0,13-4.2,13-12.7c0-7.7-3.2-11-12.7-11h-5.9v23.6L350.8,40.3L350.8,40.3z"/>
<path d="M435.4,11.7h13.8c10.4,0,16.5,6.2,16.5,17.6c0,12.2-8,17.4-19.3,17.4h-5.1v22.6h-6V11.7z M448.1,41.6
	c7,0,11.6-4.2,11.6-12.2c0-9.1-4.2-12.7-11.3-12.7h-7.1v24.9H448.1z"/>
<path d="M517.1,69.3h-6.5l-5.2-17H488l-5.2,17h-6.5l20.4-62.4L517.1,69.3z M489.5,47.3h14.7L496.7,24L489.5,47.3z"/>
<path d="M531.2,11.7h15c14.4,0,15.6,13,15.6,16.3c0,5.9-2.2,11.4-10.2,15.9l15.6,25.4h-7.3l-14-24c-2.9,0.1-5.7,0.1-8.7,0.2v23.9h-6
	L531.2,11.7L531.2,11.7z M542.9,40.3c8.2,0,13-4.2,13-12.7c0-7.7-3.2-11-12.7-11h-5.9v23.6L542.9,40.3L542.9,40.3z"/>
<path d="M613.2,69.3h-6.5l-5.2-17H584l-5.2,17h-6.5l20.3-62.4L613.2,69.3z M585.5,47.3h14.7L592.9,24L585.5,47.3z"/>
<path d="M506.7,127.8h6.7L500.4,186h-8.2l-12.8-58.2h6.6l10.4,48.9h0.2L506.7,127.8z"/>
<path d="M561.8,132.7h-23.9v20.5H555v5.1h-17.2v22h24.5v5.1h-30.5v-57.6h30L561.8,132.7L561.8,132.7z"/>
<path d="M579.2,127.8h15c14.4,0,15.6,13,15.6,16.3c0,5.9-2.2,11.4-10.2,15.9l15.6,25.4h-7.3l-14-24c-2.9,0.1-5.7,0.1-8.7,0.2v23.9
	h-6L579.2,127.8L579.2,127.8z M590.9,156.4c8.2,0,13-4.2,13-12.7c0-7.7-3.2-11-12.7-11h-5.9v23.6L590.9,156.4L590.9,156.4z"/>
</svg>
