<?xml version="1.0" encoding="utf-8"?>
<!-- Generator: Adobe Illustrator 25.0.0, SVG Export Plug-In . SVG Version: 6.00 Build 0)  -->
<svg version="1.1"
	 id="svg977" inkscape:version="1.0 (4035a4fb49, 2020-05-01)" sodipodi:docname="logo-h.svg" xmlns:cc="http://creativecommons.org/ns#" xmlns:dc="http://purl.org/dc/elements/1.1/" xmlns:inkscape="http://www.inkscape.org/namespaces/inkscape" xmlns:rdf="http://www.w3.org/1999/02/22-rdf-syntax-ns#" xmlns:sodipodi="http://sodipodi.sourceforge.net/DTD/sodipodi-0.dtd" xmlns:svg="http://www.w3.org/2000/svg"
	 xmlns="http://www.w3.org/2000/svg" xmlns:xlink="http://www.w3.org/1999/xlink" x="0px" y="0px" viewBox="0 0 661 225.7"
	 style="enable-background:new 0 0 661 225.7;" xml:space="preserve">
<style type="text/css">
	.st0{fill:#1D1D1B;}
	.st1{fill:none;stroke:#000000;stroke-width:6.441;stroke-miterlimit:3.9637;}
</style>
<sodipodi:namedview  bordercolor="#666666" borderopacity="1.0" id="base" inkscape:current-layer="text92" inkscape:cx="152.99193" inkscape:cy="312.1991" inkscape:document-rotation="0" inkscape:document-units="mm" inkscape:pageopacity="0.0" inkscape:pageshadow="2" inkscape:window-height="1007" inkscape:window-maximized="1" inkscape:window-width="1920" inkscape:window-x="-9" inkscape:window-y="-9" inkscape:zoom="0.35" pagecolor="#ffffff" showgrid="false">
	</sodipodi:namedview>
<polygon id="polygon6" class="st0" points="0,96 64.3,78.1 64.3,113.9 "/>
<polyline id="polyline40" class="st1" points="278.5,222.5 657.8,222.5 657.8,96 78.7,96 "/>
<path d="M178,4.4h15.9c15.3,0,16.7,13.8,16.7,17.4c0,6.3-2.4,12.1-10.9,16.9l16.5,27h-7.7l-14.9-25.5c-3.1,0.1-6.1,0.1-9.2,0.2v25.4
	H178V4.4z M190.4,34.9c8.7,0,13.8-4.4,13.8-13.5c0-8.2-3.4-11.7-13.5-11.7h-6.3v25.1H190.4z"/>
<path d="M243.5,3.2c17.9,0,18.8,20.4,18.8,31.8c0,8.2,0.6,31.8-18.8,31.8c-18.9,0-18.8-23.2-18.8-31.8
	C224.7,9.4,233.2,3.2,243.5,3.2z M255.9,35c0-5.6,0.9-26.5-12.4-26.5c-13.6,0-12.4,22.9-12.4,26.5c0,7-0.3,26.5,12.4,26.5
	C249.9,61.5,255.9,57.3,255.9,35z"/>
<path d="M315.1,9.7h-17.5v55.9h-6.4V9.7h-17.1V4.4h41V9.7z"/>
<path d="M367.5,65.7h-6.9l-5.4-18.1h-18.6L331,65.7h-6.9l21.6-66.4L367.5,65.7z M338,42.3h15.6l-7.8-24.8L338,42.3z"/>
<path d="M417.3,9.7h-17.5v55.9h-6.4V9.7h-17.1V4.4h41V9.7z"/>
<path d="M466,9.7h-25.5v21.8h18.3v5.4h-18.3v23.4h26.1v5.4h-32.4V4.4H466V9.7z"/>
<path d="M570.5,9.7h-17.5v55.9h-6.4V9.7h-17.1V4.4h41V9.7z"/>
<path d="M601.1,3.2c17.9,0,18.8,20.4,18.8,31.8c0,8.2,0.6,31.8-18.8,31.8c-18.9,0-18.8-23.2-18.8-31.8
	C582.3,9.4,590.8,3.2,601.1,3.2z M613.5,35c0-5.6,0.9-26.5-12.4-26.5c-13.6,0-12.4,22.9-12.4,26.5c0,7-0.3,26.5,12.4,26.5
	C607.5,61.5,613.5,57.3,613.5,35z"/>
<path d="M406.1,176.4h0.2l3.1-47.9h6.9l-4.7,61.9h-7.3l-7.7-26.6l-7.8,26.6h-7.1l-5.1-61.9h6.9l3.2,47.9h0.2l9.7-30.7L406.1,176.4z"
	/>
<path d="M469.6,189.9h-6.9l-5.4-18.1h-18.6l-5.4,18.1h-6.9l21.6-66.4L469.6,189.9z M440.2,166.5h15.6l-7.8-24.8L440.2,166.5z"/>
<path d="M519.4,133.9H502v55.9h-6.4v-55.9h-17.1v-5.4h41V133.9z"/>
<path d="M561.1,141.8c-0.1-5.1-3.7-9.1-8.9-9.1c-12.9,0-13.8,17.5-13.8,27c0,8.9,0.9,26,13.2,26c6.4,0,10.2-4.8,10.3-10.8h6.4
	c-0.7,10-6.7,16.2-16.9,16.2c-16.9,0-19.3-18.5-19.3-31.5c0-13.5,2.8-32.2,20.1-32.2c8.5,0,14.9,6,15.4,14.5H561.1z"/>
<path d="M590.5,155.4h21.3v-26.8h6.4v61.3h-6.4v-29.1h-21.3v29.1h-6.4v-61.3h6.4V155.4z"/>
</svg>
