<?xml version="1.0" encoding="utf-8"?>
<!-- Generator: Adobe Illustrator 25.0.0, SVG Export Plug-In . SVG Version: 6.00 Build 0)  -->
<svg version="1.1"
	 id="svg1271" inkscape:version="1.0.1 (3bc2e813f5, 2020-09-07)" sodipodi:docname="hoja.svg" xmlns:cc="http://creativecommons.org/ns#" xmlns:dc="http://purl.org/dc/elements/1.1/" xmlns:inkscape="http://www.inkscape.org/namespaces/inkscape" xmlns:rdf="http://www.w3.org/1999/02/22-rdf-syntax-ns#" xmlns:sodipodi="http://sodipodi.sourceforge.net/DTD/sodipodi-0.dtd" xmlns:svg="http://www.w3.org/2000/svg"
	 xmlns="http://www.w3.org/2000/svg" xmlns:xlink="http://www.w3.org/1999/xlink" x="0px" y="0px" viewBox="0 0 282.7 416.4"
	 style="enable-background:new 0 0 282.7 416.4;" xml:space="preserve">
<sodipodi:namedview  bordercolor="#666666" borderopacity="1.0" id="base" inkscape:current-layer="layer1" inkscape:cx="79.008303" inkscape:cy="350.36853" inkscape:document-rotation="0" inkscape:document-units="mm" inkscape:pageopacity="0.0" inkscape:pageshadow="2" inkscape:window-height="926" inkscape:window-maximized="0" inkscape:window-width="1465" inkscape:window-x="126" inkscape:window-y="117" inkscape:zoom="0.98994949" pagecolor="#ffffff" showgrid="false">
	</sodipodi:namedview>
<g id="layer1" transform="translate(12.81818,31.114909)" inkscape:groupmode="layer" inkscape:label="Capa 1">
	<g id="g54" transform="matrix(0.35277777,0,0,-0.35277777,-67.343018,140.3075)">
	</g>
	<path id="path60" d="M126.4-30.6C-9.6-23.3-12.3,104.1-12.3,104.1c0,53.3,42.7,122.6,42.7,122.6l93.4,146.8v-31.8v-91.9
		C105.3,228.9,86.8,208,68.3,187c-4.2-4.8,2.8-11.9,7.1-7.1c16.1,18.2,32.2,36.5,48.3,54.7v-67.3c-16.5-21.3-32.9-42.5-49.4-63.8
		c-3.9-5,3.1-12.2,7.1-7.1c14.1,18.2,28.2,36.5,42.3,54.7V42.9c0-3.2,2.5-4.8,5-4.8c2.5,0,5,1.6,5,4.8v38.8V176l46.4-56.2
		c4.1-5,11.1,2.1,7.1,7.1c-17.8,21.5-35.6,43.1-53.4,64.6c0,0,0,0-0.1,0.1v72.2c16.6-18.9,33.2-37.8,49.9-56.7
		c4.3-4.9,11.3,2.2,7.1,7.1c-19,21.5-37.9,43.1-56.9,64.6c0,0,0,0-0.1,0.1v93.8l92.9-146c0,0,42.7-69.3,42.7-122.6
		c0,0-4.7-127.4-140.7-134.7H126.4z"/>
	<g id="g76" transform="matrix(0.35277777,0,0,-0.35277777,17.927567,16.403269)">
	</g>
	<g id="g80" transform="matrix(0.35277777,0,0,-0.35277777,55.255688,22.153829)">
	</g>
	<g id="g84" transform="matrix(0.35277777,0,0,-0.35277777,56.479898,52.939898)">
	</g>
	<g id="g88" transform="matrix(0.35277777,0,0,-0.35277777,15.8109,45.847125)">
	</g>
</g>
</svg>
