<?xml version="1.0" encoding="UTF-8" standalone="no"?>
<svg
   xmlns:dc="http://purl.org/dc/elements/1.1/"
   xmlns:cc="http://creativecommons.org/ns#"
   xmlns:rdf="http://www.w3.org/1999/02/22-rdf-syntax-ns#"
   xmlns:svg="http://www.w3.org/2000/svg"
   xmlns="http://www.w3.org/2000/svg"
   xmlns:sodipodi="http://sodipodi.sourceforge.net/DTD/sodipodi-0.dtd"
   xmlns:inkscape="http://www.inkscape.org/namespaces/inkscape"
   width="99.719696mm"
   height="146.89648mm"
   viewBox="0 0 99.719696 146.89648"
   version="1.1"
   id="svg1271"
   inkscape:version="1.0.1 (3bc2e813f5, 2020-09-07)"
   sodipodi:docname="hoja.svg">
  <defs
     id="defs1265">
    <clipPath
       clipPathUnits="userSpaceOnUse"
       id="clipPath50">
      <path
         d="M 0,1080 H 1920 V 0 H 0 Z"
         id="path48" />
    </clipPath>
    <clipPath
       clipPathUnits="userSpaceOnUse"
       id="clipPath58">
      <path
         d="m 155.059,485.422 h 281.67 V 73.8828 h -281.67 z"
         id="path56" />
    </clipPath>
    <clipPath
       clipPathUnits="userSpaceOnUse"
       id="clipPath864">
      <g
         inkscape:label="Clip"
         id="use866">
        <path
           id="path898"
           style="fill:#ffffff;fill-opacity:1;fill-rule:nonzero;stroke:none;stroke-width:1.33333"
           d="m 188.75,92.271484 c -3.33333,0 -6.66602,2.148599 -6.66602,6.447266 v 144.36523 c -18.8174,-24.3051 -37.63347,-48.6109 -56.45117,-72.91601 -5.25733,-6.79067 -14.62107,2.71973 -9.42773,9.42773 21.96042,28.36428 43.91978,56.7282 65.8789,85.09375 v 89.75782 c -21.48358,-24.33222 -42.96758,-48.66359 -64.45117,-72.9961 -5.70133,-6.45733 -15.0944,3.01102 -9.42773,9.42969 24.62615,27.8905 49.25275,55.78014 73.8789,83.67187 V 497.07812 548.75 c 0,8.59997 13.33399,8.59997 13.33399,0 V 413.38867 c 0.0301,-0.0332 0.0618,-0.0597 0.0918,-0.0937 25.27733,-28.72666 50.55469,-57.45435 75.83203,-86.17969 5.656,-6.428 -3.73707,-15.8944 -9.42774,-9.42773 -22.16539,25.19008 -44.33069,50.37943 -66.49609,75.56836 v -96.21289 c 0.03,-0.0351 0.062,-0.0635 0.0918,-0.0996 23.736,-28.72933 47.47041,-57.45621 71.20507,-86.18555 5.432,-6.572 -3.9464,-16.06373 -9.42773,-9.42773 L 195.41797,276.2149 V 150.39258 98.71875 c 0,-4.298667 -3.33464,-6.447266 -6.66797,-6.447266 z"
           transform="matrix(0.26458333,0,0,0.26458333,-12.81818,-31.114909)" />
        <g
           id="g900"
           transform="matrix(0.35277777,0,0,-0.35277777,17.927567,16.403269)" />
        <g
           id="g902"
           transform="matrix(0.35277777,0,0,-0.35277777,55.255688,22.153829)" />
        <g
           id="g904"
           transform="matrix(0.35277777,0,0,-0.35277777,56.479898,52.939898)" />
        <g
           id="g906"
           transform="matrix(0.35277777,0,0,-0.35277777,15.8109,45.847125)" />
      </g>
    </clipPath>
  </defs>
  <sodipodi:namedview
     id="base"
     pagecolor="#ffffff"
     bordercolor="#666666"
     borderopacity="1.0"
     inkscape:pageopacity="0.0"
     inkscape:pageshadow="2"
     inkscape:zoom="0.98994949"
     inkscape:cx="79.008303"
     inkscape:cy="350.36853"
     inkscape:document-units="mm"
     inkscape:current-layer="layer1"
     inkscape:document-rotation="0"
     showgrid="false"
     inkscape:window-width="1465"
     inkscape:window-height="926"
     inkscape:window-x="126"
     inkscape:window-y="117"
     inkscape:window-maximized="0" />
  <metadata
     id="metadata1268">
    <rdf:RDF>
      <cc:Work
         rdf:about="">
        <dc:format>image/svg+xml</dc:format>
        <dc:type
           rdf:resource="http://purl.org/dc/dcmitype/StillImage" />
        <dc:title />
      </cc:Work>
    </rdf:RDF>
  </metadata>
  <g
     inkscape:label="Capa 1"
     inkscape:groupmode="layer"
     id="layer1"
     transform="translate(12.81818,31.114909)">
    <g
       id="g54"
       style="fill:#ff0000"
       transform="matrix(0.35277777,0,0,-0.35277777,-67.343018,140.3075)" />
    <path
       id="path60"
       style="fill:#ffffff;fill-opacity:1;fill-rule:nonzero;stroke:none;stroke-width:1.33333"
       d="M 185.56055 0.66601562 C 4.2272165 10.438014 0.66601562 180.24023 0.66601562 180.24023 C 0.66601562 251.37223 57.560547 343.77148 57.560547 343.77148 L 182.08398 539.45312 L 182.08398 497.07812 L 182.08398 374.55273 C 157.45783 346.661 132.83123 318.77136 108.20508 290.88086 C 102.53841 284.46219 111.93148 274.99384 117.63281 281.45117 C 139.1164 305.78368 160.60041 330.11505 182.08398 354.44727 L 182.08398 264.68945 C 160.12487 236.3239 138.1655 207.95998 116.20508 179.5957 C 111.01174 172.8877 120.37548 163.3773 125.63281 170.16797 C 144.45051 194.47308 163.26658 218.77889 182.08398 243.08398 L 182.08398 98.71875 C 182.08398 94.420083 185.41667 92.271484 188.75 92.271484 C 192.08333 92.271484 195.41797 94.420083 195.41797 98.71875 L 195.41797 150.39258 L 195.41797 276.21484 L 257.28711 201.33008 C 262.76844 194.69408 272.14684 204.18581 266.71484 210.75781 C 242.98018 239.48715 219.24577 268.21403 195.50977 296.94336 C 195.47995 296.97945 195.44783 297.00782 195.41797 297.04297 L 195.41797 393.25586 C 217.58337 368.06693 239.74867 342.87758 261.91406 317.6875 C 267.60473 311.22083 276.9978 320.68723 271.3418 327.11523 C 246.06446 355.84057 220.78709 384.56826 195.50977 413.29492 C 195.47976 413.3289 195.4482 413.35541 195.41797 413.38867 L 195.41797 538.49609 L 319.33398 343.77148 C 319.33398 343.77148 376.22656 251.37223 376.22656 180.24023 C 376.22656 180.24023 369.99935 10.438014 188.66602 0.66601562 L 185.56055 0.66601562 z "
       transform="matrix(0.26458333,0,0,0.26458333,-12.81818,-31.114909)" />
    <g
       id="g76"
       transform="matrix(0.35277777,0,0,-0.35277777,17.927567,16.403269)" />
    <g
       id="g80"
       transform="matrix(0.35277777,0,0,-0.35277777,55.255688,22.153829)" />
    <g
       id="g84"
       transform="matrix(0.35277777,0,0,-0.35277777,56.479898,52.939898)" />
    <g
       id="g88"
       transform="matrix(0.35277777,0,0,-0.35277777,15.8109,45.847125)" />
  </g>
</svg>
