<?xml version="1.0" encoding="UTF-8" standalone="no"?>
<svg
   xmlns:dc="http://purl.org/dc/elements/1.1/"
   xmlns:cc="http://creativecommons.org/ns#"
   xmlns:rdf="http://www.w3.org/1999/02/22-rdf-syntax-ns#"
   xmlns:svg="http://www.w3.org/2000/svg"
   xmlns="http://www.w3.org/2000/svg"
   xmlns:sodipodi="http://sodipodi.sourceforge.net/DTD/sodipodi-0.dtd"
   xmlns:inkscape="http://www.inkscape.org/namespaces/inkscape"
   viewBox="0 0 497.05 74.19"
   version="1.1"
   id="svg35"
   sodipodi:docname="ingles.svg"
   inkscape:version="1.0.1 (0767f8302a, 2020-10-17)">
  <metadata
     id="metadata39">
    <rdf:RDF>
      <cc:Work
         rdf:about="">
        <dc:format>image/svg+xml</dc:format>
        <dc:type
           rdf:resource="http://purl.org/dc/dcmitype/StillImage" />
      </cc:Work>
    </rdf:RDF>
  </metadata>
  <sodipodi:namedview
     pagecolor="#ffffff"
     bordercolor="#666666"
     borderopacity="1"
     objecttolerance="10"
     gridtolerance="10"
     guidetolerance="10"
     inkscape:pageopacity="0"
     inkscape:pageshadow="2"
     inkscape:window-width="1920"
     inkscape:window-height="1048"
     id="namedview37"
     showgrid="false"
     inkscape:zoom="3.8410388"
     inkscape:cx="54.519129"
     inkscape:cy="58.67911"
     inkscape:window-x="0"
     inkscape:window-y="0"
     inkscape:window-maximized="1"
     inkscape:current-layer="svg35" />
  <defs
     id="defs4">
    <style
       id="style2">.cls-1{fill:#1d1d1b;}.cls-2{fill:#fff;}</style>
  </defs>
  <path
     id="polygon6"
     style="fill:#1d1d1b"
     d="M 114.55078 0 L 0 37.089844 L 114.55078 74.189453 L 114.55078 38 L 94.041016 38 L 92.550781 39.320312 L 80.179688 50.240234 C 79.459686 50.880234 78.399141 49.819688 79.119141 49.179688 L 80.849609 47.650391 L 91.783203 38 L 76 38 L 74.25 39.380859 L 61.919922 48.919922 C 61.159922 49.509922 60.089375 48.449375 60.859375 47.859375 L 62.619141 46.5 L 73.572266 38 L 40.199219 38 A 0.75 0.75 0 0 1 40.199219 36.5 A 0.75 0.75 0 0 0 40.349609 36.5 C 41.469609 36.4 42.649531 36.5 43.769531 36.5 L 78.960938 36.5 L 78.359375 36 L 66 25.769531 L 65.939453 25.769531 C 65.199453 25.149531 66.26 24.100938 67 24.710938 L 68.789062 26.160156 L 81.179688 36.400391 C 81.217167 36.431291 81.231286 36.46707 81.259766 36.5 L 98.119141 36.5 L 97.460938 35.919922 L 85.070312 25 L 85.070312 25.060547 C 84.522814 24.580547 84.988125 23.870077 85.558594 23.810547 C 85.74875 23.790703 85.950859 23.8425 86.130859 24 L 87.880859 25.490234 L 100.26953 36.400391 C 100.30543 36.431821 100.3183 36.46684 100.3457 36.5 L 114.55078 36.5 L 114.55078 0 z " />
  <g
     id="TEXTO">
    <path
       class="cls-1"
       d="M 192.16,11.22 H 166.74 V 33 H 185 v 5.36 h -18.26 v 23.35 h 26 v 5.36 H 160.36 V 5.86 h 31.8 z"
       id="path19" />
    <path
       class="cls-1"
       d="m 209.32,5.86 h 7.4 l 18.62,45.74 h 0.25 V 5.86 H 242 v 61.8 h -6 l -20.13,-49.38 -0.17,0.17 v 48.62 h -6.38 z"
       id="path21" />
    <path
       class="cls-1"
       d="m 274.94,41.82 v -5.35 h 20.83 v 31.79 h -6.38 v -6 a 16.48,16.48 0 0 1 -12.83,6 c -4.93,0 -18.45,-0.85 -18.45,-30.43 0,-24.23 7.4,-33.16 19.3,-33.16 10.37,0 15.21,7.32 15.39,16.84 h -6.38 C 286.93,15.9 284.21,10.03 277.75,10.03 265,10 264.49,27.8 264.49,36.89 c 0,8.5 0.42,26 12.41,26 6,0 12.49,-4.76 12.49,-17 v -4.07 z"
       id="path23" />
    <path
       class="cls-1"
       d="m 321.1,61.71 h 26.52 v 5.36 h -32.9 V 5.86 h 6.38 z"
       id="path25" />
    <path
       class="cls-1"
       d="m 389.52,11.22 h -8.33 v 50.49 h 8.33 v 5.36 h -22.95 v -5.36 h 8.25 V 11.22 h -8.25 V 5.86 h 22.95 z"
       id="path27" />
    <path
       class="cls-1"
       d="m 442.39,16.92 c -3.74,-3.32 -8,-6.89 -13.26,-6.89 -5.44,0 -9.86,3.74 -9.86,9.35 0,3.23 0.6,6.12 8.84,11.14 l 4.85,3 c 11.22,6.89 14.28,10.12 14.28,17.26 0,11 -7.31,17.51 -18,17.51 -7.91,0 -13.78,-3.83 -18.54,-10 l 4.93,-3.91 c 3,4.76 7.74,8.5 13.61,8.5 a 11.32,11.32 0 0 0 11.64,-11.3 c 0,-4.93 -0.34,-6.63 -11.13,-13.09 l -5.53,-3.32 c -6,-3.57 -11.31,-7.73 -11.31,-15.38 0,-9.61 7.32,-15.14 16.5,-15.14 6.37,0 12.24,3.4 16.83,7.66 z"
       id="path29" />
    <path
       class="cls-1"
       d="m 469.42,32.64 h 21.25 V 5.86 h 6.38 v 61.21 h -6.38 V 38 H 469.42 V 67.07 H 463 V 5.86 h 6.38 z"
       id="path31" />
  </g>
</svg>
