<?xml version="1.0" encoding="utf-8"?>
<!-- Generator: Adobe Illustrator 25.0.0, SVG Export Plug-In . SVG Version: 6.00 Build 0)  -->
<svg version="1.1" id="Capa_2_1_" xmlns="http://www.w3.org/2000/svg" xmlns:xlink="http://www.w3.org/1999/xlink" x="0px" y="0px"
	 viewBox="0 0 661 235.7" style="enable-background:new 0 0 661 235.7;" xml:space="preserve">
<style type="text/css">
	.st0{fill:#1D1D1B;}
	.st1{fill:none;stroke:#1D1D1B;stroke-width:6.5;stroke-miterlimit:10;}
</style>
<polygon class="st0" points="84.7,117.5 19.5,99.4 84.7,81.3 "/>
<g>
	<path class="st0" d="M153.8,13h-17.4v55.8H130V13h-17.1V7.6h40.9V13z"/>
	<path class="st0" d="M172.9,34.4h21.3V7.6h6.4v61.2h-6.4v-29h-21.3v29.1h-6.4V7.6h6.4V34.4z"/>
	<path class="st0" d="M251.7,13h-25.4v21.8h18.3v5.4h-18.3v23.4h26V69h-32.4V7.6h31.8V13z"/>
	<path class="st0" d="M319.6,7.6h15.9c15.3,0,16.7,13.8,16.7,17.3c0,6.3-2.4,12.1-10.9,16.9l16.5,26.9H350l-14.9-25.5
		c-3.1,0.1-6.1,0.1-9.2,0.2v25.3h-6.4V7.6H319.6z M332,38.1c8.7,0,13.8-4.4,13.8-13.4c0-8.2-3.4-11.6-13.5-11.6H326v25.1L332,38.1
		L332,38.1z"/>
	<path class="st0" d="M402.2,13h-25.4v21.8H395v5.4h-18.3v23.4h26V69h-32.4V7.6h31.8V13H402.2z"/>
	<path class="st0" d="M454.7,13h-17.4v55.8h-6.4V13h-17.1V7.6h40.9V13z"/>
	<path class="st0" d="M501.3,7.6v45.1c0,11.6-8.7,17.3-16.9,17.3c-6.6,0-17-3.7-17-20.7V7.6h6.4v45.1c0,8.8,5.7,11.9,10.6,11.9
		c7.8,0,10.5-5.8,10.5-12.7V7.6H501.3z"/>
	<path class="st0" d="M520.2,7.6h15.9c15.3,0,16.7,13.8,16.7,17.3c0,6.3-2.4,12.1-10.9,16.9l16.5,26.9h-7.7l-14.9-25.5
		c-3.1,0.1-6.1,0.1-9.2,0.2v25.3h-6.4L520.2,7.6L520.2,7.6z M532.6,38.1c8.7,0,13.8-4.4,13.8-13.4c0-8.2-3.4-11.6-13.5-11.6h-6.3
		v25.1L532.6,38.1L532.6,38.1z"/>
	<path class="st0" d="M569,7.6h7.4L595,53.4h0.3V7.6h6.4v61.8h-6L575.5,20l-0.2,0.2v48.6H569V7.6z"/>
	<path class="st0" d="M369.7,132.6h15.9c15.3,0,16.7,13.8,16.7,17.3c0,6.3-2.4,12.1-10.9,16.9l16.5,26.9h-7.7l-14.9-25.5
		c-3.1,0.1-6.1,0.1-9.2,0.2v25.3h-6.4V132.6z M382.1,163.1c8.7,0,13.8-4.4,13.8-13.4c0-8.2-3.4-11.6-13.5-11.6h-6.3v25.1h6V163.1z"
		/>
	<path class="st0" d="M434.2,131.4c17.9,0,18.8,20.4,18.8,31.8c0,8.2,0.6,31.8-18.8,31.8c-18.9,0-18.8-23.1-18.8-31.8
		C415.4,137.6,423.9,131.4,434.2,131.4z M446.6,163.2c0-5.6,0.8-26.4-12.4-26.4c-13.6,0-12.4,22.9-12.4,26.4c0,7-0.3,26.4,12.4,26.4
		C440.6,189.7,446.6,185.4,446.6,163.2z"/>
	<path class="st0" d="M501.3,132.6v45.1c0,11.6-8.7,17.3-16.9,17.3c-6.6,0-17-3.7-17-20.7v-41.7h6.4v45.1c0,8.8,5.7,11.9,10.6,11.9
		c7.8,0,10.5-5.8,10.5-12.7v-44.4h6.4V132.6z"/>
	<path class="st0" d="M555,138h-17.4v55.8h-6.4V138h-17.1v-5.4H555V138z"/>
	<path class="st0" d="M602.8,138h-25.4v21.8h18.3v5.4h-18.3v23.4h26v5.4H571v-61.2h31.8V138z"/>
</g>
<polyline class="st1" points="346.7,227 635.5,227 635.5,99.4 100.7,99.4 "/>
</svg>
