<?xml version="1.0" encoding="UTF-8" standalone="no"?>
<svg
   xmlns:dc="http://purl.org/dc/elements/1.1/"
   xmlns:cc="http://creativecommons.org/ns#"
   xmlns:rdf="http://www.w3.org/1999/02/22-rdf-syntax-ns#"
   xmlns:svg="http://www.w3.org/2000/svg"
   xmlns="http://www.w3.org/2000/svg"
   xmlns:sodipodi="http://sodipodi.sourceforge.net/DTD/sodipodi-0.dtd"
   xmlns:inkscape="http://www.inkscape.org/namespaces/inkscape"
   sodipodi:docname="logo.svg"
   inkscape:version="1.0 (4035a4fb49, 2020-05-01)"
   id="svg977"
   version="1.1"
   viewBox="0 0 79.615479 233.19733"
   height="233.19733mm"
   width="79.615479mm">
  <defs
     id="defs971" />
  <sodipodi:namedview
     inkscape:window-maximized="1"
     inkscape:window-y="-9"
     inkscape:window-x="1911"
     inkscape:window-height="774"
     inkscape:window-width="1280"
     showgrid="false"
     inkscape:document-rotation="0"
     inkscape:current-layer="text92"
     inkscape:document-units="mm"
     inkscape:cy="602.4325"
     inkscape:cx="-137.24149"
     inkscape:zoom="0.35"
     inkscape:pageshadow="2"
     inkscape:pageopacity="0.0"
     borderopacity="1.0"
     bordercolor="#666666"
     pagecolor="#ffffff"
     id="base" />
  <metadata
     id="metadata974">
    <rdf:RDF>
      <cc:Work
         rdf:about="">
        <dc:format>image/svg+xml</dc:format>
        <dc:type
           rdf:resource="http://purl.org/dc/dcmitype/StillImage" />
        <dc:title />
      </cc:Work>
    </rdf:RDF>
  </metadata>
  <g
     transform="translate(-68.293452,94.676038)"
     id="layer1"
     inkscape:groupmode="layer"
     inkscape:label="Capa 1">
    <g
       style="font-variant:normal;font-weight:bold;font-stretch:normal;font-size:29.986px;font-family:'Letter Gothic Std';-inkscape-font-specification:LetterGothicStd-Bold;writing-mode:lr-tb;fill:#1d1d1b;fill-opacity:1;fill-rule:nonzero;stroke:none;stroke-width:0.352777"
       id="text92"
       aria-label="LA RUTA DEL RETORNO">
      <g
         transform="matrix(0,-1.3212246,1.3212246,0,49.552861,387.51951)"
         id="g994">
        <polygon
           id="polygon6"
           points="0,96.86 64.88,78.8 64.88,114.96 "
           class="cls-1"
           transform="matrix(0.26458333,0,0,0.26458333,188.46018,14.184258)" />
        <path
           id="path8"
           d="m 217.45587,30.323841 h 7.01675 v 1.418167 h -8.70479 V 15.533633 h 1.68804 z"
           class="cls-1"
           style="stroke-width:0.0933389" />
        <path
           id="path10"
           d="m 238.05633,31.728779 h -1.82298 l -1.43669,-4.7625 h -4.92654 l -1.43934,4.7625 h -1.82298 l 5.71236,-17.544521 z m -7.79198,-6.185959 h 4.11427 l -2.06904,-6.545791 z"
           class="cls-1"
           style="stroke-width:0.0933389" />
        <path
           id="path12"
           d="m 255.03464,15.533633 h 4.20687 c 4.04813,0 4.40796,3.643312 4.40796,4.587875 0,1.664229 -0.62971,3.193521 -2.87867,4.47675 l 4.36298,7.14375 h -2.04787 l -3.93436,-6.76275 c -0.80962,0.02381 -1.61925,0.02381 -2.42887,0.04498 v 6.704542 h -1.68804 z m 3.27554,8.051271 c 2.29394,0 3.64331,-1.169459 3.64331,-3.553354 0,-2.159 -0.89958,-3.07975 -3.57452,-3.07975 h -1.65629 v 6.633104 z"
           class="cls-1"
           style="stroke-width:0.0933389" />
        <path
           id="path14"
           d="m 276.57966,15.533633 v 11.943291 c 0,3.058584 -2.29394,4.566709 -4.47411,4.566709 -1.75418,0 -4.49791,-0.992188 -4.49791,-5.466292 V 15.533633 h 1.68804 v 11.943291 c 0,2.338917 1.50812,3.148542 2.81252,3.148542 2.06904,0 2.78871,-1.529292 2.78871,-3.352271 V 15.533633 Z"
           class="cls-1"
           style="stroke-width:0.0933389" />
        <path
           id="path16"
           d="m 290.79307,16.9518 h -4.60904 v 14.776979 h -1.6801 V 16.9518 h -4.52967 v -1.418167 h 10.81881 z"
           class="cls-1"
           style="stroke-width:0.0933389" />
        <path
           id="path18"
           d="m 304.4006,31.728779 h -1.82298 l -1.43934,-4.7625 h -4.92654 l -1.43933,4.7625 h -1.82034 l 5.71236,-17.544521 z m -7.78405,-6.185959 h 4.11692 l -2.06904,-6.545791 z"
           class="cls-1"
           style="stroke-width:0.0933389" />
        <path
           id="path20"
           d="m 320.95028,15.533633 h 4.11692 c 3.12473,0 5.20964,1.778 5.20964,8.09625 0,6.230937 -1.9341,8.098896 -5.46629,8.098896 h -3.86027 z m 1.68804,14.790208 h 2.08227 c 2.33892,0 3.88938,-0.653521 3.88938,-6.680729 0,-6.207125 -1.77535,-6.678083 -3.93435,-6.678083 h -2.02407 z"
           class="cls-1"
           style="stroke-width:0.0933389" />
        <path
           id="path22"
           d="m 343.24143,16.9518 h -6.72836 v 5.757333 h 4.83659 v 1.415521 h -4.83659 v 6.199187 h 6.87917 v 1.418167 h -8.56456 V 15.533633 h 8.41375 z"
           class="cls-1"
           style="stroke-width:0.0933389" />
        <path
           id="path24"
           d="m 350.14176,30.323841 h 7.01675 v 1.418167 h -8.70479 V 15.533633 h 1.68804 z"
           class="cls-1"
           style="stroke-width:0.0933389" />
        <path
           id="path26"
           d="m 268.30349,48.606549 h 4.20688 c 4.04812,0 4.40795,3.643313 4.40795,4.587875 0,1.664229 -0.6297,3.193521 -2.87866,4.47675 l 4.36298,7.130521 h -2.04788 l -3.93435,-6.749521 c -0.80963,0.02381 -1.61925,0.02381 -2.43152,0.04498 v 6.704542 h -1.6854 z m 3.28348,8.051271 c 2.29394,0 3.64331,-1.169458 3.64331,-3.553354 0,-2.159 -0.89958,-3.07975 -3.57452,-3.07975 h -1.66687 v 6.633104 z"
           class="cls-1"
           style="stroke-width:0.0933389" />
        <path
           id="path28"
           d="m 290.16337,50.024716 h -6.71777 v 5.757333 h 4.83658 v 1.415521 h -4.83658 v 6.199187 h 6.87916 v 1.418167 h -8.5725 V 48.606549 h 8.41111 z"
           class="cls-1"
           style="stroke-width:0.0933389" />
        <path
           id="path30"
           d="m 304.06193,50.024716 h -4.61169 v 14.776979 h -1.68539 V 50.024716 h -4.52967 v -1.418167 h 10.81881 z"
           class="cls-1"
           style="stroke-width:0.0933389" />
        <path
           id="path32"
           d="m 311.90947,48.291695 c 4.72281,0 4.97152,5.3975 4.97152,8.411104 0,2.159 0.15611,8.41375 -4.97152,8.41375 -4.99269,0 -4.96887,-6.119812 -4.96887,-8.41375 0,-6.768041 2.24895,-8.411104 4.96887,-8.411104 z m 3.28613,8.411104 c 0,-1.484312 0.22489,-6.992937 -3.28348,-6.992937 -3.59834,0 -3.28348,6.048375 -3.28348,6.992937 0,1.852083 -0.09,6.995583 3.28348,6.995583 1.69598,0 3.28348,-1.124479 3.28348,-6.995583 z"
           class="cls-1"
           style="stroke-width:0.0933389" />
        <path
           id="path34"
           d="m 321.37891,48.606549 h 4.20423 c 4.04812,0 4.40795,3.643313 4.40795,4.587875 0,1.664229 -0.6297,3.193521 -2.87866,4.47675 l 4.36298,7.130521 h -2.04523 l -3.937,-6.749521 c -0.80963,0.02381 -1.61925,0.02381 -2.42888,0.04498 v 6.704542 h -1.68539 z m 3.28348,8.051271 c 2.29393,0 3.64331,-1.169458 3.64331,-3.553354 0,-2.159 -0.89958,-3.07975 -3.57717,-3.07975 h -1.66423 v 6.633104 z"
           class="cls-1"
           style="stroke-width:0.0933389" />
        <path
           id="path36"
           d="m 334.28528,48.606549 h 1.95792 l 4.92654,12.099396 h 0.0661 V 48.606549 h 1.68804 v 16.35125 h -1.5875 l -5.31813,-13.067771 -0.045,0.04498 v 12.866687 h -1.68804 z"
           class="cls-1"
           style="stroke-width:0.0933389" />
        <path
           id="path38"
           d="m 351.70809,48.291695 c 4.72282,0 4.97153,5.3975 4.97153,8.411104 0,2.159 0.1561,8.41375 -4.97153,8.41375 -4.99268,0 -4.97152,-6.119812 -4.97152,-8.41375 0.008,-6.768041 2.2569,-8.411104 4.97152,-8.411104 z m 3.28348,8.411104 c 0,-1.484312 0.2249,-6.992937 -3.28348,-6.992937 -3.59833,0 -3.28347,6.048375 -3.28347,6.992937 0,1.852083 -0.09,6.995583 3.28347,6.995583 1.69598,0 3.29142,-1.124479 3.29142,-6.995583 z"
           class="cls-1"
           style="stroke-width:0.0933389" />
        <polyline
           id="polyline40"
           points="281.1 224.5 663.84 224.5 663.84 96.88 79.4 96.88"
           class="cls-2"
           transform="matrix(0.26458333,0,0,0.26458333,188.46018,14.184258)"
           style="fill:none;fill-opacity:1;stroke:#000000;stroke-width:6.5;stroke-miterlimit:4;stroke-dasharray:none;stroke-opacity:1" />
      </g>
    </g>
  </g>
</svg>
