<?xml version="1.0" encoding="utf-8"?>
<!-- Generator: Adobe Illustrator 25.0.0, SVG Export Plug-In . SVG Version: 6.00 Build 0)  -->
<svg version="1.1"
	 id="svg977" xmlns:cc="http://creativecommons.org/ns#" xmlns:dc="http://purl.org/dc/elements/1.1/" xmlns:inkscape="http://www.inkscape.org/namespaces/inkscape" xmlns:rdf="http://www.w3.org/1999/02/22-rdf-syntax-ns#" xmlns:sodipodi="http://sodipodi.sourceforge.net/DTD/sodipodi-0.dtd" xmlns:svg="http://www.w3.org/2000/svg"
	 xmlns="http://www.w3.org/2000/svg" xmlns:xlink="http://www.w3.org/1999/xlink" x="0px" y="0px" viewBox="0 0 225.7 661"
	 style="enable-background:new 0 0 225.7 661;" xml:space="preserve">
<style type="text/css">
	.st0{fill:#1D1D1B;}
	.st1{fill:none;stroke:#1D1D1B;stroke-width:6.5;stroke-miterlimit:10;}
</style>
<sodipodi:namedview  bordercolor="#666666" borderopacity="1.0" id="base" inkscape:current-layer="text92" inkscape:cx="-137.24149" inkscape:cy="602.4325" inkscape:document-rotation="0" inkscape:document-units="mm" inkscape:pageopacity="0.0" inkscape:pageshadow="2" inkscape:window-height="774" inkscape:window-maximized="1" inkscape:window-width="1280" inkscape:window-x="1911" inkscape:window-y="-9" inkscape:zoom="0.35" pagecolor="#ffffff" showgrid="false">
	</sodipodi:namedview>
<polygon class="st0" points="111.8,576.7 93.6,641.9 75.5,576.7 "/>
<g>
	<path class="st0" d="M7.2,507.6V525h55.8v6.4H7.2v17.1H1.9v-40.9H7.2z"/>
	<path class="st0" d="M28.6,488.5v-21.3H1.9v-6.4h61.2v6.4H34v21.3h29.1v6.4H1.9v-6.4H28.6z"/>
	<path class="st0" d="M7.2,409.6v25.4H29v-18.3h5.4v18.3h23.4v-26h5.4v32.4H1.9v-31.8H7.2z"/>
	<path class="st0" d="M1.9,341.8v-15.9c0-15.3,13.8-16.7,17.3-16.7c6.3,0,12.1,2.4,16.9,10.9l26.9-16.5v7.7l-25.5,14.9
		c0.1,3.1,0.1,6.1,0.2,9.2h25.3v6.4H1.9z M32.3,329.4c0-8.7-4.4-13.8-13.4-13.8c-8.2,0-11.6,3.4-11.6,13.5v6.3h25.1V329.4z"/>
	<path class="st0" d="M7.2,259.2v25.4H29v-18.3h5.4v18.3h23.4v-26h5.4V291H1.9v-31.8H7.2z"/>
	<path class="st0" d="M7.2,206.7v17.4h55.8v6.4H7.2v17.1H1.9v-40.9H7.2z"/>
	<path class="st0" d="M1.9,160.1H47c11.6,0,17.3,8.7,17.3,16.9c0,6.6-3.7,17-20.7,17H1.9v-6.4H47c8.8,0,11.9-5.7,11.9-10.6
		c0-7.8-5.8-10.5-12.7-10.5H1.9V160.1z"/>
	<path class="st0" d="M1.9,141.2v-15.9c0-15.3,13.8-16.7,17.3-16.7c6.3,0,12.1,2.4,16.9,10.9l26.9-16.5v7.7l-25.5,14.9
		c0.1,3.1,0.1,6.1,0.2,9.2h25.3v6.4H1.9z M32.3,128.8c0-8.7-4.4-13.8-13.4-13.8c-8.2,0-11.6,3.4-11.6,13.5v6.3h25.1V128.8z"/>
	<path class="st0" d="M1.9,92.4V85l45.7-18.6v-0.3H1.9v-6.4h61.8v6L14.3,85.9l0.2,0.2h48.6v6.4H1.9z"/>
	<path class="st0" d="M126.9,291.7v-15.9c0-15.3,13.8-16.7,17.3-16.7c6.3,0,12.1,2.4,16.9,10.9l26.9-16.5v7.7l-25.5,14.9
		c0.1,3.1,0.1,6.1,0.2,9.2h25.3v6.4H126.9z M157.3,279.3c0-8.7-4.4-13.8-13.4-13.8c-8.2,0-11.6,3.4-11.6,13.5v6.3h25.1V279.3z"/>
	<path class="st0" d="M125.7,227.2c0-17.9,20.4-18.8,31.8-18.8c8.2,0,31.8-0.6,31.8,18.8c0,18.9-23.1,18.8-31.8,18.8
		C131.9,245.9,125.7,237.4,125.7,227.2z M157.5,214.7c-5.6,0-26.4-0.8-26.4,12.4c0,13.6,22.9,12.4,26.4,12.4c7,0,26.4,0.3,26.4-12.4
		C183.9,220.8,179.7,214.7,157.5,214.7z"/>
	<path class="st0" d="M126.9,160.1H172c11.6,0,17.3,8.7,17.3,16.9c0,6.6-3.7,17-20.7,17h-41.7v-6.4H172c8.8,0,11.9-5.7,11.9-10.6
		c0-7.8-5.8-10.5-12.7-10.5h-44.4V160.1z"/>
	<path class="st0" d="M132.2,106.4v17.4h55.8v6.4h-55.8v17.1h-5.4v-40.9H132.2z"/>
	<path class="st0" d="M132.2,58.6V84H154V65.7h5.4V84h23.4V58h5.4v32.4h-61.2V58.6H132.2z"/>
</g>
<polyline class="st1" points="221.3,314.7 221.3,25.9 93.6,25.9 93.6,560.7 "/>
</svg>
