<?xml version="1.0" encoding="utf-8"?>
<!-- Generator: Adobe Illustrator 25.0.0, SVG Export Plug-In . SVG Version: 6.00 Build 0)  -->
<svg version="1.1" id="Capa_1" xmlns="http://www.w3.org/2000/svg" xmlns:xlink="http://www.w3.org/1999/xlink" x="0px" y="0px"
	 viewBox="0 0 311 192.7" style="enable-background:new 0 0 311 192.7;" xml:space="preserve">
<style type="text/css">
	.st0{fill:none;}
	.st1{enable-background:new    ;}
	.st2{fill:none;stroke:#000000;stroke-width:2.3;stroke-miterlimit:10;}
</style>
<g id="Capa_2_1_">
	<rect x="33.6" y="43.2" class="st0" width="231.7" height="142"/>
	<g class="st1">
		<path d="M139.5,68.8h-2.8l-2.2-7.3h-7.6l-2.2,7.3h-2.8l8.8-26.9L139.5,68.8z M127.6,59.3h6.3l-3.2-10.1L127.6,59.3z"/>
		<path d="M155.9,49.3c0-2.1-1.5-3.7-3.6-3.7c-5.3,0-5.6,7.1-5.6,11c0,3.6,0.4,10.5,5.4,10.5c2.6,0,4.1-1.9,4.2-4.4h2.6
			c-0.3,4-2.7,6.6-6.9,6.6c-6.8,0-7.8-7.5-7.8-12.8c0-5.5,1.1-13.1,8.2-13.1c3.5,0,6,2.4,6.3,5.9H155.9z"/>
		<path d="M180.4,46.1h-7.1v22.7h-2.6V46.1h-6.9v-2.2h16.6V46.1z"/>
		<path d="M197.5,46.1h-3.4v20.5h3.4v2.2h-9.3v-2.2h3.4V46.1h-3.4v-2.2h9.3V46.1z"/>
		<path d="M217.9,43.9h2.9L215.2,69h-3.6l-5.5-25.1h2.8l4.5,21.1h0.1L217.9,43.9z"/>
		<path d="M243.1,68.8h-2.8l-2.2-7.3h-7.6l-2.2,7.3h-2.8l8.8-26.9L243.1,68.8z M231.2,59.3h6.3l-3.2-10.1L231.2,59.3z"/>
		<path d="M249.2,43.9h6.5c6.2,0,6.8,5.6,6.8,7c0,2.6-1,4.9-4.4,6.9l6.7,11h-3.1l-6-10.4c-1.2,0-2.5,0-3.7,0.1v10.3h-2.6V43.9z
			 M254.2,56.3c3.5,0,5.6-1.8,5.6-5.5c0-3.3-1.4-4.7-5.5-4.7h-2.6v10.2H254.2z"/>
	</g>
	<g class="st1">
		<path d="M77.2,91.8h-1.3v-5.3c0-1.5-0.1-2.8-0.4-3.9h1.3l0.3,1.8c0.7-1.1,1.5-2,2.9-2c1.7,0,2.1,1.7,2.1,3.1h-1.3
			c0-0.7,0.1-2-0.9-2c-1,0-2.7,1.5-2.7,4.5V91.8z"/>
		<path d="M85.1,87.2c0-3.6,1.9-4.8,3.7-4.8c3.3,0,3.7,3.3,3.7,4.8c0,3.6-1.9,4.8-3.7,4.8C87.1,92,85.1,90.9,85.1,87.2z M91.1,87.2
			c0-1.6-0.4-3.7-2.4-3.7c-2,0-2.4,2.1-2.4,3.7c0,1.6,0.3,3.7,2.4,3.7C90.8,90.9,91.1,88.8,91.1,87.2z"/>
		<path d="M101.9,83.6h-3.3v5.3c0,0.9,0,2,1.2,2c1,0,1.6-0.8,2-1.6l1.2,0.3c-0.6,1.3-1.7,2.4-3.2,2.4c-1.5,0-2.5-0.7-2.5-3.5v-4.9
			h-2v-1.1h2v-2.8h1.3v2.8h3.3V83.6z"/>
		<path d="M106.7,83c0.9-0.3,1.7-0.6,2.7-0.6c1.8,0,2.8,1.5,2.8,3v4c0,0.8,0.1,1.7,0.4,2.5l-1.2,0.2l-0.3-1.2
			c-0.6,0.7-1.3,1.1-2.3,1.1c-1.8,0-2.7-1.4-2.7-3c0-1.8,1.1-3.3,3-3.3c0.7,0,1.3,0.2,1.9,0.4v-0.9c0-1-0.6-1.7-1.6-1.7
			c-0.8,0-1.6,0.4-2.3,0.7L106.7,83z M110.9,87.2c-0.6-0.2-1.1-0.4-1.8-0.4c-1.3,0-1.8,1.1-1.8,2.3c0,0.9,0.4,1.9,1.5,1.9
			s1.6-0.8,2.1-1.6V87.2z"/>
		<path d="M123.7,90.3c-0.9,1-1.9,1.7-3.3,1.7c-1.7,0-4-1.1-4-4.7c0-3.7,2.1-4.9,3.9-4.9c1.5,0,2.6,0.8,3.4,2.1l-1.1,0.7
			c-0.5-0.9-1.1-1.7-2.3-1.7c-1.3,0-2.6,1-2.6,3.7c0,2.9,1.5,3.7,2.7,3.7c1,0,1.8-0.8,2.4-1.5L123.7,90.3z"/>
		<path d="M129.8,83.6h-2.6v-1.1h3.9v9.2h-1.3V83.6z M131.5,80.2c0,0.6-0.5,1.1-1.1,1.1s-1.1-0.5-1.1-1.1c0-0.6,0.5-1.1,1.1-1.1
			S131.5,79.6,131.5,80.2z"/>
		<path d="M136.9,87.2c0-3.6,1.9-4.8,3.7-4.8c3.3,0,3.7,3.3,3.7,4.8c0,3.6-1.9,4.8-3.7,4.8C139,92,136.9,90.9,136.9,87.2z
			 M142.9,87.2c0-1.6-0.4-3.7-2.4-3.7c-2,0-2.4,2.1-2.4,3.7c0,1.6,0.3,3.7,2.4,3.7C142.6,90.9,142.9,88.8,142.9,87.2z M142.9,79.5
			l-3.3,2.2l-0.7-0.8l3.1-2.5L142.9,79.5z"/>
		<path d="M149,91.8h-1.3v-4.6c0-1.6-0.1-3.1-0.4-4.6h1.2l0.3,1.7c0.7-1.1,1.8-1.9,3.1-1.9c1.5,0,2.2,1.3,2.2,2.9v6.5h-1.3v-6.1
			c0-0.9,0-2.2-1.1-2.2c-1.2,0-2.8,1.2-2.8,4.5V91.8z"/>
		<path d="M168.9,83c0.9-0.3,1.7-0.6,2.7-0.6c1.8,0,2.8,1.5,2.8,3v4c0,0.8,0.1,1.7,0.4,2.5l-1.2,0.2l-0.3-1.2
			c-0.6,0.7-1.3,1.1-2.3,1.1c-1.8,0-2.7-1.4-2.7-3c0-1.8,1.1-3.3,3-3.3c0.7,0,1.3,0.2,1.9,0.4v-0.9c0-1-0.6-1.7-1.6-1.7
			c-0.8,0-1.6,0.4-2.3,0.7L168.9,83z M173.1,87.2c-0.6-0.2-1.1-0.4-1.8-0.4c-1.3,0-1.8,1.1-1.8,2.3c0,0.9,0.4,1.9,1.5,1.9
			s1.6-0.8,2.1-1.6V87.2z"/>
		<path d="M184,82.5h1.3V87c0,1.6,0,3.2,0.4,4.8h-1.2l-0.3-1.8c-0.6,1-1.8,2-3,2c-1.6,0-2.3-1.4-2.3-3v-6.4h1.3v6
			c0,0.9,0,2.3,1.1,2.3c1.3,0,2.8-1.4,2.8-4.6V82.5z"/>
		<path d="M195.2,83.6h-3.3v5.3c0,0.9,0,2,1.2,2c1,0,1.6-0.8,2-1.6l1.2,0.3c-0.6,1.3-1.7,2.4-3.2,2.4c-1.5,0-2.5-0.7-2.5-3.5v-4.9
			h-2v-1.1h2v-2.8h1.3v2.8h3.3V83.6z"/>
		<path d="M199.1,87.2c0-3.6,1.9-4.8,3.7-4.8c3.3,0,3.7,3.3,3.7,4.8c0,3.6-1.9,4.8-3.7,4.8C201.1,92,199.1,90.9,199.1,87.2z
			 M205.1,87.2c0-1.6-0.4-3.7-2.4-3.7c-2,0-2.4,2.1-2.4,3.7c0,1.6,0.3,3.7,2.4,3.7C204.8,90.9,205.1,88.8,205.1,87.2z"/>
		<path d="M209.1,85.4c0-1.3-0.2-2.1-0.4-3.1h1.3l0.2,0.8c0.6-0.5,1-0.8,1.8-0.8c0.8,0,1.1,0.2,1.6,0.8c0.5-0.5,1-0.8,1.8-0.8
			c1.2,0,2,0.8,2,2.1v7.4h-1.3v-7.4c0-0.6-0.3-1-0.8-1c-0.6,0-1.1,0.5-1.4,1v7.4h-1.3v-7.3c0-0.5-0.1-1.1-0.7-1.1
			c-0.6,0-1.2,0.6-1.5,1.1v7.2h-1.3V85.4z"/>
		<path d="M220.7,83c0.9-0.3,1.7-0.6,2.7-0.6c1.8,0,2.8,1.5,2.8,3v4c0,0.8,0.1,1.7,0.4,2.5l-1.2,0.2l-0.3-1.2
			c-0.6,0.7-1.3,1.1-2.3,1.1c-1.8,0-2.7-1.4-2.7-3c0-1.8,1.1-3.3,3-3.3c0.7,0,1.3,0.2,1.9,0.4v-0.9c0-1-0.6-1.7-1.6-1.7
			c-0.8,0-1.6,0.4-2.3,0.7L220.7,83z M224.9,87.2c-0.6-0.2-1.1-0.4-1.8-0.4c-1.3,0-1.8,1.1-1.8,2.3c0,0.9,0.4,1.9,1.5,1.9
			s1.6-0.8,2.1-1.6V87.2z M225.8,79.5l-3.3,2.2l-0.7-0.8l3.1-2.5L225.8,79.5z"/>
		<path d="M236.6,83.6h-3.3v5.3c0,0.9,0,2,1.2,2c1,0,1.6-0.8,2-1.6l1.2,0.3c-0.6,1.3-1.7,2.4-3.2,2.4c-1.5,0-2.5-0.7-2.5-3.5v-4.9
			h-2v-1.1h2v-2.8h1.3v2.8h3.3V83.6z"/>
		<path d="M243.8,83.6h-2.6v-1.1h3.9v9.2h-1.3V83.6z M245.5,80.2c0,0.6-0.5,1.1-1.1,1.1s-1.1-0.5-1.1-1.1c0-0.6,0.5-1.1,1.1-1.1
			S245.5,79.6,245.5,80.2z"/>
		<path d="M258.4,90.3c-0.9,1-1.9,1.7-3.3,1.7c-1.7,0-4-1.1-4-4.7c0-3.7,2.1-4.9,3.9-4.9c1.5,0,2.6,0.8,3.4,2.1l-1.1,0.7
			c-0.5-0.9-1.1-1.7-2.3-1.7c-1.3,0-2.6,1-2.6,3.7c0,2.9,1.5,3.7,2.7,3.7c1,0,1.8-0.8,2.4-1.5L258.4,90.3z"/>
		<path d="M262.1,83c0.9-0.3,1.7-0.6,2.7-0.6c1.8,0,2.8,1.5,2.8,3v4c0,0.8,0.1,1.7,0.4,2.5l-1.2,0.2l-0.3-1.2
			c-0.6,0.7-1.3,1.1-2.3,1.1c-1.8,0-2.7-1.4-2.7-3c0-1.8,1.1-3.3,3-3.3c0.7,0,1.3,0.2,1.9,0.4v-0.9c0-1-0.6-1.7-1.6-1.7
			c-0.8,0-1.6,0.4-2.3,0.7L262.1,83z M266.3,87.2c-0.6-0.2-1.1-0.4-1.8-0.4c-1.3,0-1.8,1.1-1.8,2.3c0,0.9,0.4,1.9,1.5,1.9
			s1.6-0.8,2.1-1.6V87.2z"/>
	</g>
	<g class="st1">
		<path d="M95.7,128.7h-2.3l-1.8-6.1h-6.3l-1.8,6.1h-2.3l7.3-22.4L95.7,128.7z M85.8,120.8H91l-2.6-8.4L85.8,120.8z"/>
		<path d="M108.9,113.3h2.2v7.5c0,2.7,0.1,5.3,0.7,7.9h-2l-0.5-3c-1,1.7-3.1,3.3-5.1,3.3c-2.7,0-3.9-2.3-3.9-5v-10.7h2.2v10.1
			c0,1.4,0,3.8,1.9,3.8c2.1,0,4.6-2.4,4.6-7.6V113.3z"/>
		<path d="M127.5,115.1H122v8.8c0,1.5,0,3.3,2,3.3c1.6,0,2.6-1.4,3.3-2.7l2.1,0.5c-1,2.2-2.8,4-5.4,4c-2.5,0-4.1-1.2-4.1-5.8v-8.1
			h-3.3v-1.8h3.3v-4.7h2.2v4.7h5.5V115.1z"/>
		<path d="M134.1,121c0-6,3.2-8,6.1-8c5.4,0,6.1,5.5,6.1,8c0,6-3.2,8-6.1,8C137.5,129,134.1,127.2,134.1,121z M144.1,121
			c0-2.6-0.6-6.2-4-6.2c-3.4,0-3.9,3.6-3.9,6.2s0.6,6.2,3.9,6.2C143.5,127.2,144.1,123.6,144.1,121z"/>
		<path d="M153.7,119.3v-1.8h7.5v1.8H153.7z"/>
		<path d="M172.7,128.7h-2.2v-8.8c0-2.6-0.2-4.6-0.6-6.6h2.1l0.5,2.9c1.2-1.8,2.5-3.3,4.8-3.3c2.9,0,3.6,2.8,3.6,5.2h-2.2
			c-0.1-1.2,0.1-3.3-1.5-3.3c-1.6,0-4.5,2.4-4.5,7.5V128.7z"/>
		<path d="M185.9,121c0-6,3.2-8,6.1-8c5.4,0,6.1,5.5,6.1,8c0,6-3.2,8-6.1,8C189.3,129,185.9,127.2,185.9,121z M195.9,121
			c0-2.6-0.6-6.2-4-6.2c-3.4,0-3.9,3.6-3.9,6.2s0.6,6.2,3.9,6.2C195.3,127.2,195.9,123.6,195.9,121z"/>
		<path d="M213.9,115.1h-5.5v8.8c0,1.5,0,3.3,2,3.3c1.6,0,2.6-1.4,3.3-2.7l2.1,0.5c-1,2.2-2.8,4-5.4,4c-2.5,0-4.1-1.2-4.1-5.8v-8.1
			h-3.3v-1.8h3.3v-4.7h2.2v4.7h5.5V115.1z"/>
		<path d="M221.9,114c1.5-0.6,2.8-1.1,4.4-1.1c2.9,0,4.7,2.4,4.7,5v6.7c0,1.4,0.2,2.8,0.7,4.2l-2,0.3l-0.5-1.9
			c-1,1.2-2.2,1.9-3.8,1.9c-2.9,0-4.6-2.3-4.6-5c0-3,1.8-5.6,4.9-5.6c1.2,0,2.2,0.3,3.2,0.7v-1.5c0-1.7-1-2.9-2.6-2.9
			c-1.4,0-2.6,0.6-3.9,1.2L221.9,114z M228.9,121c-0.9-0.4-1.9-0.7-2.9-0.7c-2.2,0-3.1,1.9-3.1,3.9c0,1.4,0.7,3.1,2.4,3.1
			c1.7,0,2.7-1.4,3.6-2.6V121z"/>
		<path d="M248.4,115.1h-5.5v8.8c0,1.5,0,3.3,2,3.3c1.6,0,2.6-1.4,3.3-2.7l2.1,0.5c-1,2.2-2.8,4-5.4,4c-2.5,0-4.1-1.2-4.1-5.8v-8.1
			h-3.3v-1.8h3.3v-4.7h2.2v4.7h5.5V115.1z"/>
		<path d="M257.1,121.5c0.1,4.2,2,5.6,4.4,5.6c1.7,0,3.4-0.8,4.8-1.6l0.9,1.9c-1.9,0.9-3.8,1.5-5.9,1.5c-4.5,0-6.4-3.9-6.4-7.9
			c0-4,1.9-8.1,6.5-8.1c5.1,0,5.9,5.7,5.9,7.4v1.2H257.1z M265.2,119.7c-0.1-2.5-1.5-4.9-3.9-4.9c-2.4,0-3.6,1.8-4.2,4.9H265.2z"/>
	</g>
	<g class="st1">
		<path d="M194.1,147.7c-1-0.7-2-1.4-3.3-1.4c-1,0-2,0.8-2,1.9c0,1.2,1.4,1.8,2.4,2.1c1.9,0.7,4,1.5,4,4c0,2-1.8,3.4-3.8,3.4
			c-1.9,0-3.7-0.9-5.1-2.1l0.9-1.4c1,1,2.6,2.1,4,2.1c1.2,0,2.1-0.6,2.1-1.9c0-1.6-1.3-2-2.6-2.5c-1.8-0.7-3.8-1.5-3.8-3.7
			c0-1.8,1.7-3.2,3.8-3.2c1.5,0,2.8,0.6,4,1.4L194.1,147.7z"/>
		<path d="M210,155.5c-1.2,1.3-2.5,2.3-4.4,2.3c-2.3,0-5.3-1.4-5.3-6.3c0-4.9,2.8-6.5,5.2-6.5c2,0,3.5,1.1,4.5,2.7l-1.5,1
			c-0.6-1.2-1.5-2.3-3-2.3c-1.8,0-3.5,1.3-3.5,4.9c0,3.8,2,5,3.6,5c1.4,0,2.4-1,3.2-2L210,155.5z"/>
		<path d="M217.2,157.5h-1.7v-7.1c0-2-0.2-3.7-0.5-5.2h1.7l0.4,2.3c0.9-1.5,2-2.6,3.8-2.6c2.3,0,2.9,2.3,2.9,4.1H222
			c0-0.9,0.1-2.7-1.2-2.7c-1.3,0-3.6,1.9-3.6,6V157.5z"/>
		<path d="M229.4,151.8c0.1,3.4,1.6,4.5,3.5,4.5c1.4,0,2.7-0.6,3.8-1.3l0.7,1.5c-1.5,0.7-3,1.2-4.7,1.2c-3.6,0-5.1-3.1-5.1-6.3
			c0-3.2,1.5-6.5,5.2-6.5c4.1,0,4.7,4.6,4.7,5.9v0.9H229.4z M235.9,150.3c-0.1-2-1.2-4-3.2-4c-1.9,0-2.9,1.5-3.3,4H235.9z"/>
		<path d="M243.2,151.8c0.1,3.4,1.6,4.5,3.5,4.5c1.4,0,2.7-0.6,3.8-1.3l0.7,1.5c-1.5,0.7-3,1.2-4.7,1.2c-3.6,0-5.1-3.1-5.1-6.3
			c0-3.2,1.5-6.5,5.2-6.5c4.1,0,4.7,4.6,4.7,5.9v0.9H243.2z M249.7,150.3c-0.1-2-1.2-4-3.2-4c-1.9,0-2.9,1.5-3.3,4H249.7z"/>
		<path d="M257.6,157.5h-1.7v-6.2c0-2.1-0.1-4.2-0.6-6.1h1.7l0.4,2.3c0.9-1.5,2.5-2.5,4.2-2.5c2,0,3,1.8,3,3.9v8.7h-1.7v-8.2
			c0-1.2,0-2.9-1.5-2.9c-1.6,0-3.7,1.7-3.7,6V157.5z"/>
	</g>
</g>
<g id="Capa_3">
	<polygon points="54.6,34.4 21.9,25.3 54.6,16.2 	"/>
	<polyline class="st2" points="62.4,25.9 280.3,25.9 280.3,172.9 177.5,172.9 	"/>
</g>
</svg>
