<?xml version="1.0" encoding="utf-8"?>
<!-- Generator: Adobe Illustrator 25.0.0, SVG Export Plug-In . SVG Version: 6.00 Build 0)  -->
<svg version="1.1" id="Capa_1" xmlns="http://www.w3.org/2000/svg" xmlns:xlink="http://www.w3.org/1999/xlink" x="0px" y="0px"
	 viewBox="0 0 476.5 161" style="enable-background:new 0 0 476.5 161;" xml:space="preserve">
<style type="text/css">
	.st0{fill:#FFFFFF;}
</style>
<g>
	<polygon points="172.6,122 37.2,78.2 172.6,34.3 	"/>
	<g>
		<g>
			<path class="st0" d="M84.7,79.6c29.3,0,58.6,0,87.9,0c1.6,0,1.6-2.5,0-2.5c-29.3,0-58.6,0-87.9,0C83.1,77.1,83.1,79.6,84.7,79.6
				L84.7,79.6z"/>
		</g>
	</g>
	<g>
		<g>
			<path class="st0" d="M110.7,92.4c5.6-4.3,11.1-8.6,16.7-12.9c1.3-1-0.5-2.7-1.8-1.8c-5.6,4.3-11.1,8.6-16.7,12.9
				C107.6,91.6,109.4,93.4,110.7,92.4L110.7,92.4z"/>
		</g>
	</g>
	<g>
		<g>
			<path class="st0" d="M115,65c5.6,4.6,11.1,9.2,16.7,13.8c1.2,1,3-0.7,1.8-1.8c-5.6-4.6-11.1-9.2-16.7-13.8
				C115.5,62.2,113.7,64,115,65L115,65z"/>
		</g>
	</g>
	<g>
		<g>
			<path class="st0" d="M137.5,64.1c5.6,4.9,11.1,9.8,16.7,14.7c1.2,1.1,3-0.7,1.8-1.8c-5.6-4.9-11.1-9.8-16.7-14.7
				C138.1,61.3,136.3,63.1,137.5,64.1L137.5,64.1z"/>
		</g>
	</g>
	<g>
		<g>
			<path class="st0" d="M132.3,94c5.6-4.9,11.1-9.8,16.7-14.7c1.2-1.1-0.6-2.8-1.8-1.8c-5.6,4.9-11.1,9.8-16.7,14.7
				C129.3,93.3,131.1,95,132.3,94L132.3,94z"/>
		</g>
	</g>
</g>
<g>
	<path d="M201.4,35.3h8.4c8.1,0,8.8,7.3,8.8,9.2c0,3.3-1.3,6.4-5.8,9l8.7,14.3h-4.1l-7.9-13.5c-1.6,0-3.2,0-4.9,0.1v13.4h-3.4V35.3z
		 M208,51.4c4.6,0,7.3-2.3,7.3-7.1c0-4.3-1.8-6.2-7.2-6.2h-3.3v13.3H208z"/>
	<path d="M245,35.3v23.9c0,6.1-4.6,9.1-9,9.1c-3.5,0-9-2-9-10.9V35.3h3.4v23.9c0,4.7,3,6.3,5.6,6.3c4.1,0,5.6-3.1,5.6-6.7V35.3H245z
		"/>
	<path d="M273.9,38.1h-9.2v29.6h-3.4V38.1h-9v-2.8h21.6V38.1z"/>
	<path d="M301.6,67.7h-3.6l-2.9-9.5h-9.9l-2.9,9.5h-3.6l11.4-35.1L301.6,67.7z M286,55.3h8.2l-4.1-13.1L286,55.3z"/>
	<path d="M214.9,96.3c0-2.7-2-4.8-4.7-4.8c-6.8,0-7.3,9.3-7.3,14.3c0,4.7,0.5,13.7,7,13.7c3.4,0,5.4-2.5,5.4-5.7h3.4
		c-0.4,5.3-3.6,8.5-9,8.5c-8.9,0-10.2-9.8-10.2-16.6c0-7.1,1.5-17,10.6-17c4.5,0,7.9,3.1,8.1,7.6H214.9z"/>
	<path d="M236,88.7c9.4,0,9.9,10.8,9.9,16.8c0,4.3,0.3,16.8-9.9,16.8c-10,0-9.9-12.2-9.9-16.8C226.1,92,230.6,88.7,236,88.7z
		 M242.6,105.5c0-3,0.4-14-6.6-14c-7.2,0-6.6,12.1-6.6,14c0,3.7-0.2,14,6.6,14C239.4,119.5,242.6,117.2,242.6,105.5z"/>
	<path d="M254.7,89.3h3.9l9.9,24.2h0.1V89.3h3.4V122h-3.2l-10.6-26.1l-0.1,0.1v25.7h-3.4V89.3z"/>
	<path d="M295.9,96.3c0-2.7-2-4.8-4.7-4.8c-6.8,0-7.3,9.3-7.3,14.3c0,4.7,0.5,13.7,7,13.7c3.4,0,5.4-2.5,5.4-5.7h3.4
		c-0.4,5.3-3.6,8.5-9,8.5c-8.9,0-10.2-9.8-10.2-16.6c0-7.1,1.5-17,10.6-17c4.5,0,7.9,3.1,8.1,7.6H295.9z"/>
	<path d="M313.9,118.9h14v2.8h-17.4V89.3h3.4V118.9z"/>
	<path d="M353,89.3v23.9c0,6.1-4.6,9.1-9,9.1c-3.5,0-9-2-9-10.9V89.3h3.4v23.9c0,4.7,3,6.3,5.6,6.3c4.1,0,5.6-3.1,5.6-6.7V89.3H353z
		"/>
	<path d="M377.1,92.1h-4.4v26.7h4.4v2.8H365v-2.8h4.4V92.1H365v-2.8h12.1V92.1z"/>
	<path d="M389.6,89.3h8.2c6.3,0,10.4,3.6,10.4,16.2c0,12.5-3.9,16.2-10.9,16.2h-7.7V89.3z M393,118.9h4.1c4.7,0,7.8-1.3,7.8-13.4
		c0-12.4-3.6-13.4-7.9-13.4h-4V118.9z"/>
	<path d="M436.6,121.7h-3.6l-2.9-9.5h-9.9l-2.9,9.5h-3.6l11.4-35.1L436.6,121.7z M421,109.3h8.2l-4.1-13.1L421,109.3z"/>
</g>
</svg>
