<?xml version="1.0" encoding="utf-8"?>
<!-- Generator: Adobe Illustrator 25.0.0, SVG Export Plug-In . SVG Version: 6.00 Build 0)  -->
<svg version="1.1" id="Capa_1" xmlns="http://www.w3.org/2000/svg" xmlns:xlink="http://www.w3.org/1999/xlink" x="0px" y="0px"
	 viewBox="0 0 476.5 161" style="enable-background:new 0 0 476.5 161;" xml:space="preserve">
<style type="text/css">
	.st0{fill:#1D1D1B;}
	.st1{fill:#FFFFFF;}
</style>
<g>
	<polygon class="st0" points="185.8,126 50.4,82.1 185.8,38.3 	"/>
	<g>
		<g>
			<path class="st1" d="M97.9,83.6c2.9,0,5.8,0,8.7,0c7,0,14,0,21,0c8.5,0,16.9,0,25.4,0c7.3,0,14.6,0,22,0c3.5,0,7.2,0.3,10.7,0
				c0.1,0,0.1,0,0.2,0c1.6,0,1.6-2.5,0-2.5c-2.9,0-5.8,0-8.7,0c-7,0-14,0-21,0c-8.5,0-16.9,0-25.4,0c-7.3,0-14.6,0-22,0
				c-3.5,0-7.2-0.3-10.7,0c-0.1,0-0.1,0-0.2,0C96.3,81.1,96.3,83.6,97.9,83.6L97.9,83.6z"/>
		</g>
	</g>
	<g>
		<g>
			<path class="st1" d="M123.8,96.4c4.9-3.8,9.7-7.5,14.6-11.3c0.7-0.5,1.4-1.1,2.1-1.6c0.5-0.4,0.4-1.3,0-1.8
				c-0.5-0.5-1.2-0.4-1.8,0c-4.9,3.8-9.7,7.5-14.6,11.3c-0.7,0.5-1.4,1.1-2.1,1.6c-0.5,0.4-0.4,1.3,0,1.8
				C122.6,96.9,123.3,96.8,123.8,96.4L123.8,96.4z"/>
		</g>
	</g>
	<g>
		<g>
			<path class="st1" d="M128.1,69c4.9,4,9.8,8.1,14.6,12.1c0.7,0.6,1.4,1.1,2.1,1.7c1.2,1,3-0.7,1.8-1.8c-4.9-4-9.8-8.1-14.6-12.1
				c-0.7-0.6-1.4-1.1-2.1-1.7C128.6,66.2,126.8,68,128.1,69L128.1,69z"/>
		</g>
	</g>
	<g>
		<g>
			<path class="st1" d="M150.7,68.1c4.9,4.3,9.8,8.6,14.6,12.9c0.7,0.6,1.4,1.2,2.1,1.8c1.2,1.1,3-0.7,1.8-1.8
				c-4.9-4.3-9.8-8.6-14.6-12.9c-0.7-0.6-1.4-1.2-2.1-1.8C151.2,65.3,149.4,67,150.7,68.1L150.7,68.1z"/>
		</g>
	</g>
	<g>
		<g>
			<path class="st1" d="M145.4,97.9c4.9-4.3,9.7-8.6,14.6-12.9c0.7-0.6,1.4-1.2,2-1.8c1.2-1.1-0.6-2.8-1.8-1.8
				c-4.9,4.3-9.7,8.6-14.6,12.9c-0.7,0.6-1.4,1.2-2,1.8C142.4,97.2,144.2,99,145.4,97.9L145.4,97.9z"/>
		</g>
	</g>
</g>
<g>
	<path class="st0" d="M232.9,42.1h-14v11.2h10.5v2.8h-10.5v15.5h-3.4V39.3h17.4V42.1z"/>
	<path class="st0" d="M255.3,42.1h-4.4v26.7h4.4v2.8h-12.1v-2.8h4.4V42.1h-4.4v-2.8h12.1V42.1z"/>
	<path class="st0" d="M267.9,39.3h3.9l9.9,24.2h0.1V39.3h3.4V72h-3.2l-10.6-26.1l-0.1,0.1v25.7h-3.4V39.3z"/>
	<path class="st0" d="M309.3,42.1h-4.4v26.7h4.4v2.8h-12.1v-2.8h4.4V42.1h-4.4v-2.8h12.1V42.1z"/>
	<path class="st0" d="M337.2,45.1c-2-1.8-4.2-3.6-7-3.6c-2.9,0-5.2,2-5.2,4.9c0,1.7,0.3,3.2,4.7,5.9l2.6,1.6
		c5.9,3.6,7.6,5.4,7.6,9.1c0,5.8-3.9,9.3-9.5,9.3c-4.2,0-7.3-2-9.8-5.3l2.6-2.1c1.6,2.5,4.1,4.5,7.2,4.5c3.4,0,6.2-2.5,6.2-6
		c0-2.6-0.2-3.5-5.9-6.9l-2.9-1.8c-3.2-1.9-6-4.1-6-8.1c0-5.1,3.9-8,8.7-8c3.4,0,6.5,1.8,8.9,4L337.2,45.1z"/>
	<path class="st0" d="M351.6,53.4h11.2V39.3h3.4v32.4h-3.4V56.3h-11.2v15.4h-3.4V39.3h3.4V53.4z"/>
	<path class="st0" d="M393.8,42.1h-13.5v11.5h9.7v2.8h-9.7v12.4h13.8v2.8h-17.1V39.3h16.8V42.1z"/>
	<path class="st0" d="M402.7,39.3h8.2c6.3,0,10.4,3.6,10.4,16.2c0,12.5-3.9,16.2-10.9,16.2h-7.7V39.3z M406.1,68.8h4.1
		c4.7,0,7.8-1.3,7.8-13.4c0-12.4-3.6-13.4-7.9-13.4h-4V68.8z"/>
	<path class="st0" d="M214.6,93.3h8.4c8.1,0,8.8,7.3,8.8,9.2c0,3.3-1.3,6.4-5.8,9l8.7,14.3h-4.1l-7.9-13.5c-1.6,0-3.2,0-4.9,0.1
		v13.4h-3.4V93.3z M221.1,109.4c4.6,0,7.3-2.3,7.3-7.1c0-4.3-1.8-6.2-7.2-6.2H218v13.3H221.1z"/>
	<path class="st0" d="M249.2,92.6c9.5,0,9.9,10.8,9.9,16.8c0,4.3,0.3,16.8-9.9,16.8c-10,0-9.9-12.2-9.9-16.8
		C239.2,95.9,243.7,92.6,249.2,92.6z M255.8,109.5c0-3,0.4-14-6.6-14c-7.2,0-6.6,12.1-6.6,14c0,3.7-0.2,14,6.6,14
		C252.6,123.5,255.8,121.2,255.8,109.5z"/>
	<path class="st0" d="M285.1,93.3v23.9c0,6.1-4.6,9.1-9,9.1c-3.5,0-9-2-9-10.9V93.3h3.4v23.9c0,4.7,3,6.3,5.6,6.3
		c4.1,0,5.6-3.1,5.6-6.7V93.3H285.1z"/>
	<path class="st0" d="M314,96.1h-9.2v29.6h-3.4V96.1h-9v-2.8H314V96.1z"/>
	<path class="st0" d="M339.8,96.1h-13.5v11.5h9.7v2.8h-9.7v12.4h13.8v2.8h-17.1V93.3h16.8V96.1z"/>
</g>
</svg>
