<?xml version="1.0" encoding="utf-8"?>
<!-- Generator: Adobe Illustrator 25.0.0, SVG Export Plug-In . SVG Version: 6.00 Build 0)  -->
<svg version="1.1" xmlns="http://www.w3.org/2000/svg" xmlns:xlink="http://www.w3.org/1999/xlink" x="0px" y="0px"
	 viewBox="0 0 95.1 90.1" style="enable-background:new 0 0 95.1 90.1;" xml:space="preserve">
<g id="Capa_2">
</g>
<g id="Capa_1">
	<g>
		<path d="M69.7,28.3c-2-1.6-5-1.4-6.7,0.7c-1.7,2.1-1.3,5.1,0.8,6.8c2.7,2.2,4.4,5.6,4.4,9.3c0,4-1.9,7.5-4.9,9.7
			c-1.9,1.4-2.2,4.2-0.7,6l0.4,0.4c1.6,1.9,4.6,2.3,6.5,0.8c5-3.9,8.2-10.1,8.2-16.9C77.7,38.3,74.6,32.3,69.7,28.3z"/>
		<path d="M80.6,14.9c-2-1.6-4.9-1.2-6.6,0.7l0,0c-1.6,2-1.4,5,0.6,6.6c6.6,5.5,10.9,13.7,10.9,22.9S81.2,62.6,74.6,68
			c-2,1.6-2.2,4.6-0.6,6.6l0,0c1.6,2,4.6,2.4,6.6,0.8c8.8-7.1,14.5-18,14.5-30.2C95,32.9,89.4,22,80.6,14.9z"/>
		<path d="M41.8,7.6L17.5,26.3H5.6c-3.1,0-5.6,2.5-5.6,5.6v26.4c0,3.1,2.5,5.6,5.6,5.6h11.9l24.4,18.7c4.3,3.3,10.4,0.3,10.4-5.2
			V12.7C52.3,7.4,46.1,4.3,41.8,7.6z"/>
	</g>
</g>
</svg>
